<svg xmlns="http://www.w3.org/2000/svg" xmlns:xlink="http://www.w3.org/1999/xlink" xmlns:lucid="lucid" width="1871" height="1028"><g transform="translate(0 -152)" lucid:page-tab-id="0_0"><path d="M248.88 242.35c0 15.97-12.94 28.9-28.9 28.9-15.97 0-28.92-12.93-28.92-28.9 0-15.96 12.95-28.9 28.9-28.9 15.98 0 28.92 12.94 28.92 28.9z" stroke="#5e5e5e" stroke-width="3" fill="#ffdf71"/><path d="M219.97 271.26v79.1c0 3.3 1.4 8.28 3.1 11.12l54.72 90.13m-57.83-95.25l-57.8 95.26m0-151.43h115.62" stroke="#5e5e5e" stroke-width="3" fill="none"/><path d="M162.16 219.45c0-3.32 2.68-6 6-6H271.8c3.3 0 6 2.68 6 6V467.6c0 3.33-2.7 6-6 6H168.15c-3.32 0-6-2.67-6-6z" fill="none"/><use xlink:href="#a" transform="matrix(1,0,0,1,82.15575994177178,451.6134453781512) translate(89.73456790123458 24.88888888888888)"/><path d="M124.34 624.15c0-3.3 2.7-6 6-6H329.6c3.3 0 6 2.7 6 6V785.6c0 3.3-2.7 6-6 6H130.34c-3.3 0-6-2.7-6-6z" stroke="#5e5e5e" stroke-width="3" fill="url(#b)"/><path d="M104.34 657.5c0-3.3 2.7-6 6-6h28c3.3 0 6 2.7 6 6v8c0 3.33-2.7 6-6 6h-28c-3.3 0-6-2.67-6-6z" stroke="#5e5e5e" stroke-width="3" fill="url(#c)"/><path d="M104.34 744.24c0-3.32 2.7-6 6-6h28c3.3 0 6 2.68 6 6v8c0 3.3-2.7 6-6 6h-28c-3.3 0-6-2.7-6-6z" stroke="#5e5e5e" stroke-width="3" fill="url(#d)"/><use xlink:href="#e" transform="matrix(1,0,0,1,150.59273473168776,635.4957983193275) translate(20.592592592592624 57.055555555555564)"/><use xlink:href="#f" transform="matrix(1,0,0,1,150.59273473168776,635.4957983193275) translate(46.51851851851853 94.38888888888889)"/><path d="M644.68 277.26c0-3.3 2.68-6 6-6h199.26c3.3 0 6 2.7 6 6V438.7c0 3.32-2.7 6-6 6H650.68c-3.32 0-6-2.68-6-6z" stroke="#5e5e5e" stroke-width="3" fill="url(#g)"/><path d="M624.68 310.62c0-3.3 2.68-6 6-6h28c3.3 0 6 2.7 6 6v8c0 3.32-2.7 6-6 6h-28c-3.32 0-6-2.68-6-6z" stroke="#5e5e5e" stroke-width="3" fill="url(#h)"/><path d="M624.68 397.34c0-3.3 2.68-6 6-6h28c3.3 0 6 2.7 6 6v8c0 3.32-2.7 6-6 6h-28c-3.32 0-6-2.68-6-6z" stroke="#5e5e5e" stroke-width="3" fill="url(#i)"/><use xlink:href="#j" transform="matrix(1,0,0,1,670.9288691854692,288.6050420168066) translate(-14.796296296296234 75.72222222222223)"/><path d="M644.68 913.23c0-3.32 2.68-6 6-6h199.26c3.3 0 6 2.68 6 6v161.44c0 3.32-2.7 6-6 6H650.68c-3.32 0-6-2.68-6-6z" stroke="#5e5e5e" stroke-width="3" fill="url(#k)"/><path d="M624.68 946.6c0-3.33 2.68-6 6-6h28c3.3 0 6 2.67 6 6v8c0 3.3-2.7 6-6 6h-28c-3.32 0-6-2.7-6-6z" stroke="#5e5e5e" stroke-width="3" fill="url(#l)"/><path d="M624.68 1033.3c0-3.3 2.68-6 6-6h28c3.3 0 6 2.7 6 6v8c0 3.32-2.7 6-6 6h-28c-3.32 0-6-2.68-6-6z" stroke="#5e5e5e" stroke-width="3" fill="url(#m)"/><use xlink:href="#n" transform="matrix(1,0,0,1,670.9288691854692,924.5714285714283) translate(20.67901234567904 57.055555555555564)"/><use xlink:href="#o" transform="matrix(1,0,0,1,670.9288691854692,924.5714285714283) translate(20.549382716049408 94.38888888888889)"/><path d="M1029.38 963.94c0-3.3 2.7-6 6-6h150.97c3.3 0 6-2.7 6-6V926c0-3.3 1.8-4 4-1.54l60.28 66.96c2.22 2.47 2.22 6.46 0 8.92l-60.27 66.96c-2.2 2.47-4 1.78-4-1.54v-25.94c0-3.3-2.7-6-6-6h-150.98c-3.3 0-6-2.68-6-6z" stroke="#5e5e5e" stroke-width="3" fill="url(#p)"/><use xlink:href="#q" transform="matrix(1,0,0,1,1034.3826506980745,924.9999999999998) translate(64.24691358024694 78.13888888888889)"/><path d="M219.97 481.5v133.65M219.97 481.54V480" stroke="#5e5e5e" stroke-width="3" fill="none"/><path d="M221.47 616.65h-3v-1.54h3z" fill="#5e5e5e"/><path d="M471.23 624.15c0-3.3 2.7-6 6-6H676.5c3.3 0 6 2.7 6 6V785.6c0 3.3-2.7 6-6 6H477.22c-3.3 0-6-2.7-6-6z" stroke="#5e5e5e" stroke-width="3" fill="url(#r)"/><path d="M451.23 657.5c0-3.3 2.7-6 6-6h28c3.32 0 6 2.7 6 6v8c0 3.33-2.68 6-6 6h-28c-3.3 0-6-2.67-6-6z" stroke="#5e5e5e" stroke-width="3" fill="url(#s)"/><path d="M451.23 744.24c0-3.32 2.7-6 6-6h28c3.32 0 6 2.68 6 6v8c0 3.3-2.68 6-6 6h-28c-3.3 0-6-2.7-6-6z" stroke="#5e5e5e" stroke-width="3" fill="url(#t)"/><use xlink:href="#u" transform="matrix(1,0,0,1,497.4834910342088,635.4957983193275) translate(27.549382716049408 75.72222222222223)"/><path d="M1049.38 277.26c0-3.3 2.7-6 6-6h199.26c3.32 0 6 2.7 6 6V438.7c0 3.32-2.68 6-6 6h-199.26c-3.3 0-6-2.68-6-6z" stroke="#5e5e5e" stroke-width="3" fill="url(#v)"/><path d="M1029.38 310.62c0-3.3 2.7-6 6-6h28c3.32 0 6 2.7 6 6v8c0 3.32-2.68 6-6 6h-28c-3.3 0-6-2.68-6-6z" stroke="#5e5e5e" stroke-width="3" fill="url(#w)"/><path d="M1029.38 397.34c0-3.3 2.7-6 6-6h28c3.32 0 6 2.7 6 6v8c0 3.32-2.68 6-6 6h-28c-3.3 0-6-2.68-6-6z" stroke="#5e5e5e" stroke-width="3" fill="url(#x)"/><use xlink:href="#y" transform="matrix(1,0,0,1,1075.6347515384107,288.6050420168066) translate(14.500000000000028 75.72222222222223)"/><path d="M1645.73 239.45h143.7c3.32 0 6 2.68 6 6v713.6c0 3.3-2.68 6-6 6h-392.7c-3.32 0-6-2.7-6-6v-739.6c0-3.32 2.68-6 6-6h231c3.3 0 7.12 2.43 8.5 5.44zm-255 0h255" stroke="#5e5e5e" stroke-width="3" fill="#ffeca9"/><use xlink:href="#z" transform="matrix(1,0,0,1,1398.7271885132002,213.44537815126046) translate(44.771604938271636 24.88888888888888)"/><path d="M1497.45 392.9c0-3.32 2.7-6 6-6h199.26c3.32 0 6 2.68 6 6v161.44c0 3.3-2.68 6-6 6h-199.25c-3.3 0-6-2.7-6-6z" stroke="#5e5e5e" stroke-width="3" fill="url(#A)"/><path d="M1477.45 426.25c0-3.3 2.7-6 6-6h28c3.3 0 6 2.7 6 6v8c0 3.32-2.7 6-6 6h-28c-3.3 0-6-2.68-6-6z" stroke="#5e5e5e" stroke-width="3" fill="url(#B)"/><path d="M1477.45 512.97c0-3.3 2.7-6 6-6h28c3.3 0 6 2.7 6 6v8c0 3.32-2.7 6-6 6h-28c-3.3 0-6-2.68-6-6z" stroke="#5e5e5e" stroke-width="3" fill="url(#C)"/><use xlink:href="#D" transform="matrix(1,0,0,1,1523.7019784291665,404.23529411764696) translate(12.814814814814852 75.72222222222223)"/><path d="M1497.45 710.87c0-3.3 2.7-6 6-6h199.26c3.32 0 6 2.7 6 6v161.45c0 3.3-2.68 6-6 6h-199.25c-3.3 0-6-2.7-6-6z" stroke="#5e5e5e" stroke-width="3" fill="url(#E)"/><path d="M1477.45 744.24c0-3.32 2.7-6 6-6h28c3.3 0 6 2.68 6 6v8c0 3.3-2.7 6-6 6h-28c-3.3 0-6-2.7-6-6z" stroke="#5e5e5e" stroke-width="3" fill="url(#F)"/><path d="M1477.45 830.96c0-3.32 2.7-6 6-6h28c3.3 0 6 2.68 6 6v8c0 3.3-2.7 6-6 6h-28c-3.3 0-6-2.7-6-6z" stroke="#5e5e5e" stroke-width="3" fill="url(#G)"/><use xlink:href="#H" transform="matrix(1,0,0,1,1523.7019784291665,722.2184873949578) translate(41.29012345679015 75.72222222222223)"/><path d="M1173.92 560.34c0 15.96-12.94 28.9-28.9 28.9-15.97 0-28.9-12.94-28.9-28.9 0-15.97 12.93-28.9 28.9-28.9 15.96 0 28.9 12.93 28.9 28.9z" stroke="#5e5e5e" stroke-width="3" fill="#ffdf71"/><path d="M1145 589.24v79.1c0 3.3 1.4 8.3 3.13 11.12l54.7 90.14M1145 674.33l-57.8 95.27m0-151.45h115.63" stroke="#5e5e5e" stroke-width="3" fill="none"/><path d="M1087.2 537.43c0-3.32 2.68-6 6-6h103.63c3.3 0 6 2.68 6 6V785.6c0 3.3-2.7 6-6 6H1093.2c-3.32 0-6-2.7-6-6z" fill="none"/><use xlink:href="#I" transform="matrix(1,0,0,1,1007.1977767484948,769.5966386554622) translate(8.543209876543301 24.88888888888888)"/><use xlink:href="#J" transform="matrix(1,0,0,1,1007.1977767484948,769.5966386554622) translate(139.7283950617284 24.88888888888888)"/><path d="M1201.4 640.54l273.15 105.34M1201.44 640.55L1200 640" stroke="#5e5e5e" stroke-width="3" fill="none"/><path d="M1475.95 744.82v3.2l-1.98-.75 1.08-2.8z" fill="#5e5e5e"/><path d="M468.23 704.87h-5.52m-11.05 0H440.6m-11.05 0H418.5m-11.05 0H396.4m-11.05 0H374.3m-11.05 0h-5.53" stroke="#5e5e5e" stroke-width="3" fill="none"/><path d="M469.73 706.37h-1.54v-3h1.53z" fill="#5e5e5e"/><path d="M341.96 704.87l14.26-4.63v9.27z" stroke="#5e5e5e" stroke-width="3" fill="#5e5e5e"/><path d="M695.52 447.55l-2.7 5.38m-5.37 10.76l-5.38 10.75m-5.38 10.76l-5.4 10.77m-5.37 10.77l-5.38 10.76m-5.38 10.76l-5.38 10.76m-5.4 10.76l-5.37 10.76m-5.38 10.76l-5.38 10.77m-5.4 10.76l-2.68 5.38" stroke="#5e5e5e" stroke-width="3" fill="none"/><path d="M696.85 448.25l-2.68-1.34.35-.7h3.35z" fill="#5e5e5e"/><path d="M613.14 612.3l2.24-14.82 8.3 4.14z" stroke="#5e5e5e" stroke-width="3" fill="#5e5e5e"/><path d="M740.3 904.23v-6.08m0-12.15v-12.15m0-12.15v-12.15m0-12.15v-12.15m0-12.15v-12.15m0-12.15v-12.15m0-12.15v-12.15m0-12.15v-12.15m0-12.15v-12.15m0-12.15v-12.15m0-12.15v-12.15m0-12.15v-12.15m0-12.15v-12.15m0-12.15v-12.15m0-12.15v-12.15m0-12.15v-12.15m0-12.15v-12.15m0-12.15v-12.15m0-12.15v-6.07" stroke="#5e5e5e" stroke-width="3" fill="none"/><path d="M741.8 905.73h-3v-1.54h3z" fill="#5e5e5e"/><path d="M740.3 451.06l4.64 14.27h-9.27z" stroke="#5e5e5e" stroke-width="3" fill="#5e5e5e"/><path d="M620.57 794.38l2.8 4.7m5.63 9.35l5.62 9.37m5.62 9.36l5.62 9.37m5.62 9.37l5.62 9.36m5.62 9.37l5.6 9.37m5.63 9.36l2.8 4.7" stroke="#5e5e5e" stroke-width="3" fill="none"/><path d="M621.87 793.64l-2.57 1.55-1.25-2.1h3.5z" fill="#5e5e5e"/><path d="M684.88 901.56l-11.32-9.84 7.95-4.77z" stroke="#5e5e5e" stroke-width="3" fill="#5e5e5e"/><path d="M1046.38 357.98h-6m-12.03 0h-12.03m-12.02 0h-12.02m-12.03 0h-12.02m-12.02 0h-12m-12.04 0h-12.02m-12.02 0H896.1m-12.03 0h-6" stroke="#5e5e5e" stroke-width="3" fill="none"/><path d="M1047.88 359.48h-1.54v-3h1.54z" fill="#5e5e5e"/><path d="M862.3 357.98l14.26-4.63v9.27z" stroke="#5e5e5e" stroke-width="3" fill="#5e5e5e"/><path d="M1494.5 448.17l-5.9-1.52m-11.8-3.04l-11.8-3.04m-11.8-3.04l-11.8-3.05m-11.8-3.04l-11.8-3.05m-11.8-3.04l-11.8-3.05m-11.8-3.05l-11.8-3.05m-11.8-3.04l-11.8-3.05m-11.8-3.03l-11.8-3.05m-11.8-3.04l-11.8-3.05m-11.8-3.04l-5.9-1.54" stroke="#5e5e5e" stroke-width="3" fill="none"/><path d="M1495.95 447v3.1l-1.86-.48.74-2.9z" fill="#5e5e5e"/><path d="M1266.84 389.42l14.97-.92-2.3 8.98z" stroke="#5e5e5e" stroke-width="3" fill="#5e5e5e"/><path d="M1494.5 815l-5.94 1.4m-11.87 2.8l-11.87 2.83m-11.87 2.8l-11.86 2.83m-11.87 2.82l-11.86 2.8m-11.87 2.83l-11.86 2.82m-11.87 2.82l-11.86 2.8m-11.86 2.83l-11.86 2.8M1334.3 853l-11.85 2.82m-11.87 2.8l-11.87 2.83m-11.85 2.8l-11.87 2.83m-11.86 2.8l-11.87 2.83m-11.86 2.82l-11.88 2.82m-11.86 2.8l-11.87 2.83m-11.87 2.82l-11.87 2.8m-11.86 2.82l-11.87 2.8m-11.86 2.83l-11.87 2.8m-11.86 2.83l-11.87 2.8m-11.86 2.83l-11.86 2.82m-11.86 2.82l-11.87 2.82m-11.85 2.8l-11.87 2.83m-11.86 2.8l-11.87 2.82m-11.87 2.8l-11.86 2.83m-11.87 2.8l-11.86 2.83m-11.88 2.8l-11.86 2.83m-11.87 2.83l-11.87 2.8m-11.87 2.83l-11.86 2.8M883.43 960l-5.93 1.4" stroke="#5e5e5e" stroke-width="3" fill="none"/><path d="M1495.95 816.2l-1.15.26-.7-2.92 1.85-.44z" fill="#5e5e5e"/><path d="M862.16 965.04l12.8-7.8 2.15 9z" stroke="#5e5e5e" stroke-width="3" fill="#5e5e5e"/><path d="M1026.88 995.33l-168.44-.82" stroke="#5e5e5e" stroke-width="2" fill="none"/><path d="M1027.88 994.33v2h-1.03v-2zM858.47 993.5v2h-1.03v-2z" fill="#5e5e5e"/><path d="M1593.08 562.84V573m0 10.18v20.33m0 10.18v20.34m0 10.17v20.33m0 10.17v10.17" stroke="#5e5e5e" stroke-width="2" fill="none"/><path d="M1594.08 562.86h-2v-1.02h2z" fill="#5e5e5e"/><path d="M1593.08 700.14l-4.64-14.27h9.28z" stroke="#5e5e5e" stroke-width="2" fill="#5e5e5e"/><path d="M80 46c0-3.3 2.7-6 6-6h1635.73c3.3 0 6 2.7 6 6v125.3c0 3.32-2.7 6-6 6H86c-3.3 0-6-2.68-6-6z" stroke="#000" stroke-opacity="0" stroke-width="3" fill="#fff" fill-opacity="0"/><g><use xlink:href="#K" transform="matrix(1,0,0,1,85,44.99999999999993) translate(258.7037037037046 76.8888888888888)"/><use xlink:href="#L" transform="matrix(1,0,0,1,85,44.99999999999993) translate(585.8148148148152 76.8888888888888)"/><use xlink:href="#M" transform="matrix(1,0,0,1,85,44.99999999999993) translate(684.5802469135805 76.8888888888888)"/><use xlink:href="#L" transform="matrix(1,0,0,1,85,44.99999999999993) translate(1008.333333333333 76.8888888888888)"/><use xlink:href="#N" transform="matrix(1,0,0,1,85,44.99999999999993) translate(1107.0987654320984 76.8888888888888)"/></g><defs><path fill="#333" d="M212-179c-10-28-35-45-73-45-59 0-87 40-87 99 0 60 29 101 89 101 43 0 62-24 78-52l27 14C228-24 195 4 139 4 59 4 22-46 18-125c-6-104 99-153 187-111 19 9 31 26 39 46" id="O"/><path fill="#333" d="M24 0v-261h32V0H24" id="P"/><path fill="#333" d="M24-231v-30h32v30H24zM24 0v-190h32V0H24" id="Q"/><path fill="#333" d="M100-194c63 0 86 42 84 106H49c0 40 14 67 53 68 26 1 43-12 49-29l28 8c-11 28-37 45-77 45C44 4 14-33 15-96c1-61 26-98 85-98zm52 81c6-60-76-77-97-28-3 7-6 17-6 28h103" id="R"/><path fill="#333" d="M117-194c89-4 53 116 60 194h-32v-121c0-31-8-49-39-48C34-167 62-67 57 0H25l-1-190h30c1 10-1 24 2 32 11-22 29-35 61-36" id="S"/><path fill="#333" d="M59-47c-2 24 18 29 38 22v24C64 9 27 4 27-40v-127H5v-23h24l9-43h21v43h35v23H59v120" id="T"/><g id="a"><use transform="matrix(0.0864197530864197,0,0,0.0864197530864197,0,0)" xlink:href="#O"/><use transform="matrix(0.0864197530864197,0,0,0.0864197530864197,22.382716049382704,0)" xlink:href="#P"/><use transform="matrix(0.0864197530864197,0,0,0.0864197530864197,29.209876543209862,0)" xlink:href="#Q"/><use transform="matrix(0.0864197530864197,0,0,0.0864197530864197,36.03703703703702,0)" xlink:href="#R"/><use transform="matrix(0.0864197530864197,0,0,0.0864197530864197,53.32098765432096,0)" xlink:href="#S"/><use transform="matrix(0.0864197530864197,0,0,0.0864197530864197,70.60493827160491,0)" xlink:href="#T"/><use transform="matrix(0.0864197530864197,0,0,0.0864197530864197,79.24691358024688,0)" xlink:href="#R"/></g><linearGradient gradientUnits="userSpaceOnUse" id="b" x1="104.34" y1="618.15" x2="335.6" y2="764.5"><stop offset="0%" stop-color="#c1e4f7"/><stop offset="0%" stop-color="#99d2f2"/><stop offset="97.48%" stop-color="#3aa6dd"/></linearGradient><linearGradient gradientUnits="userSpaceOnUse" id="c" x1="104.34" y1="618.15" x2="335.6" y2="764.5"><stop offset="0%" stop-color="#c1e4f7"/><stop offset="0%" stop-color="#99d2f2"/><stop offset="97.48%" stop-color="#3aa6dd"/></linearGradient><linearGradient gradientUnits="userSpaceOnUse" id="d" x1="104.34" y1="618.15" x2="335.6" y2="764.5"><stop offset="0%" stop-color="#c1e4f7"/><stop offset="0%" stop-color="#99d2f2"/><stop offset="97.48%" stop-color="#3aa6dd"/></linearGradient><path d="M240 0l2-218c-23 76-54 145-80 218h-23L58-218 59 0H30v-248h44l77 211c21-75 51-140 76-211h43V0h-30" id="U"/><path d="M100-194c63 0 86 42 84 106H49c0 40 14 67 53 68 26 1 43-12 49-29l28 8c-11 28-37 45-77 45C44 4 14-33 15-96c1-61 26-98 85-98zm52 81c6-60-76-77-97-28-3 7-6 17-6 28h103" id="V"/><path d="M114-163C36-179 61-72 57 0H25l-1-190h30c1 12-1 29 2 39 6-27 23-49 58-41v29" id="W"/><path d="M96-169c-40 0-48 33-48 73s9 75 48 75c24 0 41-14 43-38l32 2c-6 37-31 61-74 61-59 0-76-41-82-99-10-93 101-131 147-64 4 7 5 14 7 22l-32 3c-4-21-16-35-41-35" id="X"/><path d="M141-36C126-15 110 5 73 4 37 3 15-17 15-53c-1-64 63-63 125-63 3-35-9-54-41-54-24 1-41 7-42 31l-33-3c5-37 33-52 76-52 45 0 72 20 72 64v82c-1 20 7 32 28 27v20c-31 9-61-2-59-35zM48-53c0 20 12 33 32 33 41-3 63-29 60-74-43 2-92-5-92 41" id="Y"/><path d="M85-194c31 0 48 13 60 33l-1-100h32l1 261h-30c-2-10 0-23-3-31C134-8 116 4 85 4 32 4 16-35 15-94c0-66 23-100 70-100zm9 24c-40 0-46 34-46 75 0 40 6 74 45 74 42 0 51-32 51-76 0-42-9-74-50-73" id="Z"/><path d="M100-194c62-1 85 37 85 99 1 63-27 99-86 99S16-35 15-95c0-66 28-99 85-99zM99-20c44 1 53-31 53-75 0-43-8-75-51-75s-53 32-53 75 10 74 51 75" id="aa"/><g id="e"><use transform="matrix(0.0864197530864197,0,0,0.0864197530864197,0,0)" xlink:href="#U"/><use transform="matrix(0.0864197530864197,0,0,0.0864197530864197,25.839506172839492,0)" xlink:href="#V"/><use transform="matrix(0.0864197530864197,0,0,0.0864197530864197,43.123456790123434,0)" xlink:href="#W"/><use transform="matrix(0.0864197530864197,0,0,0.0864197530864197,53.407407407407376,0)" xlink:href="#X"/><use transform="matrix(0.0864197530864197,0,0,0.0864197530864197,68.96296296296292,0)" xlink:href="#Y"/><use transform="matrix(0.0864197530864197,0,0,0.0864197530864197,86.24691358024685,0)" xlink:href="#Z"/><use transform="matrix(0.0864197530864197,0,0,0.0864197530864197,103.5308641975308,0)" xlink:href="#aa"/></g><path d="M30 0v-248h33v221h125V0H30" id="ab"/><path d="M24-231v-30h32v30H24zM24 0v-190h32V0H24" id="ac"/><path d="M115-194c53 0 69 39 70 98 0 66-23 100-70 100C84 3 66-7 56-30L54 0H23l1-261h32v101c10-23 28-34 59-34zm-8 174c40 0 45-34 45-75 0-40-5-75-45-74-42 0-51 32-51 76 0 43 10 73 51 73" id="ad"/><g id="f"><use transform="matrix(0.0864197530864197,0,0,0.0864197530864197,0,0)" xlink:href="#ab"/><use transform="matrix(0.0864197530864197,0,0,0.0864197530864197,17.283950617283942,0)" xlink:href="#ac"/><use transform="matrix(0.0864197530864197,0,0,0.0864197530864197,24.111111111111097,0)" xlink:href="#ad"/><use transform="matrix(0.0864197530864197,0,0,0.0864197530864197,41.39506172839504,0)" xlink:href="#W"/><use transform="matrix(0.0864197530864197,0,0,0.0864197530864197,51.679012345678984,0)" xlink:href="#V"/></g><linearGradient gradientUnits="userSpaceOnUse" id="g" x1="624.68" y1="271.26" x2="855.94" y2="417.61"><stop offset="0%" stop-color="#c1e4f7"/><stop offset="0%" stop-color="#99d2f2"/><stop offset="97.48%" stop-color="#3aa6dd"/></linearGradient><linearGradient gradientUnits="userSpaceOnUse" id="h" x1="624.68" y1="271.26" x2="855.94" y2="417.61"><stop offset="0%" stop-color="#c1e4f7"/><stop offset="0%" stop-color="#99d2f2"/><stop offset="97.48%" stop-color="#3aa6dd"/></linearGradient><linearGradient gradientUnits="userSpaceOnUse" id="i" x1="624.68" y1="271.26" x2="855.94" y2="417.61"><stop offset="0%" stop-color="#c1e4f7"/><stop offset="0%" stop-color="#99d2f2"/><stop offset="97.48%" stop-color="#3aa6dd"/></linearGradient><path d="M30-248c87 1 191-15 191 75 0 78-77 80-158 76V0H30v-248zm33 125c57 0 124 11 124-50 0-59-68-47-124-48v98" id="ae"/><path d="M84 4C-5 8 30-112 23-190h32v120c0 31 7 50 39 49 72-2 45-101 50-169h31l1 190h-30c-1-10 1-25-2-33-11 22-28 36-60 37" id="af"/><path d="M24 0v-261h32V0H24" id="ag"/><path d="M117-194c89-4 53 116 60 194h-32v-121c0-31-8-49-39-48C34-167 62-67 57 0H25l-1-190h30c1 10-1 24 2 32 11-22 29-35 61-36" id="ah"/><path d="M135-143c-3-34-86-38-87 0 15 53 115 12 119 90S17 21 10-45l28-5c4 36 97 45 98 0-10-56-113-15-118-90-4-57 82-63 122-42 12 7 21 19 24 35" id="ai"/><g id="j"><use transform="matrix(0.0864197530864197,0,0,0.0864197530864197,0,0)" xlink:href="#ae"/><use transform="matrix(0.0864197530864197,0,0,0.0864197530864197,20.74074074074073,0)" xlink:href="#af"/><use transform="matrix(0.0864197530864197,0,0,0.0864197530864197,38.02469135802467,0)" xlink:href="#ad"/><use transform="matrix(0.0864197530864197,0,0,0.0864197530864197,55.30864197530861,0)" xlink:href="#ag"/><use transform="matrix(0.0864197530864197,0,0,0.0864197530864197,62.13580246913577,0)" xlink:href="#ac"/><use transform="matrix(0.0864197530864197,0,0,0.0864197530864197,68.96296296296292,0)" xlink:href="#X"/><use transform="matrix(0.0864197530864197,0,0,0.0864197530864197,84.51851851851846,0)" xlink:href="#Y"/><use transform="matrix(0.0864197530864197,0,0,0.0864197530864197,101.8024691358024,0)" xlink:href="#X"/><use transform="matrix(0.0864197530864197,0,0,0.0864197530864197,117.35802469135794,0)" xlink:href="#ac"/><use transform="matrix(0.0864197530864197,0,0,0.0864197530864197,124.1851851851851,0)" xlink:href="#aa"/><use transform="matrix(0.0864197530864197,0,0,0.0864197530864197,141.46913580246903,0)" xlink:href="#ah"/><use transform="matrix(0.0864197530864197,0,0,0.0864197530864197,158.75308641975298,0)" xlink:href="#V"/><use transform="matrix(0.0864197530864197,0,0,0.0864197530864197,176.03703703703692,0)" xlink:href="#ai"/></g><linearGradient gradientUnits="userSpaceOnUse" id="k" x1="624.68" y1="907.23" x2="855.94" y2="1053.57"><stop offset="0%" stop-color="#c1e4f7"/><stop offset="0%" stop-color="#99d2f2"/><stop offset="97.48%" stop-color="#3aa6dd"/></linearGradient><linearGradient gradientUnits="userSpaceOnUse" id="l" x1="624.68" y1="907.23" x2="855.94" y2="1053.57"><stop offset="0%" stop-color="#c1e4f7"/><stop offset="0%" stop-color="#99d2f2"/><stop offset="97.48%" stop-color="#3aa6dd"/></linearGradient><linearGradient gradientUnits="userSpaceOnUse" id="m" x1="624.68" y1="907.23" x2="855.94" y2="1053.57"><stop offset="0%" stop-color="#c1e4f7"/><stop offset="0%" stop-color="#99d2f2"/><stop offset="97.48%" stop-color="#3aa6dd"/></linearGradient><path d="M212-179c-10-28-35-45-73-45-59 0-87 40-87 99 0 60 29 101 89 101 43 0 62-24 78-52l27 14C228-24 195 4 139 4 59 4 22-46 18-125c-6-104 99-153 187-111 19 9 31 26 39 46" id="aj"/><path d="M210-169c-67 3-38 105-44 169h-31v-121c0-29-5-50-35-48C34-165 62-65 56 0H25l-1-190h30c1 10-1 24 2 32 10-44 99-50 107 0 11-21 27-35 58-36 85-2 47 119 55 194h-31v-121c0-29-5-49-35-48" id="ak"/><path d="M115-194c55 1 70 41 70 98S169 2 115 4C84 4 66-9 55-30l1 105H24l-1-265h31l2 30c10-21 28-34 59-34zm-8 174c40 0 45-34 45-75s-6-73-45-74c-42 0-51 32-51 76 0 43 10 73 51 73" id="al"/><g id="n"><use transform="matrix(0.0864197530864197,0,0,0.0864197530864197,0,0)" xlink:href="#aj"/><use transform="matrix(0.0864197530864197,0,0,0.0864197530864197,22.382716049382704,0)" xlink:href="#aa"/><use transform="matrix(0.0864197530864197,0,0,0.0864197530864197,39.66666666666664,0)" xlink:href="#ak"/><use transform="matrix(0.0864197530864197,0,0,0.0864197530864197,65.50617283950614,0)" xlink:href="#al"/><use transform="matrix(0.0864197530864197,0,0,0.0864197530864197,82.79012345679007,0)" xlink:href="#W"/><use transform="matrix(0.0864197530864197,0,0,0.0864197530864197,93.07407407407402,0)" xlink:href="#Y"/><use transform="matrix(0.0864197530864197,0,0,0.0864197530864197,110.35802469135797,0)" xlink:href="#W"/></g><path d="M59-47c-2 24 18 29 38 22v24C64 9 27 4 27-40v-127H5v-23h24l9-43h21v43h35v23H59v120" id="am"/><g id="o"><use transform="matrix(0.0864197530864197,0,0,0.0864197530864197,0,0)" xlink:href="#al"/><use transform="matrix(0.0864197530864197,0,0,0.0864197530864197,17.283950617283942,0)" xlink:href="#W"/><use transform="matrix(0.0864197530864197,0,0,0.0864197530864197,27.567901234567888,0)" xlink:href="#aa"/><use transform="matrix(0.0864197530864197,0,0,0.0864197530864197,44.85185185185184,0)" xlink:href="#Z"/><use transform="matrix(0.0864197530864197,0,0,0.0864197530864197,62.135802469135776,0)" xlink:href="#af"/><use transform="matrix(0.0864197530864197,0,0,0.0864197530864197,79.41975308641972,0)" xlink:href="#X"/><use transform="matrix(0.0864197530864197,0,0,0.0864197530864197,94.97530864197526,0)" xlink:href="#am"/><use transform="matrix(0.0864197530864197,0,0,0.0864197530864197,103.61728395061724,0)" xlink:href="#aa"/></g><linearGradient gradientUnits="userSpaceOnUse" id="p" x1="1260.64" y1="1071.76" x2="1029.38" y2="1071.76"><stop offset="0%" stop-color="#ffdf71"/><stop offset="100%" stop-color="#fcc438"/></linearGradient><path fill="#333" d="M30 0v-248h187v28H63v79h144v27H63v87h162V0H30" id="an"/><path fill="#333" d="M108 0H70L1-190h34L89-25l56-165h34" id="ao"/><path fill="#333" d="M34 0v-190h32V0H34zM24-211c8-23 27-35 38-54h36v5l-58 49H24" id="ap"/><path fill="#333" d="M100-194c62-1 85 37 85 99 1 63-27 99-86 99S16-35 15-95c0-66 28-99 85-99zM99-20c44 1 53-31 53-75 0-43-8-75-51-75s-53 32-53 75 10 74 51 75" id="aq"/><g id="q"><use transform="matrix(0.0864197530864197,0,0,0.0864197530864197,0,0)" xlink:href="#an"/><use transform="matrix(0.0864197530864197,0,0,0.0864197530864197,20.74074074074073,0)" xlink:href="#S"/><use transform="matrix(0.0864197530864197,0,0,0.0864197530864197,38.02469135802467,0)" xlink:href="#ao"/><use transform="matrix(0.0864197530864197,0,0,0.0864197530864197,53.58024691358021,0)" xlink:href="#ap"/><use transform="matrix(0.0864197530864197,0,0,0.0864197530864197,62.222222222222186,0)" xlink:href="#aq"/></g><linearGradient gradientUnits="userSpaceOnUse" id="r" x1="451.23" y1="618.15" x2="682.49" y2="764.5"><stop offset="0%" stop-color="#c1e4f7"/><stop offset="0%" stop-color="#99d2f2"/><stop offset="97.48%" stop-color="#3aa6dd"/></linearGradient><linearGradient gradientUnits="userSpaceOnUse" id="s" x1="451.23" y1="618.15" x2="682.49" y2="764.5"><stop offset="0%" stop-color="#c1e4f7"/><stop offset="0%" stop-color="#99d2f2"/><stop offset="97.48%" stop-color="#3aa6dd"/></linearGradient><linearGradient gradientUnits="userSpaceOnUse" id="t" x1="451.23" y1="618.15" x2="682.49" y2="764.5"><stop offset="0%" stop-color="#c1e4f7"/><stop offset="0%" stop-color="#99d2f2"/><stop offset="97.48%" stop-color="#3aa6dd"/></linearGradient><path d="M232-93c-1 65-40 97-104 97C67 4 28-28 28-90v-158h33c8 89-33 224 67 224 102 0 64-133 71-224h33v155" id="ar"/><g id="u"><use transform="matrix(0.0864197530864197,0,0,0.0864197530864197,0,0)" xlink:href="#ar"/><use transform="matrix(0.0864197530864197,0,0,0.0864197530864197,22.382716049382704,0)" xlink:href="#ai"/><use transform="matrix(0.0864197530864197,0,0,0.0864197530864197,37.93827160493825,0)" xlink:href="#af"/><use transform="matrix(0.0864197530864197,0,0,0.0864197530864197,55.22222222222219,0)" xlink:href="#Y"/><use transform="matrix(0.0864197530864197,0,0,0.0864197530864197,72.50617283950614,0)" xlink:href="#W"/><use transform="matrix(0.0864197530864197,0,0,0.0864197530864197,82.79012345679008,0)" xlink:href="#ac"/><use transform="matrix(0.0864197530864197,0,0,0.0864197530864197,89.61728395061724,0)" xlink:href="#aa"/></g><linearGradient gradientUnits="userSpaceOnUse" id="v" x1="1029.38" y1="271.26" x2="1260.64" y2="417.61"><stop offset="0%" stop-color="#c1e4f7"/><stop offset="0%" stop-color="#99d2f2"/><stop offset="97.48%" stop-color="#3aa6dd"/></linearGradient><linearGradient gradientUnits="userSpaceOnUse" id="w" x1="1029.38" y1="271.26" x2="1260.64" y2="417.61"><stop offset="0%" stop-color="#c1e4f7"/><stop offset="0%" stop-color="#99d2f2"/><stop offset="97.48%" stop-color="#3aa6dd"/></linearGradient><linearGradient gradientUnits="userSpaceOnUse" id="x" x1="1029.38" y1="271.26" x2="1260.64" y2="417.61"><stop offset="0%" stop-color="#c1e4f7"/><stop offset="0%" stop-color="#99d2f2"/><stop offset="97.48%" stop-color="#3aa6dd"/></linearGradient><path d="M137 0h-34L2-248h35l83 218 83-218h36" id="as"/><g id="y"><use transform="matrix(0.0864197530864197,0,0,0.0864197530864197,0,0)" xlink:href="#as"/><use transform="matrix(0.0864197530864197,0,0,0.0864197530864197,19.012345679012334,0)" xlink:href="#V"/><use transform="matrix(0.0864197530864197,0,0,0.0864197530864197,36.296296296296276,0)" xlink:href="#ah"/><use transform="matrix(0.0864197530864197,0,0,0.0864197530864197,53.58024691358022,0)" xlink:href="#Z"/><use transform="matrix(0.0864197530864197,0,0,0.0864197530864197,70.86419753086416,0)" xlink:href="#V"/><use transform="matrix(0.0864197530864197,0,0,0.0864197530864197,88.1481481481481,0)" xlink:href="#Z"/><use transform="matrix(0.0864197530864197,0,0,0.0864197530864197,105.43209876543204,0)" xlink:href="#aa"/><use transform="matrix(0.0864197530864197,0,0,0.0864197530864197,122.71604938271601,0)" xlink:href="#W"/></g><path fill="#333" d="M137 0h-34L2-248h35l83 218 83-218h36" id="at"/><path fill="#333" d="M114-163C36-179 61-72 57 0H25l-1-190h30c1 12-1 29 2 39 6-27 23-49 58-41v29" id="au"/><path fill="#333" d="M96-169c-40 0-48 33-48 73s9 75 48 75c24 0 41-14 43-38l32 2c-6 37-31 61-74 61-59 0-76-41-82-99-10-93 101-131 147-64 4 7 5 14 7 22l-32 3c-4-21-16-35-41-35" id="av"/><g id="z"><use transform="matrix(0.0864197530864197,0,0,0.0864197530864197,0,0)" xlink:href="#at"/><use transform="matrix(0.0864197530864197,0,0,0.0864197530864197,19.012345679012334,0)" xlink:href="#R"/><use transform="matrix(0.0864197530864197,0,0,0.0864197530864197,36.296296296296276,0)" xlink:href="#S"/><use transform="matrix(0.0864197530864197,0,0,0.0864197530864197,53.58024691358022,0)" xlink:href="#T"/><use transform="matrix(0.0864197530864197,0,0,0.0864197530864197,62.222222222222186,0)" xlink:href="#au"/><use transform="matrix(0.0864197530864197,0,0,0.0864197530864197,72.50617283950614,0)" xlink:href="#aq"/><use transform="matrix(0.0864197530864197,0,0,0.0864197530864197,89.79012345679007,0)" xlink:href="#S"/><use transform="matrix(0.0864197530864197,0,0,0.0864197530864197,107.07407407407402,0)" xlink:href="#Q"/><use transform="matrix(0.0864197530864197,0,0,0.0864197530864197,113.90123456790117,0)" xlink:href="#av"/></g><linearGradient gradientUnits="userSpaceOnUse" id="A" x1="1477.45" y1="386.89" x2="1708.71" y2="533.24"><stop offset="0%" stop-color="#c1e4f7"/><stop offset="0%" stop-color="#99d2f2"/><stop offset="97.48%" stop-color="#3aa6dd"/></linearGradient><linearGradient gradientUnits="userSpaceOnUse" id="B" x1="1477.45" y1="386.89" x2="1708.71" y2="533.24"><stop offset="0%" stop-color="#c1e4f7"/><stop offset="0%" stop-color="#99d2f2"/><stop offset="97.48%" stop-color="#3aa6dd"/></linearGradient><linearGradient gradientUnits="userSpaceOnUse" id="C" x1="1477.45" y1="386.89" x2="1708.71" y2="533.24"><stop offset="0%" stop-color="#c1e4f7"/><stop offset="0%" stop-color="#99d2f2"/><stop offset="97.48%" stop-color="#3aa6dd"/></linearGradient><path d="M33 0v-248h34V0H33" id="aw"/><path d="M108 0H70L1-190h34L89-25l56-165h34" id="ax"/><g id="D"><use transform="matrix(0.0864197530864197,0,0,0.0864197530864197,0,0)" xlink:href="#aw"/><use transform="matrix(0.0864197530864197,0,0,0.0864197530864197,8.641975308641971,0)" xlink:href="#ah"/><use transform="matrix(0.0864197530864197,0,0,0.0864197530864197,25.925925925925913,0)" xlink:href="#ax"/><use transform="matrix(0.0864197530864197,0,0,0.0864197530864197,41.48148148148146,0)" xlink:href="#V"/><use transform="matrix(0.0864197530864197,0,0,0.0864197530864197,58.7654320987654,0)" xlink:href="#ah"/><use transform="matrix(0.0864197530864197,0,0,0.0864197530864197,76.04938271604934,0)" xlink:href="#am"/><use transform="matrix(0.0864197530864197,0,0,0.0864197530864197,84.69135802469131,0)" xlink:href="#Y"/><use transform="matrix(0.0864197530864197,0,0,0.0864197530864197,101.97530864197526,0)" xlink:href="#W"/><use transform="matrix(0.0864197530864197,0,0,0.0864197530864197,112.25925925925922,0)" xlink:href="#ac"/><use transform="matrix(0.0864197530864197,0,0,0.0864197530864197,119.08641975308636,0)" xlink:href="#aa"/></g><linearGradient gradientUnits="userSpaceOnUse" id="E" x1="1477.45" y1="704.87" x2="1708.71" y2="851.22"><stop offset="0%" stop-color="#c1e4f7"/><stop offset="0%" stop-color="#99d2f2"/><stop offset="97.48%" stop-color="#3aa6dd"/></linearGradient><linearGradient gradientUnits="userSpaceOnUse" id="F" x1="1477.45" y1="704.87" x2="1708.71" y2="851.22"><stop offset="0%" stop-color="#c1e4f7"/><stop offset="0%" stop-color="#99d2f2"/><stop offset="97.48%" stop-color="#3aa6dd"/></linearGradient><linearGradient gradientUnits="userSpaceOnUse" id="G" x1="1477.45" y1="704.87" x2="1708.71" y2="851.22"><stop offset="0%" stop-color="#c1e4f7"/><stop offset="0%" stop-color="#99d2f2"/><stop offset="97.48%" stop-color="#3aa6dd"/></linearGradient><path d="M30 0v-248h187v28H63v79h144v27H63v87h162V0H30" id="ay"/><path d="M233-177c-1 41-23 64-60 70L243 0h-38l-65-103H63V0H30v-248c88 3 205-21 203 71zM63-129c60-2 137 13 137-47 0-61-80-42-137-45v92" id="az"/><g id="H"><use transform="matrix(0.0864197530864197,0,0,0.0864197530864197,0,0)" xlink:href="#ay"/><use transform="matrix(0.0864197530864197,0,0,0.0864197530864197,20.74074074074073,0)" xlink:href="#az"/><use transform="matrix(0.0864197530864197,0,0,0.0864197530864197,43.123456790123434,0)" xlink:href="#ae"/><use transform="matrix(0.0864197530864197,0,0,0.0864197530864197,63.86419753086416,0)" xlink:href="#ai"/></g><path fill="#333" d="M30-248c87 1 191-15 191 75 0 78-77 80-158 76V0H30v-248zm33 125c57 0 124 11 124-50 0-59-68-47-124-48v98" id="aA"/><path fill="#333" d="M135-143c-3-34-86-38-87 0 15 53 115 12 119 90S17 21 10-45l28-5c4 36 97 45 98 0-10-56-113-15-118-90-4-57 82-63 122-42 12 7 21 19 24 35" id="aB"/><path fill="#333" d="M141-36C126-15 110 5 73 4 37 3 15-17 15-53c-1-64 63-63 125-63 3-35-9-54-41-54-24 1-41 7-42 31l-33-3c5-37 33-52 76-52 45 0 72 20 72 64v82c-1 20 7 32 28 27v20c-31 9-61-2-59-35zM48-53c0 20 12 33 32 33 41-3 63-29 60-74-43 2-92-5-92 41" id="aC"/><g id="I"><use transform="matrix(0.0864197530864197,0,0,0.0864197530864197,0,0)" xlink:href="#aA"/><use transform="matrix(0.0864197530864197,0,0,0.0864197530864197,20.74074074074073,0)" xlink:href="#R"/><use transform="matrix(0.0864197530864197,0,0,0.0864197530864197,38.02469135802467,0)" xlink:href="#au"/><use transform="matrix(0.0864197530864197,0,0,0.0864197530864197,48.30864197530862,0)" xlink:href="#aB"/><use transform="matrix(0.0864197530864197,0,0,0.0864197530864197,63.86419753086416,0)" xlink:href="#aq"/><use transform="matrix(0.0864197530864197,0,0,0.0864197530864197,81.1481481481481,0)" xlink:href="#S"/><use transform="matrix(0.0864197530864197,0,0,0.0864197530864197,98.43209876543204,0)" xlink:href="#aC"/><use transform="matrix(0.0864197530864197,0,0,0.0864197530864197,115.716049382716,0)" xlink:href="#P"/></g><path fill="#333" d="M115-194c55 1 70 41 70 98S169 2 115 4C84 4 66-9 55-30l1 105H24l-1-265h31l2 30c10-21 28-34 59-34zm-8 174c40 0 45-34 45-75s-6-73-45-74c-42 0-51 32-51 76 0 43 10 73 51 73" id="aD"/><g id="J"><use transform="matrix(0.0864197530864197,0,0,0.0864197530864197,0,0)" xlink:href="#aq"/><use transform="matrix(0.0864197530864197,0,0,0.0864197530864197,17.283950617283942,0)" xlink:href="#aD"/><use transform="matrix(0.0864197530864197,0,0,0.0864197530864197,34.567901234567884,0)" xlink:href="#R"/><use transform="matrix(0.0864197530864197,0,0,0.0864197530864197,51.851851851851826,0)" xlink:href="#au"/><use transform="matrix(0.0864197530864197,0,0,0.0864197530864197,62.13580246913577,0)" xlink:href="#aC"/><use transform="matrix(0.0864197530864197,0,0,0.0864197530864197,79.41975308641972,0)" xlink:href="#T"/><use transform="matrix(0.0864197530864197,0,0,0.0864197530864197,88.06172839506169,0)" xlink:href="#Q"/><use transform="matrix(0.0864197530864197,0,0,0.0864197530864197,94.88888888888884,0)" xlink:href="#ao"/><use transform="matrix(0.0864197530864197,0,0,0.0864197530864197,110.44444444444439,0)" xlink:href="#aq"/></g><path fill="#333" d="M30-248c118-7 216 8 213 122C240-48 200 0 122 0H30v-248zM63-27c89 8 146-16 146-99s-60-101-146-95v194" id="aE"/><path fill="#333" d="M177-190C167-65 218 103 67 71c-23-6-38-20-44-43l32-5c15 47 100 32 89-28v-30C133-14 115 1 83 1 29 1 15-40 15-95c0-56 16-97 71-98 29-1 48 16 59 35 1-10 0-23 2-32h30zM94-22c36 0 50-32 50-73 0-42-14-75-50-75-39 0-46 34-46 75s6 73 46 73" id="aF"/><path fill="#333" d="M210-169c-67 3-38 105-44 169h-31v-121c0-29-5-50-35-48C34-165 62-65 56 0H25l-1-190h30c1 10-1 24 2 32 10-44 99-50 107 0 11-21 27-35 58-36 85-2 47 119 55 194h-31v-121c0-29-5-49-35-48" id="aG"/><g id="K"><use transform="matrix(0.19753086419753055,0,0,0.19753086419753055,0,0)" xlink:href="#aE"/><use transform="matrix(0.19753086419753055,0,0,0.19753086419753055,51.16049382716041,0)" xlink:href="#Q"/><use transform="matrix(0.19753086419753055,0,0,0.19753086419753055,66.76543209876532,0)" xlink:href="#aC"/><use transform="matrix(0.19753086419753055,0,0,0.19753086419753055,106.27160493827141,0)" xlink:href="#aF"/><use transform="matrix(0.19753086419753055,0,0,0.19753086419753055,145.77777777777754,0)" xlink:href="#au"/><use transform="matrix(0.19753086419753055,0,0,0.19753086419753055,169.28395061728366,0)" xlink:href="#aC"/><use transform="matrix(0.19753086419753055,0,0,0.19753086419753055,208.7901234567898,0)" xlink:href="#aG"/><use transform="matrix(0.19753086419753055,0,0,0.19753086419753055,267.8518518518514,0)" xlink:href="#aC"/></g><path fill="#333" d="M85-194c31 0 48 13 60 33l-1-100h32l1 261h-30c-2-10 0-23-3-31C134-8 116 4 85 4 32 4 16-35 15-94c0-66 23-100 70-100zm9 24c-40 0-46 34-46 75 0 40 6 74 45 74 42 0 51-32 51-76 0-42-9-74-50-73" id="aH"/><g id="L"><use transform="matrix(0.19753086419753055,0,0,0.19753086419753055,0,0)" xlink:href="#aH"/><use transform="matrix(0.19753086419753055,0,0,0.19753086419753055,39.50617283950611,0)" xlink:href="#R"/></g><g id="M"><use transform="matrix(0.19753086419753055,0,0,0.19753086419753055,0,0)" xlink:href="#O"/><use transform="matrix(0.19753086419753055,0,0,0.19753086419753055,51.16049382716041,0)" xlink:href="#aq"/><use transform="matrix(0.19753086419753055,0,0,0.19753086419753055,90.66666666666652,0)" xlink:href="#S"/><use transform="matrix(0.19753086419753055,0,0,0.19753086419753055,130.17283950617264,0)" xlink:href="#av"/><use transform="matrix(0.19753086419753055,0,0,0.19753086419753055,165.72839506172812,0)" xlink:href="#R"/><use transform="matrix(0.19753086419753055,0,0,0.19753086419753055,205.23456790123424,0)" xlink:href="#aD"/><use transform="matrix(0.19753086419753055,0,0,0.19753086419753055,244.74074074074034,0)" xlink:href="#T"/><use transform="matrix(0.19753086419753055,0,0,0.19753086419753055,264.4938271604934,0)" xlink:href="#aq"/></g><path fill="#333" d="M185-189c-5-48-123-54-124 2 14 75 158 14 163 119 3 78-121 87-175 55-17-10-28-26-33-46l33-7c5 56 141 63 141-1 0-78-155-14-162-118-5-82 145-84 179-34 5 7 8 16 11 25" id="aI"/><path fill="#333" d="M84 4C-5 8 30-112 23-190h32v120c0 31 7 50 39 49 72-2 45-101 50-169h31l1 190h-30c-1-10 1-25-2-33-11 22-28 36-60 37" id="aJ"/><path fill="#333" d="M100-194c62-1 85 37 85 99 1 63-27 99-86 99S16-35 15-95c0-66 28-99 85-99zM99-20c44 1 53-31 53-75 0-43-8-75-51-75s-53 32-53 75 10 74 51 75zM76-211c8-23 27-35 38-54h36v5l-58 49H76" id="aK"/><g id="N"><use transform="matrix(0.19753086419753055,0,0,0.19753086419753055,0,0)" xlink:href="#aI"/><use transform="matrix(0.19753086419753055,0,0,0.19753086419753055,47.407407407407334,0)" xlink:href="#aq"/><use transform="matrix(0.19753086419753055,0,0,0.19753086419753055,86.91358024691344,0)" xlink:href="#P"/><use transform="matrix(0.19753086419753055,0,0,0.19753086419753055,102.51851851851835,0)" xlink:href="#aJ"/><use transform="matrix(0.19753086419753055,0,0,0.19753086419753055,142.02469135802446,0)" xlink:href="#av"/><use transform="matrix(0.19753086419753055,0,0,0.19753086419753055,177.58024691357997,0)" xlink:href="#Q"/><use transform="matrix(0.19753086419753055,0,0,0.19753086419753055,193.18518518518488,0)" xlink:href="#aK"/><use transform="matrix(0.19753086419753055,0,0,0.19753086419753055,232.691358024691,0)" xlink:href="#S"/></g></defs></g></svg>