<svg xmlns="http://www.w3.org/2000/svg" xmlns:xlink="http://www.w3.org/1999/xlink" xmlns:lucid="lucid" width="1871" height="1190"><g transform="translate(0 -133)" lucid:page-tab-id="0_0"><path d="M766.76 186c0-3.3 2.68-6 6-6h297.22c3.3 0 6 2.7 6 6v77.95c0 3.32-2.7 6-6 6H772.76c-3.32 0-6-2.68-6-6z" stroke="#000" stroke-opacity="0" stroke-width="3" fill="#3aa6dd"/><use xlink:href="#a" transform="matrix(1,0,0,1,778.7562897451303,192) translate(104.53086419753087 40.819444444444436)"/><path d="M142.12 477.48c0-3.3 2.7-6 6-6h297.23c3.3 0 6 2.7 6 6v108c0 3.32-2.7 6-6 6H148.12c-3.3 0-6-2.68-6-6z" stroke="#000" stroke-opacity="0" stroke-width="3" fill="#ffc374"/><use xlink:href="#b" transform="matrix(1,0,0,1,154.1249894570865,483.4813461545848) translate(46.30864197530869 28.444444444444436)"/><use xlink:href="#c" transform="matrix(1,0,0,1,154.1249894570865,483.4813461545848) translate(200.18518518518516 28.444444444444436)"/><use xlink:href="#d" transform="matrix(1,0,0,1,154.1249894570865,483.4813461545848) translate(61.123456790123484 71.11111111111109)"/><path d="M1360 477.48c0-3.3 2.7-6 6-6h297.22c3.32 0 6 2.7 6 6v108c0 3.32-2.68 6-6 6H1366c-3.3 0-6-2.68-6-6z" stroke="#000" stroke-opacity="0" stroke-width="3" fill="#ffc374"/><use xlink:href="#b" transform="matrix(1,0,0,1,1372.0000000000002,483.4813461545848) translate(46.30864197530869 28.444444444444436)"/><use xlink:href="#c" transform="matrix(1,0,0,1,1372.0000000000002,483.4813461545848) translate(200.18518518518516 28.444444444444436)"/><use xlink:href="#e" transform="matrix(1,0,0,1,1372.0000000000002,483.4813461545848) translate(26.703703703703738 71.11111111111109)"/><path d="M1360 660.05c0-3.32 2.7-6 6-6h297.22c3.32 0 6 2.68 6 6V738c0 3.3-2.68 6-6 6H1366c-3.3 0-6-2.7-6-6z" stroke="#000" stroke-opacity="0" stroke-width="3" fill="#b2d6ef"/><use xlink:href="#f" transform="matrix(1,0,0,1,1372,666.0452881668909) translate(44.43209876543213 40.819444444444436)"/><path d="M140 688.15c0-3.3 2.7-6 6-6h297.22c3.32 0 6 2.7 6 6v77.95c0 3.32-2.68 6-6 6H146c-3.3 0-6-2.68-6-6z" stroke="#000" stroke-opacity="0" stroke-width="3" fill="#b2d6ef"/><use xlink:href="#g" transform="matrix(1,0,0,1,152,694.151128475874) translate(73.91358024691361 40.819444444444436)"/><path d="M140 933.96c0-3.3 2.7-6 6-6h297.22c3.32 0 6 2.7 6 6v77.96c0 3.3-2.68 6-6 6H146c-3.3 0-6-2.7-6-6z" stroke="#000" stroke-opacity="0" stroke-width="3" fill="#b2d6ef"/><use xlink:href="#h" transform="matrix(1,0,0,1,152,939.962937744041) translate(73.96296296296299 40.819444444444436)"/><path d="M140 811.06c0-3.32 2.7-6 6-6h297.22c3.32 0 6 2.68 6 6V889c0 3.32-2.68 6-6 6H146c-3.3 0-6-2.68-6-6z" stroke="#000" stroke-opacity="0" stroke-width="3" fill="#b2d6ef"/><use xlink:href="#i" transform="matrix(1,0,0,1,152,817.0570331099577) translate(71.9382716049383 40.819444444444436)"/><path d="M142.12 1056.87c0-3.3 2.7-6 6-6h297.23c3.3 0 6 2.7 6 6v77.95c0 3.3-2.7 6-6 6H148.12c-3.3 0-6-2.7-6-6z" stroke="#000" stroke-opacity="0" stroke-width="3" fill="#b2d6ef"/><use xlink:href="#j" transform="matrix(1,0,0,1,154.12498945708649,1062.8688423781246) translate(65.02469135802471 40.819444444444436)"/><path d="M1360 795.93c0-3.32 2.7-6 6-6h297.22c3.32 0 6 2.68 6 6v77.95c0 3.3-2.68 6-6 6H1366c-3.3 0-6-2.7-6-6z" stroke="#000" stroke-opacity="0" stroke-width="3" fill="#b2d6ef"/><use xlink:href="#k" transform="matrix(1,0,0,1,1372,801.9272518864464) translate(71.04938271604942 40.819444444444436)"/><path d="M1360 931.8c0-3.3 2.7-6 6-6h297.22c3.32 0 6 2.7 6 6v77.96c0 3.32-2.68 6-6 6H1366c-3.3 0-6-2.68-6-6z" stroke="#000" stroke-opacity="0" stroke-width="3" fill="#b2d6ef"/><use xlink:href="#l" transform="matrix(1,0,0,1,1372,937.8092156060017) translate(71.98765432098769 40.819444444444436)"/><path d="M1360 1067.7c0-3.32 2.7-6 6-6h297.22c3.32 0 6 2.68 6 6v77.94c0 3.32-2.68 6-6 6H1366c-3.3 0-6-2.68-6-6z" stroke="#000" stroke-opacity="0" stroke-width="3" fill="#b2d6ef"/><use xlink:href="#m" transform="matrix(1,0,0,1,1372,1073.6911793255574) translate(71.00000000000003 40.819444444444436)"/><path d="M1360 1188.55c0-3.3 2.7-6 6-6h297.22c3.32 0 6 2.7 6 6v108c0 3.3-2.68 6-6 6H1366c-3.3 0-6-2.7-6-6z" stroke="#000" stroke-opacity="0" stroke-width="3" fill="#b2d6ef"/><use xlink:href="#n" transform="matrix(1,0,0,1,1372,1194.5492784049188) translate(68.03703703703707 28.444444444444436)"/><use xlink:href="#o" transform="matrix(1,0,0,1,1372,1194.5492784049188) translate(67.04938271604941 71.11111111111109)"/><path d="M766.76 477.48c0-3.3 2.68-6 6-6h297.22c3.3 0 6 2.7 6 6v108c0 3.32-2.7 6-6 6H772.76c-3.32 0-6-2.68-6-6z" stroke="#000" stroke-opacity="0" stroke-width="3" fill="#ffc374"/><use xlink:href="#p" transform="matrix(1,0,0,1,778.7562897451303,483.4813461545848) translate(71.00000000000003 28.444444444444436)"/><use xlink:href="#q" transform="matrix(1,0,0,1,778.7562897451303,483.4813461545848) translate(63.246913580246954 71.11111111111109)"/><path d="M766.76 688.15c0-3.3 2.68-6 6-6h297.22c3.3 0 6 2.7 6 6v77.95c0 3.32-2.7 6-6 6H772.76c-3.32 0-6-2.68-6-6z" stroke="#000" stroke-opacity="0" stroke-width="3" fill="#b2d6ef"/><use xlink:href="#r" transform="matrix(1,0,0,1,778.7562897451303,694.151128475874) translate(71.04938271604942 40.819444444444436)"/><path d="M766.76 933.96c0-3.3 2.68-6 6-6h297.22c3.3 0 6 2.7 6 6v77.96c0 3.3-2.7 6-6 6H772.76c-3.32 0-6-2.7-6-6z" stroke="#000" stroke-opacity="0" stroke-width="3" fill="#b2d6ef"/><use xlink:href="#s" transform="matrix(1,0,0,1,778.7562897451303,939.962937744041) translate(65.12345679012348 40.819444444444436)"/><path d="M766.76 811.06c0-3.32 2.68-6 6-6h297.22c3.3 0 6 2.68 6 6V889c0 3.32-2.7 6-6 6H772.76c-3.32 0-6-2.68-6-6z" stroke="#000" stroke-opacity="0" stroke-width="3" fill="#b2d6ef"/><use xlink:href="#t" transform="matrix(1,0,0,1,778.7562897451303,817.0570331099577) translate(70.495 40.819444444444436)"/><use xlink:href="#u" transform="matrix(1,0,0,1,778.7562897451303,817.0570331099577) translate(214.505 40.819444444444436)"/><path d="M766.76 1056.87c0-3.3 2.68-6 6-6h297.22c3.3 0 6 2.7 6 6v77.95c0 3.3-2.7 6-6 6H772.76c-3.32 0-6-2.7-6-6z" stroke="#000" stroke-opacity="0" stroke-width="3" fill="#b2d6ef"/><use xlink:href="#v" transform="matrix(1,0,0,1,778.7562897451303,1062.8688423781246) translate(50.308641975308674 40.819444444444436)"/><path d="M296.74 592.48v33c0 3.32 2.68 6 6 6h180.48c3.32 0 6 2.7 6 6v206.55c0 3.32-2.68 6-6 6h-15.5" stroke="#5e5e5e" stroke-width="2" fill="none"/><path d="M297.74 592.5h-2v-1.02h2z" fill="#5e5e5e"/><path d="M452.46 850.03l14.26-4.63v9.27z" stroke="#5e5e5e" stroke-width="2" fill="#5e5e5e"/><path d="M296.74 592.48v33c0 3.32 2.68 6 6 6h180.48c3.32 0 6 2.7 6 6v329.46c0 3.3-2.68 6-6 6h-15.5" stroke="#5e5e5e" stroke-width="2" fill="none"/><path d="M297.74 592.5h-2v-1.02h2z" fill="#5e5e5e"/><path d="M452.46 972.94l14.26-4.64v9.27z" stroke="#5e5e5e" stroke-width="2" fill="#5e5e5e"/><path d="M296.74 592.48v33c0 3.32 2.68 6 6 6h182.6c3.32 0 6 2.7 6 6v452.36c0 3.32-2.68 6-6 6h-15.5" stroke="#5e5e5e" stroke-width="2" fill="none"/><path d="M297.74 592.5h-2v-1.02h2z" fill="#5e5e5e"/><path d="M454.58 1095.84l14.27-4.63v9.28z" stroke="#5e5e5e" stroke-width="2" fill="#5e5e5e"/><path d="M921.37 592.48v33c0 3.32 2.68 6 6 6h182.6c3.32 0 6 2.7 6 6v206.04c0 3.3-2.68 6-6 6h-15.5" stroke="#5e5e5e" stroke-width="2" fill="none"/><path d="M922.37 592.5h-2v-1.02h2z" fill="#5e5e5e"/><path d="M1079.2 849.52l14.28-4.63v9.26z" stroke="#5e5e5e" stroke-width="2" fill="#5e5e5e"/><path d="M922.18 592.48v33c0 3.32 2.68 6 6 6h181.8c3.3 0 6 2.7 6 6v329.46c0 3.3-2.7 6-6 6h-15.5" stroke="#5e5e5e" stroke-width="2" fill="none"/><path d="M923.18 592.5h-2v-1.02h2z" fill="#5e5e5e"/><path d="M1079.2 972.94l14.28-4.64v9.27z" stroke="#5e5e5e" stroke-width="2" fill="#5e5e5e"/><path d="M921.37 592.48v33c0 3.32 2.68 6 6 6h182.6c3.32 0 6 2.7 6 6v452.06c0 3.3-2.68 6-6 6h-15.5" stroke="#5e5e5e" stroke-width="2" fill="none"/><path d="M922.37 592.5h-2v-1.02h2z" fill="#5e5e5e"/><path d="M1079.2 1095.54l14.28-4.64v9.27z" stroke="#5e5e5e" stroke-width="2" fill="#5e5e5e"/><path d="M1514.6 592.48v33c0 3.32 2.7 6 6 6h182.62c3.32 0 6 2.7 6 6V828.9c0 3.32-2.68 6-6 6h-15.5" stroke="#5e5e5e" stroke-width="2" fill="none"/><path d="M1515.6 592.5h-2v-1.02h2z" fill="#5e5e5e"/><path d="M1672.46 834.9l14.26-4.63v9.27z" stroke="#5e5e5e" stroke-width="2" fill="#5e5e5e"/><path d="M1514.6 592.48v33c0 3.32 2.7 6 6 6h182.62c3.32 0 6 2.7 6 6v327.3c0 3.32-2.68 6-6 6h-15.5" stroke="#5e5e5e" stroke-width="2" fill="none"/><path d="M1515.6 592.5h-2v-1.02h2z" fill="#5e5e5e"/><path d="M1672.46 970.8l14.26-4.65v9.27z" stroke="#5e5e5e" stroke-width="2" fill="#5e5e5e"/><path d="M1514.6 592.48v33c0 3.32 2.7 6 6 6h182.62c3.32 0 6 2.7 6 6v463.2c0 3.3-2.68 6-6 6h-15.5" stroke="#5e5e5e" stroke-width="2" fill="none"/><path d="M1515.6 592.5h-2v-1.02h2z" fill="#5e5e5e"/><path d="M1672.46 1106.67l14.26-4.64v9.27z" stroke="#5e5e5e" stroke-width="2" fill="#5e5e5e"/><path d="M1514.6 592.48v33c0 3.32 2.7 6 6 6h182.62c3.32 0 6 2.7 6 6v599.07c0 3.3-2.68 6-6 6h-15.5" stroke="#5e5e5e" stroke-width="2" fill="none"/><path d="M1515.6 592.5h-2v-1.02h2z" fill="#5e5e5e"/><path d="M1672.46 1242.55l14.26-4.64v9.28z" stroke="#5e5e5e" stroke-width="2" fill="#5e5e5e"/><path d="M921.37 270.95v93.77c0 3.3-2.7 6-6 6H302.74c-3.32 0-6 2.68-6 6v76.26" stroke="#5e5e5e" stroke-width="2" fill="none"/><path d="M922.37 270.98h-2v-1.03h2z" fill="#5e5e5e"/><path d="M296.74 468.25l-4.64-14.27h9.27z" stroke="#5e5e5e" stroke-width="2" fill="#5e5e5e"/><path d="M921.37 270.95v182.03" stroke="#5e5e5e" stroke-width="2" fill="none"/><path d="M922.37 270.98h-2v-1.03h2z" fill="#5e5e5e"/><path d="M921.37 468.24l-4.64-14.26H926z" stroke="#5e5e5e" stroke-width="2" fill="#5e5e5e"/><path d="M921.37 270.95v93.77c0 3.3 2.68 6 6 6h581.24c3.32 0 6 2.68 6 6v76.26" stroke="#5e5e5e" stroke-width="2" fill="none"/><path d="M922.37 270.98h-2v-1.03h2z" fill="#5e5e5e"/><path d="M1514.6 468.25l-4.62-14.27h9.27z" stroke="#5e5e5e" stroke-width="2" fill="#5e5e5e"/><path d="M0 26c0-3.3 2.7-6 6-6h1848c3.3 0 6 2.7 6 6v108.33c0 3.32-2.7 6-6 6H6c-3.3 0-6-2.68-6-6z" stroke="#000" stroke-opacity="0" stroke-width="3" fill="#fff" fill-opacity="0"/><g><use xlink:href="#w" transform="matrix(1,0,0,1,5,25) translate(518.975308641976 70.7638888888888)"/><use xlink:href="#x" transform="matrix(1,0,0,1,5,25) translate(952.7530864197531 70.7638888888888)"/></g><defs><path fill="#333" d="M212-179c-10-28-35-45-73-45-59 0-87 40-87 99 0 60 29 101 89 101 43 0 62-24 78-52l27 14C228-24 195 4 139 4 59 4 22-46 18-125c-6-104 99-153 187-111 19 9 31 26 39 46" id="y"/><path fill="#333" d="M30 0v-248h187v28H63v79h144v27H63v87h162V0H30" id="z"/><path fill="#333" d="M140-251c81 0 123 46 123 126C263-46 219 4 140 4 59 4 17-45 17-125s42-126 123-126zm0 227c63 0 89-41 89-101s-29-99-89-99c-61 0-89 39-89 99S79-25 140-24" id="A"/><g id="a"><use transform="matrix(0.0987654320987654,0,0,0.0987654320987654,0,0)" xlink:href="#y"/><use transform="matrix(0.0987654320987654,0,0,0.0987654320987654,25.58024691358024,0)" xlink:href="#z"/><use transform="matrix(0.0987654320987654,0,0,0.0987654320987654,49.283950617283935,0)" xlink:href="#A"/></g><path fill="#333" d="M143 4C61 4 22-44 18-125c-5-107 100-154 193-111 17 8 29 25 37 43l-32 9c-13-25-37-40-76-40-61 0-88 39-88 99 0 61 29 100 91 101 35 0 62-11 79-27v-45h-74v-28h105v86C228-13 192 4 143 4" id="B"/><path fill="#333" d="M100-194c63 0 86 42 84 106H49c0 40 14 67 53 68 26 1 43-12 49-29l28 8c-11 28-37 45-77 45C44 4 14-33 15-96c1-61 26-98 85-98zm52 81c6-60-76-77-97-28-3 7-6 17-6 28h103" id="C"/><path fill="#333" d="M114-163C36-179 61-72 57 0H25l-1-190h30c1 12-1 29 2 39 6-27 23-49 58-41v29" id="D"/><path fill="#333" d="M117-194c89-4 53 116 60 194h-32v-121c0-31-8-49-39-48C34-167 62-67 57 0H25l-1-190h30c1 10-1 24 2 32 11-22 29-35 61-36" id="E"/><path fill="#333" d="M96-169c-40 0-48 33-48 73s9 75 48 75c24 0 41-14 43-38l32 2c-6 37-31 61-74 61-59 0-76-41-82-99-10-93 101-131 147-64 4 7 5 14 7 22l-32 3c-4-21-16-35-41-35" id="F"/><path fill="#333" d="M24-231v-30h32v30H24zM24 0v-190h32V0H24" id="G"/><path fill="#333" d="M141-36C126-15 110 5 73 4 37 3 15-17 15-53c-1-64 63-63 125-63 3-35-9-54-41-54-24 1-41 7-42 31l-33-3c5-37 33-52 76-52 45 0 72 20 72 64v82c-1 20 7 32 28 27v20c-31 9-61-2-59-35zM48-53c0 20 12 33 32 33 41-3 63-29 60-74-43 2-92-5-92 41" id="H"/><g id="b"><use transform="matrix(0.0987654320987654,0,0,0.0987654320987654,0,0)" xlink:href="#B"/><use transform="matrix(0.0987654320987654,0,0,0.0987654320987654,27.654320987654312,0)" xlink:href="#C"/><use transform="matrix(0.0987654320987654,0,0,0.0987654320987654,47.40740740740739,0)" xlink:href="#D"/><use transform="matrix(0.0987654320987654,0,0,0.0987654320987654,59.16049382716047,0)" xlink:href="#C"/><use transform="matrix(0.0987654320987654,0,0,0.0987654320987654,78.91358024691355,0)" xlink:href="#E"/><use transform="matrix(0.0987654320987654,0,0,0.0987654320987654,98.66666666666663,0)" xlink:href="#F"/><use transform="matrix(0.0987654320987654,0,0,0.0987654320987654,116.4444444444444,0)" xlink:href="#G"/><use transform="matrix(0.0987654320987654,0,0,0.0987654320987654,124.24691358024687,0)" xlink:href="#H"/></g><path fill="#333" d="M85-194c31 0 48 13 60 33l-1-100h32l1 261h-30c-2-10 0-23-3-31C134-8 116 4 85 4 32 4 16-35 15-94c0-66 23-100 70-100zm9 24c-40 0-46 34-46 75 0 40 6 74 45 74 42 0 51-32 51-76 0-42-9-74-50-73" id="I"/><g id="c"><use transform="matrix(0.0987654320987654,0,0,0.0987654320987654,0,0)" xlink:href="#I"/><use transform="matrix(0.0987654320987654,0,0,0.0987654320987654,19.753086419753078,0)" xlink:href="#C"/></g><path fill="#333" d="M115-194c55 1 70 41 70 98S169 2 115 4C84 4 66-9 55-30l1 105H24l-1-265h31l2 30c10-21 28-34 59-34zm-8 174c40 0 45-34 45-75s-6-73-45-74c-42 0-51 32-51 76 0 43 10 73 51 73" id="J"/><path fill="#333" d="M100-194c62-1 85 37 85 99 1 63-27 99-86 99S16-35 15-95c0-66 28-99 85-99zM99-20c44 1 53-31 53-75 0-43-8-75-51-75s-53 32-53 75 10 74 51 75zM76-211c8-23 27-35 38-54h36v5l-58 49H76" id="K"/><g id="d"><use transform="matrix(0.0987654320987654,0,0,0.0987654320987654,0,0)" xlink:href="#A"/><use transform="matrix(0.0987654320987654,0,0,0.0987654320987654,27.654320987654312,0)" xlink:href="#J"/><use transform="matrix(0.0987654320987654,0,0,0.0987654320987654,47.40740740740739,0)" xlink:href="#C"/><use transform="matrix(0.0987654320987654,0,0,0.0987654320987654,67.16049382716047,0)" xlink:href="#D"/><use transform="matrix(0.0987654320987654,0,0,0.0987654320987654,78.91358024691354,0)" xlink:href="#H"/><use transform="matrix(0.0987654320987654,0,0,0.0987654320987654,98.66666666666661,0)" xlink:href="#F"/><use transform="matrix(0.0987654320987654,0,0,0.0987654320987654,116.44444444444439,0)" xlink:href="#G"/><use transform="matrix(0.0987654320987654,0,0,0.0987654320987654,124.24691358024685,0)" xlink:href="#K"/><use transform="matrix(0.0987654320987654,0,0,0.0987654320987654,143.99999999999994,0)" xlink:href="#E"/></g><path fill="#333" d="M205 0l-28-72H64L36 0H1l101-248h38L239 0h-34zm-38-99l-47-123c-12 45-31 82-46 123h93" id="L"/><path fill="#333" d="M210-169c-67 3-38 105-44 169h-31v-121c0-29-5-50-35-48C34-165 62-65 56 0H25l-1-190h30c1 10-1 24 2 32 10-44 99-50 107 0 11-21 27-35 58-36 85-2 47 119 55 194h-31v-121c0-29-5-49-35-48" id="M"/><path fill="#333" d="M135-143c-3-34-86-38-87 0 15 53 115 12 119 90S17 21 10-45l28-5c4 36 97 45 98 0-10-56-113-15-118-90-4-57 82-63 122-42 12 7 21 19 24 35" id="N"/><path fill="#333" d="M59-47c-2 24 18 29 38 22v24C64 9 27 4 27-40v-127H5v-23h24l9-43h21v43h35v23H59v120" id="O"/><g id="e"><use transform="matrix(0.0987654320987654,0,0,0.0987654320987654,0,0)" xlink:href="#L"/><use transform="matrix(0.0987654320987654,0,0,0.0987654320987654,23.703703703703695,0)" xlink:href="#I"/><use transform="matrix(0.0987654320987654,0,0,0.0987654320987654,43.45679012345677,0)" xlink:href="#M"/><use transform="matrix(0.0987654320987654,0,0,0.0987654320987654,72.98765432098762,0)" xlink:href="#G"/><use transform="matrix(0.0987654320987654,0,0,0.0987654320987654,80.79012345679008,0)" xlink:href="#E"/><use transform="matrix(0.0987654320987654,0,0,0.0987654320987654,100.54320987654316,0)" xlink:href="#G"/><use transform="matrix(0.0987654320987654,0,0,0.0987654320987654,108.34567901234561,0)" xlink:href="#N"/><use transform="matrix(0.0987654320987654,0,0,0.0987654320987654,126.1234567901234,0)" xlink:href="#O"/><use transform="matrix(0.0987654320987654,0,0,0.0987654320987654,135.99999999999994,0)" xlink:href="#D"/><use transform="matrix(0.0987654320987654,0,0,0.0987654320987654,147.75308641975303,0)" xlink:href="#H"/><use transform="matrix(0.0987654320987654,0,0,0.0987654320987654,167.50617283950612,0)" xlink:href="#F"/><use transform="matrix(0.0987654320987654,0,0,0.0987654320987654,185.2839506172839,0)" xlink:href="#G"/><use transform="matrix(0.0987654320987654,0,0,0.0987654320987654,193.08641975308635,0)" xlink:href="#K"/><use transform="matrix(0.0987654320987654,0,0,0.0987654320987654,212.83950617283944,0)" xlink:href="#E"/></g><path fill="#333" d="M100-194c62-1 85 37 85 99 1 63-27 99-86 99S16-35 15-95c0-66 28-99 85-99zM99-20c44 1 53-31 53-75 0-43-8-75-51-75s-53 32-53 75 10 74 51 75" id="P"/><path fill="#333" d="M115-194c53 0 69 39 70 98 0 66-23 100-70 100C84 3 66-7 56-30L54 0H23l1-261h32v101c10-23 28-34 59-34zm-8 174c40 0 45-34 45-75 0-40-5-75-45-74-42 0-51 32-51 76 0 43 10 73 51 73" id="Q"/><path fill="#333" d="M24 0v-261h32V0H24" id="R"/><g id="f"><use transform="matrix(0.0987654320987654,0,0,0.0987654320987654,0,0)" xlink:href="#y"/><use transform="matrix(0.0987654320987654,0,0,0.0987654320987654,25.58024691358024,0)" xlink:href="#P"/><use transform="matrix(0.0987654320987654,0,0,0.0987654320987654,45.333333333333314,0)" xlink:href="#E"/><use transform="matrix(0.0987654320987654,0,0,0.0987654320987654,65.08641975308639,0)" xlink:href="#O"/><use transform="matrix(0.0987654320987654,0,0,0.0987654320987654,74.96296296296293,0)" xlink:href="#H"/><use transform="matrix(0.0987654320987654,0,0,0.0987654320987654,94.71604938271601,0)" xlink:href="#Q"/><use transform="matrix(0.0987654320987654,0,0,0.0987654320987654,114.46913580246907,0)" xlink:href="#G"/><use transform="matrix(0.0987654320987654,0,0,0.0987654320987654,122.27160493827154,0)" xlink:href="#R"/><use transform="matrix(0.0987654320987654,0,0,0.0987654320987654,130.07407407407402,0)" xlink:href="#G"/><use transform="matrix(0.0987654320987654,0,0,0.0987654320987654,137.87654320987647,0)" xlink:href="#I"/><use transform="matrix(0.0987654320987654,0,0,0.0987654320987654,157.62962962962956,0)" xlink:href="#H"/><use transform="matrix(0.0987654320987654,0,0,0.0987654320987654,177.38271604938265,0)" xlink:href="#I"/></g><g id="g"><use transform="matrix(0.0987654320987654,0,0,0.0987654320987654,0,0)" xlink:href="#L"/><use transform="matrix(0.0987654320987654,0,0,0.0987654320987654,23.703703703703695,0)" xlink:href="#O"/><use transform="matrix(0.0987654320987654,0,0,0.0987654320987654,33.58024691358023,0)" xlink:href="#C"/><use transform="matrix(0.0987654320987654,0,0,0.0987654320987654,53.333333333333314,0)" xlink:href="#E"/><use transform="matrix(0.0987654320987654,0,0,0.0987654320987654,73.08641975308639,0)" xlink:href="#F"/><use transform="matrix(0.0987654320987654,0,0,0.0987654320987654,90.86419753086416,0)" xlink:href="#G"/><use transform="matrix(0.0987654320987654,0,0,0.0987654320987654,98.66666666666663,0)" xlink:href="#K"/><use transform="matrix(0.0987654320987654,0,0,0.0987654320987654,118.41975308641972,0)" xlink:href="#E"/></g><path fill="#333" d="M100-194c63 0 86 42 84 106H49c0 40 14 67 53 68 26 1 43-12 49-29l28 8c-11 28-37 45-77 45C44 4 14-33 15-96c1-61 26-98 85-98zm52 81c6-60-76-77-97-28-3 7-6 17-6 28h103zm-74-98c8-23 27-35 38-54h36v5l-58 49H78" id="S"/><g id="h"><use transform="matrix(0.0987654320987654,0,0,0.0987654320987654,0,0)" xlink:href="#L"/><use transform="matrix(0.0987654320987654,0,0,0.0987654320987654,23.703703703703695,0)" xlink:href="#R"/><use transform="matrix(0.0987654320987654,0,0,0.0987654320987654,31.506172839506164,0)" xlink:href="#M"/><use transform="matrix(0.0987654320987654,0,0,0.0987654320987654,61.03703703703702,0)" xlink:href="#H"/><use transform="matrix(0.0987654320987654,0,0,0.0987654320987654,80.7901234567901,0)" xlink:href="#F"/><use transform="matrix(0.0987654320987654,0,0,0.0987654320987654,98.56790123456787,0)" xlink:href="#S"/><use transform="matrix(0.0987654320987654,0,0,0.0987654320987654,118.32098765432094,0)" xlink:href="#E"/></g><path fill="#333" d="M30 0v-248h33v221h125V0H30" id="T"/><path fill="#333" d="M177-190C167-65 218 103 67 71c-23-6-38-20-44-43l32-5c15 47 100 32 89-28v-30C133-14 115 1 83 1 29 1 15-40 15-95c0-56 16-97 71-98 29-1 48 16 59 35 1-10 0-23 2-32h30zM94-22c36 0 50-32 50-73 0-42-14-75-50-75-39 0-46 34-46 75s6 73 46 73" id="U"/><path fill="#333" d="M34 0v-190h32V0H34zM24-211c8-23 27-35 38-54h36v5l-58 49H24" id="V"/><g id="i"><use transform="matrix(0.0987654320987654,0,0,0.0987654320987654,0,0)" xlink:href="#T"/><use transform="matrix(0.0987654320987654,0,0,0.0987654320987654,19.753086419753078,0)" xlink:href="#P"/><use transform="matrix(0.0987654320987654,0,0,0.0987654320987654,39.506172839506156,0)" xlink:href="#U"/><use transform="matrix(0.0987654320987654,0,0,0.0987654320987654,59.25925925925924,0)" xlink:href="#V"/><use transform="matrix(0.0987654320987654,0,0,0.0987654320987654,69.13580246913578,0)" xlink:href="#N"/><use transform="matrix(0.0987654320987654,0,0,0.0987654320987654,86.91358024691355,0)" xlink:href="#O"/><use transform="matrix(0.0987654320987654,0,0,0.0987654320987654,96.7901234567901,0)" xlink:href="#G"/><use transform="matrix(0.0987654320987654,0,0,0.0987654320987654,104.59259259259255,0)" xlink:href="#F"/><use transform="matrix(0.0987654320987654,0,0,0.0987654320987654,122.37037037037032,0)" xlink:href="#H"/></g><g id="j"><use transform="matrix(0.0987654320987654,0,0,0.0987654320987654,0,0)" xlink:href="#B"/><use transform="matrix(0.0987654320987654,0,0,0.0987654320987654,27.654320987654312,0)" xlink:href="#H"/><use transform="matrix(0.0987654320987654,0,0,0.0987654320987654,47.40740740740739,0)" xlink:href="#D"/><use transform="matrix(0.0987654320987654,0,0,0.0987654320987654,59.16049382716047,0)" xlink:href="#H"/><use transform="matrix(0.0987654320987654,0,0,0.0987654320987654,78.91358024691355,0)" xlink:href="#E"/><use transform="matrix(0.0987654320987654,0,0,0.0987654320987654,98.66666666666663,0)" xlink:href="#O"/><use transform="matrix(0.0987654320987654,0,0,0.0987654320987654,108.54320987654317,0)" xlink:href="#V"/><use transform="matrix(0.0987654320987654,0,0,0.0987654320987654,118.41975308641972,0)" xlink:href="#H"/><use transform="matrix(0.0987654320987654,0,0,0.0987654320987654,138.1728395061728,0)" xlink:href="#N"/></g><path fill="#333" d="M185-189c-5-48-123-54-124 2 14 75 158 14 163 119 3 78-121 87-175 55-17-10-28-26-33-46l33-7c5 56 141 63 141-1 0-78-155-14-162-118-5-82 145-84 179-34 5 7 8 16 11 25" id="W"/><path fill="#333" d="M108 0H70L1-190h34L89-25l56-165h34" id="X"/><g id="k"><use transform="matrix(0.0987654320987654,0,0,0.0987654320987654,0,0)" xlink:href="#W"/><use transform="matrix(0.0987654320987654,0,0,0.0987654320987654,23.703703703703695,0)" xlink:href="#C"/><use transform="matrix(0.0987654320987654,0,0,0.0987654320987654,43.45679012345677,0)" xlink:href="#D"/><use transform="matrix(0.0987654320987654,0,0,0.0987654320987654,55.209876543209845,0)" xlink:href="#X"/><use transform="matrix(0.0987654320987654,0,0,0.0987654320987654,72.98765432098762,0)" xlink:href="#G"/><use transform="matrix(0.0987654320987654,0,0,0.0987654320987654,80.79012345679008,0)" xlink:href="#F"/><use transform="matrix(0.0987654320987654,0,0,0.0987654320987654,98.56790123456786,0)" xlink:href="#G"/><use transform="matrix(0.0987654320987654,0,0,0.0987654320987654,106.37037037037034,0)" xlink:href="#P"/><use transform="matrix(0.0987654320987654,0,0,0.0987654320987654,126.1234567901234,0)" xlink:href="#N"/></g><path fill="#333" d="M84 4C-5 8 30-112 23-190h32v120c0 31 7 50 39 49 72-2 45-101 50-169h31l1 190h-30c-1-10 1-25-2-33-11 22-28 36-60 37" id="Y"/><g id="l"><use transform="matrix(0.0987654320987654,0,0,0.0987654320987654,0,0)" xlink:href="#L"/><use transform="matrix(0.0987654320987654,0,0,0.0987654320987654,23.703703703703695,0)" xlink:href="#Y"/><use transform="matrix(0.0987654320987654,0,0,0.0987654320987654,43.45679012345677,0)" xlink:href="#I"/><use transform="matrix(0.0987654320987654,0,0,0.0987654320987654,63.209876543209845,0)" xlink:href="#G"/><use transform="matrix(0.0987654320987654,0,0,0.0987654320987654,71.01234567901231,0)" xlink:href="#O"/><use transform="matrix(0.0987654320987654,0,0,0.0987654320987654,80.88888888888886,0)" xlink:href="#P"/><use transform="matrix(0.0987654320987654,0,0,0.0987654320987654,100.64197530864193,0)" xlink:href="#D"/><use transform="matrix(0.0987654320987654,0,0,0.0987654320987654,112.395061728395,0)" xlink:href="#V"/><use transform="matrix(0.0987654320987654,0,0,0.0987654320987654,122.27160493827154,0)" xlink:href="#H"/></g><path fill="#333" d="M63-220v92h138v28H63V0H30v-248h175v28H63" id="Z"/><path fill="#333" d="M9 0v-24l116-142H16v-24h144v24L44-24h123V0H9" id="aa"/><g id="m"><use transform="matrix(0.0987654320987654,0,0,0.0987654320987654,0,0)" xlink:href="#Z"/><use transform="matrix(0.0987654320987654,0,0,0.0987654320987654,21.629629629629623,0)" xlink:href="#G"/><use transform="matrix(0.0987654320987654,0,0,0.0987654320987654,29.432098765432087,0)" xlink:href="#E"/><use transform="matrix(0.0987654320987654,0,0,0.0987654320987654,49.18518518518516,0)" xlink:href="#H"/><use transform="matrix(0.0987654320987654,0,0,0.0987654320987654,68.93827160493824,0)" xlink:href="#E"/><use transform="matrix(0.0987654320987654,0,0,0.0987654320987654,88.69135802469131,0)" xlink:href="#aa"/><use transform="matrix(0.0987654320987654,0,0,0.0987654320987654,106.46913580246908,0)" xlink:href="#H"/><use transform="matrix(0.0987654320987654,0,0,0.0987654320987654,126.22222222222216,0)" xlink:href="#N"/></g><path fill="#333" d="M233-177c-1 41-23 64-60 70L243 0h-38l-65-103H63V0H30v-248c88 3 205-21 203 71zM63-129c60-2 137 13 137-47 0-61-80-42-137-45v92" id="ab"/><g id="n"><use transform="matrix(0.0987654320987654,0,0,0.0987654320987654,0,0)" xlink:href="#ab"/><use transform="matrix(0.0987654320987654,0,0,0.0987654320987654,25.58024691358024,0)" xlink:href="#C"/><use transform="matrix(0.0987654320987654,0,0,0.0987654320987654,45.333333333333314,0)" xlink:href="#F"/><use transform="matrix(0.0987654320987654,0,0,0.0987654320987654,63.11111111111109,0)" xlink:href="#Y"/><use transform="matrix(0.0987654320987654,0,0,0.0987654320987654,82.86419753086416,0)" xlink:href="#D"/><use transform="matrix(0.0987654320987654,0,0,0.0987654320987654,94.61728395061724,0)" xlink:href="#N"/><use transform="matrix(0.0987654320987654,0,0,0.0987654320987654,112.395061728395,0)" xlink:href="#P"/><use transform="matrix(0.0987654320987654,0,0,0.0987654320987654,132.1481481481481,0)" xlink:href="#N"/></g><path fill="#333" d="M197 0v-115H63V0H30v-248h33v105h134v-105h34V0h-34" id="ac"/><g id="o"><use transform="matrix(0.0987654320987654,0,0,0.0987654320987654,0,0)" xlink:href="#ac"/><use transform="matrix(0.0987654320987654,0,0,0.0987654320987654,25.58024691358024,0)" xlink:href="#Y"/><use transform="matrix(0.0987654320987654,0,0,0.0987654320987654,45.333333333333314,0)" xlink:href="#M"/><use transform="matrix(0.0987654320987654,0,0,0.0987654320987654,74.86419753086417,0)" xlink:href="#H"/><use transform="matrix(0.0987654320987654,0,0,0.0987654320987654,94.61728395061725,0)" xlink:href="#E"/><use transform="matrix(0.0987654320987654,0,0,0.0987654320987654,114.37037037037034,0)" xlink:href="#P"/><use transform="matrix(0.0987654320987654,0,0,0.0987654320987654,134.1234567901234,0)" xlink:href="#N"/></g><g id="p"><use transform="matrix(0.0987654320987654,0,0,0.0987654320987654,0,0)" xlink:href="#B"/><use transform="matrix(0.0987654320987654,0,0,0.0987654320987654,27.654320987654312,0)" xlink:href="#C"/><use transform="matrix(0.0987654320987654,0,0,0.0987654320987654,47.40740740740739,0)" xlink:href="#D"/><use transform="matrix(0.0987654320987654,0,0,0.0987654320987654,59.16049382716047,0)" xlink:href="#C"/><use transform="matrix(0.0987654320987654,0,0,0.0987654320987654,78.91358024691355,0)" xlink:href="#E"/><use transform="matrix(0.0987654320987654,0,0,0.0987654320987654,98.66666666666663,0)" xlink:href="#F"/><use transform="matrix(0.0987654320987654,0,0,0.0987654320987654,116.4444444444444,0)" xlink:href="#G"/><use transform="matrix(0.0987654320987654,0,0,0.0987654320987654,124.24691358024687,0)" xlink:href="#H"/></g><g id="q"><use transform="matrix(0.0987654320987654,0,0,0.0987654320987654,0,0)" xlink:href="#y"/><use transform="matrix(0.0987654320987654,0,0,0.0987654320987654,25.58024691358024,0)" xlink:href="#P"/><use transform="matrix(0.0987654320987654,0,0,0.0987654320987654,45.333333333333314,0)" xlink:href="#M"/><use transform="matrix(0.0987654320987654,0,0,0.0987654320987654,74.86419753086417,0)" xlink:href="#C"/><use transform="matrix(0.0987654320987654,0,0,0.0987654320987654,94.61728395061725,0)" xlink:href="#D"/><use transform="matrix(0.0987654320987654,0,0,0.0987654320987654,106.37037037037034,0)" xlink:href="#F"/><use transform="matrix(0.0987654320987654,0,0,0.0987654320987654,124.14814814814811,0)" xlink:href="#G"/><use transform="matrix(0.0987654320987654,0,0,0.0987654320987654,131.95061728395055,0)" xlink:href="#H"/><use transform="matrix(0.0987654320987654,0,0,0.0987654320987654,151.70370370370364,0)" xlink:href="#R"/></g><g id="r"><use transform="matrix(0.0987654320987654,0,0,0.0987654320987654,0,0)" xlink:href="#y"/><use transform="matrix(0.0987654320987654,0,0,0.0987654320987654,25.58024691358024,0)" xlink:href="#P"/><use transform="matrix(0.0987654320987654,0,0,0.0987654320987654,45.333333333333314,0)" xlink:href="#M"/><use transform="matrix(0.0987654320987654,0,0,0.0987654320987654,74.86419753086417,0)" xlink:href="#J"/><use transform="matrix(0.0987654320987654,0,0,0.0987654320987654,94.61728395061725,0)" xlink:href="#D"/><use transform="matrix(0.0987654320987654,0,0,0.0987654320987654,106.37037037037034,0)" xlink:href="#H"/><use transform="matrix(0.0987654320987654,0,0,0.0987654320987654,126.1234567901234,0)" xlink:href="#N"/></g><path fill="#333" d="M240 0l2-218c-23 76-54 145-80 218h-23L58-218 59 0H30v-248h44l77 211c21-75 51-140 76-211h43V0h-30" id="ad"/><path fill="#333" d="M143 0L79-87 56-68V0H24v-261h32v163l83-92h37l-77 82L181 0h-38" id="ae"/><g id="s"><use transform="matrix(0.0987654320987654,0,0,0.0987654320987654,0,0)" xlink:href="#ad"/><use transform="matrix(0.0987654320987654,0,0,0.0987654320987654,29.530864197530853,0)" xlink:href="#H"/><use transform="matrix(0.0987654320987654,0,0,0.0987654320987654,49.283950617283935,0)" xlink:href="#D"/><use transform="matrix(0.0987654320987654,0,0,0.0987654320987654,61.03703703703702,0)" xlink:href="#ae"/><use transform="matrix(0.0987654320987654,0,0,0.0987654320987654,78.81481481481478,0)" xlink:href="#C"/><use transform="matrix(0.0987654320987654,0,0,0.0987654320987654,98.56790123456786,0)" xlink:href="#O"/><use transform="matrix(0.0987654320987654,0,0,0.0987654320987654,108.44444444444441,0)" xlink:href="#G"/><use transform="matrix(0.0987654320987654,0,0,0.0987654320987654,116.24691358024687,0)" xlink:href="#E"/><use transform="matrix(0.0987654320987654,0,0,0.0987654320987654,135.99999999999994,0)" xlink:href="#U"/></g><path fill="#333" d="M137 0h-34L2-248h35l83 218 83-218h36" id="af"/><g id="t"><use transform="matrix(0.0987654320987654,0,0,0.0987654320987654,0,0)" xlink:href="#af"/><use transform="matrix(0.0987654320987654,0,0,0.0987654320987654,21.72839506172839,0)" xlink:href="#C"/><use transform="matrix(0.0987654320987654,0,0,0.0987654320987654,41.48148148148147,0)" xlink:href="#E"/><use transform="matrix(0.0987654320987654,0,0,0.0987654320987654,61.234567901234534,0)" xlink:href="#O"/><use transform="matrix(0.0987654320987654,0,0,0.0987654320987654,71.11111111111109,0)" xlink:href="#H"/><use transform="matrix(0.0987654320987654,0,0,0.0987654320987654,90.86419753086416,0)" xlink:href="#N"/></g><path fill="#333" d="M33 0v-248h34V0H33" id="ag"/><g id="v"><use transform="matrix(0.0987654320987654,0,0,0.0987654320987654,0,0)" xlink:href="#ag"/><use transform="matrix(0.0987654320987654,0,0,0.0987654320987654,9.876543209876539,0)" xlink:href="#M"/><use transform="matrix(0.0987654320987654,0,0,0.0987654320987654,39.40740740740739,0)" xlink:href="#J"/><use transform="matrix(0.0987654320987654,0,0,0.0987654320987654,59.160493827160465,0)" xlink:href="#P"/><use transform="matrix(0.0987654320987654,0,0,0.0987654320987654,78.91358024691354,0)" xlink:href="#D"/><use transform="matrix(0.0987654320987654,0,0,0.0987654320987654,90.66666666666663,0)" xlink:href="#O"/><use transform="matrix(0.0987654320987654,0,0,0.0987654320987654,100.54320987654317,0)" xlink:href="#H"/><use transform="matrix(0.0987654320987654,0,0,0.0987654320987654,120.29629629629626,0)" xlink:href="#F"/><use transform="matrix(0.0987654320987654,0,0,0.0987654320987654,138.07407407407402,0)" xlink:href="#G"/><use transform="matrix(0.0987654320987654,0,0,0.0987654320987654,145.87654320987647,0)" xlink:href="#K"/><use transform="matrix(0.0987654320987654,0,0,0.0987654320987654,165.62962962962956,0)" xlink:href="#E"/></g><g id="w"><use transform="matrix(0.19753086419753055,0,0,0.19753086419753055,0,0)" xlink:href="#A"/><use transform="matrix(0.19753086419753055,0,0,0.19753086419753055,55.308641975308554,0)" xlink:href="#D"/><use transform="matrix(0.19753086419753055,0,0,0.19753086419753055,78.8148148148147,0)" xlink:href="#U"/><use transform="matrix(0.19753086419753055,0,0,0.19753086419753055,118.3209876543208,0)" xlink:href="#H"/><use transform="matrix(0.19753086419753055,0,0,0.19753086419753055,157.8271604938269,0)" xlink:href="#E"/><use transform="matrix(0.19753086419753055,0,0,0.19753086419753055,197.33333333333303,0)" xlink:href="#G"/><use transform="matrix(0.19753086419753055,0,0,0.19753086419753055,212.93827160493794,0)" xlink:href="#U"/><use transform="matrix(0.19753086419753055,0,0,0.19753086419753055,252.44444444444403,0)" xlink:href="#D"/><use transform="matrix(0.19753086419753055,0,0,0.19753086419753055,275.9506172839502,0)" xlink:href="#H"/><use transform="matrix(0.19753086419753055,0,0,0.19753086419753055,315.4567901234563,0)" xlink:href="#M"/><use transform="matrix(0.19753086419753055,0,0,0.19753086419753055,374.5185185185179,0)" xlink:href="#H"/></g><g id="x"><use transform="matrix(0.19753086419753055,0,0,0.19753086419753055,0,0)" xlink:href="#z"/><use transform="matrix(0.19753086419753055,0,0,0.19753086419753055,47.407407407407334,0)" xlink:href="#M"/><use transform="matrix(0.19753086419753055,0,0,0.19753086419753055,106.46913580246897,0)" xlink:href="#J"/><use transform="matrix(0.19753086419753055,0,0,0.19753086419753055,145.97530864197506,0)" xlink:href="#D"/><use transform="matrix(0.19753086419753055,0,0,0.19753086419753055,169.48148148148118,0)" xlink:href="#C"/><use transform="matrix(0.19753086419753055,0,0,0.19753086419753055,208.98765432098733,0)" xlink:href="#N"/><use transform="matrix(0.19753086419753055,0,0,0.19753086419753055,244.54320987654276,0)" xlink:href="#H"/><use transform="matrix(0.19753086419753055,0,0,0.19753086419753055,284.0493827160489,0)" xlink:href="#D"/><use transform="matrix(0.19753086419753055,0,0,0.19753086419753055,307.55555555555503,0)" xlink:href="#G"/><use transform="matrix(0.19753086419753055,0,0,0.19753086419753055,323.16049382715994,0)" xlink:href="#H"/><use transform="matrix(0.19753086419753055,0,0,0.19753086419753055,362.66666666666606,0)" xlink:href="#R"/></g></defs></g></svg>