<svg xmlns="http://www.w3.org/2000/svg" xmlns:xlink="http://www.w3.org/1999/xlink" xmlns:lucid="lucid" width="1680" height="1708.33"><g transform="translate(-20 -11.666666666666885)" lucid:page-tab-id="0_0"><path d="M880 186c0-3.3 2.7-6 6-6h788c3.3 0 6 2.7 6 6v728c0 3.3-2.7 6-6 6H886c-3.3 0-6-2.7-6-6z" stroke="#000" stroke-opacity="0" stroke-width="3" fill="url(#a)"/><use xlink:href="#b" transform="matrix(1,0,0,1,885,185) translate(11.888888888888882 271.53125)"/><use xlink:href="#c" transform="matrix(1,0,0,1,885,185) translate(37.777777777777764 271.53125)"/><use xlink:href="#d" transform="matrix(1,0,0,1,885,185) translate(248.66666666666669 271.53125)"/><use xlink:href="#e" transform="matrix(1,0,0,1,885,185) translate(304.22222222222223 271.53125)"/><use xlink:href="#f" transform="matrix(1,0,0,1,885,185) translate(366.33333333333337 271.53125)"/><use xlink:href="#d" transform="matrix(1,0,0,1,885,185) translate(523.7777777777778 271.53125)"/><use xlink:href="#g" transform="matrix(1,0,0,1,885,185) translate(579.3333333333334 271.53125)"/><use xlink:href="#b" transform="matrix(1,0,0,1,885,185) translate(11.888888888888882 324.33125)"/><use xlink:href="#h" transform="matrix(1,0,0,1,885,185) translate(37.777777777777764 324.33125)"/><use xlink:href="#i" transform="matrix(1,0,0,1,885,185) translate(228.77777777777777 324.33125)"/><use xlink:href="#j" transform="matrix(1,0,0,1,885,185) translate(284.3333333333333 324.33125)"/><use xlink:href="#k" transform="matrix(1,0,0,1,885,185) translate(406.3333333333333 324.33125)"/><use xlink:href="#b" transform="matrix(1,0,0,1,885,185) translate(11.888888888888882 377.13125)"/><use xlink:href="#l" transform="matrix(1,0,0,1,885,185) translate(37.777777777777764 377.13125)"/><use xlink:href="#m" transform="matrix(1,0,0,1,885,185) translate(170.77777777777777 377.13125)"/><use xlink:href="#i" transform="matrix(1,0,0,1,885,185) translate(281.77777777777777 377.13125)"/><use xlink:href="#n" transform="matrix(1,0,0,1,885,185) translate(337.3333333333333 377.13125)"/><use xlink:href="#o" transform="matrix(1,0,0,1,885,185) translate(599 377.13125)"/><use xlink:href="#p" transform="matrix(1,0,0,1,885,185) translate(37.777777777777764 429.93125000000003)"/><use xlink:href="#q" transform="matrix(1,0,0,1,885,185) translate(395 482.73125000000005)"/><path d="M880 186c0-3.3 2.7-6 6-6h788c3.3 0 6 2.7 6 6v51c0 3.3-2.7 6-6 6H886c-3.3 0-6-2.7-6-6z" stroke="#000" stroke-opacity="0" stroke-width="3" fill="#fff" fill-opacity="0"/><g><use xlink:href="#r" transform="matrix(1,0,0,1,885,185) translate(191.22222222222254 49.77777777777771)"/></g><path d="M40 186c0-3.3 2.7-6 6-6h788c3.3 0 6 2.7 6 6v728c0 3.3-2.7 6-6 6H46c-3.3 0-6-2.7-6-6z" stroke="#000" stroke-opacity="0" stroke-width="3" fill="url(#s)"/><g><use xlink:href="#b" transform="matrix(1,0,0,1,45,185) translate(11.888888888888882 191.6875)"/><use xlink:href="#t" transform="matrix(1,0,0,1,45,185) translate(37.777777777777764 191.6875)"/><use xlink:href="#u" transform="matrix(1,0,0,1,45,185) translate(292.8888888888889 191.6875)"/><use xlink:href="#b" transform="matrix(1,0,0,1,45,185) translate(11.888888888888882 244.4875)"/><use xlink:href="#v" transform="matrix(1,0,0,1,45,185) translate(37.777777777777764 244.4875)"/><use xlink:href="#d" transform="matrix(1,0,0,1,45,185) translate(226.44444444444446 244.4875)"/><use xlink:href="#w" transform="matrix(1,0,0,1,45,185) translate(282 244.4875)"/><use xlink:href="#i" transform="matrix(1,0,0,1,45,185) translate(433 244.4875)"/><use xlink:href="#x" transform="matrix(1,0,0,1,45,185) translate(488.55555555555554 244.4875)"/><use xlink:href="#b" transform="matrix(1,0,0,1,45,185) translate(11.888888888888882 297.2875)"/><use xlink:href="#y" transform="matrix(1,0,0,1,45,185) translate(37.777777777777764 297.2875)"/><use xlink:href="#i" transform="matrix(1,0,0,1,45,185) translate(237.33333333333334 297.2875)"/><use xlink:href="#p" transform="matrix(1,0,0,1,45,185) translate(292.8888888888889 297.2875)"/><use xlink:href="#b" transform="matrix(1,0,0,1,45,185) translate(11.888888888888882 350.08750000000003)"/><use xlink:href="#z" transform="matrix(1,0,0,1,45,185) translate(37.777777777777764 350.08750000000003)"/><use xlink:href="#A" transform="matrix(1,0,0,1,45,185) translate(217.33333333333334 350.08750000000003)"/><use xlink:href="#B" transform="matrix(1,0,0,1,45,185) translate(308.33333333333337 350.08750000000003)"/><use xlink:href="#i" transform="matrix(1,0,0,1,45,185) translate(426.00000000000006 350.08750000000003)"/><use xlink:href="#C" transform="matrix(1,0,0,1,45,185) translate(481.5555555555556 350.08750000000003)"/><use xlink:href="#b" transform="matrix(1,0,0,1,45,185) translate(11.888888888888882 402.88750000000005)"/><use xlink:href="#D" transform="matrix(1,0,0,1,45,185) translate(37.777777777777764 402.88750000000005)"/><use xlink:href="#E" transform="matrix(1,0,0,1,45,185) translate(204.11111111111111 402.88750000000005)"/><use xlink:href="#F" transform="matrix(1,0,0,1,45,185) translate(279.6666666666667 402.88750000000005)"/><use xlink:href="#G" transform="matrix(1,0,0,1,45,185) translate(446.11111111111114 402.88750000000005)"/><use xlink:href="#b" transform="matrix(1,0,0,1,45,185) translate(11.888888888888882 455.68750000000006)"/><use xlink:href="#H" transform="matrix(1,0,0,1,45,185) translate(37.777777777777764 455.68750000000006)"/><use xlink:href="#d" transform="matrix(1,0,0,1,45,185) translate(255.44444444444446 455.68750000000006)"/><use xlink:href="#I" transform="matrix(1,0,0,1,45,185) translate(311 455.68750000000006)"/><use xlink:href="#J" transform="matrix(1,0,0,1,45,185) translate(353.1111111111111 455.68750000000006)"/><use xlink:href="#b" transform="matrix(1,0,0,1,45,185) translate(11.888888888888882 508.48750000000007)"/><use xlink:href="#K" transform="matrix(1,0,0,1,45,185) translate(37.777777777777764 508.48750000000007)"/><use xlink:href="#i" transform="matrix(1,0,0,1,45,185) translate(248.7777777777778 508.48750000000007)"/><use xlink:href="#L" transform="matrix(1,0,0,1,45,185) translate(304.33333333333337 508.48750000000007)"/><use xlink:href="#M" transform="matrix(1,0,0,1,45,185) translate(490.8888888888889 508.48750000000007)"/><use xlink:href="#N" transform="matrix(1,0,0,1,45,185) translate(533 508.48750000000007)"/><use xlink:href="#O" transform="matrix(1,0,0,1,45,185) translate(37.777777777777764 561.2875)"/></g><path d="M40 186c0-3.3 2.7-6 6-6h788c3.3 0 6 2.7 6 6v51c0 3.3-2.7 6-6 6H46c-3.3 0-6-2.7-6-6z" stroke="#000" stroke-opacity="0" stroke-width="3" fill="#fff" fill-opacity="0"/><g><use xlink:href="#P" transform="matrix(1,0,0,1,45,185) translate(260.3580246913582 49.77777777777771)"/></g><path d="M40 966c0-3.3 2.7-6 6-6h788c3.3 0 6 2.7 6 6v728c0 3.3-2.7 6-6 6H46c-3.3 0-6-2.7-6-6z" stroke="#000" stroke-opacity="0" stroke-width="3" fill="url(#Q)"/><g><use xlink:href="#b" transform="matrix(1,0,0,1,45,965) translate(11.888888888888882 294.34375)"/><use xlink:href="#R" transform="matrix(1,0,0,1,45,965) translate(37.777777777777764 294.34375)"/><use xlink:href="#S" transform="matrix(1,0,0,1,45,965) translate(204.22222222222223 294.34375)"/><use xlink:href="#T" transform="matrix(1,0,0,1,45,965) translate(326.22222222222223 294.34375)"/><use xlink:href="#b" transform="matrix(1,0,0,1,45,965) translate(11.888888888888882 347.14375)"/><use xlink:href="#U" transform="matrix(1,0,0,1,45,965) translate(37.777777777777764 347.14375)"/><use xlink:href="#i" transform="matrix(1,0,0,1,45,965) translate(124.33333333333331 347.14375)"/><use xlink:href="#V" transform="matrix(1,0,0,1,45,965) translate(179.88888888888886 347.14375)"/><use xlink:href="#d" transform="matrix(1,0,0,1,45,965) translate(326.33333333333326 347.14375)"/><use xlink:href="#W" transform="matrix(1,0,0,1,45,965) translate(381.8888888888888 347.14375)"/><use xlink:href="#i" transform="matrix(1,0,0,1,45,965) translate(535.1111111111111 347.14375)"/><use xlink:href="#X" transform="matrix(1,0,0,1,45,965) translate(590.6666666666666 347.14375)"/><use xlink:href="#b" transform="matrix(1,0,0,1,45,965) translate(11.888888888888882 399.94375)"/><use xlink:href="#Y" transform="matrix(1,0,0,1,45,965) translate(37.777777777777764 399.94375)"/><use xlink:href="#i" transform="matrix(1,0,0,1,45,965) translate(200 399.94375)"/><use xlink:href="#Z" transform="matrix(1,0,0,1,45,965) translate(255.55555555555554 399.94375)"/><use xlink:href="#i" transform="matrix(1,0,0,1,45,965) translate(428.66666666666663 399.94375)"/><use xlink:href="#aa" transform="matrix(1,0,0,1,45,965) translate(484.2222222222222 399.94375)"/><use xlink:href="#b" transform="matrix(1,0,0,1,45,965) translate(11.888888888888882 452.74375000000003)"/><use xlink:href="#ab" transform="matrix(1,0,0,1,45,965) translate(37.777777777777764 452.74375000000003)"/><use xlink:href="#i" transform="matrix(1,0,0,1,45,965) translate(153.22222222222223 452.74375000000003)"/><use xlink:href="#ac" transform="matrix(1,0,0,1,45,965) translate(208.77777777777777 452.74375000000003)"/><use xlink:href="#ad" transform="matrix(1,0,0,1,45,965) translate(315.3333333333333 452.74375000000003)"/><use xlink:href="#d" transform="matrix(1,0,0,1,45,965) translate(390.77777777777777 452.74375000000003)"/><use xlink:href="#ae" transform="matrix(1,0,0,1,45,965) translate(446.3333333333333 452.74375000000003)"/><use xlink:href="#af" transform="matrix(1,0,0,1,45,965) translate(577.3333333333333 452.74375000000003)"/></g><path d="M40 966c0-3.3 2.7-6 6-6h788c3.3 0 6 2.7 6 6v51c0 3.3-2.7 6-6 6H46c-3.3 0-6-2.7-6-6z" stroke="#000" stroke-opacity="0" stroke-width="3" fill="#fff" fill-opacity="0"/><g><use xlink:href="#ag" transform="matrix(1,0,0,1,45,965) translate(232.8765432098768 49.77777777777771)"/></g><path d="M880 966c0-3.3 2.7-6 6-6h788c3.3 0 6 2.7 6 6v728c0 3.3-2.7 6-6 6H886c-3.3 0-6-2.7-6-6z" stroke="#000" stroke-opacity="0" stroke-width="3" fill="url(#ah)"/><g><use xlink:href="#b" transform="matrix(1,0,0,1,885,965) translate(11.888888888888882 214.5)"/><use xlink:href="#ai" transform="matrix(1,0,0,1,885,965) translate(37.777777777777764 214.5)"/><use xlink:href="#i" transform="matrix(1,0,0,1,885,965) translate(284.11111111111114 214.5)"/><use xlink:href="#L" transform="matrix(1,0,0,1,885,965) translate(339.6666666666667 214.5)"/><use xlink:href="#aj" transform="matrix(1,0,0,1,885,965) translate(526.2222222222223 214.5)"/><use xlink:href="#o" transform="matrix(1,0,0,1,885,965) translate(655 214.5)"/><use xlink:href="#ak" transform="matrix(1,0,0,1,885,965) translate(37.777777777777764 267.3)"/><use xlink:href="#al" transform="matrix(1,0,0,1,885,965) translate(206.55555555555557 267.3)"/><use xlink:href="#am" transform="matrix(1,0,0,1,885,965) translate(373 267.3)"/><use xlink:href="#an" transform="matrix(1,0,0,1,885,965) translate(483.8888888888889 267.3)"/><use xlink:href="#b" transform="matrix(1,0,0,1,885,965) translate(11.888888888888882 320.1)"/><use xlink:href="#ao" transform="matrix(1,0,0,1,885,965) translate(37.777777777777764 320.1)"/><use xlink:href="#ap" transform="matrix(1,0,0,1,885,965) translate(200.44444444444446 320.1)"/><use xlink:href="#A" transform="matrix(1,0,0,1,885,965) translate(371.55555555555554 320.1)"/><use xlink:href="#aq" transform="matrix(1,0,0,1,885,965) translate(462.55555555555554 320.1)"/><use xlink:href="#ar" transform="matrix(1,0,0,1,885,965) translate(620.2222222222222 320.1)"/><use xlink:href="#as" transform="matrix(1,0,0,1,885,965) translate(37.777777777777764 372.90000000000003)"/><use xlink:href="#b" transform="matrix(1,0,0,1,885,965) translate(11.888888888888882 425.70000000000005)"/><use xlink:href="#at" transform="matrix(1,0,0,1,885,965) translate(37.777777777777764 425.70000000000005)"/><use xlink:href="#d" transform="matrix(1,0,0,1,885,965) translate(166.44444444444446 425.70000000000005)"/><use xlink:href="#e" transform="matrix(1,0,0,1,885,965) translate(222 425.70000000000005)"/><use xlink:href="#au" transform="matrix(1,0,0,1,885,965) translate(284.1111111111111 425.70000000000005)"/><use xlink:href="#i" transform="matrix(1,0,0,1,885,965) translate(399.4444444444444 425.70000000000005)"/><use xlink:href="#av" transform="matrix(1,0,0,1,885,965) translate(454.99999999999994 425.70000000000005)"/><use xlink:href="#b" transform="matrix(1,0,0,1,885,965) translate(11.888888888888882 478.50000000000006)"/><use xlink:href="#aw" transform="matrix(1,0,0,1,885,965) translate(37.777777777777764 478.50000000000006)"/><use xlink:href="#E" transform="matrix(1,0,0,1,885,965) translate(228.66666666666669 478.50000000000006)"/><use xlink:href="#ax" transform="matrix(1,0,0,1,885,965) translate(304.22222222222223 478.50000000000006)"/><use xlink:href="#ay" transform="matrix(1,0,0,1,885,965) translate(357.55555555555554 478.50000000000006)"/><use xlink:href="#az" transform="matrix(1,0,0,1,885,965) translate(479.55555555555554 478.50000000000006)"/><use xlink:href="#o" transform="matrix(1,0,0,1,885,965) translate(610.5555555555555 478.50000000000006)"/><use xlink:href="#aA" transform="matrix(1,0,0,1,885,965) translate(37.777777777777764 531.3000000000001)"/></g><path d="M880 966c0-3.3 2.7-6 6-6h788c3.3 0 6 2.7 6 6v51c0 3.3-2.7 6-6 6H886c-3.3 0-6-2.7-6-6z" stroke="#000" stroke-opacity="0" stroke-width="3" fill="#fff" fill-opacity="0"/><g><use xlink:href="#aB" transform="matrix(1,0,0,1,885,965) translate(248.17283950617306 49.77777777777771)"/></g><path d="M380 37.67c0-3.32 2.7-6 6-6h968c3.3 0 6 2.68 6 6V134c0 3.3-2.7 6-6 6H386c-3.3 0-6-2.7-6-6z" stroke="#000" stroke-opacity="0" stroke-width="3" fill="#fff" fill-opacity="0"/><g><use xlink:href="#aC" transform="matrix(1,0,0,1,385,36.666666666666885) translate(124.66049382716153 88.88888888888863)"/><use xlink:href="#aD" transform="matrix(1,0,0,1,385,36.666666666666885) translate(537.3148148148146 88.88888888888863)"/></g><defs><linearGradient gradientUnits="userSpaceOnUse" id="a" x1="880" y1="180" x2="1680" y2="717.64"><stop offset="0%" stop-color="#0c7cba"/><stop offset="100%" stop-color="#83bbe5"/></linearGradient><path d="M62-168c30 0 50 19 50 48S92-70 62-70c-29 0-48-21-48-50s20-48 48-48" id="aE"/><use transform="matrix(0.1111111111111111,0,0,0.1111111111111111,0,0)" xlink:href="#aE" id="b"/><path d="M33 0v-248h34V0H33" id="aF"/><path d="M117-194c89-4 53 116 60 194h-32v-121c0-31-8-49-39-48C34-167 62-67 57 0H25l-1-190h30c1 10-1 24 2 32 11-22 29-35 61-36" id="aG"/><path d="M96-169c-40 0-48 33-48 73s9 75 48 75c24 0 41-14 43-38l32 2c-6 37-31 61-74 61-59 0-76-41-82-99-10-93 101-131 147-64 4 7 5 14 7 22l-32 3c-4-21-16-35-41-35" id="aH"/><path d="M114-163C36-179 61-72 57 0H25l-1-190h30c1 12-1 29 2 39 6-27 23-49 58-41v29" id="aI"/><path d="M100-194c63 0 86 42 84 106H49c0 40 14 67 53 68 26 1 43-12 49-29l28 8c-11 28-37 45-77 45C44 4 14-33 15-96c1-61 26-98 85-98zm52 81c6-60-76-77-97-28-3 7-6 17-6 28h103" id="aJ"/><path d="M210-169c-67 3-38 105-44 169h-31v-121c0-29-5-50-35-48C34-165 62-65 56 0H25l-1-190h30c1 10-1 24 2 32 10-44 99-50 107 0 11-21 27-35 58-36 85-2 47 119 55 194h-31v-121c0-29-5-49-35-48" id="aK"/><path d="M59-47c-2 24 18 29 38 22v24C64 9 27 4 27-40v-127H5v-23h24l9-43h21v43h35v23H59v120" id="aL"/><path d="M100-194c62-1 85 37 85 99 1 63-27 99-86 99S16-35 15-95c0-66 28-99 85-99zM99-20c44 1 53-31 53-75 0-43-8-75-51-75s-53 32-53 75 10 74 51 75" id="aM"/><g id="c"><use transform="matrix(0.1111111111111111,0,0,0.1111111111111111,0,0)" xlink:href="#aF"/><use transform="matrix(0.1111111111111111,0,0,0.1111111111111111,11.11111111111111,0)" xlink:href="#aG"/><use transform="matrix(0.1111111111111111,0,0,0.1111111111111111,33.33333333333333,0)" xlink:href="#aH"/><use transform="matrix(0.1111111111111111,0,0,0.1111111111111111,53.33333333333333,0)" xlink:href="#aI"/><use transform="matrix(0.1111111111111111,0,0,0.1111111111111111,66.55555555555554,0)" xlink:href="#aJ"/><use transform="matrix(0.1111111111111111,0,0,0.1111111111111111,88.77777777777777,0)" xlink:href="#aK"/><use transform="matrix(0.1111111111111111,0,0,0.1111111111111111,122,0)" xlink:href="#aJ"/><use transform="matrix(0.1111111111111111,0,0,0.1111111111111111,144.22222222222223,0)" xlink:href="#aG"/><use transform="matrix(0.1111111111111111,0,0,0.1111111111111111,166.44444444444446,0)" xlink:href="#aL"/><use transform="matrix(0.1111111111111111,0,0,0.1111111111111111,177.55555555555557,0)" xlink:href="#aM"/></g><g id="d"><use transform="matrix(0.1111111111111111,0,0,0.1111111111111111,0,0)" xlink:href="#aJ"/><use transform="matrix(0.1111111111111111,0,0,0.1111111111111111,22.22222222222222,0)" xlink:href="#aG"/></g><path d="M24 0v-261h32V0H24" id="aN"/><path d="M141-36C126-15 110 5 73 4 37 3 15-17 15-53c-1-64 63-63 125-63 3-35-9-54-41-54-24 1-41 7-42 31l-33-3c5-37 33-52 76-52 45 0 72 20 72 64v82c-1 20 7 32 28 27v20c-31 9-61-2-59-35zM48-53c0 20 12 33 32 33 41-3 63-29 60-74-43 2-92-5-92 41" id="aO"/><path d="M135-143c-3-34-86-38-87 0 15 53 115 12 119 90S17 21 10-45l28-5c4 36 97 45 98 0-10-56-113-15-118-90-4-57 82-63 122-42 12 7 21 19 24 35" id="aP"/><g id="e"><use transform="matrix(0.1111111111111111,0,0,0.1111111111111111,0,0)" xlink:href="#aN"/><use transform="matrix(0.1111111111111111,0,0,0.1111111111111111,8.777777777777777,0)" xlink:href="#aO"/><use transform="matrix(0.1111111111111111,0,0,0.1111111111111111,31,0)" xlink:href="#aP"/></g><path d="M115-194c55 1 70 41 70 98S169 2 115 4C84 4 66-9 55-30l1 105H24l-1-265h31l2 30c10-21 28-34 59-34zm-8 174c40 0 45-34 45-75s-6-73-45-74c-42 0-51 32-51 76 0 43 10 73 51 73" id="aQ"/><g id="f"><use transform="matrix(0.1111111111111111,0,0,0.1111111111111111,0,0)" xlink:href="#aH"/><use transform="matrix(0.1111111111111111,0,0,0.1111111111111111,20,0)" xlink:href="#aM"/><use transform="matrix(0.1111111111111111,0,0,0.1111111111111111,42.22222222222222,0)" xlink:href="#aK"/><use transform="matrix(0.1111111111111111,0,0,0.1111111111111111,75.44444444444444,0)" xlink:href="#aQ"/><use transform="matrix(0.1111111111111111,0,0,0.1111111111111111,97.66666666666666,0)" xlink:href="#aI"/><use transform="matrix(0.1111111111111111,0,0,0.1111111111111111,110.88888888888889,0)" xlink:href="#aO"/><use transform="matrix(0.1111111111111111,0,0,0.1111111111111111,133.11111111111111,0)" xlink:href="#aI"/></g><path d="M34 0v-190h32V0H34zM24-211c8-23 27-35 38-54h36v5l-58 49H24" id="aR"/><g id="g"><use transform="matrix(0.1111111111111111,0,0,0.1111111111111111,0,0)" xlink:href="#aN"/><use transform="matrix(0.1111111111111111,0,0,0.1111111111111111,8.777777777777777,0)" xlink:href="#aR"/><use transform="matrix(0.1111111111111111,0,0,0.1111111111111111,19.888888888888886,0)" xlink:href="#aG"/><use transform="matrix(0.1111111111111111,0,0,0.1111111111111111,42.11111111111111,0)" xlink:href="#aJ"/><use transform="matrix(0.1111111111111111,0,0,0.1111111111111111,64.33333333333333,0)" xlink:href="#aO"/></g><path d="M30-248c87 1 191-15 191 75 0 78-77 80-158 76V0H30v-248zm33 125c57 0 124 11 124-50 0-59-68-47-124-48v98" id="aS"/><path d="M85-194c31 0 48 13 60 33l-1-100h32l1 261h-30c-2-10 0-23-3-31C134-8 116 4 85 4 32 4 16-35 15-94c0-66 23-100 70-100zm9 24c-40 0-46 34-46 75 0 40 6 74 45 74 42 0 51-32 51-76 0-42-9-74-50-73" id="aT"/><path d="M84 4C-5 8 30-112 23-190h32v120c0 31 7 50 39 49 72-2 45-101 50-169h31l1 190h-30c-1-10 1-25-2-33-11 22-28 36-60 37" id="aU"/><g id="h"><use transform="matrix(0.1111111111111111,0,0,0.1111111111111111,0,0)" xlink:href="#aS"/><use transform="matrix(0.1111111111111111,0,0,0.1111111111111111,26.666666666666664,0)" xlink:href="#aI"/><use transform="matrix(0.1111111111111111,0,0,0.1111111111111111,39.888888888888886,0)" xlink:href="#aM"/><use transform="matrix(0.1111111111111111,0,0,0.1111111111111111,62.11111111111111,0)" xlink:href="#aT"/><use transform="matrix(0.1111111111111111,0,0,0.1111111111111111,84.33333333333333,0)" xlink:href="#aU"/><use transform="matrix(0.1111111111111111,0,0,0.1111111111111111,106.55555555555554,0)" xlink:href="#aH"/><use transform="matrix(0.1111111111111111,0,0,0.1111111111111111,126.55555555555554,0)" xlink:href="#aL"/><use transform="matrix(0.1111111111111111,0,0,0.1111111111111111,137.66666666666666,0)" xlink:href="#aM"/><use transform="matrix(0.1111111111111111,0,0,0.1111111111111111,159.88888888888889,0)" xlink:href="#aP"/></g><g id="i"><use transform="matrix(0.1111111111111111,0,0,0.1111111111111111,0,0)" xlink:href="#aT"/><use transform="matrix(0.1111111111111111,0,0,0.1111111111111111,22.22222222222222,0)" xlink:href="#aJ"/></g><g id="j"><use transform="matrix(0.1111111111111111,0,0,0.1111111111111111,0,0)" xlink:href="#aK"/><use transform="matrix(0.1111111111111111,0,0,0.1111111111111111,33.22222222222222,0)" xlink:href="#aO"/><use transform="matrix(0.1111111111111111,0,0,0.1111111111111111,55.44444444444444,0)" xlink:href="#aI"/><use transform="matrix(0.1111111111111111,0,0,0.1111111111111111,68.66666666666666,0)" xlink:href="#aH"/><use transform="matrix(0.1111111111111111,0,0,0.1111111111111111,88.66666666666666,0)" xlink:href="#aO"/></g><path d="M24-231v-30h32v30H24zM24 0v-190h32V0H24" id="aV"/><g id="k"><use transform="matrix(0.1111111111111111,0,0,0.1111111111111111,0,0)" xlink:href="#aQ"/><use transform="matrix(0.1111111111111111,0,0,0.1111111111111111,22.22222222222222,0)" xlink:href="#aI"/><use transform="matrix(0.1111111111111111,0,0,0.1111111111111111,35.44444444444444,0)" xlink:href="#aM"/><use transform="matrix(0.1111111111111111,0,0,0.1111111111111111,57.666666666666664,0)" xlink:href="#aQ"/><use transform="matrix(0.1111111111111111,0,0,0.1111111111111111,79.88888888888889,0)" xlink:href="#aV"/><use transform="matrix(0.1111111111111111,0,0,0.1111111111111111,88.66666666666666,0)" xlink:href="#aO"/></g><path d="M205 0l-28-72H64L36 0H1l101-248h38L239 0h-34zm-38-99l-47-123c-12 45-31 82-46 123h93" id="aW"/><g id="l"><use transform="matrix(0.1111111111111111,0,0,0.1111111111111111,0,0)" xlink:href="#aW"/><use transform="matrix(0.1111111111111111,0,0,0.1111111111111111,26.666666666666664,0)" xlink:href="#aK"/><use transform="matrix(0.1111111111111111,0,0,0.1111111111111111,59.888888888888886,0)" xlink:href="#aQ"/><use transform="matrix(0.1111111111111111,0,0,0.1111111111111111,82.11111111111111,0)" xlink:href="#aN"/><use transform="matrix(0.1111111111111111,0,0,0.1111111111111111,90.88888888888889,0)" xlink:href="#aV"/><use transform="matrix(0.1111111111111111,0,0,0.1111111111111111,99.66666666666666,0)" xlink:href="#aO"/></g><path d="M177-190C167-65 218 103 67 71c-23-6-38-20-44-43l32-5c15 47 100 32 89-28v-30C133-14 115 1 83 1 29 1 15-40 15-95c0-56 16-97 71-98 29-1 48 16 59 35 1-10 0-23 2-32h30zM94-22c36 0 50-32 50-73 0-42-14-75-50-75-39 0-46 34-46 75s6 73 46 73" id="aX"/><g id="m"><use transform="matrix(0.1111111111111111,0,0,0.1111111111111111,0,0)" xlink:href="#aX"/><use transform="matrix(0.1111111111111111,0,0,0.1111111111111111,22.22222222222222,0)" xlink:href="#aO"/><use transform="matrix(0.1111111111111111,0,0,0.1111111111111111,44.44444444444444,0)" xlink:href="#aK"/><use transform="matrix(0.1111111111111111,0,0,0.1111111111111111,77.66666666666666,0)" xlink:href="#aO"/></g><path d="M108 0H70L1-190h34L89-25l56-165h34" id="aY"/><path d="M101-234c-31-9-42 10-38 44h38v23H63V0H32v-167H5v-23h27c-7-52 17-82 69-68v24" id="aZ"/><path d="M100-194c62-1 85 37 85 99 1 63-27 99-86 99S16-35 15-95c0-66 28-99 85-99zM99-20c44 1 53-31 53-75 0-43-8-75-51-75s-53 32-53 75 10 74 51 75zM76-211c8-23 27-35 38-54h36v5l-58 49H76" id="ba"/><g id="n"><use transform="matrix(0.1111111111111111,0,0,0.1111111111111111,0,0)" xlink:href="#aT"/><use transform="matrix(0.1111111111111111,0,0,0.1111111111111111,22.22222222222222,0)" xlink:href="#aV"/><use transform="matrix(0.1111111111111111,0,0,0.1111111111111111,31,0)" xlink:href="#aY"/><use transform="matrix(0.1111111111111111,0,0,0.1111111111111111,51,0)" xlink:href="#aJ"/><use transform="matrix(0.1111111111111111,0,0,0.1111111111111111,73.22222222222223,0)" xlink:href="#aI"/><use transform="matrix(0.1111111111111111,0,0,0.1111111111111111,86.44444444444446,0)" xlink:href="#aP"/><use transform="matrix(0.1111111111111111,0,0,0.1111111111111111,106.44444444444446,0)" xlink:href="#aV"/><use transform="matrix(0.1111111111111111,0,0,0.1111111111111111,115.22222222222224,0)" xlink:href="#aZ"/><use transform="matrix(0.1111111111111111,0,0,0.1111111111111111,126.33333333333336,0)" xlink:href="#aV"/><use transform="matrix(0.1111111111111111,0,0,0.1111111111111111,135.11111111111111,0)" xlink:href="#aH"/><use transform="matrix(0.1111111111111111,0,0,0.1111111111111111,155.11111111111111,0)" xlink:href="#aO"/><use transform="matrix(0.1111111111111111,0,0,0.1111111111111111,177.33333333333334,0)" xlink:href="#aH"/><use transform="matrix(0.1111111111111111,0,0,0.1111111111111111,197.33333333333334,0)" xlink:href="#aV"/><use transform="matrix(0.1111111111111111,0,0,0.1111111111111111,206.11111111111111,0)" xlink:href="#ba"/><use transform="matrix(0.1111111111111111,0,0,0.1111111111111111,228.33333333333331,0)" xlink:href="#aG"/></g><g id="o"><use transform="matrix(0.1111111111111111,0,0,0.1111111111111111,0,0)" xlink:href="#aT"/><use transform="matrix(0.1111111111111111,0,0,0.1111111111111111,22.22222222222222,0)" xlink:href="#aJ"/></g><g id="p"><use transform="matrix(0.1111111111111111,0,0,0.1111111111111111,0,0)" xlink:href="#aQ"/><use transform="matrix(0.1111111111111111,0,0,0.1111111111111111,22.22222222222222,0)" xlink:href="#aI"/><use transform="matrix(0.1111111111111111,0,0,0.1111111111111111,35.44444444444444,0)" xlink:href="#aM"/><use transform="matrix(0.1111111111111111,0,0,0.1111111111111111,57.666666666666664,0)" xlink:href="#aT"/><use transform="matrix(0.1111111111111111,0,0,0.1111111111111111,79.88888888888889,0)" xlink:href="#aU"/><use transform="matrix(0.1111111111111111,0,0,0.1111111111111111,102.11111111111111,0)" xlink:href="#aH"/><use transform="matrix(0.1111111111111111,0,0,0.1111111111111111,122.1111111111111,0)" xlink:href="#aL"/><use transform="matrix(0.1111111111111111,0,0,0.1111111111111111,133.22222222222223,0)" xlink:href="#aM"/><use transform="matrix(0.1111111111111111,0,0,0.1111111111111111,155.44444444444446,0)" xlink:href="#aP"/></g><path d="M140-251c81 0 123 46 123 126C263-46 219 4 140 4 59 4 17-45 17-125s42-126 123-126zm0 227c63 0 89-41 89-101s-29-99-89-99c-61 0-89 39-89 99S79-25 140-24" id="bb"/><g id="r"><use transform="matrix(0.17283950617283925,0,0,0.17283950617283925,0,0)" xlink:href="#bb"/><use transform="matrix(0.17283950617283925,0,0,0.17283950617283925,48.39506172839499,0)" xlink:href="#aQ"/><use transform="matrix(0.17283950617283925,0,0,0.17283950617283925,82.96296296296285,0)" xlink:href="#aM"/><use transform="matrix(0.17283950617283925,0,0,0.17283950617283925,117.53086419753069,0)" xlink:href="#aI"/><use transform="matrix(0.17283950617283925,0,0,0.17283950617283925,138.09876543209856,0)" xlink:href="#aL"/><use transform="matrix(0.17283950617283925,0,0,0.17283950617283925,155.38271604938248,0)" xlink:href="#aU"/><use transform="matrix(0.17283950617283925,0,0,0.17283950617283925,189.95061728395032,0)" xlink:href="#aG"/><use transform="matrix(0.17283950617283925,0,0,0.17283950617283925,224.5185185185182,0)" xlink:href="#aV"/><use transform="matrix(0.17283950617283925,0,0,0.17283950617283925,238.1728395061725,0)" xlink:href="#aT"/><use transform="matrix(0.17283950617283925,0,0,0.17283950617283925,272.7407407407403,0)" xlink:href="#aO"/><use transform="matrix(0.17283950617283925,0,0,0.17283950617283925,307.30864197530815,0)" xlink:href="#aT"/><use transform="matrix(0.17283950617283925,0,0,0.17283950617283925,341.876543209876,0)" xlink:href="#aJ"/><use transform="matrix(0.17283950617283925,0,0,0.17283950617283925,376.4444444444438,0)" xlink:href="#aP"/></g><linearGradient gradientUnits="userSpaceOnUse" id="s" x1="40" y1="180" x2="840" y2="717.64"><stop offset="0%" stop-color="#a3d977"/><stop offset="100%" stop-color="#7ab648"/></linearGradient><path d="M240 0l2-218c-23 76-54 145-80 218h-23L58-218 59 0H30v-248h44l77 211c21-75 51-140 76-211h43V0h-30" id="bc"/><path d="M30 0v-248h33v221h125V0H30" id="bd"/><g id="t"><use transform="matrix(0.1111111111111111,0,0,0.1111111111111111,0,0)" xlink:href="#bc"/><use transform="matrix(0.1111111111111111,0,0,0.1111111111111111,33.22222222222222,0)" xlink:href="#aJ"/><use transform="matrix(0.1111111111111111,0,0,0.1111111111111111,55.44444444444444,0)" xlink:href="#aI"/><use transform="matrix(0.1111111111111111,0,0,0.1111111111111111,68.66666666666666,0)" xlink:href="#aH"/><use transform="matrix(0.1111111111111111,0,0,0.1111111111111111,88.66666666666666,0)" xlink:href="#aO"/><use transform="matrix(0.1111111111111111,0,0,0.1111111111111111,110.88888888888889,0)" xlink:href="#aT"/><use transform="matrix(0.1111111111111111,0,0,0.1111111111111111,133.11111111111111,0)" xlink:href="#aM"/><use transform="matrix(0.1111111111111111,0,0,0.1111111111111111,155.33333333333334,0)" xlink:href="#bd"/><use transform="matrix(0.1111111111111111,0,0,0.1111111111111111,177.55555555555557,0)" xlink:href="#aV"/><use transform="matrix(0.1111111111111111,0,0,0.1111111111111111,186.33333333333334,0)" xlink:href="#aT"/><use transform="matrix(0.1111111111111111,0,0,0.1111111111111111,208.55555555555557,0)" xlink:href="#aJ"/><use transform="matrix(0.1111111111111111,0,0,0.1111111111111111,230.77777777777783,0)" xlink:href="#aI"/></g><g id="u"><use transform="matrix(0.1111111111111111,0,0,0.1111111111111111,0,0)" xlink:href="#aS"/><use transform="matrix(0.1111111111111111,0,0,0.1111111111111111,26.666666666666664,0)" xlink:href="#aN"/><use transform="matrix(0.1111111111111111,0,0,0.1111111111111111,35.44444444444444,0)" xlink:href="#aO"/><use transform="matrix(0.1111111111111111,0,0,0.1111111111111111,57.666666666666664,0)" xlink:href="#aL"/><use transform="matrix(0.1111111111111111,0,0,0.1111111111111111,68.77777777777777,0)" xlink:href="#aV"/><use transform="matrix(0.1111111111111111,0,0,0.1111111111111111,77.55555555555554,0)" xlink:href="#aG"/><use transform="matrix(0.1111111111111111,0,0,0.1111111111111111,99.77777777777777,0)" xlink:href="#aU"/><use transform="matrix(0.1111111111111111,0,0,0.1111111111111111,122,0)" xlink:href="#aK"/></g><g id="v"><use transform="matrix(0.1111111111111111,0,0,0.1111111111111111,0,0)" xlink:href="#aS"/><use transform="matrix(0.1111111111111111,0,0,0.1111111111111111,26.666666666666664,0)" xlink:href="#aI"/><use transform="matrix(0.1111111111111111,0,0,0.1111111111111111,39.888888888888886,0)" xlink:href="#aJ"/><use transform="matrix(0.1111111111111111,0,0,0.1111111111111111,62.11111111111111,0)" xlink:href="#aP"/><use transform="matrix(0.1111111111111111,0,0,0.1111111111111111,82.11111111111111,0)" xlink:href="#aJ"/><use transform="matrix(0.1111111111111111,0,0,0.1111111111111111,104.33333333333334,0)" xlink:href="#aG"/><use transform="matrix(0.1111111111111111,0,0,0.1111111111111111,126.55555555555557,0)" xlink:href="#aH"/><use transform="matrix(0.1111111111111111,0,0,0.1111111111111111,146.55555555555557,0)" xlink:href="#aV"/><use transform="matrix(0.1111111111111111,0,0,0.1111111111111111,155.33333333333334,0)" xlink:href="#aO"/></g><g id="w"><use transform="matrix(0.1111111111111111,0,0,0.1111111111111111,0,0)" xlink:href="#aQ"/><use transform="matrix(0.1111111111111111,0,0,0.1111111111111111,22.22222222222222,0)" xlink:href="#aO"/><use transform="matrix(0.1111111111111111,0,0,0.1111111111111111,44.44444444444444,0)" xlink:href="#aX"/><use transform="matrix(0.1111111111111111,0,0,0.1111111111111111,66.66666666666666,0)" xlink:href="#aV"/><use transform="matrix(0.1111111111111111,0,0,0.1111111111111111,75.44444444444443,0)" xlink:href="#aG"/><use transform="matrix(0.1111111111111111,0,0,0.1111111111111111,97.66666666666666,0)" xlink:href="#aO"/><use transform="matrix(0.1111111111111111,0,0,0.1111111111111111,119.88888888888889,0)" xlink:href="#aP"/></g><path d="M16-82v-28h88v28H16" id="be"/><g id="x"><use transform="matrix(0.1111111111111111,0,0,0.1111111111111111,0,0)" xlink:href="#aJ"/><use transform="matrix(0.1111111111111111,0,0,0.1111111111111111,22.22222222222222,0)" xlink:href="#be"/><use transform="matrix(0.1111111111111111,0,0,0.1111111111111111,35.44444444444444,0)" xlink:href="#aH"/><use transform="matrix(0.1111111111111111,0,0,0.1111111111111111,55.44444444444444,0)" xlink:href="#aM"/><use transform="matrix(0.1111111111111111,0,0,0.1111111111111111,77.66666666666666,0)" xlink:href="#aK"/><use transform="matrix(0.1111111111111111,0,0,0.1111111111111111,110.88888888888889,0)" xlink:href="#aK"/><use transform="matrix(0.1111111111111111,0,0,0.1111111111111111,144.11111111111111,0)" xlink:href="#aJ"/><use transform="matrix(0.1111111111111111,0,0,0.1111111111111111,166.33333333333334,0)" xlink:href="#aI"/><use transform="matrix(0.1111111111111111,0,0,0.1111111111111111,179.55555555555557,0)" xlink:href="#aH"/><use transform="matrix(0.1111111111111111,0,0,0.1111111111111111,199.55555555555557,0)" xlink:href="#aJ"/></g><path d="M30-248c118-7 216 8 213 122C240-48 200 0 122 0H30v-248zM63-27c89 8 146-16 146-99s-60-101-146-95v194" id="bf"/><g id="y"><use transform="matrix(0.1111111111111111,0,0,0.1111111111111111,0,0)" xlink:href="#bf"/><use transform="matrix(0.1111111111111111,0,0,0.1111111111111111,28.777777777777775,0)" xlink:href="#aV"/><use transform="matrix(0.1111111111111111,0,0,0.1111111111111111,37.55555555555555,0)" xlink:href="#aY"/><use transform="matrix(0.1111111111111111,0,0,0.1111111111111111,57.55555555555555,0)" xlink:href="#aJ"/><use transform="matrix(0.1111111111111111,0,0,0.1111111111111111,79.77777777777777,0)" xlink:href="#aI"/><use transform="matrix(0.1111111111111111,0,0,0.1111111111111111,93,0)" xlink:href="#aP"/><use transform="matrix(0.1111111111111111,0,0,0.1111111111111111,113,0)" xlink:href="#aV"/><use transform="matrix(0.1111111111111111,0,0,0.1111111111111111,121.77777777777777,0)" xlink:href="#aT"/><use transform="matrix(0.1111111111111111,0,0,0.1111111111111111,144,0)" xlink:href="#aO"/><use transform="matrix(0.1111111111111111,0,0,0.1111111111111111,166.22222222222223,0)" xlink:href="#aT"/></g><g id="z"><use transform="matrix(0.1111111111111111,0,0,0.1111111111111111,0,0)" xlink:href="#aW"/><use transform="matrix(0.1111111111111111,0,0,0.1111111111111111,26.666666666666664,0)" xlink:href="#aN"/><use transform="matrix(0.1111111111111111,0,0,0.1111111111111111,35.44444444444444,0)" xlink:href="#aX"/><use transform="matrix(0.1111111111111111,0,0,0.1111111111111111,57.666666666666664,0)" xlink:href="#aM"/><use transform="matrix(0.1111111111111111,0,0,0.1111111111111111,79.88888888888889,0)" xlink:href="#aI"/><use transform="matrix(0.1111111111111111,0,0,0.1111111111111111,93.11111111111111,0)" xlink:href="#aV"/><use transform="matrix(0.1111111111111111,0,0,0.1111111111111111,101.88888888888889,0)" xlink:href="#aL"/><use transform="matrix(0.1111111111111111,0,0,0.1111111111111111,113,0)" xlink:href="#aK"/><use transform="matrix(0.1111111111111111,0,0,0.1111111111111111,146.22222222222223,0)" xlink:href="#aM"/></g><g id="A"><use transform="matrix(0.1111111111111111,0,0,0.1111111111111111,0,0)" xlink:href="#aQ"/><use transform="matrix(0.1111111111111111,0,0,0.1111111111111111,22.22222222222222,0)" xlink:href="#aO"/><use transform="matrix(0.1111111111111111,0,0,0.1111111111111111,44.44444444444444,0)" xlink:href="#aI"/><use transform="matrix(0.1111111111111111,0,0,0.1111111111111111,57.666666666666664,0)" xlink:href="#aO"/></g><path d="M24-231v-30h32v30H24zM-9 49c24 4 33-6 33-30v-209h32V24c2 40-23 58-65 49V49" id="bg"/><g id="B"><use transform="matrix(0.1111111111111111,0,0,0.1111111111111111,0,0)" xlink:href="#aO"/><use transform="matrix(0.1111111111111111,0,0,0.1111111111111111,22.22222222222222,0)" xlink:href="#bg"/><use transform="matrix(0.1111111111111111,0,0,0.1111111111111111,31,0)" xlink:href="#aU"/><use transform="matrix(0.1111111111111111,0,0,0.1111111111111111,53.22222222222222,0)" xlink:href="#aP"/><use transform="matrix(0.1111111111111111,0,0,0.1111111111111111,73.22222222222223,0)" xlink:href="#aL"/><use transform="matrix(0.1111111111111111,0,0,0.1111111111111111,84.33333333333334,0)" xlink:href="#aJ"/></g><g id="C"><use transform="matrix(0.1111111111111111,0,0,0.1111111111111111,0,0)" xlink:href="#aQ"/><use transform="matrix(0.1111111111111111,0,0,0.1111111111111111,22.22222222222222,0)" xlink:href="#aI"/><use transform="matrix(0.1111111111111111,0,0,0.1111111111111111,35.44444444444444,0)" xlink:href="#aJ"/><use transform="matrix(0.1111111111111111,0,0,0.1111111111111111,57.666666666666664,0)" xlink:href="#aH"/><use transform="matrix(0.1111111111111111,0,0,0.1111111111111111,77.66666666666666,0)" xlink:href="#aV"/><use transform="matrix(0.1111111111111111,0,0,0.1111111111111111,86.44444444444443,0)" xlink:href="#aM"/><use transform="matrix(0.1111111111111111,0,0,0.1111111111111111,108.66666666666666,0)" xlink:href="#aP"/></g><path d="M233-177c-1 41-23 64-60 70L243 0h-38l-65-103H63V0H30v-248c88 3 205-21 203 71zM63-129c60-2 137 13 137-47 0-61-80-42-137-45v92" id="bh"/><g id="D"><use transform="matrix(0.1111111111111111,0,0,0.1111111111111111,0,0)" xlink:href="#bh"/><use transform="matrix(0.1111111111111111,0,0,0.1111111111111111,28.777777777777775,0)" xlink:href="#aJ"/><use transform="matrix(0.1111111111111111,0,0,0.1111111111111111,51,0)" xlink:href="#aN"/><use transform="matrix(0.1111111111111111,0,0,0.1111111111111111,59.77777777777777,0)" xlink:href="#aO"/><use transform="matrix(0.1111111111111111,0,0,0.1111111111111111,82,0)" xlink:href="#aH"/><use transform="matrix(0.1111111111111111,0,0,0.1111111111111111,102,0)" xlink:href="#aV"/><use transform="matrix(0.1111111111111111,0,0,0.1111111111111111,110.77777777777777,0)" xlink:href="#ba"/><use transform="matrix(0.1111111111111111,0,0,0.1111111111111111,133,0)" xlink:href="#aG"/></g><g id="E"><use transform="matrix(0.1111111111111111,0,0,0.1111111111111111,0,0)" xlink:href="#aH"/><use transform="matrix(0.1111111111111111,0,0,0.1111111111111111,20,0)" xlink:href="#aM"/><use transform="matrix(0.1111111111111111,0,0,0.1111111111111111,42.22222222222222,0)" xlink:href="#aG"/></g><g id="F"><use transform="matrix(0.1111111111111111,0,0,0.1111111111111111,0,0)" xlink:href="#aK"/><use transform="matrix(0.1111111111111111,0,0,0.1111111111111111,33.22222222222222,0)" xlink:href="#aJ"/><use transform="matrix(0.1111111111111111,0,0,0.1111111111111111,55.44444444444444,0)" xlink:href="#aI"/><use transform="matrix(0.1111111111111111,0,0,0.1111111111111111,68.66666666666666,0)" xlink:href="#aH"/><use transform="matrix(0.1111111111111111,0,0,0.1111111111111111,88.66666666666666,0)" xlink:href="#aO"/><use transform="matrix(0.1111111111111111,0,0,0.1111111111111111,110.88888888888889,0)" xlink:href="#aT"/><use transform="matrix(0.1111111111111111,0,0,0.1111111111111111,133.11111111111111,0)" xlink:href="#aM"/></g><path d="M115-194c53 0 69 39 70 98 0 66-23 100-70 100C84 3 66-7 56-30L54 0H23l1-261h32v101c10-23 28-34 59-34zm-8 174c40 0 45-34 45-75 0-40-5-75-45-74-42 0-51 32-51 76 0 43 10 73 51 73" id="bi"/><g id="G"><use transform="matrix(0.1111111111111111,0,0,0.1111111111111111,0,0)" xlink:href="#aN"/><use transform="matrix(0.1111111111111111,0,0,0.1111111111111111,8.777777777777777,0)" xlink:href="#aV"/><use transform="matrix(0.1111111111111111,0,0,0.1111111111111111,17.555555555555554,0)" xlink:href="#bi"/><use transform="matrix(0.1111111111111111,0,0,0.1111111111111111,39.77777777777777,0)" xlink:href="#aI"/><use transform="matrix(0.1111111111111111,0,0,0.1111111111111111,52.99999999999999,0)" xlink:href="#aJ"/></g><g id="H"><use transform="matrix(0.1111111111111111,0,0,0.1111111111111111,0,0)" xlink:href="#bd"/><use transform="matrix(0.1111111111111111,0,0,0.1111111111111111,22.22222222222222,0)" xlink:href="#aM"/><use transform="matrix(0.1111111111111111,0,0,0.1111111111111111,44.44444444444444,0)" xlink:href="#aG"/><use transform="matrix(0.1111111111111111,0,0,0.1111111111111111,66.66666666666666,0)" xlink:href="#aX"/><use transform="matrix(0.1111111111111111,0,0,0.1111111111111111,88.88888888888889,0)" xlink:href="#aJ"/><use transform="matrix(0.1111111111111111,0,0,0.1111111111111111,111.11111111111111,0)" xlink:href="#aY"/><use transform="matrix(0.1111111111111111,0,0,0.1111111111111111,131.11111111111111,0)" xlink:href="#aV"/><use transform="matrix(0.1111111111111111,0,0,0.1111111111111111,139.88888888888889,0)" xlink:href="#aT"/><use transform="matrix(0.1111111111111111,0,0,0.1111111111111111,162.11111111111111,0)" xlink:href="#aO"/><use transform="matrix(0.1111111111111111,0,0,0.1111111111111111,184.33333333333334,0)" xlink:href="#aT"/></g><g id="I"><use transform="matrix(0.1111111111111111,0,0,0.1111111111111111,0,0)" xlink:href="#aJ"/><use transform="matrix(0.1111111111111111,0,0,0.1111111111111111,22.22222222222222,0)" xlink:href="#aN"/></g><g id="J"><use transform="matrix(0.1111111111111111,0,0,0.1111111111111111,0,0)" xlink:href="#aK"/><use transform="matrix(0.1111111111111111,0,0,0.1111111111111111,33.22222222222222,0)" xlink:href="#aJ"/><use transform="matrix(0.1111111111111111,0,0,0.1111111111111111,55.44444444444444,0)" xlink:href="#aI"/><use transform="matrix(0.1111111111111111,0,0,0.1111111111111111,68.66666666666666,0)" xlink:href="#aH"/><use transform="matrix(0.1111111111111111,0,0,0.1111111111111111,88.66666666666666,0)" xlink:href="#aO"/><use transform="matrix(0.1111111111111111,0,0,0.1111111111111111,110.88888888888889,0)" xlink:href="#aT"/><use transform="matrix(0.1111111111111111,0,0,0.1111111111111111,133.11111111111111,0)" xlink:href="#aM"/></g><g id="K"><use transform="matrix(0.1111111111111111,0,0,0.1111111111111111,0,0)" xlink:href="#aW"/><use transform="matrix(0.1111111111111111,0,0,0.1111111111111111,26.666666666666664,0)" xlink:href="#aT"/><use transform="matrix(0.1111111111111111,0,0,0.1111111111111111,48.888888888888886,0)" xlink:href="#aO"/><use transform="matrix(0.1111111111111111,0,0,0.1111111111111111,71.11111111111111,0)" xlink:href="#aQ"/><use transform="matrix(0.1111111111111111,0,0,0.1111111111111111,93.33333333333334,0)" xlink:href="#aL"/><use transform="matrix(0.1111111111111111,0,0,0.1111111111111111,104.44444444444446,0)" xlink:href="#aO"/><use transform="matrix(0.1111111111111111,0,0,0.1111111111111111,126.66666666666669,0)" xlink:href="#aH"/><use transform="matrix(0.1111111111111111,0,0,0.1111111111111111,146.66666666666669,0)" xlink:href="#aV"/><use transform="matrix(0.1111111111111111,0,0,0.1111111111111111,155.44444444444446,0)" xlink:href="#ba"/><use transform="matrix(0.1111111111111111,0,0,0.1111111111111111,177.66666666666669,0)" xlink:href="#aG"/></g><g id="L"><use transform="matrix(0.1111111111111111,0,0,0.1111111111111111,0,0)" xlink:href="#aQ"/><use transform="matrix(0.1111111111111111,0,0,0.1111111111111111,22.22222222222222,0)" xlink:href="#aI"/><use transform="matrix(0.1111111111111111,0,0,0.1111111111111111,35.44444444444444,0)" xlink:href="#aM"/><use transform="matrix(0.1111111111111111,0,0,0.1111111111111111,57.666666666666664,0)" xlink:href="#aT"/><use transform="matrix(0.1111111111111111,0,0,0.1111111111111111,79.88888888888889,0)" xlink:href="#aU"/><use transform="matrix(0.1111111111111111,0,0,0.1111111111111111,102.11111111111111,0)" xlink:href="#aH"/><use transform="matrix(0.1111111111111111,0,0,0.1111111111111111,122.1111111111111,0)" xlink:href="#aL"/><use transform="matrix(0.1111111111111111,0,0,0.1111111111111111,133.22222222222223,0)" xlink:href="#aM"/><use transform="matrix(0.1111111111111111,0,0,0.1111111111111111,155.44444444444446,0)" xlink:href="#aP"/></g><g id="M"><use transform="matrix(0.1111111111111111,0,0,0.1111111111111111,0,0)" xlink:href="#aO"/><use transform="matrix(0.1111111111111111,0,0,0.1111111111111111,22.22222222222222,0)" xlink:href="#aN"/></g><g id="N"><use transform="matrix(0.1111111111111111,0,0,0.1111111111111111,0,0)" xlink:href="#aK"/><use transform="matrix(0.1111111111111111,0,0,0.1111111111111111,33.22222222222222,0)" xlink:href="#aJ"/><use transform="matrix(0.1111111111111111,0,0,0.1111111111111111,55.44444444444444,0)" xlink:href="#aI"/><use transform="matrix(0.1111111111111111,0,0,0.1111111111111111,68.66666666666666,0)" xlink:href="#aH"/><use transform="matrix(0.1111111111111111,0,0,0.1111111111111111,88.66666666666666,0)" xlink:href="#aO"/><use transform="matrix(0.1111111111111111,0,0,0.1111111111111111,110.88888888888889,0)" xlink:href="#aT"/><use transform="matrix(0.1111111111111111,0,0,0.1111111111111111,133.11111111111111,0)" xlink:href="#aM"/></g><g id="O"><use transform="matrix(0.1111111111111111,0,0,0.1111111111111111,0,0)" xlink:href="#aO"/><use transform="matrix(0.1111111111111111,0,0,0.1111111111111111,22.22222222222222,0)" xlink:href="#aH"/><use transform="matrix(0.1111111111111111,0,0,0.1111111111111111,42.22222222222222,0)" xlink:href="#aL"/><use transform="matrix(0.1111111111111111,0,0,0.1111111111111111,53.33333333333333,0)" xlink:href="#aU"/><use transform="matrix(0.1111111111111111,0,0,0.1111111111111111,75.55555555555554,0)" xlink:href="#aO"/><use transform="matrix(0.1111111111111111,0,0,0.1111111111111111,97.77777777777777,0)" xlink:href="#aN"/></g><path d="M63-220v92h138v28H63V0H30v-248h175v28H63" id="bj"/><path d="M9 0v-24l116-142H16v-24h144v24L44-24h123V0H9" id="bk"/><g id="P"><use transform="matrix(0.17283950617283925,0,0,0.17283950617283925,0,0)" xlink:href="#bj"/><use transform="matrix(0.17283950617283925,0,0,0.17283950617283925,37.8518518518518,0)" xlink:href="#aM"/><use transform="matrix(0.17283950617283925,0,0,0.17283950617283925,72.41975308641965,0)" xlink:href="#aL"/><use transform="matrix(0.17283950617283925,0,0,0.17283950617283925,89.70370370370357,0)" xlink:href="#aO"/><use transform="matrix(0.17283950617283925,0,0,0.17283950617283925,124.27160493827142,0)" xlink:href="#aN"/><use transform="matrix(0.17283950617283925,0,0,0.17283950617283925,137.92592592592572,0)" xlink:href="#aJ"/><use transform="matrix(0.17283950617283925,0,0,0.17283950617283925,172.49382716049357,0)" xlink:href="#bk"/><use transform="matrix(0.17283950617283925,0,0,0.17283950617283925,203.60493827160462,0)" xlink:href="#aO"/><use transform="matrix(0.17283950617283925,0,0,0.17283950617283925,238.1728395061725,0)" xlink:href="#aP"/></g><linearGradient gradientUnits="userSpaceOnUse" id="Q" x1="40" y1="960" x2="840" y2="1497.64"><stop offset="0%" stop-color="#ff8f80"/><stop offset="100%" stop-color="#c92d39"/></linearGradient><g id="R"><use transform="matrix(0.1111111111111111,0,0,0.1111111111111111,0,0)" xlink:href="#aW"/><use transform="matrix(0.1111111111111111,0,0,0.1111111111111111,26.666666666666664,0)" xlink:href="#aN"/><use transform="matrix(0.1111111111111111,0,0,0.1111111111111111,35.44444444444444,0)" xlink:href="#aK"/><use transform="matrix(0.1111111111111111,0,0,0.1111111111111111,68.66666666666666,0)" xlink:href="#aO"/><use transform="matrix(0.1111111111111111,0,0,0.1111111111111111,90.88888888888889,0)" xlink:href="#aH"/><use transform="matrix(0.1111111111111111,0,0,0.1111111111111111,110.88888888888889,0)" xlink:href="#aJ"/><use transform="matrix(0.1111111111111111,0,0,0.1111111111111111,133.11111111111111,0)" xlink:href="#aG"/></g><g id="S"><use transform="matrix(0.1111111111111111,0,0,0.1111111111111111,0,0)" xlink:href="#aQ"/><use transform="matrix(0.1111111111111111,0,0,0.1111111111111111,22.22222222222222,0)" xlink:href="#aI"/><use transform="matrix(0.1111111111111111,0,0,0.1111111111111111,35.44444444444444,0)" xlink:href="#aM"/><use transform="matrix(0.1111111111111111,0,0,0.1111111111111111,57.666666666666664,0)" xlink:href="#aQ"/><use transform="matrix(0.1111111111111111,0,0,0.1111111111111111,79.88888888888889,0)" xlink:href="#aV"/><use transform="matrix(0.1111111111111111,0,0,0.1111111111111111,88.66666666666666,0)" xlink:href="#aM"/></g><g id="T"><use transform="matrix(0.1111111111111111,0,0,0.1111111111111111,0,0)" xlink:href="#aN"/><use transform="matrix(0.1111111111111111,0,0,0.1111111111111111,8.777777777777777,0)" xlink:href="#aV"/><use transform="matrix(0.1111111111111111,0,0,0.1111111111111111,17.555555555555554,0)" xlink:href="#aK"/><use transform="matrix(0.1111111111111111,0,0,0.1111111111111111,50.77777777777777,0)" xlink:href="#aV"/><use transform="matrix(0.1111111111111111,0,0,0.1111111111111111,59.55555555555555,0)" xlink:href="#aL"/><use transform="matrix(0.1111111111111111,0,0,0.1111111111111111,70.66666666666666,0)" xlink:href="#aO"/><use transform="matrix(0.1111111111111111,0,0,0.1111111111111111,92.88888888888889,0)" xlink:href="#aT"/><use transform="matrix(0.1111111111111111,0,0,0.1111111111111111,115.1111111111111,0)" xlink:href="#aM"/></g><g id="U"><use transform="matrix(0.1111111111111111,0,0,0.1111111111111111,0,0)" xlink:href="#aZ"/><use transform="matrix(0.1111111111111111,0,0,0.1111111111111111,11.11111111111111,0)" xlink:href="#aO"/><use transform="matrix(0.1111111111111111,0,0,0.1111111111111111,33.33333333333333,0)" xlink:href="#aN"/><use transform="matrix(0.1111111111111111,0,0,0.1111111111111111,42.11111111111111,0)" xlink:href="#aL"/><use transform="matrix(0.1111111111111111,0,0,0.1111111111111111,53.222222222222214,0)" xlink:href="#aO"/></g><g id="V"><use transform="matrix(0.1111111111111111,0,0,0.1111111111111111,0,0)" xlink:href="#aJ"/><use transform="matrix(0.1111111111111111,0,0,0.1111111111111111,22.22222222222222,0)" xlink:href="#aZ"/><use transform="matrix(0.1111111111111111,0,0,0.1111111111111111,33.33333333333333,0)" xlink:href="#aV"/><use transform="matrix(0.1111111111111111,0,0,0.1111111111111111,42.11111111111111,0)" xlink:href="#aH"/><use transform="matrix(0.1111111111111111,0,0,0.1111111111111111,62.11111111111111,0)" xlink:href="#aO"/><use transform="matrix(0.1111111111111111,0,0,0.1111111111111111,84.33333333333333,0)" xlink:href="#aH"/><use transform="matrix(0.1111111111111111,0,0,0.1111111111111111,104.33333333333333,0)" xlink:href="#aV"/><use transform="matrix(0.1111111111111111,0,0,0.1111111111111111,113.1111111111111,0)" xlink:href="#aO"/></g><g id="W"><use transform="matrix(0.1111111111111111,0,0,0.1111111111111111,0,0)" xlink:href="#aQ"/><use transform="matrix(0.1111111111111111,0,0,0.1111111111111111,22.22222222222222,0)" xlink:href="#aI"/><use transform="matrix(0.1111111111111111,0,0,0.1111111111111111,35.44444444444444,0)" xlink:href="#aM"/><use transform="matrix(0.1111111111111111,0,0,0.1111111111111111,57.666666666666664,0)" xlink:href="#aH"/><use transform="matrix(0.1111111111111111,0,0,0.1111111111111111,77.66666666666666,0)" xlink:href="#aJ"/><use transform="matrix(0.1111111111111111,0,0,0.1111111111111111,99.88888888888889,0)" xlink:href="#aP"/><use transform="matrix(0.1111111111111111,0,0,0.1111111111111111,119.88888888888889,0)" xlink:href="#aM"/></g><g id="X"><use transform="matrix(0.1111111111111111,0,0,0.1111111111111111,0,0)" xlink:href="#aX"/><use transform="matrix(0.1111111111111111,0,0,0.1111111111111111,22.22222222222222,0)" xlink:href="#aO"/><use transform="matrix(0.1111111111111111,0,0,0.1111111111111111,44.44444444444444,0)" xlink:href="#aI"/><use transform="matrix(0.1111111111111111,0,0,0.1111111111111111,57.666666666666664,0)" xlink:href="#aO"/><use transform="matrix(0.1111111111111111,0,0,0.1111111111111111,79.88888888888889,0)" xlink:href="#aG"/><use transform="matrix(0.1111111111111111,0,0,0.1111111111111111,102.11111111111111,0)" xlink:href="#aL"/><use transform="matrix(0.1111111111111111,0,0,0.1111111111111111,113.22222222222223,0)" xlink:href="#aR"/><use transform="matrix(0.1111111111111111,0,0,0.1111111111111111,124.33333333333336,0)" xlink:href="#aO"/><use transform="matrix(0.1111111111111111,0,0,0.1111111111111111,146.55555555555557,0)" xlink:href="#aP"/></g><path d="M30 0v-248h187v28H63v79h144v27H63v87h162V0H30" id="bl"/><g id="Y"><use transform="matrix(0.1111111111111111,0,0,0.1111111111111111,0,0)" xlink:href="#bl"/><use transform="matrix(0.1111111111111111,0,0,0.1111111111111111,26.666666666666664,0)" xlink:href="#aP"/><use transform="matrix(0.1111111111111111,0,0,0.1111111111111111,46.666666666666664,0)" xlink:href="#aH"/><use transform="matrix(0.1111111111111111,0,0,0.1111111111111111,66.66666666666666,0)" xlink:href="#aO"/><use transform="matrix(0.1111111111111111,0,0,0.1111111111111111,88.88888888888889,0)" xlink:href="#aP"/><use transform="matrix(0.1111111111111111,0,0,0.1111111111111111,108.88888888888889,0)" xlink:href="#aJ"/><use transform="matrix(0.1111111111111111,0,0,0.1111111111111111,131.11111111111111,0)" xlink:href="#bk"/></g><g id="Z"><use transform="matrix(0.1111111111111111,0,0,0.1111111111111111,0,0)" xlink:href="#aV"/><use transform="matrix(0.1111111111111111,0,0,0.1111111111111111,8.777777777777777,0)" xlink:href="#aT"/><use transform="matrix(0.1111111111111111,0,0,0.1111111111111111,31,0)" xlink:href="#aJ"/><use transform="matrix(0.1111111111111111,0,0,0.1111111111111111,53.22222222222222,0)" xlink:href="#aG"/><use transform="matrix(0.1111111111111111,0,0,0.1111111111111111,75.44444444444444,0)" xlink:href="#aL"/><use transform="matrix(0.1111111111111111,0,0,0.1111111111111111,86.55555555555556,0)" xlink:href="#aV"/><use transform="matrix(0.1111111111111111,0,0,0.1111111111111111,95.33333333333333,0)" xlink:href="#aT"/><use transform="matrix(0.1111111111111111,0,0,0.1111111111111111,117.55555555555554,0)" xlink:href="#aO"/><use transform="matrix(0.1111111111111111,0,0,0.1111111111111111,139.77777777777777,0)" xlink:href="#aT"/></g><g id="aa"><use transform="matrix(0.1111111111111111,0,0,0.1111111111111111,0,0)" xlink:href="#aK"/><use transform="matrix(0.1111111111111111,0,0,0.1111111111111111,33.22222222222222,0)" xlink:href="#aO"/><use transform="matrix(0.1111111111111111,0,0,0.1111111111111111,55.44444444444444,0)" xlink:href="#aI"/><use transform="matrix(0.1111111111111111,0,0,0.1111111111111111,68.66666666666666,0)" xlink:href="#aH"/><use transform="matrix(0.1111111111111111,0,0,0.1111111111111111,88.66666666666666,0)" xlink:href="#aO"/></g><path d="M212-179c-10-28-35-45-73-45-59 0-87 40-87 99 0 60 29 101 89 101 43 0 62-24 78-52l27 14C228-24 195 4 139 4 59 4 22-46 18-125c-6-104 99-153 187-111 19 9 31 26 39 46" id="bm"/><g id="ab"><use transform="matrix(0.1111111111111111,0,0,0.1111111111111111,0,0)" xlink:href="#bm"/><use transform="matrix(0.1111111111111111,0,0,0.1111111111111111,28.777777777777775,0)" xlink:href="#aM"/><use transform="matrix(0.1111111111111111,0,0,0.1111111111111111,51,0)" xlink:href="#aP"/><use transform="matrix(0.1111111111111111,0,0,0.1111111111111111,71,0)" xlink:href="#aL"/><use transform="matrix(0.1111111111111111,0,0,0.1111111111111111,82.11111111111111,0)" xlink:href="#aM"/></g><g id="ac"><use transform="matrix(0.1111111111111111,0,0,0.1111111111111111,0,0)" xlink:href="#aJ"/><use transform="matrix(0.1111111111111111,0,0,0.1111111111111111,22.22222222222222,0)" xlink:href="#aG"/><use transform="matrix(0.1111111111111111,0,0,0.1111111111111111,44.44444444444444,0)" xlink:href="#aY"/><use transform="matrix(0.1111111111111111,0,0,0.1111111111111111,64.44444444444444,0)" xlink:href="#aV"/><use transform="matrix(0.1111111111111111,0,0,0.1111111111111111,73.22222222222221,0)" xlink:href="#aM"/></g><g id="ad"><use transform="matrix(0.1111111111111111,0,0,0.1111111111111111,0,0)" xlink:href="#aO"/><use transform="matrix(0.1111111111111111,0,0,0.1111111111111111,22.22222222222222,0)" xlink:href="#aN"/><use transform="matrix(0.1111111111111111,0,0,0.1111111111111111,31,0)" xlink:href="#aL"/><use transform="matrix(0.1111111111111111,0,0,0.1111111111111111,42.111111111111114,0)" xlink:href="#aM"/></g><g id="ae"><use transform="matrix(0.1111111111111111,0,0,0.1111111111111111,0,0)" xlink:href="#aQ"/><use transform="matrix(0.1111111111111111,0,0,0.1111111111111111,22.22222222222222,0)" xlink:href="#aO"/><use transform="matrix(0.1111111111111111,0,0,0.1111111111111111,44.44444444444444,0)" xlink:href="#aX"/><use transform="matrix(0.1111111111111111,0,0,0.1111111111111111,66.66666666666666,0)" xlink:href="#aV"/><use transform="matrix(0.1111111111111111,0,0,0.1111111111111111,75.44444444444443,0)" xlink:href="#aG"/><use transform="matrix(0.1111111111111111,0,0,0.1111111111111111,97.66666666666666,0)" xlink:href="#aO"/></g><path d="M137 0h-34L2-248h35l83 218 83-218h36" id="bn"/><g id="af"><use transform="matrix(0.1111111111111111,0,0,0.1111111111111111,0,0)" xlink:href="#bn"/><use transform="matrix(0.1111111111111111,0,0,0.1111111111111111,24.444444444444443,0)" xlink:href="#aJ"/><use transform="matrix(0.1111111111111111,0,0,0.1111111111111111,46.666666666666664,0)" xlink:href="#aG"/><use transform="matrix(0.1111111111111111,0,0,0.1111111111111111,68.88888888888889,0)" xlink:href="#aL"/><use transform="matrix(0.1111111111111111,0,0,0.1111111111111111,80,0)" xlink:href="#aI"/><use transform="matrix(0.1111111111111111,0,0,0.1111111111111111,93.22222222222223,0)" xlink:href="#aM"/><use transform="matrix(0.1111111111111111,0,0,0.1111111111111111,115.44444444444446,0)" xlink:href="#aG"/><use transform="matrix(0.1111111111111111,0,0,0.1111111111111111,137.66666666666669,0)" xlink:href="#aV"/><use transform="matrix(0.1111111111111111,0,0,0.1111111111111111,146.44444444444446,0)" xlink:href="#aH"/></g><g id="ag"><use transform="matrix(0.17283950617283925,0,0,0.17283950617283925,0,0)" xlink:href="#bf"/><use transform="matrix(0.17283950617283925,0,0,0.17283950617283925,44.765432098765366,0)" xlink:href="#aJ"/><use transform="matrix(0.17283950617283925,0,0,0.17283950617283925,79.33333333333321,0)" xlink:href="#bi"/><use transform="matrix(0.17283950617283925,0,0,0.17283950617283925,113.90123456790107,0)" xlink:href="#aV"/><use transform="matrix(0.17283950617283925,0,0,0.17283950617283925,127.55555555555536,0)" xlink:href="#aN"/><use transform="matrix(0.17283950617283925,0,0,0.17283950617283925,141.20987654320967,0)" xlink:href="#aV"/><use transform="matrix(0.17283950617283925,0,0,0.17283950617283925,154.86419753086398,0)" xlink:href="#aT"/><use transform="matrix(0.17283950617283925,0,0,0.17283950617283925,189.43209876543182,0)" xlink:href="#aO"/><use transform="matrix(0.17283950617283925,0,0,0.17283950617283925,223.99999999999966,0)" xlink:href="#aT"/><use transform="matrix(0.17283950617283925,0,0,0.17283950617283925,258.5679012345675,0)" xlink:href="#aJ"/><use transform="matrix(0.17283950617283925,0,0,0.17283950617283925,293.13580246913534,0)" xlink:href="#aP"/></g><linearGradient gradientUnits="userSpaceOnUse" id="ah" x1="880" y1="960" x2="1680" y2="1497.64"><stop offset="0%" stop-color="#ffdf71"/><stop offset="100%" stop-color="#fcc438"/></linearGradient><g id="ai"><use transform="matrix(0.1111111111111111,0,0,0.1111111111111111,0,0)" xlink:href="#bm"/><use transform="matrix(0.1111111111111111,0,0,0.1111111111111111,28.777777777777775,0)" xlink:href="#aM"/><use transform="matrix(0.1111111111111111,0,0,0.1111111111111111,51,0)" xlink:href="#aK"/><use transform="matrix(0.1111111111111111,0,0,0.1111111111111111,84.22222222222223,0)" xlink:href="#aQ"/><use transform="matrix(0.1111111111111111,0,0,0.1111111111111111,106.44444444444446,0)" xlink:href="#aJ"/><use transform="matrix(0.1111111111111111,0,0,0.1111111111111111,128.66666666666669,0)" xlink:href="#aL"/><use transform="matrix(0.1111111111111111,0,0,0.1111111111111111,139.7777777777778,0)" xlink:href="#aJ"/><use transform="matrix(0.1111111111111111,0,0,0.1111111111111111,162.00000000000003,0)" xlink:href="#aG"/><use transform="matrix(0.1111111111111111,0,0,0.1111111111111111,184.22222222222226,0)" xlink:href="#aH"/><use transform="matrix(0.1111111111111111,0,0,0.1111111111111111,204.22222222222226,0)" xlink:href="#aV"/><use transform="matrix(0.1111111111111111,0,0,0.1111111111111111,213.00000000000003,0)" xlink:href="#aO"/></g><path d="M160-131c35 5 61 23 61 61C221 17 115-2 30 0v-248c76 3 177-17 177 60 0 33-19 50-47 57zm-97-11c50-1 110 9 110-42 0-47-63-36-110-37v79zm0 115c55-2 124 14 124-45 0-56-70-42-124-44v89" id="bo"/><g id="aj"><use transform="matrix(0.1111111111111111,0,0,0.1111111111111111,0,0)" xlink:href="#bo"/><use transform="matrix(0.1111111111111111,0,0,0.1111111111111111,26.666666666666664,0)" xlink:href="#aO"/><use transform="matrix(0.1111111111111111,0,0,0.1111111111111111,48.888888888888886,0)" xlink:href="#aP"/><use transform="matrix(0.1111111111111111,0,0,0.1111111111111111,68.88888888888889,0)" xlink:href="#aV"/><use transform="matrix(0.1111111111111111,0,0,0.1111111111111111,77.66666666666666,0)" xlink:href="#aH"/><use transform="matrix(0.1111111111111111,0,0,0.1111111111111111,97.66666666666666,0)" xlink:href="#aP"/></g><path d="M68-38c1 34 0 65-14 84H32c9-13 17-26 17-46H33v-38h35" id="bp"/><g id="ak"><use transform="matrix(0.1111111111111111,0,0,0.1111111111111111,0,0)" xlink:href="#aW"/><use transform="matrix(0.1111111111111111,0,0,0.1111111111111111,26.666666666666664,0)" xlink:href="#aK"/><use transform="matrix(0.1111111111111111,0,0,0.1111111111111111,59.888888888888886,0)" xlink:href="#aO"/><use transform="matrix(0.1111111111111111,0,0,0.1111111111111111,82.11111111111111,0)" xlink:href="#bk"/><use transform="matrix(0.1111111111111111,0,0,0.1111111111111111,102.11111111111111,0)" xlink:href="#aM"/><use transform="matrix(0.1111111111111111,0,0,0.1111111111111111,124.33333333333336,0)" xlink:href="#aG"/><use transform="matrix(0.1111111111111111,0,0,0.1111111111111111,146.55555555555557,0)" xlink:href="#bp"/></g><g id="al"><use transform="matrix(0.1111111111111111,0,0,0.1111111111111111,0,0)" xlink:href="#bc"/><use transform="matrix(0.1111111111111111,0,0,0.1111111111111111,33.22222222222222,0)" xlink:href="#aJ"/><use transform="matrix(0.1111111111111111,0,0,0.1111111111111111,55.44444444444444,0)" xlink:href="#aI"/><use transform="matrix(0.1111111111111111,0,0,0.1111111111111111,68.66666666666666,0)" xlink:href="#aH"/><use transform="matrix(0.1111111111111111,0,0,0.1111111111111111,88.66666666666666,0)" xlink:href="#aO"/><use transform="matrix(0.1111111111111111,0,0,0.1111111111111111,110.88888888888889,0)" xlink:href="#aT"/><use transform="matrix(0.1111111111111111,0,0,0.1111111111111111,133.11111111111111,0)" xlink:href="#aM"/></g><g id="am"><use transform="matrix(0.1111111111111111,0,0,0.1111111111111111,0,0)" xlink:href="#bd"/><use transform="matrix(0.1111111111111111,0,0,0.1111111111111111,22.22222222222222,0)" xlink:href="#aV"/><use transform="matrix(0.1111111111111111,0,0,0.1111111111111111,31,0)" xlink:href="#bi"/><use transform="matrix(0.1111111111111111,0,0,0.1111111111111111,53.22222222222222,0)" xlink:href="#aI"/><use transform="matrix(0.1111111111111111,0,0,0.1111111111111111,66.44444444444444,0)" xlink:href="#aJ"/><use transform="matrix(0.1111111111111111,0,0,0.1111111111111111,88.66666666666666,0)" xlink:href="#bp"/></g><g id="an"><use transform="matrix(0.1111111111111111,0,0,0.1111111111111111,0,0)" xlink:href="#aJ"/><use transform="matrix(0.1111111111111111,0,0,0.1111111111111111,22.22222222222222,0)" xlink:href="#aL"/><use transform="matrix(0.1111111111111111,0,0,0.1111111111111111,33.33333333333333,0)" xlink:href="#aH"/></g><path d="M127-220V0H93v-220H8v-28h204v28h-85" id="bq"/><g id="ao"><use transform="matrix(0.1111111111111111,0,0,0.1111111111111111,0,0)" xlink:href="#bq"/><use transform="matrix(0.1111111111111111,0,0,0.1111111111111111,22.88888888888889,0)" xlink:href="#aV"/><use transform="matrix(0.1111111111111111,0,0,0.1111111111111111,31.666666666666664,0)" xlink:href="#aJ"/><use transform="matrix(0.1111111111111111,0,0,0.1111111111111111,53.888888888888886,0)" xlink:href="#aK"/><use transform="matrix(0.1111111111111111,0,0,0.1111111111111111,87.11111111111111,0)" xlink:href="#aQ"/><use transform="matrix(0.1111111111111111,0,0,0.1111111111111111,109.33333333333334,0)" xlink:href="#aM"/><use transform="matrix(0.1111111111111111,0,0,0.1111111111111111,131.55555555555557,0)" xlink:href="#aP"/></g><path d="M141 0L90-78 38 0H4l68-98-65-92h35l48 74 47-74h35l-64 92 68 98h-35" id="br"/><g id="ap"><use transform="matrix(0.1111111111111111,0,0,0.1111111111111111,0,0)" xlink:href="#aJ"/><use transform="matrix(0.1111111111111111,0,0,0.1111111111111111,22.22222222222222,0)" xlink:href="#br"/><use transform="matrix(0.1111111111111111,0,0,0.1111111111111111,42.22222222222222,0)" xlink:href="#aL"/><use transform="matrix(0.1111111111111111,0,0,0.1111111111111111,53.33333333333333,0)" xlink:href="#aJ"/><use transform="matrix(0.1111111111111111,0,0,0.1111111111111111,75.55555555555554,0)" xlink:href="#aG"/><use transform="matrix(0.1111111111111111,0,0,0.1111111111111111,97.77777777777777,0)" xlink:href="#aP"/><use transform="matrix(0.1111111111111111,0,0,0.1111111111111111,117.77777777777777,0)" xlink:href="#aM"/><use transform="matrix(0.1111111111111111,0,0,0.1111111111111111,140,0)" xlink:href="#aP"/></g><g id="aq"><use transform="matrix(0.1111111111111111,0,0,0.1111111111111111,0,0)" xlink:href="#aX"/><use transform="matrix(0.1111111111111111,0,0,0.1111111111111111,22.22222222222222,0)" xlink:href="#aO"/><use transform="matrix(0.1111111111111111,0,0,0.1111111111111111,44.44444444444444,0)" xlink:href="#aI"/><use transform="matrix(0.1111111111111111,0,0,0.1111111111111111,57.666666666666664,0)" xlink:href="#aO"/><use transform="matrix(0.1111111111111111,0,0,0.1111111111111111,79.88888888888889,0)" xlink:href="#aG"/><use transform="matrix(0.1111111111111111,0,0,0.1111111111111111,102.11111111111111,0)" xlink:href="#aL"/><use transform="matrix(0.1111111111111111,0,0,0.1111111111111111,113.22222222222223,0)" xlink:href="#aR"/><use transform="matrix(0.1111111111111111,0,0,0.1111111111111111,124.33333333333336,0)" xlink:href="#aO"/></g><g id="ar"><use transform="matrix(0.1111111111111111,0,0,0.1111111111111111,0,0)" xlink:href="#aH"/><use transform="matrix(0.1111111111111111,0,0,0.1111111111111111,20,0)" xlink:href="#aM"/><use transform="matrix(0.1111111111111111,0,0,0.1111111111111111,42.22222222222222,0)" xlink:href="#aG"/></g><g id="as"><use transform="matrix(0.1111111111111111,0,0,0.1111111111111111,0,0)" xlink:href="#aQ"/><use transform="matrix(0.1111111111111111,0,0,0.1111111111111111,22.22222222222222,0)" xlink:href="#aI"/><use transform="matrix(0.1111111111111111,0,0,0.1111111111111111,35.44444444444444,0)" xlink:href="#aM"/><use transform="matrix(0.1111111111111111,0,0,0.1111111111111111,57.666666666666664,0)" xlink:href="#aY"/><use transform="matrix(0.1111111111111111,0,0,0.1111111111111111,77.66666666666666,0)" xlink:href="#aJ"/><use transform="matrix(0.1111111111111111,0,0,0.1111111111111111,99.88888888888889,0)" xlink:href="#aJ"/><use transform="matrix(0.1111111111111111,0,0,0.1111111111111111,122.1111111111111,0)" xlink:href="#aT"/><use transform="matrix(0.1111111111111111,0,0,0.1111111111111111,144.33333333333334,0)" xlink:href="#aM"/><use transform="matrix(0.1111111111111111,0,0,0.1111111111111111,166.55555555555557,0)" xlink:href="#aI"/><use transform="matrix(0.1111111111111111,0,0,0.1111111111111111,179.7777777777778,0)" xlink:href="#aJ"/><use transform="matrix(0.1111111111111111,0,0,0.1111111111111111,202.00000000000003,0)" xlink:href="#aP"/></g><g id="at"><use transform="matrix(0.1111111111111111,0,0,0.1111111111111111,0,0)" xlink:href="#bm"/><use transform="matrix(0.1111111111111111,0,0,0.1111111111111111,28.777777777777775,0)" xlink:href="#aM"/><use transform="matrix(0.1111111111111111,0,0,0.1111111111111111,51,0)" xlink:href="#aI"/><use transform="matrix(0.1111111111111111,0,0,0.1111111111111111,64.22222222222223,0)" xlink:href="#aL"/><use transform="matrix(0.1111111111111111,0,0,0.1111111111111111,75.33333333333334,0)" xlink:href="#aJ"/><use transform="matrix(0.1111111111111111,0,0,0.1111111111111111,97.55555555555557,0)" xlink:href="#aP"/></g><g id="au"><use transform="matrix(0.1111111111111111,0,0,0.1111111111111111,0,0)" xlink:href="#aN"/><use transform="matrix(0.1111111111111111,0,0,0.1111111111111111,8.777777777777777,0)" xlink:href="#aV"/><use transform="matrix(0.1111111111111111,0,0,0.1111111111111111,17.555555555555554,0)" xlink:href="#aG"/><use transform="matrix(0.1111111111111111,0,0,0.1111111111111111,39.77777777777777,0)" xlink:href="#aJ"/><use transform="matrix(0.1111111111111111,0,0,0.1111111111111111,62,0)" xlink:href="#aO"/><use transform="matrix(0.1111111111111111,0,0,0.1111111111111111,84.22222222222221,0)" xlink:href="#aP"/></g><g id="av"><use transform="matrix(0.1111111111111111,0,0,0.1111111111111111,0,0)" xlink:href="#aT"/><use transform="matrix(0.1111111111111111,0,0,0.1111111111111111,22.22222222222222,0)" xlink:href="#aV"/><use transform="matrix(0.1111111111111111,0,0,0.1111111111111111,31,0)" xlink:href="#aP"/><use transform="matrix(0.1111111111111111,0,0,0.1111111111111111,51,0)" xlink:href="#aL"/><use transform="matrix(0.1111111111111111,0,0,0.1111111111111111,62.11111111111112,0)" xlink:href="#aI"/><use transform="matrix(0.1111111111111111,0,0,0.1111111111111111,75.33333333333334,0)" xlink:href="#aV"/><use transform="matrix(0.1111111111111111,0,0,0.1111111111111111,84.11111111111111,0)" xlink:href="#bi"/><use transform="matrix(0.1111111111111111,0,0,0.1111111111111111,106.33333333333334,0)" xlink:href="#aU"/><use transform="matrix(0.1111111111111111,0,0,0.1111111111111111,128.55555555555557,0)" xlink:href="#aH"/><use transform="matrix(0.1111111111111111,0,0,0.1111111111111111,148.55555555555557,0)" xlink:href="#aV"/><use transform="matrix(0.1111111111111111,0,0,0.1111111111111111,157.33333333333334,0)" xlink:href="#ba"/><use transform="matrix(0.1111111111111111,0,0,0.1111111111111111,179.55555555555557,0)" xlink:href="#aG"/></g><g id="aw"><use transform="matrix(0.1111111111111111,0,0,0.1111111111111111,0,0)" xlink:href="#bl"/><use transform="matrix(0.1111111111111111,0,0,0.1111111111111111,26.666666666666664,0)" xlink:href="#aK"/><use transform="matrix(0.1111111111111111,0,0,0.1111111111111111,59.888888888888886,0)" xlink:href="#aQ"/><use transform="matrix(0.1111111111111111,0,0,0.1111111111111111,82.11111111111111,0)" xlink:href="#aI"/><use transform="matrix(0.1111111111111111,0,0,0.1111111111111111,95.33333333333334,0)" xlink:href="#aJ"/><use transform="matrix(0.1111111111111111,0,0,0.1111111111111111,117.55555555555557,0)" xlink:href="#aP"/><use transform="matrix(0.1111111111111111,0,0,0.1111111111111111,137.55555555555557,0)" xlink:href="#aO"/><use transform="matrix(0.1111111111111111,0,0,0.1111111111111111,159.7777777777778,0)" xlink:href="#aP"/></g><g id="ax"><use transform="matrix(0.1111111111111111,0,0,0.1111111111111111,0,0)" xlink:href="#aP"/><use transform="matrix(0.1111111111111111,0,0,0.1111111111111111,20,0)" xlink:href="#aU"/></g><g id="ay"><use transform="matrix(0.1111111111111111,0,0,0.1111111111111111,0,0)" xlink:href="#aQ"/><use transform="matrix(0.1111111111111111,0,0,0.1111111111111111,22.22222222222222,0)" xlink:href="#aI"/><use transform="matrix(0.1111111111111111,0,0,0.1111111111111111,35.44444444444444,0)" xlink:href="#aM"/><use transform="matrix(0.1111111111111111,0,0,0.1111111111111111,57.666666666666664,0)" xlink:href="#aQ"/><use transform="matrix(0.1111111111111111,0,0,0.1111111111111111,79.88888888888889,0)" xlink:href="#aV"/><use transform="matrix(0.1111111111111111,0,0,0.1111111111111111,88.66666666666666,0)" xlink:href="#aO"/></g><path d="M141-36C126-15 110 5 73 4 37 3 15-17 15-53c-1-64 63-63 125-63 3-35-9-54-41-54-24 1-41 7-42 31l-33-3c5-37 33-52 76-52 45 0 72 20 72 64v82c-1 20 7 32 28 27v20c-31 9-61-2-59-35zM48-53c0 20 12 33 32 33 41-3 63-29 60-74-43 2-92-5-92 41zm25-158c8-23 27-35 38-54h36v5l-58 49H73" id="bs"/><g id="az"><use transform="matrix(0.1111111111111111,0,0,0.1111111111111111,0,0)" xlink:href="#aQ"/><use transform="matrix(0.1111111111111111,0,0,0.1111111111111111,22.22222222222222,0)" xlink:href="#bs"/><use transform="matrix(0.1111111111111111,0,0,0.1111111111111111,44.44444444444444,0)" xlink:href="#aX"/><use transform="matrix(0.1111111111111111,0,0,0.1111111111111111,66.66666666666666,0)" xlink:href="#aV"/><use transform="matrix(0.1111111111111111,0,0,0.1111111111111111,75.44444444444443,0)" xlink:href="#aG"/><use transform="matrix(0.1111111111111111,0,0,0.1111111111111111,97.66666666666666,0)" xlink:href="#aO"/></g><g id="aA"><use transform="matrix(0.1111111111111111,0,0,0.1111111111111111,0,0)" xlink:href="#aT"/><use transform="matrix(0.1111111111111111,0,0,0.1111111111111111,22.22222222222222,0)" xlink:href="#aV"/><use transform="matrix(0.1111111111111111,0,0,0.1111111111111111,31,0)" xlink:href="#aP"/><use transform="matrix(0.1111111111111111,0,0,0.1111111111111111,51,0)" xlink:href="#aL"/><use transform="matrix(0.1111111111111111,0,0,0.1111111111111111,62.11111111111112,0)" xlink:href="#aI"/><use transform="matrix(0.1111111111111111,0,0,0.1111111111111111,75.33333333333334,0)" xlink:href="#aV"/><use transform="matrix(0.1111111111111111,0,0,0.1111111111111111,84.11111111111111,0)" xlink:href="#bi"/><use transform="matrix(0.1111111111111111,0,0,0.1111111111111111,106.33333333333334,0)" xlink:href="#aU"/><use transform="matrix(0.1111111111111111,0,0,0.1111111111111111,128.55555555555557,0)" xlink:href="#aH"/><use transform="matrix(0.1111111111111111,0,0,0.1111111111111111,148.55555555555557,0)" xlink:href="#aV"/><use transform="matrix(0.1111111111111111,0,0,0.1111111111111111,157.33333333333334,0)" xlink:href="#ba"/><use transform="matrix(0.1111111111111111,0,0,0.1111111111111111,179.55555555555557,0)" xlink:href="#aG"/></g><g id="aB"><use transform="matrix(0.17283950617283925,0,0,0.17283950617283925,0,0)" xlink:href="#aW"/><use transform="matrix(0.17283950617283925,0,0,0.17283950617283925,41.48148148148142,0)" xlink:href="#aK"/><use transform="matrix(0.17283950617283925,0,0,0.17283950617283925,93.16049382716035,0)" xlink:href="#aJ"/><use transform="matrix(0.17283950617283925,0,0,0.17283950617283925,127.72839506172821,0)" xlink:href="#aG"/><use transform="matrix(0.17283950617283925,0,0,0.17283950617283925,162.29629629629605,0)" xlink:href="#aO"/><use transform="matrix(0.17283950617283925,0,0,0.17283950617283925,196.8641975308639,0)" xlink:href="#bk"/><use transform="matrix(0.17283950617283925,0,0,0.17283950617283925,227.97530864197498,0)" xlink:href="#aO"/><use transform="matrix(0.17283950617283925,0,0,0.17283950617283925,262.5432098765428,0)" xlink:href="#aP"/></g><path fill="#333" d="M205 0l-28-72H64L36 0H1l101-248h38L239 0h-34zm-38-99l-47-123c-12 45-31 82-46 123h93" id="bt"/><path fill="#333" d="M117-194c89-4 53 116 60 194h-32v-121c0-31-8-49-39-48C34-167 62-67 57 0H25l-1-190h30c1 10-1 24 2 32 11-22 29-35 61-36" id="bu"/><path fill="#333" d="M141-36C126-15 110 5 73 4 37 3 15-17 15-53c-1-64 63-63 125-63 3-35-9-54-41-54-24 1-41 7-42 31l-33-3c5-37 33-52 76-52 45 0 72 20 72 64v82c-1 20 7 32 28 27v20c-31 9-61-2-59-35zM48-53c0 20 12 33 32 33 41-3 63-29 60-74-43 2-92-5-92 41zm25-158c8-23 27-35 38-54h36v5l-58 49H73" id="bv"/><path fill="#333" d="M24 0v-261h32V0H24" id="bw"/><path fill="#333" d="M24-231v-30h32v30H24zM24 0v-190h32V0H24" id="bx"/><path fill="#333" d="M135-143c-3-34-86-38-87 0 15 53 115 12 119 90S17 21 10-45l28-5c4 36 97 45 98 0-10-56-113-15-118-90-4-57 82-63 122-42 12 7 21 19 24 35" id="by"/><g id="aC"><use transform="matrix(0.30864197530864107,0,0,0.30864197530864107,0,0)" xlink:href="#bt"/><use transform="matrix(0.30864197530864107,0,0,0.30864197530864107,74.07407407407386,0)" xlink:href="#bu"/><use transform="matrix(0.30864197530864107,0,0,0.30864197530864107,135.80246913580208,0)" xlink:href="#bv"/><use transform="matrix(0.30864197530864107,0,0,0.30864197530864107,197.5308641975303,0)" xlink:href="#bw"/><use transform="matrix(0.30864197530864107,0,0,0.30864197530864107,221.91358024691294,0)" xlink:href="#bx"/><use transform="matrix(0.30864197530864107,0,0,0.30864197530864107,246.29629629629562,0)" xlink:href="#by"/><use transform="matrix(0.30864197530864107,0,0,0.30864197530864107,301.851851851851,0)" xlink:href="#bx"/><use transform="matrix(0.30864197530864107,0,0,0.30864197530864107,326.2345679012336,0)" xlink:href="#by"/></g><path fill="#333" d="M63-220v92h138v28H63V0H30v-248h175v28H63" id="bz"/><path fill="#333" d="M140-251c81 0 123 46 123 126C263-46 219 4 140 4 59 4 17-45 17-125s42-126 123-126zm0 227c63 0 89-41 89-101s-29-99-89-99c-61 0-89 39-89 99S79-25 140-24" id="bA"/><path fill="#333" d="M30-248c118-7 216 8 213 122C240-48 200 0 122 0H30v-248zM63-27c89 8 146-16 146-99s-60-101-146-95v194" id="bB"/><g id="aD"><use transform="matrix(0.30864197530864107,0,0,0.30864197530864107,0,0)" xlink:href="#bz"/><use transform="matrix(0.30864197530864107,0,0,0.30864197530864107,67.5925925925924,0)" xlink:href="#bA"/><use transform="matrix(0.30864197530864107,0,0,0.30864197530864107,154.0123456790119,0)" xlink:href="#bB"/><use transform="matrix(0.30864197530864107,0,0,0.30864197530864107,233.95061728394995,0)" xlink:href="#bt"/></g></defs></g></svg>