<svg xmlns="http://www.w3.org/2000/svg" xmlns:xlink="http://www.w3.org/1999/xlink" xmlns:lucid="lucid" width="1762.35" height="1460"><g transform="translate(-60 -19.99999999999993)" lucid:page-tab-id="6BRiBCquMf4o"><path d="M1652.65 1106.67h143.7c3.32 0 6 2.7 6 6V1454c0 3.3-2.68 6-6 6h-392.7c-3.32 0-6-2.7-6-6v-367.33c0-3.3 2.68-6 6-6h231c3.3 0 7.12 2.44 8.5 5.45zm-255 0h255" stroke="#5e5e5e" stroke-width="3" fill="#ffeca9"/><use xlink:href="#a" transform="matrix(1,0,0,1,1405.6470588235295,1080.6722689075627) translate(24.938271604938322 24.88888888888888)"/><path d="M248.88 242.35c0 15.97-12.94 28.9-28.9 28.9-15.97 0-28.92-12.93-28.92-28.9 0-15.96 12.95-28.9 28.9-28.9 15.98 0 28.92 12.94 28.92 28.9z" stroke="#5e5e5e" stroke-width="3" fill="#ffdf71"/><path d="M219.97 271.26v79.1c0 3.3 1.4 8.28 3.1 11.12l54.72 90.13m-57.83-95.25l-57.8 95.26m0-151.43h115.62" stroke="#5e5e5e" stroke-width="3" fill="none"/><path d="M162.16 219.45c0-3.32 2.68-6 6-6H271.8c3.3 0 6 2.68 6 6V467.6c0 3.33-2.7 6-6 6H168.15c-3.32 0-6-2.67-6-6z" fill="none"/><use xlink:href="#b" transform="matrix(1,0,0,1,82.15575994177178,451.6134453781512) translate(89.73456790123458 24.88888888888888)"/><path d="M124.34 624.15c0-3.3 2.7-6 6-6H329.6c3.3 0 6 2.7 6 6V785.6c0 3.3-2.7 6-6 6H130.34c-3.3 0-6-2.7-6-6z" stroke="#5e5e5e" stroke-width="3" fill="url(#c)"/><path d="M104.34 657.5c0-3.3 2.7-6 6-6h28c3.3 0 6 2.7 6 6v8c0 3.33-2.7 6-6 6h-28c-3.3 0-6-2.67-6-6z" stroke="#5e5e5e" stroke-width="3" fill="url(#d)"/><path d="M104.34 744.24c0-3.32 2.7-6 6-6h28c3.3 0 6 2.68 6 6v8c0 3.3-2.7 6-6 6h-28c-3.3 0-6-2.7-6-6z" stroke="#5e5e5e" stroke-width="3" fill="url(#e)"/><use xlink:href="#f" transform="matrix(1,0,0,1,150.59273473168776,635.4957983193275) translate(29.23456790123459 38.3888888888889)"/><use xlink:href="#g" transform="matrix(1,0,0,1,150.59273473168776,635.4957983193275) translate(98.19753086419752 38.3888888888889)"/><use xlink:href="#h" transform="matrix(1,0,0,1,150.59273473168776,635.4957983193275) translate(21.456790123456813 75.72222222222221)"/><use xlink:href="#i" transform="matrix(1,0,0,1,150.59273473168776,635.4957983193275) translate(11.172839506172878 113.05555555555554)"/><path d="M644.68 277.26c0-3.3 2.68-6 6-6h199.26c3.3 0 6 2.7 6 6V438.7c0 3.32-2.7 6-6 6H650.68c-3.32 0-6-2.68-6-6z" stroke="#5e5e5e" stroke-width="3" fill="url(#j)"/><path d="M624.68 310.62c0-3.3 2.68-6 6-6h28c3.3 0 6 2.7 6 6v8c0 3.32-2.7 6-6 6h-28c-3.32 0-6-2.68-6-6z" stroke="#5e5e5e" stroke-width="3" fill="url(#k)"/><path d="M624.68 397.34c0-3.3 2.68-6 6-6h28c3.3 0 6 2.7 6 6v8c0 3.32-2.7 6-6 6h-28c-3.32 0-6-2.68-6-6z" stroke="#5e5e5e" stroke-width="3" fill="url(#l)"/><use xlink:href="#m" transform="matrix(1,0,0,1,670.9288691854692,288.6050420168066) translate(-14.796296296296234 75.72222222222223)"/><path d="M644.68 913.23c0-3.32 2.68-6 6-6h199.26c3.3 0 6 2.68 6 6v161.44c0 3.32-2.7 6-6 6H650.68c-3.32 0-6-2.68-6-6z" stroke="#5e5e5e" stroke-width="3" fill="url(#n)"/><path d="M624.68 946.6c0-3.33 2.68-6 6-6h28c3.3 0 6 2.67 6 6v8c0 3.3-2.7 6-6 6h-28c-3.32 0-6-2.7-6-6z" stroke="#5e5e5e" stroke-width="3" fill="url(#o)"/><path d="M624.68 1033.3c0-3.3 2.68-6 6-6h28c3.3 0 6 2.7 6 6v8c0 3.32-2.7 6-6 6h-28c-3.32 0-6-2.68-6-6z" stroke="#5e5e5e" stroke-width="3" fill="url(#p)"/><use xlink:href="#q" transform="matrix(1,0,0,1,670.9288691854692,924.5714285714283) translate(20.67901234567904 57.055555555555564)"/><use xlink:href="#r" transform="matrix(1,0,0,1,670.9288691854692,924.5714285714283) translate(20.549382716049408 94.38888888888889)"/><path d="M920 1183.94c0-3.3 2.7-6 6-6h150.97c3.3 0 6-2.7 6-6V1146c0-3.3 1.8-4 4-1.54l60.28 66.96c2.2 2.47 2.2 6.46 0 8.92l-60.27 66.96c-2.22 2.47-4 1.78-4-1.54v-25.94c0-3.3-2.7-6-6-6H926c-3.3 0-6-2.68-6-6z" stroke="#5e5e5e" stroke-width="3" fill="url(#s)"/><use xlink:href="#t" transform="matrix(1,0,0,1,925,1145) translate(64.24691358024694 78.13888888888889)"/><path d="M219.97 360.74v254.4M219.97 360.78v-4.54" stroke="#5e5e5e" stroke-width="3" fill="none"/><path d="M221.47 616.65h-3v-1.54h3z" fill="#5e5e5e"/><path d="M471.23 624.15c0-3.3 2.7-6 6-6H676.5c3.3 0 6 2.7 6 6V785.6c0 3.3-2.7 6-6 6H477.22c-3.3 0-6-2.7-6-6z" stroke="#5e5e5e" stroke-width="3" fill="url(#u)"/><path d="M451.23 657.5c0-3.3 2.7-6 6-6h28c3.32 0 6 2.7 6 6v8c0 3.33-2.68 6-6 6h-28c-3.3 0-6-2.67-6-6z" stroke="#5e5e5e" stroke-width="3" fill="url(#v)"/><path d="M451.23 744.24c0-3.32 2.7-6 6-6h28c3.32 0 6 2.68 6 6v8c0 3.3-2.68 6-6 6h-28c-3.3 0-6-2.7-6-6z" stroke="#5e5e5e" stroke-width="3" fill="url(#w)"/><use xlink:href="#x" transform="matrix(1,0,0,1,497.4834910342088,635.4957983193275) translate(27.549382716049408 75.72222222222223)"/><path d="M1049.38 277.26c0-3.3 2.7-6 6-6h199.26c3.32 0 6 2.7 6 6V438.7c0 3.32-2.68 6-6 6h-199.26c-3.3 0-6-2.68-6-6z" stroke="#5e5e5e" stroke-width="3" fill="url(#y)"/><path d="M1029.38 310.62c0-3.3 2.7-6 6-6h28c3.32 0 6 2.7 6 6v8c0 3.32-2.68 6-6 6h-28c-3.3 0-6-2.68-6-6z" stroke="#5e5e5e" stroke-width="3" fill="url(#z)"/><path d="M1029.38 397.34c0-3.3 2.7-6 6-6h28c3.32 0 6 2.7 6 6v8c0 3.32-2.68 6-6 6h-28c-3.3 0-6-2.68-6-6z" stroke="#5e5e5e" stroke-width="3" fill="url(#A)"/><use xlink:href="#B" transform="matrix(1,0,0,1,1075.6347515384107,288.6050420168066) translate(14.500000000000028 75.72222222222223)"/><path d="M1645.73 239.45h143.7c3.32 0 6 2.68 6 6v713.6c0 3.3-2.68 6-6 6h-392.7c-3.32 0-6-2.7-6-6v-739.6c0-3.32 2.68-6 6-6h231c3.3 0 7.12 2.43 8.5 5.44zm-255 0h255" stroke="#5e5e5e" stroke-width="3" fill="#ffeca9"/><use xlink:href="#C" transform="matrix(1,0,0,1,1398.7271885132002,213.44537815126046) translate(44.771604938271636 24.88888888888888)"/><path d="M1436.16 386c0-3.3 2.7-6 6-6H1764c3.3 0 6 2.7 6 6v370.86c0 3.3-2.7 6-6 6h-321.84c-3.3 0-6-2.7-6-6z" stroke="#5e5e5e" stroke-width="3" fill="url(#D)"/><path d="M1416.16 471.7c0-3.3 2.7-6 6-6h28c3.3 0 6 2.7 6 6v8c0 3.33-2.7 6-6 6h-28c-3.3 0-6-2.67-6-6z" stroke="#5e5e5e" stroke-width="3" fill="url(#E)"/><path d="M1416.16 663.14c0-3.3 2.7-6 6-6h28c3.3 0 6 2.7 6 6v8c0 3.32-2.7 6-6 6h-28c-3.3 0-6-2.68-6-6z" stroke="#5e5e5e" stroke-width="3" fill="url(#F)"/><use xlink:href="#G" transform="matrix(1,0,0,1,1486.928207503473,418.2857142857143) translate(92.37037037037038 159.72222222222223)"/><path d="M1146.72 548.9c0 15.97-12.94 28.92-28.9 28.92-15.97 0-28.9-12.95-28.9-28.9 0-15.98 12.93-28.92 28.9-28.92 15.96 0 28.9 12.94 28.9 28.9z" stroke="#5e5e5e" stroke-width="3" fill="#ffdf71"/><path d="M1117.82 577.82v79.08c0 3.3 1.4 8.3 3.1 11.13l54.7 90.14m-57.8-95.27L1060 758.17m0-151.45h115.63" stroke="#5e5e5e" stroke-width="3" fill="none"/><path d="M1060 526c0-3.3 2.7-6 6-6h103.63c3.3 0 6 2.7 6 6v248.17c0 3.3-2.7 6-6 6H1066c-3.3 0-6-2.7-6-6z" fill="none"/><use xlink:href="#H" transform="matrix(1,0,0,1,980,758.1680672268907) translate(8.543209876543301 24.88888888888888)"/><use xlink:href="#I" transform="matrix(1,0,0,1,980,758.1680672268907) translate(139.7283950617284 24.88888888888888)"/><path d="M1120.8 638.32l312.37-40.48M1120.84 638.3l-4.5.6" stroke="#5e5e5e" stroke-width="3" fill="none"/><path d="M1434.66 599.16l-1.33.17-.4-2.97 1.73-.23z" fill="#5e5e5e"/><path d="M468.23 704.87h-5.52m-11.05 0H440.6m-11.05 0H418.5m-11.05 0H396.4m-11.05 0H374.3m-11.05 0h-5.53" stroke="#5e5e5e" stroke-width="3" fill="none"/><path d="M469.73 706.37h-1.54v-3h1.53z" fill="#5e5e5e"/><path d="M341.96 704.87l14.26-4.63v9.27z" stroke="#5e5e5e" stroke-width="3" fill="#5e5e5e"/><path d="M695.52 447.55l-2.7 5.38m-5.37 10.76l-5.38 10.75m-5.38 10.76l-5.4 10.77m-5.37 10.77l-5.38 10.76m-5.38 10.76l-5.38 10.76m-5.4 10.76l-5.37 10.76m-5.38 10.76l-5.38 10.77m-5.4 10.76l-2.68 5.38" stroke="#5e5e5e" stroke-width="3" fill="none"/><path d="M696.85 448.25l-2.68-1.34.35-.7h3.35z" fill="#5e5e5e"/><path d="M613.14 612.3l2.24-14.82 8.3 4.14z" stroke="#5e5e5e" stroke-width="3" fill="#5e5e5e"/><path d="M740.3 904.23v-6.08m0-12.15v-12.15m0-12.15v-12.15m0-12.15v-12.15m0-12.15v-12.15m0-12.15v-12.15m0-12.15v-12.15m0-12.15v-12.15m0-12.15v-12.15m0-12.15v-12.15m0-12.15v-12.15m0-12.15v-12.15m0-12.15v-12.15m0-12.15v-12.15m0-12.15v-12.15m0-12.15v-12.15m0-12.15v-12.15m0-12.15v-12.15m0-12.15v-6.07" stroke="#5e5e5e" stroke-width="3" fill="none"/><path d="M741.8 905.73h-3v-1.54h3z" fill="#5e5e5e"/><path d="M740.3 451.06l4.64 14.27h-9.27z" stroke="#5e5e5e" stroke-width="3" fill="#5e5e5e"/><path d="M620.57 794.38l2.8 4.7m5.63 9.35l5.62 9.37m5.62 9.36l5.62 9.37m5.62 9.37l5.62 9.36m5.62 9.37l5.6 9.37m5.63 9.36l2.8 4.7" stroke="#5e5e5e" stroke-width="3" fill="none"/><path d="M621.87 793.64l-2.57 1.55-1.25-2.1h3.5z" fill="#5e5e5e"/><path d="M684.88 901.56l-11.32-9.84 7.95-4.77z" stroke="#5e5e5e" stroke-width="3" fill="#5e5e5e"/><path d="M1046.38 357.98h-6m-12.03 0h-12.03m-12.02 0h-12.02m-12.03 0h-12.02m-12.02 0h-12m-12.04 0h-12.02m-12.02 0H896.1m-12.03 0h-6" stroke="#5e5e5e" stroke-width="3" fill="none"/><path d="M1047.88 359.48h-1.54v-3h1.54z" fill="#5e5e5e"/><path d="M862.3 357.98l14.26-4.63v9.27z" stroke="#5e5e5e" stroke-width="3" fill="#5e5e5e"/><path d="M1497.65 434.5l-5.98-1.3m-11.97-2.58l-11.96-2.6m-11.97-2.6l-11.96-2.6m-11.95-2.6l-11.97-2.6m-11.96-2.58l-11.97-2.6m-11.96-2.6l-11.98-2.6m-11.96-2.6l-11.96-2.58m-11.97-2.6l-11.96-2.6m-11.97-2.6l-11.96-2.6m-11.96-2.6l-6-1.28" stroke="#5e5e5e" stroke-width="3" fill="none"/><path d="M1498.67 433.2l.8 2.97.36.35-2.54-.55.63-2.93z" fill="#5e5e5e"/><path d="M1266.9 384.43l14.9-1.5-1.95 9.06z" stroke="#5e5e5e" stroke-width="3" fill="#5e5e5e"/><path d="M1414.3 660l-5.4 2.68m-10.76 5.34l-10.77 5.33m-10.77 5.34l-10.76 5.32m-10.77 5.34l-10.77 5.33m-10.77 5.33l-10.76 5.33M1312 710.7l-10.77 5.33m-10.77 5.34l-10.76 5.33m-10.77 5.34l-10.77 5.33m-10.77 5.34l-10.77 5.34m-10.77 5.34l-10.77 5.33m-10.78 5.35l-10.76 5.33m-10.77 5.34l-10.78 5.33m-10.77 5.33l-10.76 5.34m-10.78 5.33l-10.77 5.34m-10.77 5.32l-10.76 5.34m-10.77 5.33l-10.77 5.33m-10.77 5.33l-10.75 5.34m-10.77 5.33l-10.77 5.34m-10.76 5.33l-10.77 5.34m-10.76 5.33l-10.76 5.34m-10.77 5.34l-10.77 5.34m-10.76 5.33l-10.77 5.35m-10.77 5.33l-10.77 5.34m-10.76 5.33l-10.77 5.34m-10.77 5.32l-10.77 5.34m-10.76 5.33l-5.4 2.66" stroke="#5e5e5e" stroke-width="3" fill="none"/><path d="M1417.87 657.1l-2.23 2.24-.53 1.94-.18.1-1.33-2.7 4.06-2z" fill="#5e5e5e"/><path d="M861.8 933.76l10.7-10.5 4.13 8.32z" stroke="#5e5e5e" stroke-width="3" fill="#5e5e5e"/><path d="M981.37 1175.84l-125.7-95.18" stroke="#5e5e5e" stroke-width="2" fill="none"/><path d="M983.83 1176.44h-2.94l1.06-1.42zM856.3 1079.88l-1.2 1.6-.93-.7 1.43-1.44z" fill="#5e5e5e"/><path d="M80 46c0-3.3 2.7-6 6-6h1635.73c3.3 0 6 2.7 6 6v125.3c0 3.32-2.7 6-6 6H86c-3.3 0-6-2.68-6-6z" stroke="#000" stroke-opacity="0" stroke-width="3" fill="#fff" fill-opacity="0"/><use xlink:href="#J" transform="matrix(1,0,0,1,85,44.99999999999993) translate(258.7037037037046 76.8888888888888)"/><use xlink:href="#K" transform="matrix(1,0,0,1,85,44.99999999999993) translate(585.8148148148152 76.8888888888888)"/><use xlink:href="#L" transform="matrix(1,0,0,1,85,44.99999999999993) translate(684.5802469135805 76.8888888888888)"/><use xlink:href="#K" transform="matrix(1,0,0,1,85,44.99999999999993) translate(1008.333333333333 76.8888888888888)"/><use xlink:href="#M" transform="matrix(1,0,0,1,85,44.99999999999993) translate(1107.0987654320984 76.8888888888888)"/><path d="M1520 406c0-3.3 2.7-6 6-6h168c3.3 0 6 2.7 6 6v101.45c0 3.3-2.7 6-6 6h-168c-3.3 0-6-2.7-6-6z" stroke="#5e5e5e" stroke-width="3" fill="url(#N)"/><path d="M1500 424.36c0-3.3 2.7-6 6-6h28c3.3 0 6 2.7 6 6v8c0 3.32-2.7 6-6 6h-28c-3.3 0-6-2.68-6-6z" stroke="#5e5e5e" stroke-width="3" fill="url(#O)"/><path d="M1500 481.08c0-3.3 2.7-6 6-6h28c3.3 0 6 2.7 6 6v8c0 3.32-2.7 6-6 6h-28c-3.3 0-6-2.68-6-6z" stroke="#5e5e5e" stroke-width="3" fill="url(#P)"/><use xlink:href="#Q" transform="matrix(1,0,0,1,1540,411.34453781512605) translate(1.8148148148148522 51.72222222222222)"/><path d="M1506.72 1206.67c0-3.3 2.7-6 6-6h199.26c3.32 0 6 2.7 6 6v161.45c0 3.3-2.68 6-6 6h-199.26c-3.3 0-6-2.7-6-6z" stroke="#5e5e5e" stroke-width="3" fill="url(#R)"/><path d="M1486.72 1240.03c0-3.3 2.7-6 6-6h28c3.32 0 6 2.7 6 6v8c0 3.32-2.68 6-6 6h-28c-3.3 0-6-2.68-6-6z" stroke="#5e5e5e" stroke-width="3" fill="url(#S)"/><path d="M1486.72 1326.76c0-3.32 2.7-6 6-6h28c3.32 0 6 2.68 6 6v8c0 3.3-2.68 6-6 6h-28c-3.3 0-6-2.7-6-6z" stroke="#5e5e5e" stroke-width="3" fill="url(#T)"/><g><use xlink:href="#U" transform="matrix(1,0,0,1,1532.9747899159663,1218.016806722689) translate(12.814814814814852 38.3888888888889)"/><use xlink:href="#V" transform="matrix(1,0,0,1,1532.9747899159663,1218.016806722689) translate(63.71604938271606 75.72222222222221)"/><use xlink:href="#W" transform="matrix(1,0,0,1,1532.9747899159663,1218.016806722689) translate(-2.524691358024654 113.05555555555554)"/></g><path d="M1601.2 1197.67l-.1-6.07m-.14-12.13l-.16-12.14m-.16-12.14l-.16-12.15m-.15-12.14l-.16-12.13m-.16-12.13l-.15-12.14m-.15-12.14l-.16-12.14m-.16-12.14l-.15-12.13m-.16-12.14l-.16-12.13m-.15-12.14l-.15-12.14m-.16-12.15l-.16-12.13m-.15-12.14l-.16-12.14m-.16-12.14l-.15-12.14m-.15-12.13l-.16-12.14m-.16-12.15l-.16-12.14m-.15-12.13l-.16-12.13m-.15-12.14l-.15-12.14m-.16-12.14l-.16-12.14m-.16-12.14l-.07-6.06" stroke="#5e5e5e" stroke-width="3" fill="none"/><path d="M1602.7 1199.17h-3v-1.52l3-.04z" fill="#5e5e5e"/><path d="M1595.64 769.2l4.82 14.22-9.27.12z" stroke="#5e5e5e" stroke-width="3" fill="#5e5e5e"/><g><use xlink:href="#X" transform="matrix(1,0,0,1,1606.8956601844861,1009.7724539099326) translate(0.0049999999999954525 14.222222222222223)"/><use xlink:href="#Y" transform="matrix(1,0,0,1,1606.8956601844861,1009.7724539099326) translate(34.523518518518514 14.222222222222223)"/><use xlink:href="#Z" transform="matrix(1,0,0,1,1606.8956601844861,1009.7724539099326) translate(60.15314814814815 14.222222222222223)"/><use xlink:href="#aa" transform="matrix(1,0,0,1,1606.8956601844861,1009.7724539099326) translate(139.06672839506174 14.222222222222223)"/></g><defs><path fill="#333" d="M240 0l2-218c-23 76-54 145-80 218h-23L58-218 59 0H30v-248h44l77 211c21-75 51-140 76-211h43V0h-30" id="ab"/><path fill="#333" d="M141-36C126-15 110 5 73 4 37 3 15-17 15-53c-1-64 63-63 125-63 3-35-9-54-41-54-24 1-41 7-42 31l-33-3c5-37 33-52 76-52 45 0 72 20 72 64v82c-1 20 7 32 28 27v20c-31 9-61-2-59-35zM48-53c0 20 12 33 32 33 41-3 63-29 60-74-43 2-92-5-92 41" id="ac"/><path fill="#333" d="M114-163C36-179 61-72 57 0H25l-1-190h30c1 12-1 29 2 39 6-27 23-49 58-41v29" id="ad"/><path fill="#333" d="M143 0L79-87 56-68V0H24v-261h32v163l83-92h37l-77 82L181 0h-38" id="ae"/><path fill="#333" d="M100-194c63 0 86 42 84 106H49c0 40 14 67 53 68 26 1 43-12 49-29l28 8c-11 28-37 45-77 45C44 4 14-33 15-96c1-61 26-98 85-98zm52 81c6-60-76-77-97-28-3 7-6 17-6 28h103" id="af"/><path fill="#333" d="M59-47c-2 24 18 29 38 22v24C64 9 27 4 27-40v-127H5v-23h24l9-43h21v43h35v23H59v120" id="ag"/><path fill="#333" d="M115-194c55 1 70 41 70 98S169 2 115 4C84 4 66-9 55-30l1 105H24l-1-265h31l2 30c10-21 28-34 59-34zm-8 174c40 0 45-34 45-75s-6-73-45-74c-42 0-51 32-51 76 0 43 10 73 51 73" id="ah"/><path fill="#333" d="M24 0v-261h32V0H24" id="ai"/><path fill="#333" d="M96-169c-40 0-48 33-48 73s9 75 48 75c24 0 41-14 43-38l32 2c-6 37-31 61-74 61-59 0-76-41-82-99-10-93 101-131 147-64 4 7 5 14 7 22l-32 3c-4-21-16-35-41-35" id="aj"/><g id="a"><use transform="matrix(0.0864197530864197,0,0,0.0864197530864197,0,0)" xlink:href="#ab"/><use transform="matrix(0.0864197530864197,0,0,0.0864197530864197,25.839506172839492,0)" xlink:href="#ac"/><use transform="matrix(0.0864197530864197,0,0,0.0864197530864197,43.123456790123434,0)" xlink:href="#ad"/><use transform="matrix(0.0864197530864197,0,0,0.0864197530864197,53.407407407407376,0)" xlink:href="#ae"/><use transform="matrix(0.0864197530864197,0,0,0.0864197530864197,68.96296296296292,0)" xlink:href="#af"/><use transform="matrix(0.0864197530864197,0,0,0.0864197530864197,86.24691358024685,0)" xlink:href="#ag"/><use transform="matrix(0.0864197530864197,0,0,0.0864197530864197,94.88888888888884,0)" xlink:href="#ah"/><use transform="matrix(0.0864197530864197,0,0,0.0864197530864197,112.17283950617278,0)" xlink:href="#ai"/><use transform="matrix(0.0864197530864197,0,0,0.0864197530864197,118.99999999999994,0)" xlink:href="#ac"/><use transform="matrix(0.0864197530864197,0,0,0.0864197530864197,136.28395061728386,0)" xlink:href="#aj"/><use transform="matrix(0.0864197530864197,0,0,0.0864197530864197,151.8395061728394,0)" xlink:href="#af"/></g><path fill="#333" d="M212-179c-10-28-35-45-73-45-59 0-87 40-87 99 0 60 29 101 89 101 43 0 62-24 78-52l27 14C228-24 195 4 139 4 59 4 22-46 18-125c-6-104 99-153 187-111 19 9 31 26 39 46" id="ak"/><path fill="#333" d="M24-231v-30h32v30H24zM24 0v-190h32V0H24" id="al"/><path fill="#333" d="M117-194c89-4 53 116 60 194h-32v-121c0-31-8-49-39-48C34-167 62-67 57 0H25l-1-190h30c1 10-1 24 2 32 11-22 29-35 61-36" id="am"/><g id="b"><use transform="matrix(0.0864197530864197,0,0,0.0864197530864197,0,0)" xlink:href="#ak"/><use transform="matrix(0.0864197530864197,0,0,0.0864197530864197,22.382716049382704,0)" xlink:href="#ai"/><use transform="matrix(0.0864197530864197,0,0,0.0864197530864197,29.209876543209862,0)" xlink:href="#al"/><use transform="matrix(0.0864197530864197,0,0,0.0864197530864197,36.03703703703702,0)" xlink:href="#af"/><use transform="matrix(0.0864197530864197,0,0,0.0864197530864197,53.32098765432096,0)" xlink:href="#am"/><use transform="matrix(0.0864197530864197,0,0,0.0864197530864197,70.60493827160491,0)" xlink:href="#ag"/><use transform="matrix(0.0864197530864197,0,0,0.0864197530864197,79.24691358024688,0)" xlink:href="#af"/></g><linearGradient gradientUnits="userSpaceOnUse" id="c" x1="104.34" y1="618.15" x2="335.6" y2="764.5"><stop offset="0%" stop-color="#c1e4f7"/><stop offset="0%" stop-color="#99d2f2"/><stop offset="97.48%" stop-color="#3aa6dd"/></linearGradient><linearGradient gradientUnits="userSpaceOnUse" id="d" x1="104.34" y1="618.15" x2="335.6" y2="764.5"><stop offset="0%" stop-color="#c1e4f7"/><stop offset="0%" stop-color="#99d2f2"/><stop offset="97.48%" stop-color="#3aa6dd"/></linearGradient><linearGradient gradientUnits="userSpaceOnUse" id="e" x1="104.34" y1="618.15" x2="335.6" y2="764.5"><stop offset="0%" stop-color="#c1e4f7"/><stop offset="0%" stop-color="#99d2f2"/><stop offset="97.48%" stop-color="#3aa6dd"/></linearGradient><path d="M185-189c-5-48-123-54-124 2 14 75 158 14 163 119 3 78-121 87-175 55-17-10-28-26-33-46l33-7c5 56 141 63 141-1 0-78-155-14-162-118-5-82 145-84 179-34 5 7 8 16 11 25" id="an"/><path d="M24-231v-30h32v30H24zM24 0v-190h32V0H24" id="ao"/><path d="M59-47c-2 24 18 29 38 22v24C64 9 27 4 27-40v-127H5v-23h24l9-43h21v43h35v23H59v120" id="ap"/><path d="M100-194c62-1 85 37 85 99 1 63-27 99-86 99S16-35 15-95c0-66 28-99 85-99zM99-20c44 1 53-31 53-75 0-43-8-75-51-75s-53 32-53 75 10 74 51 75" id="aq"/><g id="f"><use transform="matrix(0.0864197530864197,0,0,0.0864197530864197,0,0)" xlink:href="#an"/><use transform="matrix(0.0864197530864197,0,0,0.0864197530864197,20.74074074074073,0)" xlink:href="#ao"/><use transform="matrix(0.0864197530864197,0,0,0.0864197530864197,27.567901234567888,0)" xlink:href="#ap"/><use transform="matrix(0.0864197530864197,0,0,0.0864197530864197,36.20987654320986,0)" xlink:href="#ao"/><use transform="matrix(0.0864197530864197,0,0,0.0864197530864197,43.03703703703702,0)" xlink:href="#aq"/></g><path d="M85-194c31 0 48 13 60 33l-1-100h32l1 261h-30c-2-10 0-23-3-31C134-8 116 4 85 4 32 4 16-35 15-94c0-66 23-100 70-100zm9 24c-40 0-46 34-46 75 0 40 6 74 45 74 42 0 51-32 51-76 0-42-9-74-50-73" id="ar"/><path d="M100-194c63 0 86 42 84 106H49c0 40 14 67 53 68 26 1 43-12 49-29l28 8c-11 28-37 45-77 45C44 4 14-33 15-96c1-61 26-98 85-98zm52 81c6-60-76-77-97-28-3 7-6 17-6 28h103" id="as"/><g id="g"><use transform="matrix(0.0864197530864197,0,0,0.0864197530864197,0,0)" xlink:href="#ar"/><use transform="matrix(0.0864197530864197,0,0,0.0864197530864197,17.283950617283942,0)" xlink:href="#as"/></g><path d="M96-169c-40 0-48 33-48 73s9 75 48 75c24 0 41-14 43-38l32 2c-6 37-31 61-74 61-59 0-76-41-82-99-10-93 101-131 147-64 4 7 5 14 7 22l-32 3c-4-21-16-35-41-35" id="at"/><path d="M210-169c-67 3-38 105-44 169h-31v-121c0-29-5-50-35-48C34-165 62-65 56 0H25l-1-190h30c1 10-1 24 2 32 10-44 99-50 107 0 11-21 27-35 58-36 85-2 47 119 55 194h-31v-121c0-29-5-49-35-48" id="au"/><path d="M115-194c55 1 70 41 70 98S169 2 115 4C84 4 66-9 55-30l1 105H24l-1-265h31l2 30c10-21 28-34 59-34zm-8 174c40 0 45-34 45-75s-6-73-45-74c-42 0-51 32-51 76 0 43 10 73 51 73" id="av"/><path d="M114-163C36-179 61-72 57 0H25l-1-190h30c1 12-1 29 2 39 6-27 23-49 58-41v29" id="aw"/><path d="M141-36C126-15 110 5 73 4 37 3 15-17 15-53c-1-64 63-63 125-63 3-35-9-54-41-54-24 1-41 7-42 31l-33-3c5-37 33-52 76-52 45 0 72 20 72 64v82c-1 20 7 32 28 27v20c-31 9-61-2-59-35zM48-53c0 20 12 33 32 33 41-3 63-29 60-74-43 2-92-5-92 41" id="ax"/><path d="M135-143c-3-34-86-38-87 0 15 53 115 12 119 90S17 21 10-45l28-5c4 36 97 45 98 0-10-56-113-15-118-90-4-57 82-63 122-42 12 7 21 19 24 35" id="ay"/><g id="h"><use transform="matrix(0.0864197530864197,0,0,0.0864197530864197,0,0)" xlink:href="#at"/><use transform="matrix(0.0864197530864197,0,0,0.0864197530864197,15.555555555555546,0)" xlink:href="#aq"/><use transform="matrix(0.0864197530864197,0,0,0.0864197530864197,32.83950617283949,0)" xlink:href="#au"/><use transform="matrix(0.0864197530864197,0,0,0.0864197530864197,58.679012345678984,0)" xlink:href="#av"/><use transform="matrix(0.0864197530864197,0,0,0.0864197530864197,75.96296296296293,0)" xlink:href="#aw"/><use transform="matrix(0.0864197530864197,0,0,0.0864197530864197,86.24691358024688,0)" xlink:href="#ax"/><use transform="matrix(0.0864197530864197,0,0,0.0864197530864197,103.53086419753083,0)" xlink:href="#ay"/></g><path d="M87 75C49 33 22-17 22-94c0-76 28-126 65-167h31c-38 41-64 92-64 168S80 34 118 75H87" id="az"/><path d="M177-190C167-65 218 103 67 71c-23-6-38-20-44-43l32-5c15 47 100 32 89-28v-30C133-14 115 1 83 1 29 1 15-40 15-95c0-56 16-97 71-98 29-1 48 16 59 35 1-10 0-23 2-32h30zM94-22c36 0 50-32 50-73 0-42-14-75-50-75-39 0-46 34-46 75s6 73 46 73" id="aA"/><path d="M117-194c89-4 53 116 60 194h-32v-121c0-31-8-49-39-48C34-167 62-67 57 0H25l-1-190h30c1 10-1 24 2 32 11-22 29-35 61-36" id="aB"/><path d="M100-194c63 0 86 42 84 106H49c0 40 14 67 53 68 26 1 43-12 49-29l28 8c-11 28-37 45-77 45C44 4 14-33 15-96c1-61 26-98 85-98zm52 81c6-60-76-77-97-28-3 7-6 17-6 28h103zm-74-98c8-23 27-35 38-54h36v5l-58 49H78" id="aC"/><path d="M33-261c38 41 65 92 65 168S71 34 33 75H2C39 34 66-17 66-93S39-220 2-261h31" id="aD"/><g id="i"><use transform="matrix(0.0864197530864197,0,0,0.0864197530864197,0,0)" xlink:href="#az"/><use transform="matrix(0.0864197530864197,0,0,0.0864197530864197,10.283950617283946,0)" xlink:href="#aA"/><use transform="matrix(0.0864197530864197,0,0,0.0864197530864197,27.567901234567888,0)" xlink:href="#as"/><use transform="matrix(0.0864197530864197,0,0,0.0864197530864197,44.85185185185184,0)" xlink:href="#aB"/><use transform="matrix(0.0864197530864197,0,0,0.0864197530864197,62.135802469135776,0)" xlink:href="#aC"/><use transform="matrix(0.0864197530864197,0,0,0.0864197530864197,79.41975308641972,0)" xlink:href="#aw"/><use transform="matrix(0.0864197530864197,0,0,0.0864197530864197,89.70370370370368,0)" xlink:href="#ao"/><use transform="matrix(0.0864197530864197,0,0,0.0864197530864197,96.53086419753082,0)" xlink:href="#at"/><use transform="matrix(0.0864197530864197,0,0,0.0864197530864197,112.08641975308636,0)" xlink:href="#aq"/><use transform="matrix(0.0864197530864197,0,0,0.0864197530864197,129.3703703703703,0)" xlink:href="#aD"/></g><linearGradient gradientUnits="userSpaceOnUse" id="j" x1="624.68" y1="271.26" x2="855.94" y2="417.61"><stop offset="0%" stop-color="#c1e4f7"/><stop offset="0%" stop-color="#99d2f2"/><stop offset="97.48%" stop-color="#3aa6dd"/></linearGradient><linearGradient gradientUnits="userSpaceOnUse" id="k" x1="624.68" y1="271.26" x2="855.94" y2="417.61"><stop offset="0%" stop-color="#c1e4f7"/><stop offset="0%" stop-color="#99d2f2"/><stop offset="97.48%" stop-color="#3aa6dd"/></linearGradient><linearGradient gradientUnits="userSpaceOnUse" id="l" x1="624.68" y1="271.26" x2="855.94" y2="417.61"><stop offset="0%" stop-color="#c1e4f7"/><stop offset="0%" stop-color="#99d2f2"/><stop offset="97.48%" stop-color="#3aa6dd"/></linearGradient><path d="M30-248c87 1 191-15 191 75 0 78-77 80-158 76V0H30v-248zm33 125c57 0 124 11 124-50 0-59-68-47-124-48v98" id="aE"/><path d="M84 4C-5 8 30-112 23-190h32v120c0 31 7 50 39 49 72-2 45-101 50-169h31l1 190h-30c-1-10 1-25-2-33-11 22-28 36-60 37" id="aF"/><path d="M115-194c53 0 69 39 70 98 0 66-23 100-70 100C84 3 66-7 56-30L54 0H23l1-261h32v101c10-23 28-34 59-34zm-8 174c40 0 45-34 45-75 0-40-5-75-45-74-42 0-51 32-51 76 0 43 10 73 51 73" id="aG"/><path d="M24 0v-261h32V0H24" id="aH"/><g id="m"><use transform="matrix(0.0864197530864197,0,0,0.0864197530864197,0,0)" xlink:href="#aE"/><use transform="matrix(0.0864197530864197,0,0,0.0864197530864197,20.74074074074073,0)" xlink:href="#aF"/><use transform="matrix(0.0864197530864197,0,0,0.0864197530864197,38.02469135802467,0)" xlink:href="#aG"/><use transform="matrix(0.0864197530864197,0,0,0.0864197530864197,55.30864197530861,0)" xlink:href="#aH"/><use transform="matrix(0.0864197530864197,0,0,0.0864197530864197,62.13580246913577,0)" xlink:href="#ao"/><use transform="matrix(0.0864197530864197,0,0,0.0864197530864197,68.96296296296292,0)" xlink:href="#at"/><use transform="matrix(0.0864197530864197,0,0,0.0864197530864197,84.51851851851846,0)" xlink:href="#ax"/><use transform="matrix(0.0864197530864197,0,0,0.0864197530864197,101.8024691358024,0)" xlink:href="#at"/><use transform="matrix(0.0864197530864197,0,0,0.0864197530864197,117.35802469135794,0)" xlink:href="#ao"/><use transform="matrix(0.0864197530864197,0,0,0.0864197530864197,124.1851851851851,0)" xlink:href="#aq"/><use transform="matrix(0.0864197530864197,0,0,0.0864197530864197,141.46913580246903,0)" xlink:href="#aB"/><use transform="matrix(0.0864197530864197,0,0,0.0864197530864197,158.75308641975298,0)" xlink:href="#as"/><use transform="matrix(0.0864197530864197,0,0,0.0864197530864197,176.03703703703692,0)" xlink:href="#ay"/></g><linearGradient gradientUnits="userSpaceOnUse" id="n" x1="624.68" y1="907.23" x2="855.94" y2="1053.57"><stop offset="0%" stop-color="#c1e4f7"/><stop offset="0%" stop-color="#99d2f2"/><stop offset="97.48%" stop-color="#3aa6dd"/></linearGradient><linearGradient gradientUnits="userSpaceOnUse" id="o" x1="624.68" y1="907.23" x2="855.94" y2="1053.57"><stop offset="0%" stop-color="#c1e4f7"/><stop offset="0%" stop-color="#99d2f2"/><stop offset="97.48%" stop-color="#3aa6dd"/></linearGradient><linearGradient gradientUnits="userSpaceOnUse" id="p" x1="624.68" y1="907.23" x2="855.94" y2="1053.57"><stop offset="0%" stop-color="#c1e4f7"/><stop offset="0%" stop-color="#99d2f2"/><stop offset="97.48%" stop-color="#3aa6dd"/></linearGradient><path d="M212-179c-10-28-35-45-73-45-59 0-87 40-87 99 0 60 29 101 89 101 43 0 62-24 78-52l27 14C228-24 195 4 139 4 59 4 22-46 18-125c-6-104 99-153 187-111 19 9 31 26 39 46" id="aI"/><g id="q"><use transform="matrix(0.0864197530864197,0,0,0.0864197530864197,0,0)" xlink:href="#aI"/><use transform="matrix(0.0864197530864197,0,0,0.0864197530864197,22.382716049382704,0)" xlink:href="#aq"/><use transform="matrix(0.0864197530864197,0,0,0.0864197530864197,39.66666666666664,0)" xlink:href="#au"/><use transform="matrix(0.0864197530864197,0,0,0.0864197530864197,65.50617283950614,0)" xlink:href="#av"/><use transform="matrix(0.0864197530864197,0,0,0.0864197530864197,82.79012345679007,0)" xlink:href="#aw"/><use transform="matrix(0.0864197530864197,0,0,0.0864197530864197,93.07407407407402,0)" xlink:href="#ax"/><use transform="matrix(0.0864197530864197,0,0,0.0864197530864197,110.35802469135797,0)" xlink:href="#aw"/></g><g id="r"><use transform="matrix(0.0864197530864197,0,0,0.0864197530864197,0,0)" xlink:href="#av"/><use transform="matrix(0.0864197530864197,0,0,0.0864197530864197,17.283950617283942,0)" xlink:href="#aw"/><use transform="matrix(0.0864197530864197,0,0,0.0864197530864197,27.567901234567888,0)" xlink:href="#aq"/><use transform="matrix(0.0864197530864197,0,0,0.0864197530864197,44.85185185185184,0)" xlink:href="#ar"/><use transform="matrix(0.0864197530864197,0,0,0.0864197530864197,62.135802469135776,0)" xlink:href="#aF"/><use transform="matrix(0.0864197530864197,0,0,0.0864197530864197,79.41975308641972,0)" xlink:href="#at"/><use transform="matrix(0.0864197530864197,0,0,0.0864197530864197,94.97530864197526,0)" xlink:href="#ap"/><use transform="matrix(0.0864197530864197,0,0,0.0864197530864197,103.61728395061724,0)" xlink:href="#aq"/></g><linearGradient gradientUnits="userSpaceOnUse" id="s" x1="1151.26" y1="1291.76" x2="920" y2="1291.76"><stop offset="0%" stop-color="#ffdf71"/><stop offset="100%" stop-color="#fcc438"/></linearGradient><path fill="#333" d="M30 0v-248h187v28H63v79h144v27H63v87h162V0H30" id="aJ"/><path fill="#333" d="M108 0H70L1-190h34L89-25l56-165h34" id="aK"/><path fill="#333" d="M34 0v-190h32V0H34zM24-211c8-23 27-35 38-54h36v5l-58 49H24" id="aL"/><path fill="#333" d="M100-194c62-1 85 37 85 99 1 63-27 99-86 99S16-35 15-95c0-66 28-99 85-99zM99-20c44 1 53-31 53-75 0-43-8-75-51-75s-53 32-53 75 10 74 51 75" id="aM"/><g id="t"><use transform="matrix(0.0864197530864197,0,0,0.0864197530864197,0,0)" xlink:href="#aJ"/><use transform="matrix(0.0864197530864197,0,0,0.0864197530864197,20.74074074074073,0)" xlink:href="#am"/><use transform="matrix(0.0864197530864197,0,0,0.0864197530864197,38.02469135802467,0)" xlink:href="#aK"/><use transform="matrix(0.0864197530864197,0,0,0.0864197530864197,53.58024691358021,0)" xlink:href="#aL"/><use transform="matrix(0.0864197530864197,0,0,0.0864197530864197,62.222222222222186,0)" xlink:href="#aM"/></g><linearGradient gradientUnits="userSpaceOnUse" id="u" x1="451.23" y1="618.15" x2="682.49" y2="764.5"><stop offset="0%" stop-color="#c1e4f7"/><stop offset="0%" stop-color="#99d2f2"/><stop offset="97.48%" stop-color="#3aa6dd"/></linearGradient><linearGradient gradientUnits="userSpaceOnUse" id="v" x1="451.23" y1="618.15" x2="682.49" y2="764.5"><stop offset="0%" stop-color="#c1e4f7"/><stop offset="0%" stop-color="#99d2f2"/><stop offset="97.48%" stop-color="#3aa6dd"/></linearGradient><linearGradient gradientUnits="userSpaceOnUse" id="w" x1="451.23" y1="618.15" x2="682.49" y2="764.5"><stop offset="0%" stop-color="#c1e4f7"/><stop offset="0%" stop-color="#99d2f2"/><stop offset="97.48%" stop-color="#3aa6dd"/></linearGradient><path d="M232-93c-1 65-40 97-104 97C67 4 28-28 28-90v-158h33c8 89-33 224 67 224 102 0 64-133 71-224h33v155" id="aN"/><g id="x"><use transform="matrix(0.0864197530864197,0,0,0.0864197530864197,0,0)" xlink:href="#aN"/><use transform="matrix(0.0864197530864197,0,0,0.0864197530864197,22.382716049382704,0)" xlink:href="#ay"/><use transform="matrix(0.0864197530864197,0,0,0.0864197530864197,37.93827160493825,0)" xlink:href="#aF"/><use transform="matrix(0.0864197530864197,0,0,0.0864197530864197,55.22222222222219,0)" xlink:href="#ax"/><use transform="matrix(0.0864197530864197,0,0,0.0864197530864197,72.50617283950614,0)" xlink:href="#aw"/><use transform="matrix(0.0864197530864197,0,0,0.0864197530864197,82.79012345679008,0)" xlink:href="#ao"/><use transform="matrix(0.0864197530864197,0,0,0.0864197530864197,89.61728395061724,0)" xlink:href="#aq"/></g><linearGradient gradientUnits="userSpaceOnUse" id="y" x1="1029.38" y1="271.26" x2="1260.64" y2="417.61"><stop offset="0%" stop-color="#c1e4f7"/><stop offset="0%" stop-color="#99d2f2"/><stop offset="97.48%" stop-color="#3aa6dd"/></linearGradient><linearGradient gradientUnits="userSpaceOnUse" id="z" x1="1029.38" y1="271.26" x2="1260.64" y2="417.61"><stop offset="0%" stop-color="#c1e4f7"/><stop offset="0%" stop-color="#99d2f2"/><stop offset="97.48%" stop-color="#3aa6dd"/></linearGradient><linearGradient gradientUnits="userSpaceOnUse" id="A" x1="1029.38" y1="271.26" x2="1260.64" y2="417.61"><stop offset="0%" stop-color="#c1e4f7"/><stop offset="0%" stop-color="#99d2f2"/><stop offset="97.48%" stop-color="#3aa6dd"/></linearGradient><path d="M137 0h-34L2-248h35l83 218 83-218h36" id="aO"/><g id="B"><use transform="matrix(0.0864197530864197,0,0,0.0864197530864197,0,0)" xlink:href="#aO"/><use transform="matrix(0.0864197530864197,0,0,0.0864197530864197,19.012345679012334,0)" xlink:href="#as"/><use transform="matrix(0.0864197530864197,0,0,0.0864197530864197,36.296296296296276,0)" xlink:href="#aB"/><use transform="matrix(0.0864197530864197,0,0,0.0864197530864197,53.58024691358022,0)" xlink:href="#ar"/><use transform="matrix(0.0864197530864197,0,0,0.0864197530864197,70.86419753086416,0)" xlink:href="#as"/><use transform="matrix(0.0864197530864197,0,0,0.0864197530864197,88.1481481481481,0)" xlink:href="#ar"/><use transform="matrix(0.0864197530864197,0,0,0.0864197530864197,105.43209876543204,0)" xlink:href="#aq"/><use transform="matrix(0.0864197530864197,0,0,0.0864197530864197,122.71604938271601,0)" xlink:href="#aw"/></g><path fill="#333" d="M137 0h-34L2-248h35l83 218 83-218h36" id="aP"/><g id="C"><use transform="matrix(0.0864197530864197,0,0,0.0864197530864197,0,0)" xlink:href="#aP"/><use transform="matrix(0.0864197530864197,0,0,0.0864197530864197,19.012345679012334,0)" xlink:href="#af"/><use transform="matrix(0.0864197530864197,0,0,0.0864197530864197,36.296296296296276,0)" xlink:href="#am"/><use transform="matrix(0.0864197530864197,0,0,0.0864197530864197,53.58024691358022,0)" xlink:href="#ag"/><use transform="matrix(0.0864197530864197,0,0,0.0864197530864197,62.222222222222186,0)" xlink:href="#ad"/><use transform="matrix(0.0864197530864197,0,0,0.0864197530864197,72.50617283950614,0)" xlink:href="#aM"/><use transform="matrix(0.0864197530864197,0,0,0.0864197530864197,89.79012345679007,0)" xlink:href="#am"/><use transform="matrix(0.0864197530864197,0,0,0.0864197530864197,107.07407407407402,0)" xlink:href="#al"/><use transform="matrix(0.0864197530864197,0,0,0.0864197530864197,113.90123456790117,0)" xlink:href="#aj"/></g><linearGradient gradientUnits="userSpaceOnUse" id="D" x1="1416.16" y1="380" x2="1770" y2="703.04"><stop offset="0%" stop-color="#c1e4f7"/><stop offset="0%" stop-color="#99d2f2"/><stop offset="97.48%" stop-color="#3aa6dd"/></linearGradient><linearGradient gradientUnits="userSpaceOnUse" id="E" x1="1416.16" y1="380" x2="1770" y2="703.04"><stop offset="0%" stop-color="#c1e4f7"/><stop offset="0%" stop-color="#99d2f2"/><stop offset="97.48%" stop-color="#3aa6dd"/></linearGradient><linearGradient gradientUnits="userSpaceOnUse" id="F" x1="1416.16" y1="380" x2="1770" y2="703.04"><stop offset="0%" stop-color="#c1e4f7"/><stop offset="0%" stop-color="#99d2f2"/><stop offset="97.48%" stop-color="#3aa6dd"/></linearGradient><path d="M30 0v-248h187v28H63v79h144v27H63v87h162V0H30" id="aQ"/><path d="M233-177c-1 41-23 64-60 70L243 0h-38l-65-103H63V0H30v-248c88 3 205-21 203 71zM63-129c60-2 137 13 137-47 0-61-80-42-137-45v92" id="aR"/><g id="G"><use transform="matrix(0.0864197530864197,0,0,0.0864197530864197,0,0)" xlink:href="#aQ"/><use transform="matrix(0.0864197530864197,0,0,0.0864197530864197,20.74074074074073,0)" xlink:href="#aR"/><use transform="matrix(0.0864197530864197,0,0,0.0864197530864197,43.123456790123434,0)" xlink:href="#aE"/></g><path fill="#333" d="M30-248c87 1 191-15 191 75 0 78-77 80-158 76V0H30v-248zm33 125c57 0 124 11 124-50 0-59-68-47-124-48v98" id="aS"/><path fill="#333" d="M135-143c-3-34-86-38-87 0 15 53 115 12 119 90S17 21 10-45l28-5c4 36 97 45 98 0-10-56-113-15-118-90-4-57 82-63 122-42 12 7 21 19 24 35" id="aT"/><g id="H"><use transform="matrix(0.0864197530864197,0,0,0.0864197530864197,0,0)" xlink:href="#aS"/><use transform="matrix(0.0864197530864197,0,0,0.0864197530864197,20.74074074074073,0)" xlink:href="#af"/><use transform="matrix(0.0864197530864197,0,0,0.0864197530864197,38.02469135802467,0)" xlink:href="#ad"/><use transform="matrix(0.0864197530864197,0,0,0.0864197530864197,48.30864197530862,0)" xlink:href="#aT"/><use transform="matrix(0.0864197530864197,0,0,0.0864197530864197,63.86419753086416,0)" xlink:href="#aM"/><use transform="matrix(0.0864197530864197,0,0,0.0864197530864197,81.1481481481481,0)" xlink:href="#am"/><use transform="matrix(0.0864197530864197,0,0,0.0864197530864197,98.43209876543204,0)" xlink:href="#ac"/><use transform="matrix(0.0864197530864197,0,0,0.0864197530864197,115.716049382716,0)" xlink:href="#ai"/></g><g id="I"><use transform="matrix(0.0864197530864197,0,0,0.0864197530864197,0,0)" xlink:href="#aM"/><use transform="matrix(0.0864197530864197,0,0,0.0864197530864197,17.283950617283942,0)" xlink:href="#ah"/><use transform="matrix(0.0864197530864197,0,0,0.0864197530864197,34.567901234567884,0)" xlink:href="#af"/><use transform="matrix(0.0864197530864197,0,0,0.0864197530864197,51.851851851851826,0)" xlink:href="#ad"/><use transform="matrix(0.0864197530864197,0,0,0.0864197530864197,62.13580246913577,0)" xlink:href="#ac"/><use transform="matrix(0.0864197530864197,0,0,0.0864197530864197,79.41975308641972,0)" xlink:href="#ag"/><use transform="matrix(0.0864197530864197,0,0,0.0864197530864197,88.06172839506169,0)" xlink:href="#al"/><use transform="matrix(0.0864197530864197,0,0,0.0864197530864197,94.88888888888884,0)" xlink:href="#aK"/><use transform="matrix(0.0864197530864197,0,0,0.0864197530864197,110.44444444444439,0)" xlink:href="#aM"/></g><path fill="#333" d="M30-248c118-7 216 8 213 122C240-48 200 0 122 0H30v-248zM63-27c89 8 146-16 146-99s-60-101-146-95v194" id="aU"/><path fill="#333" d="M177-190C167-65 218 103 67 71c-23-6-38-20-44-43l32-5c15 47 100 32 89-28v-30C133-14 115 1 83 1 29 1 15-40 15-95c0-56 16-97 71-98 29-1 48 16 59 35 1-10 0-23 2-32h30zM94-22c36 0 50-32 50-73 0-42-14-75-50-75-39 0-46 34-46 75s6 73 46 73" id="aV"/><path fill="#333" d="M210-169c-67 3-38 105-44 169h-31v-121c0-29-5-50-35-48C34-165 62-65 56 0H25l-1-190h30c1 10-1 24 2 32 10-44 99-50 107 0 11-21 27-35 58-36 85-2 47 119 55 194h-31v-121c0-29-5-49-35-48" id="aW"/><g id="J"><use transform="matrix(0.19753086419753055,0,0,0.19753086419753055,0,0)" xlink:href="#aU"/><use transform="matrix(0.19753086419753055,0,0,0.19753086419753055,51.16049382716041,0)" xlink:href="#al"/><use transform="matrix(0.19753086419753055,0,0,0.19753086419753055,66.76543209876532,0)" xlink:href="#ac"/><use transform="matrix(0.19753086419753055,0,0,0.19753086419753055,106.27160493827141,0)" xlink:href="#aV"/><use transform="matrix(0.19753086419753055,0,0,0.19753086419753055,145.77777777777754,0)" xlink:href="#ad"/><use transform="matrix(0.19753086419753055,0,0,0.19753086419753055,169.28395061728366,0)" xlink:href="#ac"/><use transform="matrix(0.19753086419753055,0,0,0.19753086419753055,208.7901234567898,0)" xlink:href="#aW"/><use transform="matrix(0.19753086419753055,0,0,0.19753086419753055,267.8518518518514,0)" xlink:href="#ac"/></g><path fill="#333" d="M85-194c31 0 48 13 60 33l-1-100h32l1 261h-30c-2-10 0-23-3-31C134-8 116 4 85 4 32 4 16-35 15-94c0-66 23-100 70-100zm9 24c-40 0-46 34-46 75 0 40 6 74 45 74 42 0 51-32 51-76 0-42-9-74-50-73" id="aX"/><g id="K"><use transform="matrix(0.19753086419753055,0,0,0.19753086419753055,0,0)" xlink:href="#aX"/><use transform="matrix(0.19753086419753055,0,0,0.19753086419753055,39.50617283950611,0)" xlink:href="#af"/></g><g id="L"><use transform="matrix(0.19753086419753055,0,0,0.19753086419753055,0,0)" xlink:href="#ak"/><use transform="matrix(0.19753086419753055,0,0,0.19753086419753055,51.16049382716041,0)" xlink:href="#aM"/><use transform="matrix(0.19753086419753055,0,0,0.19753086419753055,90.66666666666652,0)" xlink:href="#am"/><use transform="matrix(0.19753086419753055,0,0,0.19753086419753055,130.17283950617264,0)" xlink:href="#aj"/><use transform="matrix(0.19753086419753055,0,0,0.19753086419753055,165.72839506172812,0)" xlink:href="#af"/><use transform="matrix(0.19753086419753055,0,0,0.19753086419753055,205.23456790123424,0)" xlink:href="#ah"/><use transform="matrix(0.19753086419753055,0,0,0.19753086419753055,244.74074074074034,0)" xlink:href="#ag"/><use transform="matrix(0.19753086419753055,0,0,0.19753086419753055,264.4938271604934,0)" xlink:href="#aM"/></g><path fill="#333" d="M185-189c-5-48-123-54-124 2 14 75 158 14 163 119 3 78-121 87-175 55-17-10-28-26-33-46l33-7c5 56 141 63 141-1 0-78-155-14-162-118-5-82 145-84 179-34 5 7 8 16 11 25" id="aY"/><path fill="#333" d="M84 4C-5 8 30-112 23-190h32v120c0 31 7 50 39 49 72-2 45-101 50-169h31l1 190h-30c-1-10 1-25-2-33-11 22-28 36-60 37" id="aZ"/><path fill="#333" d="M100-194c62-1 85 37 85 99 1 63-27 99-86 99S16-35 15-95c0-66 28-99 85-99zM99-20c44 1 53-31 53-75 0-43-8-75-51-75s-53 32-53 75 10 74 51 75zM76-211c8-23 27-35 38-54h36v5l-58 49H76" id="ba"/><g id="M"><use transform="matrix(0.19753086419753055,0,0,0.19753086419753055,0,0)" xlink:href="#aY"/><use transform="matrix(0.19753086419753055,0,0,0.19753086419753055,47.407407407407334,0)" xlink:href="#aM"/><use transform="matrix(0.19753086419753055,0,0,0.19753086419753055,86.91358024691344,0)" xlink:href="#ai"/><use transform="matrix(0.19753086419753055,0,0,0.19753086419753055,102.51851851851835,0)" xlink:href="#aZ"/><use transform="matrix(0.19753086419753055,0,0,0.19753086419753055,142.02469135802446,0)" xlink:href="#aj"/><use transform="matrix(0.19753086419753055,0,0,0.19753086419753055,177.58024691357997,0)" xlink:href="#al"/><use transform="matrix(0.19753086419753055,0,0,0.19753086419753055,193.18518518518488,0)" xlink:href="#ba"/><use transform="matrix(0.19753086419753055,0,0,0.19753086419753055,232.691358024691,0)" xlink:href="#am"/></g><linearGradient gradientUnits="userSpaceOnUse" id="N" x1="1500" y1="400" x2="1700" y2="495.72"><stop offset="0%" stop-color="#c1e4f7"/><stop offset="0%" stop-color="#99d2f2"/><stop offset="97.48%" stop-color="#3aa6dd"/></linearGradient><linearGradient gradientUnits="userSpaceOnUse" id="O" x1="1500" y1="400" x2="1700" y2="495.72"><stop offset="0%" stop-color="#c1e4f7"/><stop offset="0%" stop-color="#99d2f2"/><stop offset="97.48%" stop-color="#3aa6dd"/></linearGradient><linearGradient gradientUnits="userSpaceOnUse" id="P" x1="1500" y1="400" x2="1700" y2="495.72"><stop offset="0%" stop-color="#c1e4f7"/><stop offset="0%" stop-color="#99d2f2"/><stop offset="97.48%" stop-color="#3aa6dd"/></linearGradient><path d="M33 0v-248h34V0H33" id="bb"/><path d="M108 0H70L1-190h34L89-25l56-165h34" id="bc"/><g id="Q"><use transform="matrix(0.0864197530864197,0,0,0.0864197530864197,0,0)" xlink:href="#bb"/><use transform="matrix(0.0864197530864197,0,0,0.0864197530864197,8.641975308641971,0)" xlink:href="#aB"/><use transform="matrix(0.0864197530864197,0,0,0.0864197530864197,25.925925925925913,0)" xlink:href="#bc"/><use transform="matrix(0.0864197530864197,0,0,0.0864197530864197,41.48148148148146,0)" xlink:href="#as"/><use transform="matrix(0.0864197530864197,0,0,0.0864197530864197,58.7654320987654,0)" xlink:href="#aB"/><use transform="matrix(0.0864197530864197,0,0,0.0864197530864197,76.04938271604934,0)" xlink:href="#ap"/><use transform="matrix(0.0864197530864197,0,0,0.0864197530864197,84.69135802469131,0)" xlink:href="#ax"/><use transform="matrix(0.0864197530864197,0,0,0.0864197530864197,101.97530864197526,0)" xlink:href="#aw"/><use transform="matrix(0.0864197530864197,0,0,0.0864197530864197,112.25925925925922,0)" xlink:href="#ao"/><use transform="matrix(0.0864197530864197,0,0,0.0864197530864197,119.08641975308636,0)" xlink:href="#aq"/></g><linearGradient gradientUnits="userSpaceOnUse" id="R" x1="1486.72" y1="1200.67" x2="1717.98" y2="1347.02"><stop offset="0%" stop-color="#c1e4f7"/><stop offset="0%" stop-color="#99d2f2"/><stop offset="97.48%" stop-color="#3aa6dd"/></linearGradient><linearGradient gradientUnits="userSpaceOnUse" id="S" x1="1486.72" y1="1200.67" x2="1717.98" y2="1347.02"><stop offset="0%" stop-color="#c1e4f7"/><stop offset="0%" stop-color="#99d2f2"/><stop offset="97.48%" stop-color="#3aa6dd"/></linearGradient><linearGradient gradientUnits="userSpaceOnUse" id="T" x1="1486.72" y1="1200.67" x2="1717.98" y2="1347.02"><stop offset="0%" stop-color="#c1e4f7"/><stop offset="0%" stop-color="#99d2f2"/><stop offset="97.48%" stop-color="#3aa6dd"/></linearGradient><g id="U"><use transform="matrix(0.0864197530864197,0,0,0.0864197530864197,0,0)" xlink:href="#bb"/><use transform="matrix(0.0864197530864197,0,0,0.0864197530864197,8.641975308641971,0)" xlink:href="#aB"/><use transform="matrix(0.0864197530864197,0,0,0.0864197530864197,25.925925925925913,0)" xlink:href="#bc"/><use transform="matrix(0.0864197530864197,0,0,0.0864197530864197,41.48148148148146,0)" xlink:href="#as"/><use transform="matrix(0.0864197530864197,0,0,0.0864197530864197,58.7654320987654,0)" xlink:href="#aB"/><use transform="matrix(0.0864197530864197,0,0,0.0864197530864197,76.04938271604934,0)" xlink:href="#ap"/><use transform="matrix(0.0864197530864197,0,0,0.0864197530864197,84.69135802469131,0)" xlink:href="#ax"/><use transform="matrix(0.0864197530864197,0,0,0.0864197530864197,101.97530864197526,0)" xlink:href="#aw"/><use transform="matrix(0.0864197530864197,0,0,0.0864197530864197,112.25925925925922,0)" xlink:href="#ao"/><use transform="matrix(0.0864197530864197,0,0,0.0864197530864197,119.08641975308636,0)" xlink:href="#aq"/></g><g id="V"><use transform="matrix(0.0864197530864197,0,0,0.0864197530864197,0,0)" xlink:href="#as"/><use transform="matrix(0.0864197530864197,0,0,0.0864197530864197,17.283950617283942,0)" xlink:href="#aB"/></g><path d="M63-220v92h138v28H63V0H30v-248h175v28H63" id="bd"/><path d="M101-234c-31-9-42 10-38 44h38v23H63V0H32v-167H5v-23h27c-7-52 17-82 69-68v24" id="be"/><g id="W"><use transform="matrix(0.0864197530864197,0,0,0.0864197530864197,0,0)" xlink:href="#bd"/><use transform="matrix(0.0864197530864197,0,0,0.0864197530864197,18.925925925925917,0)" xlink:href="#aF"/><use transform="matrix(0.0864197530864197,0,0,0.0864197530864197,36.20987654320986,0)" xlink:href="#aH"/><use transform="matrix(0.0864197530864197,0,0,0.0864197530864197,43.03703703703702,0)" xlink:href="#aH"/><use transform="matrix(0.0864197530864197,0,0,0.0864197530864197,49.86419753086417,0)" xlink:href="#be"/><use transform="matrix(0.0864197530864197,0,0,0.0864197530864197,58.50617283950615,0)" xlink:href="#ao"/><use transform="matrix(0.0864197530864197,0,0,0.0864197530864197,65.3333333333333,0)" xlink:href="#aH"/><use transform="matrix(0.0864197530864197,0,0,0.0864197530864197,72.16049382716045,0)" xlink:href="#au"/><use transform="matrix(0.0864197530864197,0,0,0.0864197530864197,97.99999999999994,0)" xlink:href="#au"/><use transform="matrix(0.0864197530864197,0,0,0.0864197530864197,123.83950617283944,0)" xlink:href="#as"/><use transform="matrix(0.0864197530864197,0,0,0.0864197530864197,141.12345679012338,0)" xlink:href="#aB"/><use transform="matrix(0.0864197530864197,0,0,0.0864197530864197,158.40740740740733,0)" xlink:href="#ap"/></g><path fill="#333" d="M199 0l-22-63H83L61 0H9l90-248h61L250 0h-51zm-33-102l-36-108c-10 38-24 72-36 108h72" id="bf"/><path fill="#333" d="M24-248c93 1 206-16 204 79-1 75-69 88-152 82V0H24v-248zm52 121c47 0 100 7 100-41 0-47-54-39-100-39v80" id="bg"/><path fill="#333" d="M24 0v-248h52V0H24" id="bh"/><g id="X"><use transform="matrix(0.04938271604938272,0,0,0.04938271604938272,0,0)" xlink:href="#bf"/><use transform="matrix(0.04938271604938272,0,0,0.04938271604938272,12.790123456790125,0)" xlink:href="#bg"/><use transform="matrix(0.04938271604938272,0,0,0.04938271604938272,24.641975308641978,0)" xlink:href="#bh"/></g><path fill="#333" d="M88-194c31-1 46 15 58 34l-1-101h50l1 261h-48c-2-10 0-23-3-31C134-8 116 4 84 4 32 4 16-41 15-95c0-56 19-97 73-99zm17 164c33 0 40-30 41-66 1-37-9-64-41-64s-38 30-39 65c0 43 13 65 39 65" id="bi"/><path fill="#333" d="M185-48c-13 30-37 53-82 52C43 2 14-33 14-96s30-98 90-98c62 0 83 45 84 108H66c0 31 8 55 39 56 18 0 30-7 34-22zm-45-69c5-46-57-63-70-21-2 6-4 13-4 21h74" id="bj"/><g id="Y"><use transform="matrix(0.04938271604938272,0,0,0.04938271604938272,0,0)" xlink:href="#bi"/><use transform="matrix(0.04938271604938272,0,0,0.04938271604938272,10.814814814814815,0)" xlink:href="#bj"/></g><path fill="#333" d="M220-157c-53 9-28 100-34 157h-49v-107c1-27-5-49-29-50C55-147 81-57 75 0H25l-1-190h47c2 12-1 28 3 38 10-53 101-56 108 0 13-22 24-43 59-42 82 1 51 116 57 194h-49v-107c-1-25-5-48-29-50" id="bk"/><path fill="#333" d="M135-150c-39-12-60 13-60 57V0H25l-1-190h47c2 13-1 29 3 40 6-28 27-53 61-41v41" id="bl"/><path fill="#333" d="M190-63c-7 42-38 67-86 67-59 0-84-38-90-98-12-110 154-137 174-36l-49 2c-2-19-15-32-35-32-30 0-35 28-38 64-6 74 65 87 74 30" id="bm"/><path fill="#333" d="M133-34C117-15 103 5 69 4 32 3 11-16 11-54c-1-60 55-63 116-61 1-26-3-47-28-47-18 1-26 9-28 27l-52-2c7-38 36-58 82-57s74 22 75 68l1 82c-1 14 12 18 25 15v27c-30 8-71 5-69-32zm-48 3c29 0 43-24 42-57-32 0-66-3-65 30 0 17 8 27 23 27" id="bn"/><path fill="#333" d="M110-194c64 0 96 36 96 99 0 64-35 99-97 99-61 0-95-36-95-99 0-62 34-99 96-99zm-1 164c35 0 45-28 45-65 0-40-10-65-43-65-34 0-45 26-45 65 0 36 10 65 43 65" id="bo"/><g id="Z"><use transform="matrix(0.04938271604938272,0,0,0.04938271604938272,0,0)" xlink:href="#bk"/><use transform="matrix(0.04938271604938272,0,0,0.04938271604938272,15.80246913580247,0)" xlink:href="#bj"/><use transform="matrix(0.04938271604938272,0,0,0.04938271604938272,25.679012345679016,0)" xlink:href="#bl"/><use transform="matrix(0.04938271604938272,0,0,0.04938271604938272,32.592592592592595,0)" xlink:href="#bm"/><use transform="matrix(0.04938271604938272,0,0,0.04938271604938272,42.46913580246914,0)" xlink:href="#bn"/><use transform="matrix(0.04938271604938272,0,0,0.04938271604938272,52.345679012345684,0)" xlink:href="#bi"/><use transform="matrix(0.04938271604938272,0,0,0.04938271604938272,63.1604938271605,0)" xlink:href="#bo"/></g><path fill="#333" d="M25 0v-261h50V0H25" id="bp"/><path fill="#333" d="M25-224v-37h50v37H25zM25 0v-190h50V0H25" id="bq"/><path fill="#333" d="M135-194c52 0 70 43 70 98 0 56-19 99-73 100-30 1-46-15-58-35L72 0H24l1-261h50v104c11-23 29-37 60-37zM114-30c31 0 40-27 40-66 0-37-7-63-39-63s-41 28-41 65c0 36 8 64 40 64" id="br"/><g id="aa"><use transform="matrix(0.04938271604938272,0,0,0.04938271604938272,0,0)" xlink:href="#bp"/><use transform="matrix(0.04938271604938272,0,0,0.04938271604938272,4.938271604938272,0)" xlink:href="#bq"/><use transform="matrix(0.04938271604938272,0,0,0.04938271604938272,9.876543209876544,0)" xlink:href="#br"/><use transform="matrix(0.04938271604938272,0,0,0.04938271604938272,20.69135802469136,0)" xlink:href="#bl"/><use transform="matrix(0.04938271604938272,0,0,0.04938271604938272,27.604938271604947,0)" xlink:href="#bj"/></g></defs></g></svg>