<svg xmlns="http://www.w3.org/2000/svg" xmlns:xlink="http://www.w3.org/1999/xlink" xmlns:lucid="lucid" width="1880" height="1356.42"><g transform="translate(0 13.582677165354426)" lucid:page-tab-id="0_0"><path d="M980 12.42c0-3.32 2.7-6 6-6h848c3.3 0 6 2.68 6 6v328c0 3.3-2.7 6-6 6H986c-3.3 0-6-2.7-6-6z" stroke="#000" stroke-opacity="0" stroke-width="3" fill="#ffeca9" fill-opacity=".47"/><use xlink:href="#a" transform="matrix(1,0,0,1,987.9999999999994,14.417322834645574) translate(354.31481481481484 24.888888888888886)"/><path d="M380 12.42c0-3.32 2.7-6 6-6h568c3.3 0 6 2.68 6 6v328c0 3.3-2.7 6-6 6H386c-3.3 0-6-2.7-6-6z" stroke="#000" stroke-opacity="0" stroke-width="3" fill="#ffeca9" fill-opacity=".47"/><use xlink:href="#b" transform="matrix(1,0,0,1,388,14.417322834645574) translate(219.820987654321 24.888888888888886)"/><path d="M20 372.42c0-3.32 2.7-6 6-6h1448c3.3 0 6 2.68 6 6v938c0 3.3-2.7 6-6 6H26c-3.3 0-6-2.7-6-6z" stroke="#000" stroke-opacity="0" stroke-width="3" fill="#ffeca9" fill-opacity=".47"/><use xlink:href="#c" transform="matrix(1,0,0,1,28,374.4173228346456) translate(637.4382716049383 24.888888888888886)"/><path d="M1259.15 229.13L1142.1 155.5" stroke="#5e5e5e" stroke-width="2" fill="none"/><path d="M1260 228.5v2.35l-1.4-.88 1.06-1.7zM1142.66 154.66l-1.06 1.7-1.12-.7 1.56-1.4z" fill="#5e5e5e"/><path d="M958.63 1145.4l64.02 48" stroke="#5e5e5e" stroke-width="2" fill="none"/><path d="M959.25 1144.6l-1.2 1.6-.93-.7 1.43-1.42zM1024.28 1193.38l-.24.16-1.4 1.1-.6-.45 1.2-1.6z" fill="#5e5e5e"/><path d="M291.8 635.75l-14.4-12.8" stroke="#5e5e5e" stroke-width="2" fill="none"/><path d="M294.05 636.42h-2.88l1.27-1.43zM278.08 622.2l-1.33 1.5-1-.88 1.34-.8.42-.3z" fill="#5e5e5e"/><path d="M558.34 1086.42h222.84" stroke="#5e5e5e" stroke-width="2" fill="none"/><path d="M558.37 1087.42h-1.24l.22-.95-.22-1.05h1.24z" fill="#5e5e5e"/><path d="M799.55 1096.42l-20-10 20-10M799.55 1086.42h-20" stroke="#5e5e5e" stroke-width="2" fill="#fff"/><path d="M440.46 1123.14l-49.48 45.94" stroke="#5e5e5e" stroke-width="2" fill="none"/><path d="M441.94 1123.12l-.82.77-1.36-1.48.67-.63zM391.68 1169.8l-.54.5-1.8-1.07.98-.9z" fill="#5e5e5e"/><path d="M496.18 1143.46l9.46 33.34" stroke="#5e5e5e" stroke-width="2" fill="none"/><path d="M497.15 1143.2l-1.93.56-.15-.53 1.67-1.46zM506.9 1177.6l-1.98.33-.25-.88 1.92-.54z" fill="#5e5e5e"/><path d="M460 697.98l461.92 7.22" stroke="#5e5e5e" stroke-width="2" fill="none"/><path d="M449.84 707.82l.32-20M440 697.67l20 .3M459.84 707.98l.3-20" stroke="#5e5e5e" stroke-width="2" fill="#fff"/><path d="M923.17 704.22l-.02.02-.47 1.97h-.8l.03-2z" fill="#5e5e5e"/><path d="M982.38 762.22l-71.7 227" stroke="#5e5e5e" stroke-width="2" fill="none"/><path d="M983.5 761.98l-.17.56-1.9-.6.43-1.4z" fill="#5e5e5e"/><path d="M889.55 1022.98l15.55-16.06 3.52 22.08M899.08 1026l6.02-19.08" stroke="#5e5e5e" stroke-width="2" fill="#fff"/><path d="M918.12 997.38c0 5.53-4.48 10-10 10-5.53 0-10-4.47-10-10 0-5.52 4.47-10 10-10 5.52 0 10 4.48 10 10" stroke="#5e5e5e" stroke-width="2" fill="#fff"/><path d="M1062.8 753.77l-19.03-14.35" stroke="#5e5e5e" stroke-width="2" fill="none"/><path d="M1064.43 753.75l-.4.27-1.25 1-.6-.47 1.2-1.6zM1044.4 738.64l-1.2 1.6-1-.75 1.54-1.35z" fill="#5e5e5e"/><path d="M279 704.52l-38.72 3.87" stroke="#5e5e5e" stroke-width="2" fill="none"/><path d="M280 705.42l-.92.1-.2-2 1.12-.1zM240.4 709.38l-.95.1-.32-1.97 1.08-.1z" fill="#5e5e5e"/><path d="M384.34 775.53l78.4 254.78" stroke="#5e5e5e" stroke-width="2" fill="none"/><path d="M371.84 768.92l19.12-5.9M378.46 756.42l5.88 19.1M374.8 778.47l19.1-5.88" stroke="#5e5e5e" stroke-width="2" fill="#fff"/><path d="M463.85 1030.54l-.82.73-.96.3-.3-1 1.9-.58z" fill="#5e5e5e"/><path d="M1741.87 205.42l.62-38.03" stroke="#5e5e5e" stroke-width="2" fill="none"/><path d="M1742.87 205.4l-.02 1.02h-1l-1-.02.02-1.02zM1743.48 166.42h.02v1l-2-.02v-1.04z" fill="#5e5e5e"/><path d="M999 1086.42h142.66" stroke="#5e5e5e" stroke-width="2" fill="none"/><path d="M960.45 1076.42l20 10-20 10M960.45 1086.42h20M1000.45 1086.42c0 5.52-4.48 10-10 10-5.53 0-10-4.48-10-10 0-5.53 4.47-10 10-10 5.52 0 10 4.47 10 10" stroke="#5e5e5e" stroke-width="2" fill="#fff"/><path d="M1142.65 1086.36l.22 1.06h-1.24v-2h1.24z" fill="#5e5e5e"/><path d="M1483.07 1086.42h-184.73" stroke="#5e5e5e" stroke-width="2" fill="none"/><path d="M1521.63 1096.42l-20-10 20-10M1521.63 1086.42h-20M1501.63 1086.42c0 5.52-4.48 10-10 10-5.53 0-10-4.48-10-10 0-5.53 4.47-10 10-10 5.52 0 10 4.47 10 10" stroke="#5e5e5e" stroke-width="2" fill="#fff"/><path d="M1298.37 1087.42h-1.24l.22-.95-.22-1.05h1.24z" fill="#5e5e5e"/><path d="M1683.06 1072.63l7.94-1.35" stroke="#5e5e5e" stroke-width="2" fill="none"/><path d="M1683.25 1073.6l-1.18.2v-2l.85-.16zM1692.28 1072.08l-1.13.2-.34-1.98.9-.15z" fill="#5e5e5e"/><path d="M1713.55 1172.72l-34.1-26.4" stroke="#5e5e5e" stroke-width="2" fill="none"/><path d="M1715.2 1172.74l-1.16.8-.53.4-.58-.45 1.22-1.6zM1680.1 1145.55l-1.23 1.58-1.4-1.1 1.63-.43.46-.46z" fill="#5e5e5e"/><path d="M940.04 662.98L727.12 508.7" stroke="#5e5e5e" stroke-width="2" fill="none"/><path d="M954 660.75l-11.73 16.2M956.24 674.7L940.04 663M945.9 654.88l-11.73 16.2" stroke="#5e5e5e" stroke-width="2" fill="#fff"/><path d="M727.73 507.92l-1.18 1.62-1-.74 1.53-1.35z" fill="#5e5e5e"/><path d="M674.57 336.87l4.12 72.06" stroke="#5e5e5e" stroke-width="2" fill="none"/><path d="M664.02 327.45l19.96-1.14M673.43 316.9l1.14 19.97M664.6 337.44l19.95-1.14" stroke="#5e5e5e" stroke-width="2" fill="#fff"/><path d="M679.7 409.34l-1.67 1.03-.25.22-.1-1.64 2-.1z" fill="#5e5e5e"/><path d="M664.22 531.6l-159.9 481.6" stroke="#5e5e5e" stroke-width="2" fill="none"/><path d="M665.35 531.37l-.2.58-1.9-.63.47-1.38z" fill="#5e5e5e"/><path d="M510.65 1025.84l-18.98-6.3M498 1032.18l6.3-18.98M513.8 1016.35l-18.98-6.3" stroke="#5e5e5e" stroke-width="2" fill="#fff"/><path d="M1078.45 656l-31.5 20.23" stroke="#5e5e5e" stroke-width="2" fill="none"/><path d="M1080.07 656.13l-1.1.7-1.1-1.67.63-.4zM1047.52 677.06l-.62.4-1.57-1.38 1.1-.7z" fill="#5e5e5e"/><path d="M1439.95 273.2l24.8-1.67" stroke="#5e5e5e" stroke-width="2" fill="none"/><path d="M1430.65 283.87l-1.35-19.96M1420 274.57l19.95-1.36M1440.63 283.2l-1.35-19.97" stroke="#5e5e5e" stroke-width="2" fill="#fff"/><path d="M1466.82 272.4l-2 .13-.15-2h.03z" fill="#5e5e5e"/><path d="M1523.5 166.9l6.2 37.4" stroke="#5e5e5e" stroke-width="2" fill="none"/><path d="M1524.5 166.77l-1.97.32-.18-1.08 2-.2zM1530.75 204.5l-1.77 1.56-.27-1.63 2-.32z" fill="#5e5e5e"/><path d="M1318.94 219.05l-15.06-43.6" stroke="#5e5e5e" stroke-width="2" fill="none"/><path d="M1320.33 220h-2.12l-.2-.64 1.88-.66zM1304.83 175.14l-1.9.66-.38-1.13 1.44-.24.54-.13z" fill="#5e5e5e"/><path d="M432.04 1057.1l-69.2-42.27" stroke="#5e5e5e" stroke-width="2" fill="none"/><path d="M433.7 1056.94l-1.6 1.38-.6-.37 1.04-1.7zM363.4 1014l-1.05 1.7-1.13-.7 1.53-1.37.03-.02z" fill="#5e5e5e"/><path d="M410.24 1096.38l-130.66 18.67" stroke="#5e5e5e" stroke-width="2" fill="none"/><path d="M412.22 1097.1l-1.87.28-.28-1.98.17-.03zM279.75 1116.04l-.94.13-.33-1.48-.14-.48 1.13-.16z" fill="#5e5e5e"/><path d="M1618.34 266.42h22.53" stroke="#5e5e5e" stroke-width="2" fill="none"/><path d="M1618.37 267.42h-1.24l.22-.95-.22-1.05h1.24z" fill="#5e5e5e"/><path d="M1660.42 276.42l-20-10 20-10M1660.42 266.42h-20M1640.42 256.42v20" stroke="#5e5e5e" stroke-width="2" fill="#fff"/><path d="M1340 360v417.8" stroke="#5e5e5e" stroke-width="2" fill="none"/><path d="M1330 350h20M1340 340v20M1330 360h20" stroke="#5e5e5e" stroke-width="2" fill="#fff"/><path d="M1341 778.87l-1.56-.12-.44.1v-1.08h2z" fill="#5e5e5e"/><path d="M977.73 1035.43L1289 873.03" stroke="#5e5e5e" stroke-width="2" fill="none"/><path d="M973.5 1048.92l-9.26-17.73M960 1044.68l17.73-9.25M982.36 1044.3l-9.25-17.74" stroke="#5e5e5e" stroke-width="2" fill="#fff"/><path d="M1290.7 873.27l-1.26.66-.93-1.78.58-.3z" fill="#5e5e5e"/><path d="M888.13 1147.4l3.78 28.33" stroke="#5e5e5e" stroke-width="2" fill="none"/><path d="M889.13 1147.3l-2 .27-.14-1.15h2zM893.04 1176.66l-.66.03-1.33.12-.14-.98 2-.27z" fill="#5e5e5e"/><path d="M1500 372.42c0-3.32 2.7-6 6-6h348c3.3 0 6 2.68 6 6v938c0 3.3-2.7 6-6 6h-348c-3.3 0-6-2.7-6-6z" stroke="#000" stroke-opacity="0" stroke-width="3" fill="#ffeca9" fill-opacity=".47"/><use xlink:href="#d" transform="matrix(1,0,0,1,1508,374.4173228346456) translate(49.4135802469136 24.888888888888886)"/><use xlink:href="#e" transform="matrix(1,0,0,1,1508,374.4173228346456) translate(178.95679012345678 24.888888888888886)"/><use xlink:href="#f" transform="matrix(1,0,0,1,1508,374.4173228346456) translate(204.8827160493827 24.888888888888886)"/><path d="M1601.28 1147.42l-.5 38.02" stroke="#5e5e5e" stroke-width="2" fill="none"/><path d="M1602.28 1147.46l-2-.03.02-1h2zM1601.8 1185.43l-.02 1.04-1.78-.05h-.22v-1.02z" fill="#5e5e5e"/><path d="M1602.07 935.2v71.22" stroke="#5e5e5e" stroke-width="2" fill="none"/><path d="M1602.87 934.22l.2-.04v1.04h-2v-1.06z" fill="#5e5e5e"/><path d="M1612.07 1016.42h-20M1602.07 1026.42v-20M1612.07 1006.42h-20" stroke="#5e5e5e" stroke-width="2" fill="#fff"/><path d="M1691.6 883.92l-16.62-3.25" stroke="#5e5e5e" stroke-width="2" fill="none"/><path d="M1692.93 883.16l-.68 1.9-.86-.16.37-1.96zM1675.2 879.7l-.4 1.96-1.85-.37 2.1-1.63z" fill="#5e5e5e"/><path d="M1650.04 832.5l70.94-50.12" stroke="#5e5e5e" stroke-width="2" fill="none"/><path d="M1650.64 833.32l-.6.4-1.64-1.27 1.1-.77zM1722.63 782.44l-1.1.77-1.14-1.62.57-.42z" fill="#5e5e5e"/><path d="M1605.67 798.38l.1-2" stroke="#5e5e5e" stroke-width="2" fill="none"/><path d="M1606.67 798.4l-.08 1.57-1.12-.67-.85-.26.04-.74z" fill="#5e5e5e"/><path d="M1596.32 785.88l19.97 1.05M1606.83 776.42l-1.06 19.97M1595.8 795.86l19.96 1.06" stroke="#5e5e5e" stroke-width="2" fill="#fff"/><path d="M1597.34 800.1c2.6-2.03 6.85-2.03 9.47 0l80.54 62.63c2.6 2.04 2.6 5.34 0 7.37l-80.53 62.63c-2.6 2.04-6.85 2.04-9.46 0l-80.53-62.63c-2.6-2.03-2.6-5.33 0-7.37z" stroke="#000" stroke-opacity="0" stroke-width="3" fill="#ff8f80"/><use xlink:href="#g" transform="matrix(1,0,0,1,1512.074047787937,796.4173228346456) translate(30.80746913580246 72.78777777777778)"/><use xlink:href="#h" transform="matrix(1,0,0,1,1512.074047787937,796.4173228346456) translate(73.98648148148149 99.45444444444445)"/><path d="M1850 899.25c0 33.14-35.82 60-80 60s-80-26.86-80-60 35.82-60 80-60 80 26.86 80 60z" stroke="#000" stroke-opacity="0" stroke-width="3" fill="#99d5ca"/><use xlink:href="#i" transform="matrix(1,0,0,1,1690,839.2519685039367) translate(49.171666666666674 28.787777777777777)"/><use xlink:href="#j" transform="matrix(1,0,0,1,1690,839.2519685039367) translate(33.739567901234565 55.45444444444445)"/><use xlink:href="#k" transform="matrix(1,0,0,1,1690,839.2519685039367) translate(51.023518518518514 55.45444444444445)"/><use xlink:href="#l" transform="matrix(1,0,0,1,1690,839.2519685039367) translate(101.57907407407407 55.45444444444445)"/><use xlink:href="#m" transform="matrix(1,0,0,1,1690,839.2519685039367) translate(31.27043209876543 82.1211111111111)"/><path d="M1860 740.67c0 33.14-35.82 60-80 60s-80-26.86-80-60 35.82-60 80-60 80 26.86 80 60z" stroke="#000" stroke-opacity="0" stroke-width="3" fill="#99d5ca"/><use xlink:href="#n" transform="matrix(1,0,0,1,1700,680.6692913385823) translate(28.029691358024703 51.52777777777778)"/><use xlink:href="#l" transform="matrix(1,0,0,1,1700,680.6692913385823) translate(107.28895061728394 51.52777777777778)"/><use xlink:href="#m" transform="matrix(1,0,0,1,1700,680.6692913385823) translate(31.27043209876543 78.19444444444446)"/><path d="M1530 662.42c0-3.32 2.7-6 6-6h148c3.3 0 6 2.68 6 6v108c0 3.3-2.7 6-6 6h-148c-3.3 0-6-2.7-6-6z" stroke="#000" stroke-opacity="0" stroke-width="3" fill="#3aa6dd"/><use xlink:href="#o" transform="matrix(1,0,0,1,1530,656.4173228346456) translate(29.387716049382718 51.52777777777778)"/><use xlink:href="#l" transform="matrix(1,0,0,1,1530,656.4173228346456) translate(105.93092592592592 51.52777777777778)"/><use xlink:href="#p" transform="matrix(1,0,0,1,1530,656.4173228346456) translate(38.060555555555545 78.19444444444446)"/><path d="M1522.07 1032.42c0-3.32 2.7-6 6-6h148c3.32 0 6 2.68 6 6v108c0 3.3-2.68 6-6 6h-148c-3.3 0-6-2.7-6-6z" stroke="#000" stroke-opacity="0" stroke-width="3" fill="#3aa6dd"/><use xlink:href="#q" transform="matrix(1,0,0,1,1522.074047787937,1026.4173228346456) translate(34.974135802469135 62.77777777777778)"/><path d="M1850 1057.83c0 33.14-35.82 60-80 60s-80-26.86-80-60c0-33.13 35.82-60 80-60s80 26.87 80 60z" stroke="#000" stroke-opacity="0" stroke-width="3" fill="#99d5ca"/><use xlink:href="#r" transform="matrix(1,0,0,1,1690,997.8346456692911) translate(29.44944444444443 62.77777777777778)"/><path d="M1680 1246.42c0 33.13-35.82 60-80 60s-80-26.87-80-60c0-33.14 35.82-60 80-60s80 26.86 80 60z" stroke="#000" stroke-opacity="0" stroke-width="3" fill="#99d5ca"/><use xlink:href="#s" transform="matrix(1,0,0,1,1520,1186.4173228346456) translate(34.974135802469135 47.77777777777778)"/><use xlink:href="#t" transform="matrix(1,0,0,1,1520,1186.4173228346456) translate(24.572901234567894 74.44444444444446)"/><path d="M1850 1216.42c0 33.13-35.82 60-80 60s-80-26.87-80-60c0-33.14 35.82-60 80-60s80 26.86 80 60z" stroke="#000" stroke-opacity="0" stroke-width="3" fill="#99d5ca"/><use xlink:href="#i" transform="matrix(1,0,0,1,1690,1156.4173228346456) translate(49.171666666666674 28.787777777777777)"/><use xlink:href="#j" transform="matrix(1,0,0,1,1690,1156.4173228346456) translate(49.17166666666667 55.45444444444445)"/><use xlink:href="#u" transform="matrix(1,0,0,1,1690,1156.4173228346456) translate(66.45561728395062 55.45444444444445)"/><use xlink:href="#v" transform="matrix(1,0,0,1,1690,1156.4173228346456) translate(23.863024691358017 82.1211111111111)"/><path d="M1160 116.42c0 33.13-35.82 60-80 60s-80-26.87-80-60c0-33.14 35.82-60 80-60s80 26.86 80 60z" stroke="#000" stroke-opacity="0" stroke-width="3" fill="#99d5ca"/><use xlink:href="#w" transform="matrix(1,0,0,1,999.9999999999995,56.417322834645574) translate(57.19635802469136 62.77777777777778)"/><path d="M1260 226c0-3.3 2.7-6 6-6h148c3.3 0 6 2.7 6 6v108c0 3.3-2.7 6-6 6h-148c-3.3 0-6-2.7-6-6z" stroke="#000" stroke-opacity="0" stroke-width="3" fill="#3aa6dd"/><use xlink:href="#x" transform="matrix(1,0,0,1,1259.9999999999995,220) translate(35.59141975308642 62.77777777777778)"/><path d="M1363.48 116.42c0 33.13-35.8 60-80 60-44.18 0-80-26.87-80-60 0-33.14 35.82-60 80-60 44.2 0 80 26.86 80 60z" stroke="#000" stroke-opacity="0" stroke-width="3" fill="#99d5ca"/><use xlink:href="#y" transform="matrix(1,0,0,1,1203.4840265202279,56.417322834645574) translate(28.832160493827153 62.77777777777778)"/><path d="M1593.48 106.42c0 33.13-35.8 60-80 60-44.18 0-80-26.87-80-60 0-33.14 35.82-60 80-60 44.2 0 80 26.86 80 60z" stroke="#000" stroke-opacity="0" stroke-width="3" fill="#99d5ca"/><use xlink:href="#z" transform="matrix(1,0,0,1,1433.4840265202274,46.417322834645574) translate(20.190185185185182 51.52777777777778)"/><use xlink:href="#A" transform="matrix(1,0,0,1,1433.4840265202274,46.417322834645574) translate(115.12845679012347 51.52777777777778)"/><use xlink:href="#B" transform="matrix(1,0,0,1,1433.4840265202274,46.417322834645574) translate(31.949444444444435 78.19444444444446)"/><path d="M1535.48 200.37c2.5-2.18 6.54-2.18 9.04 0l70.96 62.1c2.5 2.18 2.5 5.72 0 7.9l-70.96 62.1c-2.5 2.18-6.54 2.18-9.04 0l-70.96-62.1c-2.5-2.18-2.5-5.72 0-7.9z" stroke="#000" stroke-opacity="0" stroke-width="3" fill="#ff8f80"/><use xlink:href="#C" transform="matrix(1,0,0,1,1460,196.41732283464557) translate(42.35067901234568 74.65277777777777)"/><use xlink:href="#D" transform="matrix(1,0,0,1,1460,196.41732283464557) translate(92.96796296296296 74.65277777777777)"/><path d="M1660.87 212.42c0-3.32 2.7-6 6-6h148c3.32 0 6 2.68 6 6v108c0 3.3-2.68 6-6 6h-148c-3.3 0-6-2.7-6-6z" stroke="#000" stroke-opacity="0" stroke-width="3" fill="#3aa6dd"/><use xlink:href="#E" transform="matrix(1,0,0,1,1660.8718925662579,206.41732283464557) translate(36.85685185185185 62.77777777777778)"/><path d="M1823.48 106.42c0 33.13-35.8 60-80 60-44.18 0-80-26.87-80-60 0-33.14 35.82-60 80-60 44.2 0 80 26.86 80 60z" stroke="#000" stroke-opacity="0" stroke-width="3" fill="#99d5ca"/><use xlink:href="#F" transform="matrix(1,0,0,1,1663.4840265202272,46.417322834645574) translate(33.83216049382715 62.77777777777778)"/><path d="M561 256.9h28" stroke="#5e5e5e" stroke-width="2" fill="none"/><path d="M561.03 257.9h-1.06l.03-1v-.38l-.03-.62h1.06zM590 257.9h-1.03v-2H590z" fill="#5e5e5e"/><path d="M535.77 150.6l58.14 46.03" stroke="#5e5e5e" stroke-width="2" fill="none"/><path d="M536.4 149.82l-1.23 1.57-1.05-.84 1.73-1.2zM595.9 196.93l-2.4.65-.23-.18 1.24-1.57z" fill="#5e5e5e"/><path d="M674.86 167.3l-1.55 28.6" stroke="#5e5e5e" stroke-width="2" fill="none"/><path d="M675.9 166.35l-.04 1.04-2-.1.06-1.02zM674.3 195.93l-.04.97h-2l.05-1.08z" fill="#5e5e5e"/><path d="M746.1 196.63l58.12-46.04" stroke="#5e5e5e" stroke-width="2" fill="none"/><path d="M746.73 197.4l-.22.18-2.4-.65 1.4-1.1zM804.54 149.66l1.34.9-1.06.83-1.24-1.57.58-.46z" fill="#5e5e5e"/><path d="M590 202.9c0-3.32 2.7-6 6-6h148c3.3 0 6 2.68 6 6v108c0 3.3-2.7 6-6 6H596c-3.3 0-6-2.7-6-6z" stroke="#000" stroke-opacity="0" stroke-width="3" fill="#3aa6dd"/><use xlink:href="#G" transform="matrix(1,0,0,1,590,196.8984838876272) translate(51.60993827160494 62.77777777777778)"/><path d="M560 256.9c0 33.14-35.82 60-80 60s-80-26.86-80-60 35.82-60 80-60 80 26.86 80 60z" stroke="#000" stroke-opacity="0" stroke-width="3" fill="#99d5ca"/><use xlink:href="#H" transform="matrix(1,0,0,1,400,196.8984838876272) translate(18.400061728395055 51.52777777777778)"/><use xlink:href="#I" transform="matrix(1,0,0,1,400,196.8984838876272) translate(116.91858024691358 51.52777777777778)"/><use xlink:href="#J" transform="matrix(1,0,0,1,400,196.8984838876272) translate(44.23339506172839 78.19444444444446)"/><path d="M560 106.42c0 33.13-35.82 60-80 60s-80-26.87-80-60c0-33.14 35.82-60 80-60s80 26.86 80 60z" stroke="#000" stroke-opacity="0" stroke-width="3" fill="#99d5ca"/><use xlink:href="#K" transform="matrix(1,0,0,1,400,46.417322834645574) translate(33.83216049382716 51.52777777777778)"/><use xlink:href="#L" transform="matrix(1,0,0,1,400,46.417322834645574) translate(51.05438271604939 78.19444444444446)"/><path d="M758.17 106.42c0 33.13-35.82 60-80 60-44.2 0-80-26.87-80-60 0-33.14 35.8-60 80-60 44.18 0 80 26.86 80 60z" stroke="#000" stroke-opacity="0" stroke-width="3" fill="#99d5ca"/><use xlink:href="#i" transform="matrix(1,0,0,1,598.1653832270604,46.417322834645574) translate(49.171666666666674 28.787777777777777)"/><use xlink:href="#j" transform="matrix(1,0,0,1,598.1653832270604,46.417322834645574) translate(33.739567901234565 55.45444444444445)"/><use xlink:href="#k" transform="matrix(1,0,0,1,598.1653832270604,46.417322834645574) translate(51.023518518518514 55.45444444444445)"/><use xlink:href="#l" transform="matrix(1,0,0,1,598.1653832270604,46.417322834645574) translate(101.57907407407407 55.45444444444445)"/><use xlink:href="#M" transform="matrix(1,0,0,1,598.1653832270604,46.417322834645574) translate(31.856851851851847 82.1211111111111)"/><path d="M940 106.42c0 33.13-35.82 60-80 60s-80-26.87-80-60c0-33.14 35.82-60 80-60s80 26.86 80 60z" stroke="#000" stroke-opacity="0" stroke-width="3" fill="#99d5ca"/><use xlink:href="#i" transform="matrix(1,0,0,1,780,46.417322834645574) translate(49.171666666666674 28.787777777777777)"/><use xlink:href="#j" transform="matrix(1,0,0,1,780,46.417322834645574) translate(33.739567901234565 55.45444444444445)"/><use xlink:href="#k" transform="matrix(1,0,0,1,780,46.417322834645574) translate(51.023518518518514 55.45444444444445)"/><use xlink:href="#l" transform="matrix(1,0,0,1,780,46.417322834645574) translate(101.57907407407407 55.45444444444445)"/><use xlink:href="#N" transform="matrix(1,0,0,1,780,46.417322834645574) translate(31.918580246913574 82.1211111111111)"/><path d="M940 256.9c0 33.14-35.82 60-80 60s-80-26.86-80-60 35.82-60 80-60 80 26.86 80 60z" stroke="#000" stroke-opacity="0" stroke-width="3" fill="#99d5ca"/><use xlink:href="#O" transform="matrix(1,0,0,1,780,196.8984838876272) translate(28.832160493827157 51.52777777777778)"/><use xlink:href="#P" transform="matrix(1,0,0,1,780,196.8984838876272) translate(27.01117283950617 78.19444444444446)"/><use xlink:href="#Q" transform="matrix(1,0,0,1,780,196.8984838876272) translate(57.87537037037036 78.19444444444446)"/><path d="M751 256.9h28" stroke="#5e5e5e" stroke-width="2" fill="none"/><path d="M751.03 257.9H750v-2h1.03zM780 256.9v.38l.03.62h-1.06v-2h1.06z" fill="#5e5e5e"/><path d="M678.03 410.37c2.5-2.18 6.54-2.18 9.03 0l70.97 62.1c2.5 2.18 2.5 5.72 0 7.9l-70.97 62.1c-2.5 2.18-6.54 2.18-9.03 0l-70.97-62.1c-2.5-2.18-2.5-5.72 0-7.9z" stroke="#000" stroke-opacity="0" stroke-width="3" fill="#ff8f80"/><use xlink:href="#R" transform="matrix(1,0,0,1,602.5445503522585,406.4173228346456) translate(42.99882716049383 74.65277777777777)"/><path d="M1335.48 780.37c2.5-2.18 6.54-2.18 9.04 0l70.96 62.1c2.5 2.18 2.5 5.72 0 7.9l-70.96 62.1c-2.5 2.18-6.54 2.18-9.04 0l-70.96-62.1c-2.5-2.18-2.5-5.72 0-7.9z" stroke="#000" stroke-opacity="0" stroke-width="3" fill="#ff8f80"/><use xlink:href="#S" transform="matrix(1,0,0,1,1259.9999999999995,776.4173228346456) translate(39.9124074074074 74.65277777777777)"/><path d="M280 642.42c0-3.32 2.7-6 6-6h148c3.3 0 6 2.68 6 6v108c0 3.3-2.7 6-6 6H286c-3.3 0-6-2.7-6-6z" stroke="#000" stroke-opacity="0" stroke-width="3" fill="#3aa6dd"/><use xlink:href="#T" transform="matrix(1,0,0,1,280,636.4173228346456) translate(45.529691358024685 62.77777777777778)"/><path d="M305.1 576.42c0 33.13-35.83 60-80 60-44.2 0-80-26.87-80-60 0-33.14 35.8-60 80-60 44.17 0 80 26.86 80 60z" stroke="#000" stroke-opacity="0" stroke-width="3" fill="#99d5ca"/><use xlink:href="#U" transform="matrix(1,0,0,1,145.08910070451725,516.4173228346456) translate(41.82598765432098 62.77777777777778)"/><path d="M240 716.42c0 33.13-35.82 60-80 60s-80-26.87-80-60c0-33.14 35.82-60 80-60s80 26.86 80 60z" stroke="#000" stroke-opacity="0" stroke-width="3" fill="#99d5ca"/><use xlink:href="#F" transform="matrix(1,0,0,1,80,656.4173228346456) translate(33.83216049382715 62.77777777777778)"/><path d="M1200 796.9c0 33.14-35.82 60-80 60s-80-26.86-80-60 35.82-60 80-60 80 26.86 80 60z" stroke="#000" stroke-opacity="0" stroke-width="3" fill="#99d5ca"/><use xlink:href="#V" transform="matrix(1,0,0,1,1040,736.8984838876272) translate(58.86302469135803 36.52777777777778)"/><use xlink:href="#W" transform="matrix(1,0,0,1,1040,736.8984838876272) translate(11.60993827160494 63.19444444444445)"/><use xlink:href="#h" transform="matrix(1,0,0,1,1040,736.8984838876272) translate(116.36302469135802 63.19444444444445)"/><use xlink:href="#X" transform="matrix(1,0,0,1,1040,736.8984838876272) translate(36.91858024691358 89.86111111111111)"/><path d="M1220 616.42c0 33.13-35.82 60-80 60s-80-26.87-80-60c0-33.14 35.82-60 80-60s80 26.86 80 60z" stroke="#000" stroke-opacity="0" stroke-width="3" fill="#99d5ca"/><use xlink:href="#Y" transform="matrix(1,0,0,1,1060,556.4173228346456) translate(47.35067901234567 62.77777777777778)"/><path d="M995.48 640.37c2.5-2.18 6.54-2.18 9.04 0l70.96 62.1c2.5 2.18 2.5 5.72 0 7.9l-70.96 62.1c-2.5 2.18-6.54 2.18-9.04 0l-70.96-62.1c-2.5-2.18-2.5-5.72 0-7.9z" stroke="#000" stroke-opacity="0" stroke-width="3" fill="#ff8f80"/><use xlink:href="#Z" transform="matrix(1,0,0,1,920.0000000000001,636.4173228346456) translate(33.770432098765426 74.65277777777777)"/><path d="M420 1216.42c0 33.13-35.82 60-80 60s-80-26.87-80-60c0-33.14 35.82-60 80-60s80 26.86 80 60z" stroke="#000" stroke-opacity="0" stroke-width="3" fill="#99d5ca"/><path d="M414 1216.42c0 29.82-33.13 54-74 54s-74-24.18-74-54c0-29.83 33.13-54 74-54s74 24.17 74 54z" stroke="#000" stroke-opacity="0" stroke-width="3" fill="#99d5ca"/><path d="M414 1216.42c0 29.82-33.13 54-74 54s-74-24.18-74-54c0-29.83 33.13-54 74-54s74 24.17 74 54z" fill="none"/><use xlink:href="#aa" transform="matrix(1,0,0,1,260,1156.4173228346456) translate(54.07907407407407 62.77777777777778)"/><path d="M602.54 1236.42c0 33.13-35.8 60-80 60-44.18 0-80-26.87-80-60 0-33.14 35.82-60 80-60 44.2 0 80 26.86 80 60z" stroke="#000" stroke-opacity="0" stroke-width="3" fill="#99d5ca"/><use xlink:href="#ab" transform="matrix(1,0,0,1,442.5445503522585,1176.4173228346456) translate(15.251913580246915 55.27777777777778)"/><use xlink:href="#j" transform="matrix(1,0,0,1,442.5445503522585,1176.4173228346456) translate(83.09141975308641 55.27777777777778)"/><use xlink:href="#u" transform="matrix(1,0,0,1,442.5445503522585,1176.4173228346456) translate(100.37537037037036 55.27777777777778)"/><use xlink:href="#P" transform="matrix(1,0,0,1,442.5445503522585,1176.4173228346456) translate(31.270432098765436 81.94444444444446)"/><use xlink:href="#ac" transform="matrix(1,0,0,1,442.5445503522585,1176.4173228346456) translate(62.13462962962963 81.94444444444446)"/><path d="M380 976.42c0 33.13-35.82 60-80 60s-80-26.87-80-60c0-33.14 35.82-60 80-60s80 26.86 80 60z" stroke="#000" stroke-opacity="0" stroke-width="3" fill="#99d5ca"/><use xlink:href="#ad" transform="matrix(1,0,0,1,220,916.4173228346456) translate(35.62228395061727 62.77777777777778)"/><path d="M280 1126.42c0 33.13-35.82 60-80 60s-80-26.87-80-60c0-33.14 35.82-60 80-60s80 26.86 80 60z" stroke="#000" stroke-opacity="0" stroke-width="3" fill="#99d5ca"/><use xlink:href="#ae" transform="matrix(1,0,0,1,120,1066.4173228346456) translate(34.63462962962962 62.77777777777778)"/><path d="M475.48 1020.37c2.5-2.18 6.54-2.18 9.04 0l70.96 62.1c2.5 2.18 2.5 5.72 0 7.9l-70.96 62.1c-2.5 2.18-6.54 2.18-9.04 0l-70.96-62.1c-2.5-2.18-2.5-5.72 0-7.9z" stroke="#000" stroke-opacity="0" stroke-width="3" fill="#ff8f80"/><use xlink:href="#af" transform="matrix(1,0,0,1,400,1016.4173228346456) translate(42.99882716049383 74.65277777777777)"/><path d="M1215.48 1020.37c2.5-2.18 6.54-2.18 9.04 0l70.96 62.1c2.5 2.18 2.5 5.72 0 7.9l-70.96 62.1c-2.5 2.18-6.54 2.18-9.04 0l-70.96-62.1c-2.5-2.18-2.5-5.72 0-7.9z" stroke="#000" stroke-opacity="0" stroke-width="3" fill="#ff8f80"/><use xlink:href="#ag" transform="matrix(1,0,0,1,1140,1016.4173228346456) translate(52.690185185185186 74.65277777777777)"/><path d="M800 1032.42c0-3.32 2.7-6 6-6h148c3.3 0 6 2.68 6 6v108c0 3.3-2.7 6-6 6H806c-3.3 0-6-2.7-6-6z" stroke="#000" stroke-opacity="0" stroke-width="3" fill="#3aa6dd"/><use xlink:href="#ah" transform="matrix(1,0,0,1,800,1026.4173228346456) translate(7.875370370370357 51.52777777777778)"/><use xlink:href="#A" transform="matrix(1,0,0,1,800,1026.4173228346456) translate(127.44327160493827 51.52777777777778)"/><use xlink:href="#ai" transform="matrix(1,0,0,1,800,1026.4173228346456) translate(16.517345679012344 78.19444444444446)"/><use xlink:href="#aj" transform="matrix(1,0,0,1,800,1026.4173228346456) translate(90.46796296296296 78.19444444444446)"/><path d="M1160 1236.42c0 33.13-35.82 60-80 60s-80-26.87-80-60c0-33.14 35.82-60 80-60s80 26.86 80 60z" stroke="#000" stroke-opacity="0" stroke-width="3" fill="#99d5ca"/><use xlink:href="#ak" transform="matrix(1,0,0,1,999.9999999999995,1176.4173228346456) translate(51.023518518518514 62.77777777777778)"/><path d="M980 1236.42c0 33.13-35.82 60-80 60s-80-26.87-80-60c0-33.14 35.82-60 80-60s80 26.86 80 60z" stroke="#000" stroke-opacity="0" stroke-width="3" fill="#99d5ca"/><path d="M974 1236.42c0 29.82-33.13 54-74 54s-74-24.18-74-54c0-29.83 33.13-54 74-54s74 24.17 74 54z" stroke="#000" stroke-opacity="0" stroke-width="3" fill="#99d5ca"/><path d="M974 1236.42c0 29.82-33.13 54-74 54s-74-24.18-74-54c0-29.83 33.13-54 74-54s74 24.17 74 54z" fill="none"/><g><use xlink:href="#al" transform="matrix(1,0,0,1,819.9999999999995,1176.4173228346456) translate(33.986481481481476 62.77777777777778)"/></g><path d="M779 106.42h-78M701.03 106.42H700" stroke="#000" stroke-opacity="0" stroke-width="2" fill="none"/><path d="M20 12.42c0-3.32 2.7-6 6-6h328c3.3 0 6 2.68 6 6v328c0 3.3-2.7 6-6 6H26c-3.3 0-6-2.7-6-6z" stroke="#000" stroke-opacity="0" stroke-width="3" fill="#ffdba9"/><g><use xlink:href="#am" transform="matrix(1,0,0,1,25,11.417322834645574) translate(0 102.40972222222221)"/><use xlink:href="#an" transform="matrix(1,0,0,1,25,11.417322834645574) translate(79.05555555555557 149.52083333333331)"/><use xlink:href="#ao" transform="matrix(1,0,0,1,25,11.417322834645574) translate(8.000000000000057 197.52083333333331)"/><use xlink:href="#ap" transform="matrix(1,0,0,1,25,11.417322834645574) translate(167.7777777777778 197.52083333333331)"/><use xlink:href="#aq" transform="matrix(1,0,0,1,25,11.417322834645574) translate(165.5 241.96527777777774)"/></g><path d="M800 1244.63c0 43.2-40.3 78.2-90 78.2s-90-35-90-78.2 40.3-78.2 90-78.2 90 35 90 78.2z" stroke="#000" stroke-opacity="0" stroke-width="3" fill="#99d5ca"/><g><use xlink:href="#ar" transform="matrix(1,0,0,1,619.9999999999995,1166.4173228346456) translate(53.43092592592593 57.02777777777778)"/><use xlink:href="#l" transform="matrix(1,0,0,1,619.9999999999995,1166.4173228346456) translate(101.88771604938272 57.02777777777778)"/><use xlink:href="#as" transform="matrix(1,0,0,1,619.9999999999995,1166.4173228346456) translate(10.529691358024687 83.69444444444446)"/><use xlink:href="#at" transform="matrix(1,0,0,1,619.9999999999995,1166.4173228346456) translate(98.12228395061727 83.69444444444446)"/><use xlink:href="#au" transform="matrix(1,0,0,1,619.9999999999995,1166.4173228346456) translate(27.87537037037036 110.36111111111111)"/><use xlink:href="#av" transform="matrix(1,0,0,1,619.9999999999995,1166.4173228346456) translate(46.39388888888888 110.36111111111111)"/></g><path d="M525.6 1117.8l113.03 77.73" stroke="#5e5e5e" stroke-width="2" fill="none"/><path d="M526.2 1116.98l-1.13 1.65-1.06-.72 1.57-1.35zM640.14 1195.36l-1.38 1.48-.72-.5 1.13-1.65z" fill="#5e5e5e"/><path d="M1200 261.8c0 43.18-40.3 78.2-90 78.2s-90-35.02-90-78.2c0-43.2 40.3-78.22 90-78.22s90 35.02 90 78.2z" stroke="#000" stroke-opacity="0" stroke-width="3" fill="#99d5ca"/><g><use xlink:href="#ar" transform="matrix(1,0,0,1,1019.9999999999998,183.58267716535443) translate(53.43092592592593 57.02777777777778)"/><use xlink:href="#l" transform="matrix(1,0,0,1,1019.9999999999998,183.58267716535443) translate(101.88771604938272 57.02777777777778)"/><use xlink:href="#as" transform="matrix(1,0,0,1,1019.9999999999998,183.58267716535443) translate(10.529691358024687 83.69444444444446)"/><use xlink:href="#at" transform="matrix(1,0,0,1,1019.9999999999998,183.58267716535443) translate(98.12228395061727 83.69444444444446)"/><use xlink:href="#au" transform="matrix(1,0,0,1,1019.9999999999998,183.58267716535443) translate(27.87537037037036 110.36111111111111)"/><use xlink:href="#av" transform="matrix(1,0,0,1,1019.9999999999998,183.58267716535443) translate(46.39388888888888 110.36111111111111)"/></g><path d="M1200.62 268.97l58.38 4.62" stroke="#5e5e5e" stroke-width="2" fill="none"/><path d="M1200.72 267.97l-.15 2-1.06-.1.08-.44.12-1.54zM1260 272.66v2l-1.1-.08.16-2z" fill="#5e5e5e"/><path d="M1340 1226.42c0 33.13-35.82 60-80 60s-80-26.87-80-60c0-33.14 35.82-60 80-60s80 26.86 80 60z" stroke="#000" stroke-opacity="0" stroke-width="3" fill="#99d5ca"/><g><use xlink:href="#aw" transform="matrix(1,0,0,1,1179.9999999999995,1166.4173228346456) translate(43.461790123456794 51.52777777777778)"/><use xlink:href="#ax" transform="matrix(1,0,0,1,1179.9999999999995,1166.4173228346456) translate(32.535864197530856 78.19444444444446)"/></g><path d="M960.94 1116.24l226.32 83.38" stroke="#5e5e5e" stroke-width="2" fill="none"/><path d="M961.3 1115.3l-.68 1.88-.62-.22v-2.13zM1188.78 1199.1l-1.14 1.7v.02l-.75-.27.68-1.88z" fill="#5e5e5e"/><path d="M1355.48 943.95c2.5-2.18 6.54-2.18 9.04 0l70.96 62.1c2.5 2.18 2.5 5.72 0 7.9l-70.96 62.1c-2.5 2.18-6.54 2.18-9.04 0l-70.96-62.1c-2.5-2.18-2.5-5.72 0-7.9z" stroke="#000" stroke-opacity="0" stroke-width="3" fill="#ff8f80"/><g><use xlink:href="#ay" transform="matrix(1,0,0,1,1280,940) translate(35.59141975308641 74.65277777777777)"/></g><path d="M1530 466c0-3.3 2.7-6 6-6h148c3.3 0 6 2.7 6 6v108c0 3.3-2.7 6-6 6h-148c-3.3 0-6-2.7-6-6z" stroke="#000" stroke-opacity="0" stroke-width="3" fill="#3aa6dd"/><g><use xlink:href="#az" transform="matrix(1,0,0,1,1530,460) translate(44.85067901234568 62.77777777777778)"/></g><path d="M1300.15 991.23l-842.2-264.1" stroke="#5e5e5e" stroke-width="2" fill="none"/><path d="M1302 990.76l-1.78 1.54-.4-.12.6-1.9z" fill="#5e5e5e"/><path d="M443.42 712.1l16.1 15.52-22.1 3.56M440.43 721.64l19.08 5.98" stroke="#5e5e5e" stroke-width="2" fill="#fff"/><path d="M1394.8 969.13l151.9-178.38" stroke="#5e5e5e" stroke-width="2" fill="none"/><path d="M1395.58 969.76l-.67.8-1.5-1.33.66-.77z" fill="#5e5e5e"/><path d="M1566.23 783.24l-20.58 8.74 5.35-21.7M1558.62 776.76l-12.97 15.22" stroke="#5e5e5e" stroke-width="2" fill="#fff"/><path d="M1510.02 515.3l-750.7-35.27" stroke="#5e5e5e" stroke-width="2" fill="none"/><path d="M1520.48 505.78l-.94 19.98M1530 516.24l-19.98-.94M1510.5 505.3l-.95 20" stroke="#5e5e5e" stroke-width="2" fill="#fff"/><path d="M759.4 479.03l-.1 2-1.92-.1.65-.56 1.04-1.36z" fill="#5e5e5e"/><defs><path fill="#333" d="M33 0v-248h34V0H33" id="aA"/><path fill="#333" d="M117-194c89-4 53 116 60 194h-32v-121c0-31-8-49-39-48C34-167 62-67 57 0H25l-1-190h30c1 10-1 24 2 32 11-22 29-35 61-36" id="aB"/><path fill="#333" d="M108 0H70L1-190h34L89-25l56-165h34" id="aC"/><path fill="#333" d="M100-194c63 0 86 42 84 106H49c0 40 14 67 53 68 26 1 43-12 49-29l28 8c-11 28-37 45-77 45C44 4 14-33 15-96c1-61 26-98 85-98zm52 81c6-60-76-77-97-28-3 7-6 17-6 28h103" id="aD"/><path fill="#333" d="M59-47c-2 24 18 29 38 22v24C64 9 27 4 27-40v-127H5v-23h24l9-43h21v43h35v23H59v120" id="aE"/><path fill="#333" d="M141-36C126-15 110 5 73 4 37 3 15-17 15-53c-1-64 63-63 125-63 3-35-9-54-41-54-24 1-41 7-42 31l-33-3c5-37 33-52 76-52 45 0 72 20 72 64v82c-1 20 7 32 28 27v20c-31 9-61-2-59-35zM48-53c0 20 12 33 32 33 41-3 63-29 60-74-43 2-92-5-92 41" id="aF"/><path fill="#333" d="M114-163C36-179 61-72 57 0H25l-1-190h30c1 12-1 29 2 39 6-27 23-49 58-41v29" id="aG"/><path fill="#333" d="M24-231v-30h32v30H24zM24 0v-190h32V0H24" id="aH"/><path fill="#333" d="M100-194c62-1 85 37 85 99 1 63-27 99-86 99S16-35 15-95c0-66 28-99 85-99zM99-20c44 1 53-31 53-75 0-43-8-75-51-75s-53 32-53 75 10 74 51 75" id="aI"/><g id="a"><use transform="matrix(0.08641975308641973,0,0,0.08641975308641973,0,0)" xlink:href="#aA"/><use transform="matrix(0.08641975308641973,0,0,0.08641975308641973,8.641975308641973,0)" xlink:href="#aB"/><use transform="matrix(0.08641975308641973,0,0,0.08641975308641973,25.925925925925917,0)" xlink:href="#aC"/><use transform="matrix(0.08641975308641973,0,0,0.08641975308641973,41.48148148148147,0)" xlink:href="#aD"/><use transform="matrix(0.08641975308641973,0,0,0.08641975308641973,58.765432098765416,0)" xlink:href="#aB"/><use transform="matrix(0.08641975308641973,0,0,0.08641975308641973,76.04938271604937,0)" xlink:href="#aE"/><use transform="matrix(0.08641975308641973,0,0,0.08641975308641973,84.69135802469134,0)" xlink:href="#aF"/><use transform="matrix(0.08641975308641973,0,0,0.08641975308641973,101.97530864197529,0)" xlink:href="#aG"/><use transform="matrix(0.08641975308641973,0,0,0.08641975308641973,112.25925925925924,0)" xlink:href="#aH"/><use transform="matrix(0.08641975308641973,0,0,0.08641975308641973,119.08641975308639,0)" xlink:href="#aI"/></g><path fill="#333" d="M30 0v-248h33v221h125V0H30" id="aJ"/><path fill="#333" d="M177-190C167-65 218 103 67 71c-23-6-38-20-44-43l32-5c15 47 100 32 89-28v-30C133-14 115 1 83 1 29 1 15-40 15-95c0-56 16-97 71-98 29-1 48 16 59 35 1-10 0-23 2-32h30zM94-22c36 0 50-32 50-73 0-42-14-75-50-75-39 0-46 34-46 75s6 73 46 73" id="aK"/><path fill="#333" d="M34 0v-190h32V0H34zM24-211c8-23 27-35 38-54h36v5l-58 49H24" id="aL"/><path fill="#333" d="M135-143c-3-34-86-38-87 0 15 53 115 12 119 90S17 21 10-45l28-5c4 36 97 45 98 0-10-56-113-15-118-90-4-57 82-63 122-42 12 7 21 19 24 35" id="aM"/><path fill="#333" d="M96-169c-40 0-48 33-48 73s9 75 48 75c24 0 41-14 43-38l32 2c-6 37-31 61-74 61-59 0-76-41-82-99-10-93 101-131 147-64 4 7 5 14 7 22l-32 3c-4-21-16-35-41-35" id="aN"/><g id="b"><use transform="matrix(0.08641975308641973,0,0,0.08641975308641973,0,0)" xlink:href="#aJ"/><use transform="matrix(0.08641975308641973,0,0,0.08641975308641973,17.283950617283946,0)" xlink:href="#aI"/><use transform="matrix(0.08641975308641973,0,0,0.08641975308641973,34.56790123456789,0)" xlink:href="#aK"/><use transform="matrix(0.08641975308641973,0,0,0.08641975308641973,51.85185185185183,0)" xlink:href="#aL"/><use transform="matrix(0.08641975308641973,0,0,0.08641975308641973,60.4938271604938,0)" xlink:href="#aM"/><use transform="matrix(0.08641975308641973,0,0,0.08641975308641973,76.04938271604937,0)" xlink:href="#aE"/><use transform="matrix(0.08641975308641973,0,0,0.08641975308641973,84.69135802469134,0)" xlink:href="#aH"/><use transform="matrix(0.08641975308641973,0,0,0.08641975308641973,91.5185185185185,0)" xlink:href="#aN"/><use transform="matrix(0.08641975308641973,0,0,0.08641975308641973,107.07407407407408,0)" xlink:href="#aF"/></g><path fill="#333" d="M240 0l2-218c-23 76-54 145-80 218h-23L58-218 59 0H30v-248h44l77 211c21-75 51-140 76-211h43V0h-30" id="aO"/><path fill="#333" d="M143 0L79-87 56-68V0H24v-261h32v163l83-92h37l-77 82L181 0h-38" id="aP"/><path fill="#333" d="M115-194c55 1 70 41 70 98S169 2 115 4C84 4 66-9 55-30l1 105H24l-1-265h31l2 30c10-21 28-34 59-34zm-8 174c40 0 45-34 45-75s-6-73-45-74c-42 0-51 32-51 76 0 43 10 73 51 73" id="aQ"/><path fill="#333" d="M24 0v-261h32V0H24" id="aR"/><g id="c"><use transform="matrix(0.08641975308641973,0,0,0.08641975308641973,0,0)" xlink:href="#aO"/><use transform="matrix(0.08641975308641973,0,0,0.08641975308641973,25.8395061728395,0)" xlink:href="#aF"/><use transform="matrix(0.08641975308641973,0,0,0.08641975308641973,43.12345679012344,0)" xlink:href="#aG"/><use transform="matrix(0.08641975308641973,0,0,0.08641975308641973,53.40740740740738,0)" xlink:href="#aP"/><use transform="matrix(0.08641975308641973,0,0,0.08641975308641973,68.96296296296295,0)" xlink:href="#aD"/><use transform="matrix(0.08641975308641973,0,0,0.08641975308641973,86.2469135802469,0)" xlink:href="#aE"/><use transform="matrix(0.08641975308641973,0,0,0.08641975308641973,94.88888888888887,0)" xlink:href="#aQ"/><use transform="matrix(0.08641975308641973,0,0,0.08641975308641973,112.17283950617282,0)" xlink:href="#aR"/><use transform="matrix(0.08641975308641973,0,0,0.08641975308641973,119,0)" xlink:href="#aF"/><use transform="matrix(0.08641975308641973,0,0,0.08641975308641973,136.28395061728392,0)" xlink:href="#aN"/><use transform="matrix(0.08641975308641973,0,0,0.08641975308641973,151.83950617283946,0)" xlink:href="#aD"/></g><path fill="#333" d="M205 0l-28-72H64L36 0H1l101-248h38L239 0h-34zm-38-99l-47-123c-12 45-31 82-46 123h93" id="aS"/><path fill="#333" d="M100-194c62-1 85 37 85 99 1 63-27 99-86 99S16-35 15-95c0-66 28-99 85-99zM99-20c44 1 53-31 53-75 0-43-8-75-51-75s-53 32-53 75 10 74 51 75zM76-211c8-23 27-35 38-54h36v5l-58 49H76" id="aT"/><g id="d"><use transform="matrix(0.08641975308641973,0,0,0.08641975308641973,0,0)" xlink:href="#aS"/><use transform="matrix(0.08641975308641973,0,0,0.08641975308641973,20.740740740740737,0)" xlink:href="#aE"/><use transform="matrix(0.08641975308641973,0,0,0.08641975308641973,29.382716049382708,0)" xlink:href="#aD"/><use transform="matrix(0.08641975308641973,0,0,0.08641975308641973,46.66666666666666,0)" xlink:href="#aB"/><use transform="matrix(0.08641975308641973,0,0,0.08641975308641973,63.950617283950606,0)" xlink:href="#aN"/><use transform="matrix(0.08641975308641973,0,0,0.08641975308641973,79.50617283950616,0)" xlink:href="#aH"/><use transform="matrix(0.08641975308641973,0,0,0.08641975308641973,86.33333333333333,0)" xlink:href="#aT"/><use transform="matrix(0.08641975308641973,0,0,0.08641975308641973,103.61728395061728,0)" xlink:href="#aB"/></g><use transform="matrix(0.08641975308641973,0,0,0.08641975308641973,0,0)" xlink:href="#aF" id="e"/><g id="f"><use transform="matrix(0.08641975308641973,0,0,0.08641975308641973,0,0)" xlink:href="#aN"/><use transform="matrix(0.08641975308641973,0,0,0.08641975308641973,15.555555555555552,0)" xlink:href="#aR"/><use transform="matrix(0.08641975308641973,0,0,0.08641975308641973,22.38271604938271,0)" xlink:href="#aH"/><use transform="matrix(0.08641975308641973,0,0,0.08641975308641973,29.20987654320987,0)" xlink:href="#aD"/><use transform="matrix(0.08641975308641973,0,0,0.08641975308641973,46.493827160493815,0)" xlink:href="#aB"/><use transform="matrix(0.08641975308641973,0,0,0.08641975308641973,63.77777777777776,0)" xlink:href="#aE"/><use transform="matrix(0.08641975308641973,0,0,0.08641975308641973,72.41975308641973,0)" xlink:href="#aD"/></g><path fill="#333" d="M233-177c-1 41-23 64-60 70L243 0h-38l-65-103H63V0H30v-248c88 3 205-21 203 71zM63-129c60-2 137 13 137-47 0-61-80-42-137-45v92" id="aU"/><path fill="#333" d="M85-194c31 0 48 13 60 33l-1-100h32l1 261h-30c-2-10 0-23-3-31C134-8 116 4 85 4 32 4 16-35 15-94c0-66 23-100 70-100zm9 24c-40 0-46 34-46 75 0 40 6 74 45 74 42 0 51-32 51-76 0-42-9-74-50-73" id="aV"/><g id="g"><use transform="matrix(0.06172839506172839,0,0,0.06172839506172839,0,0)" xlink:href="#aU"/><use transform="matrix(0.06172839506172839,0,0,0.06172839506172839,15.987654320987653,0)" xlink:href="#aD"/><use transform="matrix(0.06172839506172839,0,0,0.06172839506172839,28.333333333333332,0)" xlink:href="#aM"/><use transform="matrix(0.06172839506172839,0,0,0.06172839506172839,39.44444444444444,0)" xlink:href="#aQ"/><use transform="matrix(0.06172839506172839,0,0,0.06172839506172839,51.79012345679012,0)" xlink:href="#aI"/><use transform="matrix(0.06172839506172839,0,0,0.06172839506172839,64.1358024691358,0)" xlink:href="#aB"/><use transform="matrix(0.06172839506172839,0,0,0.06172839506172839,76.48148148148148,0)" xlink:href="#aV"/><use transform="matrix(0.06172839506172839,0,0,0.06172839506172839,88.82716049382717,0)" xlink:href="#aH"/><use transform="matrix(0.06172839506172839,0,0,0.06172839506172839,93.70370370370371,0)" xlink:href="#aV"/><use transform="matrix(0.06172839506172839,0,0,0.06172839506172839,106.0493827160494,0)" xlink:href="#aF"/></g><g id="h"><use transform="matrix(0.06172839506172839,0,0,0.06172839506172839,0,0)" xlink:href="#aQ"/><use transform="matrix(0.06172839506172839,0,0,0.06172839506172839,12.345679012345679,0)" xlink:href="#aI"/><use transform="matrix(0.06172839506172839,0,0,0.06172839506172839,24.691358024691358,0)" xlink:href="#aG"/></g><path fill="#333" d="M63-220v92h138v28H63V0H30v-248h175v28H63" id="aW"/><path fill="#333" d="M106-169C34-169 62-67 57 0H25v-261h32l-1 103c12-21 28-36 61-36 89 0 53 116 60 194h-32v-121c2-32-8-49-39-48" id="aX"/><g id="i"><use transform="matrix(0.06172839506172839,0,0,0.06172839506172839,0,0)" xlink:href="#aW"/><use transform="matrix(0.06172839506172839,0,0,0.06172839506172839,13.518518518518517,0)" xlink:href="#aD"/><use transform="matrix(0.06172839506172839,0,0,0.06172839506172839,25.864197530864196,0)" xlink:href="#aN"/><use transform="matrix(0.06172839506172839,0,0,0.06172839506172839,36.9753086419753,0)" xlink:href="#aX"/><use transform="matrix(0.06172839506172839,0,0,0.06172839506172839,49.32098765432098,0)" xlink:href="#aF"/></g><path fill="#333" d="M179-190L93 31C79 59 56 82 12 73V49c39 6 53-20 64-50L1-190h34L92-34l54-156h33" id="aY"/><use transform="matrix(0.06172839506172839,0,0,0.06172839506172839,0,0)" xlink:href="#aY" id="j"/><g id="k"><use transform="matrix(0.06172839506172839,0,0,0.06172839506172839,0,0)" xlink:href="#aX"/><use transform="matrix(0.06172839506172839,0,0,0.06172839506172839,12.345679012345679,0)" xlink:href="#aI"/><use transform="matrix(0.06172839506172839,0,0,0.06172839506172839,24.691358024691358,0)" xlink:href="#aG"/><use transform="matrix(0.06172839506172839,0,0,0.06172839506172839,32.03703703703704,0)" xlink:href="#aF"/></g><g id="l"><use transform="matrix(0.06172839506172839,0,0,0.06172839506172839,0,0)" xlink:href="#aV"/><use transform="matrix(0.06172839506172839,0,0,0.06172839506172839,12.345679012345679,0)" xlink:href="#aD"/></g><path fill="#333" d="M84 4C-5 8 30-112 23-190h32v120c0 31 7 50 39 49 72-2 45-101 50-169h31l1 190h-30c-1-10 1-25-2-33-11 22-28 36-60 37" id="aZ"/><g id="m"><use transform="matrix(0.06172839506172839,0,0,0.06172839506172839,0,0)" xlink:href="#aG"/><use transform="matrix(0.06172839506172839,0,0,0.06172839506172839,7.345679012345679,0)" xlink:href="#aD"/><use transform="matrix(0.06172839506172839,0,0,0.06172839506172839,19.691358024691358,0)" xlink:href="#aM"/><use transform="matrix(0.06172839506172839,0,0,0.06172839506172839,30.80246913580247,0)" xlink:href="#aQ"/><use transform="matrix(0.06172839506172839,0,0,0.06172839506172839,43.148148148148145,0)" xlink:href="#aZ"/><use transform="matrix(0.06172839506172839,0,0,0.06172839506172839,55.49382716049382,0)" xlink:href="#aD"/><use transform="matrix(0.06172839506172839,0,0,0.06172839506172839,67.8395061728395,0)" xlink:href="#aM"/><use transform="matrix(0.06172839506172839,0,0,0.06172839506172839,78.95061728395062,0)" xlink:href="#aE"/><use transform="matrix(0.06172839506172839,0,0,0.06172839506172839,85.12345679012346,0)" xlink:href="#aF"/></g><path fill="#333" d="M127-220V0H93v-220H8v-28h204v28h-85" id="ba"/><path fill="#333" d="M210-169c-67 3-38 105-44 169h-31v-121c0-29-5-50-35-48C34-165 62-65 56 0H25l-1-190h30c1 10-1 24 2 32 10-44 99-50 107 0 11-21 27-35 58-36 85-2 47 119 55 194h-31v-121c0-29-5-49-35-48" id="bb"/><g id="n"><use transform="matrix(0.06172839506172839,0,0,0.06172839506172839,0,0)" xlink:href="#ba"/><use transform="matrix(0.06172839506172839,0,0,0.06172839506172839,12.716049382716047,0)" xlink:href="#aH"/><use transform="matrix(0.06172839506172839,0,0,0.06172839506172839,17.592592592592588,0)" xlink:href="#aD"/><use transform="matrix(0.06172839506172839,0,0,0.06172839506172839,29.938271604938265,0)" xlink:href="#bb"/><use transform="matrix(0.06172839506172839,0,0,0.06172839506172839,48.39506172839505,0)" xlink:href="#aQ"/><use transform="matrix(0.06172839506172839,0,0,0.06172839506172839,60.740740740740726,0)" xlink:href="#aI"/></g><g id="o"><use transform="matrix(0.06172839506172839,0,0,0.06172839506172839,0,0)" xlink:href="#aS"/><use transform="matrix(0.06172839506172839,0,0,0.06172839506172839,14.814814814814813,0)" xlink:href="#aK"/><use transform="matrix(0.06172839506172839,0,0,0.06172839506172839,27.160493827160494,0)" xlink:href="#aD"/><use transform="matrix(0.06172839506172839,0,0,0.06172839506172839,39.50617283950617,0)" xlink:href="#aB"/><use transform="matrix(0.06172839506172839,0,0,0.06172839506172839,51.85185185185185,0)" xlink:href="#aE"/><use transform="matrix(0.06172839506172839,0,0,0.06172839506172839,58.02469135802469,0)" xlink:href="#aD"/></g><g id="p"><use transform="matrix(0.06172839506172839,0,0,0.06172839506172839,0,0)" xlink:href="#aF"/><use transform="matrix(0.06172839506172839,0,0,0.06172839506172839,12.345679012345679,0)" xlink:href="#aE"/><use transform="matrix(0.06172839506172839,0,0,0.06172839506172839,18.51851851851852,0)" xlink:href="#aD"/><use transform="matrix(0.06172839506172839,0,0,0.06172839506172839,30.864197530864196,0)" xlink:href="#aB"/><use transform="matrix(0.06172839506172839,0,0,0.06172839506172839,43.20987654320987,0)" xlink:href="#aN"/><use transform="matrix(0.06172839506172839,0,0,0.06172839506172839,54.32098765432099,0)" xlink:href="#aH"/><use transform="matrix(0.06172839506172839,0,0,0.06172839506172839,59.19753086419753,0)" xlink:href="#aT"/><use transform="matrix(0.06172839506172839,0,0,0.06172839506172839,71.54320987654322,0)" xlink:href="#aB"/></g><path fill="#333" d="M30-248c87 1 191-15 191 75 0 78-77 80-158 76V0H30v-248zm33 125c57 0 124 11 124-50 0-59-68-47-124-48v98" id="bc"/><g id="q"><use transform="matrix(0.06172839506172839,0,0,0.06172839506172839,0,0)" xlink:href="#bc"/><use transform="matrix(0.06172839506172839,0,0,0.06172839506172839,14.814814814814813,0)" xlink:href="#aG"/><use transform="matrix(0.06172839506172839,0,0,0.06172839506172839,22.160493827160494,0)" xlink:href="#aD"/><use transform="matrix(0.06172839506172839,0,0,0.06172839506172839,34.50617283950617,0)" xlink:href="#aK"/><use transform="matrix(0.06172839506172839,0,0,0.06172839506172839,46.85185185185185,0)" xlink:href="#aZ"/><use transform="matrix(0.06172839506172839,0,0,0.06172839506172839,59.197530864197525,0)" xlink:href="#aB"/><use transform="matrix(0.06172839506172839,0,0,0.06172839506172839,71.5432098765432,0)" xlink:href="#aE"/><use transform="matrix(0.06172839506172839,0,0,0.06172839506172839,77.71604938271604,0)" xlink:href="#aF"/></g><path fill="#333" d="M212-179c-10-28-35-45-73-45-59 0-87 40-87 99 0 60 29 101 89 101 43 0 62-24 78-52l27 14C228-24 195 4 139 4 59 4 22-46 18-125c-6-104 99-153 187-111 19 9 31 26 39 46" id="bd"/><g id="r"><use transform="matrix(0.06172839506172839,0,0,0.06172839506172839,0,0)" xlink:href="#bd"/><use transform="matrix(0.06172839506172839,0,0,0.06172839506172839,15.987654320987653,0)" xlink:href="#aI"/><use transform="matrix(0.06172839506172839,0,0,0.06172839506172839,28.333333333333332,0)" xlink:href="#aB"/><use transform="matrix(0.06172839506172839,0,0,0.06172839506172839,40.67901234567901,0)" xlink:href="#aE"/><use transform="matrix(0.06172839506172839,0,0,0.06172839506172839,46.851851851851855,0)" xlink:href="#aD"/><use transform="matrix(0.06172839506172839,0,0,0.06172839506172839,59.19753086419753,0)" xlink:href="#aB"/><use transform="matrix(0.06172839506172839,0,0,0.06172839506172839,71.54320987654322,0)" xlink:href="#aH"/><use transform="matrix(0.06172839506172839,0,0,0.06172839506172839,76.41975308641976,0)" xlink:href="#aV"/><use transform="matrix(0.06172839506172839,0,0,0.06172839506172839,88.76543209876544,0)" xlink:href="#aI"/></g><g id="s"><use transform="matrix(0.06172839506172839,0,0,0.06172839506172839,0,0)" xlink:href="#aA"/><use transform="matrix(0.06172839506172839,0,0,0.06172839506172839,6.172839506172839,0)" xlink:href="#aB"/><use transform="matrix(0.06172839506172839,0,0,0.06172839506172839,18.51851851851852,0)" xlink:href="#aE"/><use transform="matrix(0.06172839506172839,0,0,0.06172839506172839,24.691358024691358,0)" xlink:href="#aD"/><use transform="matrix(0.06172839506172839,0,0,0.06172839506172839,37.03703703703704,0)" xlink:href="#aB"/><use transform="matrix(0.06172839506172839,0,0,0.06172839506172839,49.382716049382715,0)" xlink:href="#aN"/><use transform="matrix(0.06172839506172839,0,0,0.06172839506172839,60.49382716049382,0)" xlink:href="#aH"/><use transform="matrix(0.06172839506172839,0,0,0.06172839506172839,65.37037037037037,0)" xlink:href="#aT"/><use transform="matrix(0.06172839506172839,0,0,0.06172839506172839,77.71604938271605,0)" xlink:href="#aB"/></g><path fill="#333" d="M87 75C49 33 22-17 22-94c0-76 28-126 65-167h31c-38 41-64 92-64 168S80 34 118 75H87" id="be"/><path fill="#333" d="M33-261c38 41 65 92 65 168S71 34 33 75H2C39 34 66-17 66-93S39-220 2-261h31" id="bf"/><g id="t"><use transform="matrix(0.06172839506172839,0,0,0.06172839506172839,0,0)" xlink:href="#be"/><use transform="matrix(0.06172839506172839,0,0,0.06172839506172839,7.345679012345679,0)" xlink:href="#aM"/><use transform="matrix(0.06172839506172839,0,0,0.06172839506172839,18.45679012345679,0)" xlink:href="#aD"/><use transform="matrix(0.06172839506172839,0,0,0.06172839506172839,30.80246913580247,0)" xlink:href="#aB"/><use transform="matrix(0.06172839506172839,0,0,0.06172839506172839,43.148148148148145,0)" xlink:href="#aE"/><use transform="matrix(0.06172839506172839,0,0,0.06172839506172839,49.32098765432099,0)" xlink:href="#aH"/><use transform="matrix(0.06172839506172839,0,0,0.06172839506172839,54.19753086419753,0)" xlink:href="#bb"/><use transform="matrix(0.06172839506172839,0,0,0.06172839506172839,72.65432098765432,0)" xlink:href="#aD"/><use transform="matrix(0.06172839506172839,0,0,0.06172839506172839,85,0)" xlink:href="#aB"/><use transform="matrix(0.06172839506172839,0,0,0.06172839506172839,97.34567901234568,0)" xlink:href="#aE"/><use transform="matrix(0.06172839506172839,0,0,0.06172839506172839,103.51851851851852,0)" xlink:href="#bf"/></g><g id="u"><use transform="matrix(0.06172839506172839,0,0,0.06172839506172839,0,0)" xlink:href="#aX"/><use transform="matrix(0.06172839506172839,0,0,0.06172839506172839,12.345679012345679,0)" xlink:href="#aI"/><use transform="matrix(0.06172839506172839,0,0,0.06172839506172839,24.691358024691358,0)" xlink:href="#aG"/><use transform="matrix(0.06172839506172839,0,0,0.06172839506172839,32.03703703703704,0)" xlink:href="#aF"/></g><g id="v"><use transform="matrix(0.06172839506172839,0,0,0.06172839506172839,0,0)" xlink:href="#aQ"/><use transform="matrix(0.06172839506172839,0,0,0.06172839506172839,12.345679012345679,0)" xlink:href="#aG"/><use transform="matrix(0.06172839506172839,0,0,0.06172839506172839,19.691358024691358,0)" xlink:href="#aD"/><use transform="matrix(0.06172839506172839,0,0,0.06172839506172839,32.03703703703704,0)" xlink:href="#aK"/><use transform="matrix(0.06172839506172839,0,0,0.06172839506172839,44.382716049382715,0)" xlink:href="#aZ"/><use transform="matrix(0.06172839506172839,0,0,0.06172839506172839,56.72839506172839,0)" xlink:href="#aB"/><use transform="matrix(0.06172839506172839,0,0,0.06172839506172839,69.07407407407408,0)" xlink:href="#aE"/><use transform="matrix(0.06172839506172839,0,0,0.06172839506172839,75.24691358024691,0)" xlink:href="#aF"/><use transform="matrix(0.06172839506172839,0,0,0.06172839506172839,87.5925925925926,0)" xlink:href="#aV"/><use transform="matrix(0.06172839506172839,0,0,0.06172839506172839,99.93827160493828,0)" xlink:href="#aF"/></g><path fill="#333" d="M185-189c-5-48-123-54-124 2 14 75 158 14 163 119 3 78-121 87-175 55-17-10-28-26-33-46l33-7c5 56 141 63 141-1 0-78-155-14-162-118-5-82 145-84 179-34 5 7 8 16 11 25" id="bg"/><path fill="#333" d="M194 0L95-120 63-95V0H30v-248h33v124l119-124h40L117-140 236 0h-42" id="bh"/><path fill="#333" d="M232-93c-1 65-40 97-104 97C67 4 28-28 28-90v-158h33c8 89-33 224 67 224 102 0 64-133 71-224h33v155" id="bi"/><g id="w"><use transform="matrix(0.06172839506172839,0,0,0.06172839506172839,0,0)" xlink:href="#bg"/><use transform="matrix(0.06172839506172839,0,0,0.06172839506172839,14.814814814814813,0)" xlink:href="#bh"/><use transform="matrix(0.06172839506172839,0,0,0.06172839506172839,29.629629629629626,0)" xlink:href="#bi"/></g><g id="x"><use transform="matrix(0.06172839506172839,0,0,0.06172839506172839,0,0)" xlink:href="#bc"/><use transform="matrix(0.06172839506172839,0,0,0.06172839506172839,14.814814814814813,0)" xlink:href="#aG"/><use transform="matrix(0.06172839506172839,0,0,0.06172839506172839,22.160493827160494,0)" xlink:href="#aI"/><use transform="matrix(0.06172839506172839,0,0,0.06172839506172839,34.50617283950617,0)" xlink:href="#aV"/><use transform="matrix(0.06172839506172839,0,0,0.06172839506172839,46.85185185185185,0)" xlink:href="#aZ"/><use transform="matrix(0.06172839506172839,0,0,0.06172839506172839,59.197530864197525,0)" xlink:href="#aN"/><use transform="matrix(0.06172839506172839,0,0,0.06172839506172839,70.30864197530863,0)" xlink:href="#aE"/><use transform="matrix(0.06172839506172839,0,0,0.06172839506172839,76.48148148148147,0)" xlink:href="#aI"/></g><g id="y"><use transform="matrix(0.06172839506172839,0,0,0.06172839506172839,0,0)" xlink:href="#bc"/><use transform="matrix(0.06172839506172839,0,0,0.06172839506172839,14.814814814814813,0)" xlink:href="#aG"/><use transform="matrix(0.06172839506172839,0,0,0.06172839506172839,22.160493827160494,0)" xlink:href="#aI"/><use transform="matrix(0.06172839506172839,0,0,0.06172839506172839,34.50617283950617,0)" xlink:href="#aC"/><use transform="matrix(0.06172839506172839,0,0,0.06172839506172839,45.61728395061728,0)" xlink:href="#aD"/><use transform="matrix(0.06172839506172839,0,0,0.06172839506172839,57.962962962962955,0)" xlink:href="#aD"/><use transform="matrix(0.06172839506172839,0,0,0.06172839506172839,70.30864197530863,0)" xlink:href="#aV"/><use transform="matrix(0.06172839506172839,0,0,0.06172839506172839,82.65432098765432,0)" xlink:href="#aI"/><use transform="matrix(0.06172839506172839,0,0,0.06172839506172839,95,0)" xlink:href="#aG"/></g><g id="z"><use transform="matrix(0.06172839506172839,0,0,0.06172839506172839,0,0)" xlink:href="#bd"/><use transform="matrix(0.06172839506172839,0,0,0.06172839506172839,15.987654320987653,0)" xlink:href="#aF"/><use transform="matrix(0.06172839506172839,0,0,0.06172839506172839,28.333333333333332,0)" xlink:href="#aB"/><use transform="matrix(0.06172839506172839,0,0,0.06172839506172839,40.67901234567901,0)" xlink:href="#aE"/><use transform="matrix(0.06172839506172839,0,0,0.06172839506172839,46.851851851851855,0)" xlink:href="#aH"/><use transform="matrix(0.06172839506172839,0,0,0.06172839506172839,51.7283950617284,0)" xlink:href="#aV"/><use transform="matrix(0.06172839506172839,0,0,0.06172839506172839,64.07407407407408,0)" xlink:href="#aF"/><use transform="matrix(0.06172839506172839,0,0,0.06172839506172839,76.41975308641976,0)" xlink:href="#aV"/></g><g id="A"><use transform="matrix(0.06172839506172839,0,0,0.06172839506172839,0,0)" xlink:href="#aD"/><use transform="matrix(0.06172839506172839,0,0,0.06172839506172839,12.345679012345679,0)" xlink:href="#aB"/></g><g id="B"><use transform="matrix(0.06172839506172839,0,0,0.06172839506172839,0,0)" xlink:href="#aH"/><use transform="matrix(0.06172839506172839,0,0,0.06172839506172839,4.876543209876543,0)" xlink:href="#aB"/><use transform="matrix(0.06172839506172839,0,0,0.06172839506172839,17.22222222222222,0)" xlink:href="#aC"/><use transform="matrix(0.06172839506172839,0,0,0.06172839506172839,28.333333333333332,0)" xlink:href="#aD"/><use transform="matrix(0.06172839506172839,0,0,0.06172839506172839,40.67901234567901,0)" xlink:href="#aB"/><use transform="matrix(0.06172839506172839,0,0,0.06172839506172839,53.02469135802469,0)" xlink:href="#aE"/><use transform="matrix(0.06172839506172839,0,0,0.06172839506172839,59.19753086419753,0)" xlink:href="#aF"/><use transform="matrix(0.06172839506172839,0,0,0.06172839506172839,71.54320987654322,0)" xlink:href="#aG"/><use transform="matrix(0.06172839506172839,0,0,0.06172839506172839,78.8888888888889,0)" xlink:href="#aH"/><use transform="matrix(0.06172839506172839,0,0,0.06172839506172839,83.76543209876544,0)" xlink:href="#aI"/></g><path fill="#333" d="M30 0v-248h187v28H63v79h144v27H63v87h162V0H30" id="bj"/><path fill="#333" d="M141-36C126-15 110 5 73 4 37 3 15-17 15-53c-1-64 63-63 125-63 3-35-9-54-41-54-24 1-41 7-42 31l-33-3c5-37 33-52 76-52 45 0 72 20 72 64v82c-1 20 7 32 28 27v20c-31 9-61-2-59-35zM48-53c0 20 12 33 32 33 41-3 63-29 60-74-43 2-92-5-92 41zm25-158c8-23 27-35 38-54h36v5l-58 49H73" id="bk"/><g id="C"><use transform="matrix(0.06172839506172839,0,0,0.06172839506172839,0,0)" xlink:href="#bj"/><use transform="matrix(0.06172839506172839,0,0,0.06172839506172839,14.814814814814813,0)" xlink:href="#aM"/><use transform="matrix(0.06172839506172839,0,0,0.06172839506172839,25.925925925925924,0)" xlink:href="#aE"/><use transform="matrix(0.06172839506172839,0,0,0.06172839506172839,32.098765432098766,0)" xlink:href="#bk"/></g><g id="D"><use transform="matrix(0.06172839506172839,0,0,0.06172839506172839,0,0)" xlink:href="#aD"/><use transform="matrix(0.06172839506172839,0,0,0.06172839506172839,12.345679012345679,0)" xlink:href="#aB"/></g><path fill="#333" d="M100-194c63 0 86 42 84 106H49c0 40 14 67 53 68 26 1 43-12 49-29l28 8c-11 28-37 45-77 45C44 4 14-33 15-96c1-61 26-98 85-98zm52 81c6-60-76-77-97-28-3 7-6 17-6 28h103zm-74-98c8-23 27-35 38-54h36v5l-58 49H78" id="bl"/><g id="E"><use transform="matrix(0.06172839506172839,0,0,0.06172839506172839,0,0)" xlink:href="#aS"/><use transform="matrix(0.06172839506172839,0,0,0.06172839506172839,14.814814814814813,0)" xlink:href="#aR"/><use transform="matrix(0.06172839506172839,0,0,0.06172839506172839,19.691358024691354,0)" xlink:href="#bb"/><use transform="matrix(0.06172839506172839,0,0,0.06172839506172839,38.14814814814814,0)" xlink:href="#aF"/><use transform="matrix(0.06172839506172839,0,0,0.06172839506172839,50.493827160493815,0)" xlink:href="#aN"/><use transform="matrix(0.06172839506172839,0,0,0.06172839506172839,61.60493827160492,0)" xlink:href="#bl"/><use transform="matrix(0.06172839506172839,0,0,0.06172839506172839,73.9506172839506,0)" xlink:href="#aB"/></g><path fill="#333" d="M30-248c118-7 216 8 213 122C240-48 200 0 122 0H30v-248zM63-27c89 8 146-16 146-99s-60-101-146-95v194" id="bm"/><g id="F"><use transform="matrix(0.06172839506172839,0,0,0.06172839506172839,0,0)" xlink:href="#bm"/><use transform="matrix(0.06172839506172839,0,0,0.06172839506172839,15.987654320987653,0)" xlink:href="#aH"/><use transform="matrix(0.06172839506172839,0,0,0.06172839506172839,20.864197530864196,0)" xlink:href="#aG"/><use transform="matrix(0.06172839506172839,0,0,0.06172839506172839,28.209876543209873,0)" xlink:href="#aD"/><use transform="matrix(0.06172839506172839,0,0,0.06172839506172839,40.55555555555555,0)" xlink:href="#aN"/><use transform="matrix(0.06172839506172839,0,0,0.06172839506172839,51.66666666666666,0)" xlink:href="#aN"/><use transform="matrix(0.06172839506172839,0,0,0.06172839506172839,62.77777777777777,0)" xlink:href="#aH"/><use transform="matrix(0.06172839506172839,0,0,0.06172839506172839,67.65432098765432,0)" xlink:href="#aT"/><use transform="matrix(0.06172839506172839,0,0,0.06172839506172839,80,0)" xlink:href="#aB"/></g><g id="G"><use transform="matrix(0.06172839506172839,0,0,0.06172839506172839,0,0)" xlink:href="#bj"/><use transform="matrix(0.06172839506172839,0,0,0.06172839506172839,14.814814814814813,0)" xlink:href="#aB"/><use transform="matrix(0.06172839506172839,0,0,0.06172839506172839,27.160493827160494,0)" xlink:href="#aC"/><use transform="matrix(0.06172839506172839,0,0,0.06172839506172839,38.27160493827161,0)" xlink:href="#aL"/><use transform="matrix(0.06172839506172839,0,0,0.06172839506172839,44.44444444444445,0)" xlink:href="#aI"/></g><g id="H"><use transform="matrix(0.06172839506172839,0,0,0.06172839506172839,0,0)" xlink:href="#bm"/><use transform="matrix(0.06172839506172839,0,0,0.06172839506172839,15.987654320987653,0)" xlink:href="#aH"/><use transform="matrix(0.06172839506172839,0,0,0.06172839506172839,20.864197530864196,0)" xlink:href="#aG"/><use transform="matrix(0.06172839506172839,0,0,0.06172839506172839,28.209876543209873,0)" xlink:href="#aD"/><use transform="matrix(0.06172839506172839,0,0,0.06172839506172839,40.55555555555555,0)" xlink:href="#aN"/><use transform="matrix(0.06172839506172839,0,0,0.06172839506172839,51.66666666666666,0)" xlink:href="#aN"/><use transform="matrix(0.06172839506172839,0,0,0.06172839506172839,62.77777777777777,0)" xlink:href="#aH"/><use transform="matrix(0.06172839506172839,0,0,0.06172839506172839,67.65432098765432,0)" xlink:href="#aT"/><use transform="matrix(0.06172839506172839,0,0,0.06172839506172839,80,0)" xlink:href="#aB"/></g><g id="I"><use transform="matrix(0.06172839506172839,0,0,0.06172839506172839,0,0)" xlink:href="#aV"/><use transform="matrix(0.06172839506172839,0,0,0.06172839506172839,12.345679012345679,0)" xlink:href="#aD"/></g><g id="J"><use transform="matrix(0.06172839506172839,0,0,0.06172839506172839,0,0)" xlink:href="#aV"/><use transform="matrix(0.06172839506172839,0,0,0.06172839506172839,12.345679012345679,0)" xlink:href="#aD"/><use transform="matrix(0.06172839506172839,0,0,0.06172839506172839,24.691358024691358,0)" xlink:href="#aM"/><use transform="matrix(0.06172839506172839,0,0,0.06172839506172839,35.80246913580247,0)" xlink:href="#aE"/><use transform="matrix(0.06172839506172839,0,0,0.06172839506172839,41.97530864197531,0)" xlink:href="#aH"/><use transform="matrix(0.06172839506172839,0,0,0.06172839506172839,46.851851851851855,0)" xlink:href="#aB"/><use transform="matrix(0.06172839506172839,0,0,0.06172839506172839,59.19753086419753,0)" xlink:href="#aI"/></g><g id="K"><use transform="matrix(0.06172839506172839,0,0,0.06172839506172839,0,0)" xlink:href="#bm"/><use transform="matrix(0.06172839506172839,0,0,0.06172839506172839,15.987654320987653,0)" xlink:href="#aH"/><use transform="matrix(0.06172839506172839,0,0,0.06172839506172839,20.864197530864196,0)" xlink:href="#aG"/><use transform="matrix(0.06172839506172839,0,0,0.06172839506172839,28.209876543209873,0)" xlink:href="#aD"/><use transform="matrix(0.06172839506172839,0,0,0.06172839506172839,40.55555555555555,0)" xlink:href="#aN"/><use transform="matrix(0.06172839506172839,0,0,0.06172839506172839,51.66666666666666,0)" xlink:href="#aN"/><use transform="matrix(0.06172839506172839,0,0,0.06172839506172839,62.77777777777777,0)" xlink:href="#aH"/><use transform="matrix(0.06172839506172839,0,0,0.06172839506172839,67.65432098765432,0)" xlink:href="#aT"/><use transform="matrix(0.06172839506172839,0,0,0.06172839506172839,80,0)" xlink:href="#aB"/></g><g id="L"><use transform="matrix(0.06172839506172839,0,0,0.06172839506172839,0,0)" xlink:href="#aM"/><use transform="matrix(0.06172839506172839,0,0,0.06172839506172839,11.11111111111111,0)" xlink:href="#aF"/><use transform="matrix(0.06172839506172839,0,0,0.06172839506172839,23.45679012345679,0)" xlink:href="#aR"/><use transform="matrix(0.06172839506172839,0,0,0.06172839506172839,28.333333333333336,0)" xlink:href="#aH"/><use transform="matrix(0.06172839506172839,0,0,0.06172839506172839,33.20987654320988,0)" xlink:href="#aV"/><use transform="matrix(0.06172839506172839,0,0,0.06172839506172839,45.55555555555556,0)" xlink:href="#aF"/></g><g id="M"><use transform="matrix(0.06172839506172839,0,0,0.06172839506172839,0,0)" xlink:href="#aV"/><use transform="matrix(0.06172839506172839,0,0,0.06172839506172839,12.345679012345679,0)" xlink:href="#aD"/><use transform="matrix(0.06172839506172839,0,0,0.06172839506172839,24.691358024691358,0)" xlink:href="#aM"/><use transform="matrix(0.06172839506172839,0,0,0.06172839506172839,35.80246913580247,0)" xlink:href="#aQ"/><use transform="matrix(0.06172839506172839,0,0,0.06172839506172839,48.148148148148145,0)" xlink:href="#aF"/><use transform="matrix(0.06172839506172839,0,0,0.06172839506172839,60.49382716049382,0)" xlink:href="#aN"/><use transform="matrix(0.06172839506172839,0,0,0.06172839506172839,71.60493827160494,0)" xlink:href="#aX"/><use transform="matrix(0.06172839506172839,0,0,0.06172839506172839,83.95061728395062,0)" xlink:href="#aI"/></g><g id="N"><use transform="matrix(0.06172839506172839,0,0,0.06172839506172839,0,0)" xlink:href="#aG"/><use transform="matrix(0.06172839506172839,0,0,0.06172839506172839,7.345679012345679,0)" xlink:href="#aD"/><use transform="matrix(0.06172839506172839,0,0,0.06172839506172839,19.691358024691358,0)" xlink:href="#aN"/><use transform="matrix(0.06172839506172839,0,0,0.06172839506172839,30.80246913580247,0)" xlink:href="#aD"/><use transform="matrix(0.06172839506172839,0,0,0.06172839506172839,43.148148148148145,0)" xlink:href="#aQ"/><use transform="matrix(0.06172839506172839,0,0,0.06172839506172839,55.49382716049382,0)" xlink:href="#aN"/><use transform="matrix(0.06172839506172839,0,0,0.06172839506172839,66.60493827160494,0)" xlink:href="#aH"/><use transform="matrix(0.06172839506172839,0,0,0.06172839506172839,71.48148148148148,0)" xlink:href="#aT"/><use transform="matrix(0.06172839506172839,0,0,0.06172839506172839,83.82716049382717,0)" xlink:href="#aB"/></g><g id="O"><use transform="matrix(0.06172839506172839,0,0,0.06172839506172839,0,0)" xlink:href="#bc"/><use transform="matrix(0.06172839506172839,0,0,0.06172839506172839,14.814814814814813,0)" xlink:href="#aG"/><use transform="matrix(0.06172839506172839,0,0,0.06172839506172839,22.160493827160494,0)" xlink:href="#aI"/><use transform="matrix(0.06172839506172839,0,0,0.06172839506172839,34.50617283950617,0)" xlink:href="#aC"/><use transform="matrix(0.06172839506172839,0,0,0.06172839506172839,45.61728395061728,0)" xlink:href="#aD"/><use transform="matrix(0.06172839506172839,0,0,0.06172839506172839,57.962962962962955,0)" xlink:href="#aD"/><use transform="matrix(0.06172839506172839,0,0,0.06172839506172839,70.30864197530863,0)" xlink:href="#aV"/><use transform="matrix(0.06172839506172839,0,0,0.06172839506172839,82.65432098765432,0)" xlink:href="#aI"/><use transform="matrix(0.06172839506172839,0,0,0.06172839506172839,95,0)" xlink:href="#aG"/></g><g id="P"><use transform="matrix(0.06172839506172839,0,0,0.06172839506172839,0,0)" xlink:href="#aV"/><use transform="matrix(0.06172839506172839,0,0,0.06172839506172839,12.345679012345679,0)" xlink:href="#aD"/></g><g id="Q"><use transform="matrix(0.06172839506172839,0,0,0.06172839506172839,0,0)" xlink:href="#aM"/><use transform="matrix(0.06172839506172839,0,0,0.06172839506172839,11.11111111111111,0)" xlink:href="#aD"/><use transform="matrix(0.06172839506172839,0,0,0.06172839506172839,23.45679012345679,0)" xlink:href="#aG"/><use transform="matrix(0.06172839506172839,0,0,0.06172839506172839,30.80246913580247,0)" xlink:href="#aC"/><use transform="matrix(0.06172839506172839,0,0,0.06172839506172839,41.91358024691358,0)" xlink:href="#aH"/><use transform="matrix(0.06172839506172839,0,0,0.06172839506172839,46.79012345679013,0)" xlink:href="#aN"/><use transform="matrix(0.06172839506172839,0,0,0.06172839506172839,57.90123456790124,0)" xlink:href="#aH"/><use transform="matrix(0.06172839506172839,0,0,0.06172839506172839,62.777777777777786,0)" xlink:href="#aI"/></g><path fill="#333" d="M143 4C61 4 22-44 18-125c-5-107 100-154 193-111 17 8 29 25 37 43l-32 9c-13-25-37-40-76-40-61 0-88 39-88 99 0 61 29 100 91 101 35 0 62-11 79-27v-45h-74v-28h105v86C228-13 192 4 143 4" id="bn"/><g id="R"><use transform="matrix(0.06172839506172839,0,0,0.06172839506172839,0,0)" xlink:href="#bn"/><use transform="matrix(0.06172839506172839,0,0,0.06172839506172839,17.28395061728395,0)" xlink:href="#aD"/><use transform="matrix(0.06172839506172839,0,0,0.06172839506172839,29.629629629629626,0)" xlink:href="#aB"/><use transform="matrix(0.06172839506172839,0,0,0.06172839506172839,41.9753086419753,0)" xlink:href="#aD"/><use transform="matrix(0.06172839506172839,0,0,0.06172839506172839,54.32098765432098,0)" xlink:href="#aG"/><use transform="matrix(0.06172839506172839,0,0,0.06172839506172839,61.66666666666666,0)" xlink:href="#aF"/></g><g id="S"><use transform="matrix(0.06172839506172839,0,0,0.06172839506172839,0,0)" xlink:href="#aS"/><use transform="matrix(0.06172839506172839,0,0,0.06172839506172839,14.814814814814813,0)" xlink:href="#aB"/><use transform="matrix(0.06172839506172839,0,0,0.06172839506172839,27.160493827160494,0)" xlink:href="#aZ"/><use transform="matrix(0.06172839506172839,0,0,0.06172839506172839,39.50617283950617,0)" xlink:href="#aB"/><use transform="matrix(0.06172839506172839,0,0,0.06172839506172839,51.85185185185185,0)" xlink:href="#aN"/><use transform="matrix(0.06172839506172839,0,0,0.06172839506172839,62.96296296296296,0)" xlink:href="#aH"/><use transform="matrix(0.06172839506172839,0,0,0.06172839506172839,67.8395061728395,0)" xlink:href="#aF"/></g><g id="T"><use transform="matrix(0.06172839506172839,0,0,0.06172839506172839,0,0)" xlink:href="#bd"/><use transform="matrix(0.06172839506172839,0,0,0.06172839506172839,15.987654320987653,0)" xlink:href="#aR"/><use transform="matrix(0.06172839506172839,0,0,0.06172839506172839,20.864197530864196,0)" xlink:href="#aH"/><use transform="matrix(0.06172839506172839,0,0,0.06172839506172839,25.74074074074074,0)" xlink:href="#aD"/><use transform="matrix(0.06172839506172839,0,0,0.06172839506172839,38.08641975308642,0)" xlink:href="#aB"/><use transform="matrix(0.06172839506172839,0,0,0.06172839506172839,50.432098765432094,0)" xlink:href="#aE"/><use transform="matrix(0.06172839506172839,0,0,0.06172839506172839,56.60493827160494,0)" xlink:href="#aD"/></g><g id="U"><use transform="matrix(0.06172839506172839,0,0,0.06172839506172839,0,0)" xlink:href="#bi"/><use transform="matrix(0.06172839506172839,0,0,0.06172839506172839,15.987654320987653,0)" xlink:href="#aM"/><use transform="matrix(0.06172839506172839,0,0,0.06172839506172839,27.098765432098766,0)" xlink:href="#aZ"/><use transform="matrix(0.06172839506172839,0,0,0.06172839506172839,39.44444444444444,0)" xlink:href="#aF"/><use transform="matrix(0.06172839506172839,0,0,0.06172839506172839,51.79012345679012,0)" xlink:href="#aG"/><use transform="matrix(0.06172839506172839,0,0,0.06172839506172839,59.1358024691358,0)" xlink:href="#aH"/><use transform="matrix(0.06172839506172839,0,0,0.06172839506172839,64.01234567901234,0)" xlink:href="#aI"/></g><g id="V"><use transform="matrix(0.06172839506172839,0,0,0.06172839506172839,0,0)" xlink:href="#ba"/><use transform="matrix(0.06172839506172839,0,0,0.06172839506172839,12.716049382716047,0)" xlink:href="#aH"/><use transform="matrix(0.06172839506172839,0,0,0.06172839506172839,17.592592592592588,0)" xlink:href="#aQ"/><use transform="matrix(0.06172839506172839,0,0,0.06172839506172839,29.938271604938265,0)" xlink:href="#aI"/></g><path fill="#333" d="M141 0L90-78 38 0H4l68-98-65-92h35l48 74 47-74h35l-64 92 68 98h-35" id="bo"/><path fill="#333" d="M68-38c1 34 0 65-14 84H32c9-13 17-26 17-46H33v-38h35" id="bp"/><g id="W"><use transform="matrix(0.06172839506172839,0,0,0.06172839506172839,0,0)" xlink:href="#be"/><use transform="matrix(0.06172839506172839,0,0,0.06172839506172839,7.345679012345679,0)" xlink:href="#aD"/><use transform="matrix(0.06172839506172839,0,0,0.06172839506172839,19.691358024691358,0)" xlink:href="#bo"/><use transform="matrix(0.06172839506172839,0,0,0.06172839506172839,30.80246913580247,0)" xlink:href="#aG"/><use transform="matrix(0.06172839506172839,0,0,0.06172839506172839,38.148148148148145,0)" xlink:href="#aQ"/><use transform="matrix(0.06172839506172839,0,0,0.06172839506172839,50.49382716049382,0)" xlink:href="#aG"/><use transform="matrix(0.06172839506172839,0,0,0.06172839506172839,57.8395061728395,0)" xlink:href="#aD"/><use transform="matrix(0.06172839506172839,0,0,0.06172839506172839,70.18518518518518,0)" xlink:href="#aM"/><use transform="matrix(0.06172839506172839,0,0,0.06172839506172839,81.29629629629629,0)" xlink:href="#aM"/><use transform="matrix(0.06172839506172839,0,0,0.06172839506172839,92.4074074074074,0)" xlink:href="#bp"/></g><g id="X"><use transform="matrix(0.06172839506172839,0,0,0.06172839506172839,0,0)" xlink:href="#aG"/><use transform="matrix(0.06172839506172839,0,0,0.06172839506172839,7.345679012345679,0)" xlink:href="#aD"/><use transform="matrix(0.06172839506172839,0,0,0.06172839506172839,19.691358024691358,0)" xlink:href="#aN"/><use transform="matrix(0.06172839506172839,0,0,0.06172839506172839,30.80246913580247,0)" xlink:href="#aR"/><use transform="matrix(0.06172839506172839,0,0,0.06172839506172839,35.67901234567901,0)" xlink:href="#aF"/><use transform="matrix(0.06172839506172839,0,0,0.06172839506172839,48.02469135802469,0)" xlink:href="#bb"/><use transform="matrix(0.06172839506172839,0,0,0.06172839506172839,66.48148148148148,0)" xlink:href="#aI"/><use transform="matrix(0.06172839506172839,0,0,0.06172839506172839,78.82716049382717,0)" xlink:href="#bf"/></g><g id="Y"><use transform="matrix(0.06172839506172839,0,0,0.06172839506172839,0,0)" xlink:href="#aO"/><use transform="matrix(0.06172839506172839,0,0,0.06172839506172839,18.456790123456788,0)" xlink:href="#aI"/><use transform="matrix(0.06172839506172839,0,0,0.06172839506172839,30.80246913580247,0)" xlink:href="#aE"/><use transform="matrix(0.06172839506172839,0,0,0.06172839506172839,36.97530864197531,0)" xlink:href="#aH"/><use transform="matrix(0.06172839506172839,0,0,0.06172839506172839,41.851851851851855,0)" xlink:href="#aC"/><use transform="matrix(0.06172839506172839,0,0,0.06172839506172839,52.96296296296296,0)" xlink:href="#aI"/></g><g id="Z"><use transform="matrix(0.06172839506172839,0,0,0.06172839506172839,0,0)" xlink:href="#bm"/><use transform="matrix(0.06172839506172839,0,0,0.06172839506172839,15.987654320987653,0)" xlink:href="#aD"/><use transform="matrix(0.06172839506172839,0,0,0.06172839506172839,28.333333333333332,0)" xlink:href="#aC"/><use transform="matrix(0.06172839506172839,0,0,0.06172839506172839,39.44444444444444,0)" xlink:href="#aZ"/><use transform="matrix(0.06172839506172839,0,0,0.06172839506172839,51.79012345679012,0)" xlink:href="#aR"/><use transform="matrix(0.06172839506172839,0,0,0.06172839506172839,56.666666666666664,0)" xlink:href="#aD"/><use transform="matrix(0.06172839506172839,0,0,0.06172839506172839,69.01234567901234,0)" xlink:href="#aC"/><use transform="matrix(0.06172839506172839,0,0,0.06172839506172839,80.12345679012346,0)" xlink:href="#aD"/></g><g id="aa"><use transform="matrix(0.06172839506172839,0,0,0.06172839506172839,0,0)" xlink:href="#bc"/><use transform="matrix(0.06172839506172839,0,0,0.06172839506172839,14.814814814814813,0)" xlink:href="#aF"/><use transform="matrix(0.06172839506172839,0,0,0.06172839506172839,27.160493827160494,0)" xlink:href="#aK"/><use transform="matrix(0.06172839506172839,0,0,0.06172839506172839,39.50617283950617,0)" xlink:href="#aI"/></g><g id="ab"><use transform="matrix(0.06172839506172839,0,0,0.06172839506172839,0,0)" xlink:href="#aW"/><use transform="matrix(0.06172839506172839,0,0,0.06172839506172839,13.518518518518517,0)" xlink:href="#aD"/><use transform="matrix(0.06172839506172839,0,0,0.06172839506172839,25.864197530864196,0)" xlink:href="#aN"/><use transform="matrix(0.06172839506172839,0,0,0.06172839506172839,36.9753086419753,0)" xlink:href="#aX"/><use transform="matrix(0.06172839506172839,0,0,0.06172839506172839,49.32098765432098,0)" xlink:href="#aF"/></g><g id="ac"><use transform="matrix(0.06172839506172839,0,0,0.06172839506172839,0,0)" xlink:href="#aQ"/><use transform="matrix(0.06172839506172839,0,0,0.06172839506172839,12.345679012345679,0)" xlink:href="#aD"/><use transform="matrix(0.06172839506172839,0,0,0.06172839506172839,24.691358024691358,0)" xlink:href="#aV"/><use transform="matrix(0.06172839506172839,0,0,0.06172839506172839,37.03703703703704,0)" xlink:href="#aH"/><use transform="matrix(0.06172839506172839,0,0,0.06172839506172839,41.91358024691358,0)" xlink:href="#aV"/><use transform="matrix(0.06172839506172839,0,0,0.06172839506172839,54.25925925925926,0)" xlink:href="#aI"/></g><g id="ad"><use transform="matrix(0.06172839506172839,0,0,0.06172839506172839,0,0)" xlink:href="#bd"/><use transform="matrix(0.06172839506172839,0,0,0.06172839506172839,15.987654320987653,0)" xlink:href="#aF"/><use transform="matrix(0.06172839506172839,0,0,0.06172839506172839,28.333333333333332,0)" xlink:href="#aB"/><use transform="matrix(0.06172839506172839,0,0,0.06172839506172839,40.67901234567901,0)" xlink:href="#aE"/><use transform="matrix(0.06172839506172839,0,0,0.06172839506172839,46.851851851851855,0)" xlink:href="#aH"/><use transform="matrix(0.06172839506172839,0,0,0.06172839506172839,51.7283950617284,0)" xlink:href="#aV"/><use transform="matrix(0.06172839506172839,0,0,0.06172839506172839,64.07407407407408,0)" xlink:href="#aF"/><use transform="matrix(0.06172839506172839,0,0,0.06172839506172839,76.41975308641976,0)" xlink:href="#aV"/></g><path fill="#333" d="M137 0h-34L2-248h35l83 218 83-218h36" id="bq"/><g id="ae"><use transform="matrix(0.06172839506172839,0,0,0.06172839506172839,0,0)" xlink:href="#bq"/><use transform="matrix(0.06172839506172839,0,0,0.06172839506172839,13.148148148148147,0)" xlink:href="#aF"/><use transform="matrix(0.06172839506172839,0,0,0.06172839506172839,25.493827160493826,0)" xlink:href="#aG"/><use transform="matrix(0.06172839506172839,0,0,0.06172839506172839,32.839506172839506,0)" xlink:href="#aH"/><use transform="matrix(0.06172839506172839,0,0,0.06172839506172839,37.71604938271605,0)" xlink:href="#aF"/><use transform="matrix(0.06172839506172839,0,0,0.06172839506172839,50.06172839506173,0)" xlink:href="#aN"/><use transform="matrix(0.06172839506172839,0,0,0.06172839506172839,61.172839506172835,0)" xlink:href="#aH"/><use transform="matrix(0.06172839506172839,0,0,0.06172839506172839,66.04938271604938,0)" xlink:href="#aT"/><use transform="matrix(0.06172839506172839,0,0,0.06172839506172839,78.39506172839506,0)" xlink:href="#aB"/></g><path fill="#333" d="M140-251c81 0 123 46 123 126C263-46 219 4 140 4 59 4 17-45 17-125s42-126 123-126zm0 227c63 0 89-41 89-101s-29-99-89-99c-61 0-89 39-89 99S79-25 140-24" id="br"/><g id="af"><use transform="matrix(0.06172839506172839,0,0,0.06172839506172839,0,0)" xlink:href="#br"/><use transform="matrix(0.06172839506172839,0,0,0.06172839506172839,17.28395061728395,0)" xlink:href="#aG"/><use transform="matrix(0.06172839506172839,0,0,0.06172839506172839,24.629629629629626,0)" xlink:href="#aV"/><use transform="matrix(0.06172839506172839,0,0,0.06172839506172839,36.9753086419753,0)" xlink:href="#aD"/><use transform="matrix(0.06172839506172839,0,0,0.06172839506172839,49.32098765432098,0)" xlink:href="#aB"/><use transform="matrix(0.06172839506172839,0,0,0.06172839506172839,61.66666666666666,0)" xlink:href="#aF"/></g><g id="ag"><use transform="matrix(0.06172839506172839,0,0,0.06172839506172839,0,0)" xlink:href="#ba"/><use transform="matrix(0.06172839506172839,0,0,0.06172839506172839,12.716049382716047,0)" xlink:href="#aH"/><use transform="matrix(0.06172839506172839,0,0,0.06172839506172839,17.592592592592588,0)" xlink:href="#aD"/><use transform="matrix(0.06172839506172839,0,0,0.06172839506172839,29.938271604938265,0)" xlink:href="#aB"/><use transform="matrix(0.06172839506172839,0,0,0.06172839506172839,42.28395061728394,0)" xlink:href="#aD"/></g><path fill="#333" d="M115-194c53 0 69 39 70 98 0 66-23 100-70 100C84 3 66-7 56-30L54 0H23l1-261h32v101c10-23 28-34 59-34zm-8 174c40 0 45-34 45-75 0-40-5-75-45-74-42 0-51 32-51 76 0 43 10 73 51 73" id="bs"/><g id="ah"><use transform="matrix(0.06172839506172839,0,0,0.06172839506172839,0,0)" xlink:href="#bc"/><use transform="matrix(0.06172839506172839,0,0,0.06172839506172839,14.814814814814813,0)" xlink:href="#aZ"/><use transform="matrix(0.06172839506172839,0,0,0.06172839506172839,27.160493827160494,0)" xlink:href="#bs"/><use transform="matrix(0.06172839506172839,0,0,0.06172839506172839,39.50617283950617,0)" xlink:href="#aR"/><use transform="matrix(0.06172839506172839,0,0,0.06172839506172839,44.382716049382715,0)" xlink:href="#aH"/><use transform="matrix(0.06172839506172839,0,0,0.06172839506172839,49.25925925925926,0)" xlink:href="#aN"/><use transform="matrix(0.06172839506172839,0,0,0.06172839506172839,60.37037037037037,0)" xlink:href="#aF"/><use transform="matrix(0.06172839506172839,0,0,0.06172839506172839,72.71604938271605,0)" xlink:href="#aN"/><use transform="matrix(0.06172839506172839,0,0,0.06172839506172839,83.82716049382717,0)" xlink:href="#aH"/><use transform="matrix(0.06172839506172839,0,0,0.06172839506172839,88.70370370370371,0)" xlink:href="#aT"/><use transform="matrix(0.06172839506172839,0,0,0.06172839506172839,101.0493827160494,0)" xlink:href="#aB"/></g><g id="ai"><use transform="matrix(0.06172839506172839,0,0,0.06172839506172839,0,0)" xlink:href="#bb"/><use transform="matrix(0.06172839506172839,0,0,0.06172839506172839,18.456790123456788,0)" xlink:href="#aF"/><use transform="matrix(0.06172839506172839,0,0,0.06172839506172839,30.80246913580247,0)" xlink:href="#aG"/><use transform="matrix(0.06172839506172839,0,0,0.06172839506172839,38.148148148148145,0)" xlink:href="#aP"/><use transform="matrix(0.06172839506172839,0,0,0.06172839506172839,49.25925925925925,0)" xlink:href="#aD"/><use transform="matrix(0.06172839506172839,0,0,0.06172839506172839,61.60493827160493,0)" xlink:href="#aE"/></g><g id="aj"><use transform="matrix(0.06172839506172839,0,0,0.06172839506172839,0,0)" xlink:href="#aQ"/><use transform="matrix(0.06172839506172839,0,0,0.06172839506172839,12.345679012345679,0)" xlink:href="#aR"/><use transform="matrix(0.06172839506172839,0,0,0.06172839506172839,17.22222222222222,0)" xlink:href="#aF"/><use transform="matrix(0.06172839506172839,0,0,0.06172839506172839,29.5679012345679,0)" xlink:href="#aN"/><use transform="matrix(0.06172839506172839,0,0,0.06172839506172839,40.67901234567901,0)" xlink:href="#aD"/></g><g id="ak"><use transform="matrix(0.06172839506172839,0,0,0.06172839506172839,0,0)" xlink:href="#bd"/><use transform="matrix(0.06172839506172839,0,0,0.06172839506172839,15.987654320987653,0)" xlink:href="#aI"/><use transform="matrix(0.06172839506172839,0,0,0.06172839506172839,28.333333333333332,0)" xlink:href="#aM"/><use transform="matrix(0.06172839506172839,0,0,0.06172839506172839,39.44444444444444,0)" xlink:href="#aE"/><use transform="matrix(0.06172839506172839,0,0,0.06172839506172839,45.617283950617285,0)" xlink:href="#aI"/></g><g id="al"><use transform="matrix(0.06172839506172839,0,0,0.06172839506172839,0,0)" xlink:href="#bq"/><use transform="matrix(0.06172839506172839,0,0,0.06172839506172839,13.148148148148147,0)" xlink:href="#aF"/><use transform="matrix(0.06172839506172839,0,0,0.06172839506172839,25.493827160493826,0)" xlink:href="#aG"/><use transform="matrix(0.06172839506172839,0,0,0.06172839506172839,32.839506172839506,0)" xlink:href="#aH"/><use transform="matrix(0.06172839506172839,0,0,0.06172839506172839,37.71604938271605,0)" xlink:href="#aF"/><use transform="matrix(0.06172839506172839,0,0,0.06172839506172839,50.06172839506173,0)" xlink:href="#aB"/><use transform="matrix(0.06172839506172839,0,0,0.06172839506172839,62.407407407407405,0)" xlink:href="#aE"/><use transform="matrix(0.06172839506172839,0,0,0.06172839506172839,68.58024691358024,0)" xlink:href="#aD"/><use transform="matrix(0.06172839506172839,0,0,0.06172839506172839,80.92592592592592,0)" xlink:href="#aM"/></g><g id="an"><use transform="matrix(0.11111111111111108,0,0,0.11111111111111108,0,0)" xlink:href="#bm"/><use transform="matrix(0.11111111111111108,0,0,0.11111111111111108,28.777777777777768,0)" xlink:href="#aH"/><use transform="matrix(0.11111111111111108,0,0,0.11111111111111108,37.55555555555554,0)" xlink:href="#aF"/><use transform="matrix(0.11111111111111108,0,0,0.11111111111111108,59.77777777777776,0)" xlink:href="#aK"/><use transform="matrix(0.11111111111111108,0,0,0.11111111111111108,81.99999999999997,0)" xlink:href="#aG"/><use transform="matrix(0.11111111111111108,0,0,0.11111111111111108,95.22222222222219,0)" xlink:href="#aF"/><use transform="matrix(0.11111111111111108,0,0,0.11111111111111108,117.44444444444441,0)" xlink:href="#bb"/><use transform="matrix(0.11111111111111108,0,0,0.11111111111111108,150.66666666666663,0)" xlink:href="#aF"/></g><path fill="#333" d="M16-82v-28h88v28H16" id="bt"/><g id="ao"><use transform="matrix(0.11111111111111108,0,0,0.11111111111111108,0,0)" xlink:href="#bj"/><use transform="matrix(0.11111111111111108,0,0,0.11111111111111108,26.666666666666657,0)" xlink:href="#aB"/><use transform="matrix(0.11111111111111108,0,0,0.11111111111111108,48.88888888888887,0)" xlink:href="#aE"/><use transform="matrix(0.11111111111111108,0,0,0.11111111111111108,59.99999999999998,0)" xlink:href="#aH"/><use transform="matrix(0.11111111111111108,0,0,0.11111111111111108,68.77777777777776,0)" xlink:href="#aV"/><use transform="matrix(0.11111111111111108,0,0,0.11111111111111108,90.99999999999997,0)" xlink:href="#aF"/><use transform="matrix(0.11111111111111108,0,0,0.11111111111111108,113.22222222222219,0)" xlink:href="#aV"/><use transform="matrix(0.11111111111111108,0,0,0.11111111111111108,135.4444444444444,0)" xlink:href="#bt"/></g><g id="ap"><use transform="matrix(0.11111111111111108,0,0,0.11111111111111108,0,0)" xlink:href="#aU"/><use transform="matrix(0.11111111111111108,0,0,0.11111111111111108,28.777777777777768,0)" xlink:href="#aD"/><use transform="matrix(0.11111111111111108,0,0,0.11111111111111108,50.999999999999986,0)" xlink:href="#aR"/><use transform="matrix(0.11111111111111108,0,0,0.11111111111111108,59.77777777777776,0)" xlink:href="#aF"/><use transform="matrix(0.11111111111111108,0,0,0.11111111111111108,81.99999999999997,0)" xlink:href="#aN"/><use transform="matrix(0.11111111111111108,0,0,0.11111111111111108,101.99999999999997,0)" xlink:href="#aH"/><use transform="matrix(0.11111111111111108,0,0,0.11111111111111108,110.77777777777774,0)" xlink:href="#aT"/><use transform="matrix(0.11111111111111108,0,0,0.11111111111111108,132.99999999999994,0)" xlink:href="#aB"/></g><g id="ar"><use transform="matrix(0.06172839506172839,0,0,0.06172839506172839,0,0)" xlink:href="#ba"/><use transform="matrix(0.06172839506172839,0,0,0.06172839506172839,12.716049382716047,0)" xlink:href="#aH"/><use transform="matrix(0.06172839506172839,0,0,0.06172839506172839,17.592592592592588,0)" xlink:href="#aQ"/><use transform="matrix(0.06172839506172839,0,0,0.06172839506172839,29.938271604938265,0)" xlink:href="#aI"/></g><path fill="#333" d="M33-154v-36h34v36H33zM33 0v-36h34V0H33" id="bu"/><g id="as"><use transform="matrix(0.06172839506172839,0,0,0.06172839506172839,0,0)" xlink:href="#aD"/><use transform="matrix(0.06172839506172839,0,0,0.06172839506172839,12.345679012345679,0)" xlink:href="#aB"/><use transform="matrix(0.06172839506172839,0,0,0.06172839506172839,24.691358024691358,0)" xlink:href="#aE"/><use transform="matrix(0.06172839506172839,0,0,0.06172839506172839,30.864197530864196,0)" xlink:href="#aG"/><use transform="matrix(0.06172839506172839,0,0,0.06172839506172839,38.20987654320987,0)" xlink:href="#aD"/><use transform="matrix(0.06172839506172839,0,0,0.06172839506172839,50.55555555555555,0)" xlink:href="#aK"/><use transform="matrix(0.06172839506172839,0,0,0.06172839506172839,62.90123456790123,0)" xlink:href="#aF"/><use transform="matrix(0.06172839506172839,0,0,0.06172839506172839,75.24691358024691,0)" xlink:href="#bu"/></g><path fill="#333" d="M190 0L58-211 59 0H30v-248h39L202-35l-2-213h31V0h-41" id="bv"/><g id="at"><use transform="matrix(0.06172839506172839,0,0,0.06172839506172839,0,0)" xlink:href="#bv"/><use transform="matrix(0.06172839506172839,0,0,0.06172839506172839,15.987654320987653,0)" xlink:href="#aI"/><use transform="matrix(0.06172839506172839,0,0,0.06172839506172839,28.333333333333332,0)" xlink:href="#aG"/><use transform="matrix(0.06172839506172839,0,0,0.06172839506172839,35.67901234567901,0)" xlink:href="#bb"/><use transform="matrix(0.06172839506172839,0,0,0.06172839506172839,54.1358024691358,0)" xlink:href="#aF"/><use transform="matrix(0.06172839506172839,0,0,0.06172839506172839,66.48148148148148,0)" xlink:href="#aR"/></g><use transform="matrix(0.06172839506172839,0,0,0.06172839506172839,0,0)" xlink:href="#aI" id="au"/><path fill="#333" d="M101-234c-31-9-42 10-38 44h38v23H63V0H32v-167H5v-23h27c-7-52 17-82 69-68v24" id="bw"/><g id="av"><use transform="matrix(0.06172839506172839,0,0,0.06172839506172839,0,0)" xlink:href="#aW"/><use transform="matrix(0.06172839506172839,0,0,0.06172839506172839,13.518518518518517,0)" xlink:href="#aZ"/><use transform="matrix(0.06172839506172839,0,0,0.06172839506172839,25.864197530864196,0)" xlink:href="#aR"/><use transform="matrix(0.06172839506172839,0,0,0.06172839506172839,30.74074074074074,0)" xlink:href="#aR"/><use transform="matrix(0.06172839506172839,0,0,0.06172839506172839,35.617283950617285,0)" xlink:href="#bw"/><use transform="matrix(0.06172839506172839,0,0,0.06172839506172839,41.79012345679013,0)" xlink:href="#aH"/><use transform="matrix(0.06172839506172839,0,0,0.06172839506172839,46.66666666666667,0)" xlink:href="#aR"/><use transform="matrix(0.06172839506172839,0,0,0.06172839506172839,51.543209876543216,0)" xlink:href="#aR"/><use transform="matrix(0.06172839506172839,0,0,0.06172839506172839,56.41975308641976,0)" xlink:href="#bb"/><use transform="matrix(0.06172839506172839,0,0,0.06172839506172839,74.87654320987654,0)" xlink:href="#aD"/><use transform="matrix(0.06172839506172839,0,0,0.06172839506172839,87.22222222222223,0)" xlink:href="#aB"/><use transform="matrix(0.06172839506172839,0,0,0.06172839506172839,99.56790123456791,0)" xlink:href="#aE"/></g><g id="aw"><use transform="matrix(0.06172839506172839,0,0,0.06172839506172839,0,0)" xlink:href="#ba"/><use transform="matrix(0.06172839506172839,0,0,0.06172839506172839,12.716049382716047,0)" xlink:href="#aH"/><use transform="matrix(0.06172839506172839,0,0,0.06172839506172839,17.592592592592588,0)" xlink:href="#aD"/><use transform="matrix(0.06172839506172839,0,0,0.06172839506172839,29.938271604938265,0)" xlink:href="#bb"/><use transform="matrix(0.06172839506172839,0,0,0.06172839506172839,48.39506172839505,0)" xlink:href="#aQ"/><use transform="matrix(0.06172839506172839,0,0,0.06172839506172839,60.740740740740726,0)" xlink:href="#aI"/></g><g id="ax"><use transform="matrix(0.06172839506172839,0,0,0.06172839506172839,0,0)" xlink:href="#aQ"/><use transform="matrix(0.06172839506172839,0,0,0.06172839506172839,12.345679012345679,0)" xlink:href="#aZ"/><use transform="matrix(0.06172839506172839,0,0,0.06172839506172839,24.691358024691358,0)" xlink:href="#bs"/><use transform="matrix(0.06172839506172839,0,0,0.06172839506172839,37.03703703703704,0)" xlink:href="#aR"/><use transform="matrix(0.06172839506172839,0,0,0.06172839506172839,41.91358024691358,0)" xlink:href="#aH"/><use transform="matrix(0.06172839506172839,0,0,0.06172839506172839,46.79012345679013,0)" xlink:href="#aN"/><use transform="matrix(0.06172839506172839,0,0,0.06172839506172839,57.90123456790124,0)" xlink:href="#aF"/><use transform="matrix(0.06172839506172839,0,0,0.06172839506172839,70.24691358024693,0)" xlink:href="#aV"/><use transform="matrix(0.06172839506172839,0,0,0.06172839506172839,82.59259259259261,0)" xlink:href="#aI"/></g><g id="ay"><use transform="matrix(0.06172839506172839,0,0,0.06172839506172839,0,0)" xlink:href="#bd"/><use transform="matrix(0.06172839506172839,0,0,0.06172839506172839,15.987654320987653,0)" xlink:href="#aI"/><use transform="matrix(0.06172839506172839,0,0,0.06172839506172839,28.333333333333332,0)" xlink:href="#aB"/><use transform="matrix(0.06172839506172839,0,0,0.06172839506172839,40.67901234567901,0)" xlink:href="#aE"/><use transform="matrix(0.06172839506172839,0,0,0.06172839506172839,46.851851851851855,0)" xlink:href="#aF"/><use transform="matrix(0.06172839506172839,0,0,0.06172839506172839,59.19753086419753,0)" xlink:href="#aN"/><use transform="matrix(0.06172839506172839,0,0,0.06172839506172839,70.30864197530865,0)" xlink:href="#aE"/><use transform="matrix(0.06172839506172839,0,0,0.06172839506172839,76.48148148148148,0)" xlink:href="#aF"/></g><g id="az"><use transform="matrix(0.06172839506172839,0,0,0.06172839506172839,0,0)" xlink:href="#bq"/><use transform="matrix(0.06172839506172839,0,0,0.06172839506172839,13.580246913580245,0)" xlink:href="#aD"/><use transform="matrix(0.06172839506172839,0,0,0.06172839506172839,25.925925925925924,0)" xlink:href="#aB"/><use transform="matrix(0.06172839506172839,0,0,0.06172839506172839,38.2716049382716,0)" xlink:href="#aV"/><use transform="matrix(0.06172839506172839,0,0,0.06172839506172839,50.61728395061728,0)" xlink:href="#aI"/><use transform="matrix(0.06172839506172839,0,0,0.06172839506172839,62.962962962962955,0)" xlink:href="#aG"/></g></defs></g></svg>