<svg xmlns="http://www.w3.org/2000/svg" xmlns:xlink="http://www.w3.org/1999/xlink" xmlns:lucid="lucid" width="3772.31" height="1169.29"><g transform="translate(0 0)" lucid:page-tab-id="0_0"><path d="M160 580c0 11.05-8.95 20-20 20s-20-8.95-20-20 8.95-20 20-20 20 8.95 20 20z" stroke="#666" stroke-width="4"/><path d="M387 580h96.62" stroke="#333" fill="none"/><path d="M387 580.5h-.56l.06-.48-.02-.52h.53z" fill="#333"/><path d="M498.38 580l-14.26 4.64v-9.28z" stroke="#333" fill="#333"/><path d="M516 540c-8.84 0-16 7.16-16 16v48c0 8.84 7.16 16 16 16h128c8.84 0 16-7.16 16-16v-48c0-8.84-7.16-16-16-16z" stroke="#000" stroke-opacity="0" fill="#225798"/><use xlink:href="#a" transform="matrix(1,0,0,1,508,548) translate(17.80246913580246 24.888888888888886)"/><use xlink:href="#b" transform="matrix(1,0,0,1,508,548) translate(77.90123456790124 24.888888888888886)"/><use xlink:href="#c" transform="matrix(1,0,0,1,508,548) translate(37.456790123456784 46.22222222222222)"/><path d="M736 540c-8.84 0-16 7.16-16 16v48c0 8.84 7.16 16 16 16h128c8.84 0 16-7.16 16-16v-48c0-8.84-7.16-16-16-16z" stroke="#000" stroke-opacity="0" fill="#225798"/><use xlink:href="#d" transform="matrix(1,0,0,1,728,548) translate(7.87654320987653 24.888888888888886)"/><use xlink:href="#e" transform="matrix(1,0,0,1,728,548) translate(112.46913580246914 24.888888888888886)"/><use xlink:href="#c" transform="matrix(1,0,0,1,728,548) translate(37.456790123456784 46.22222222222222)"/><path d="M660.5 580h43.12" stroke="#333" fill="none"/><path d="M660.5 580.5h-.5v-1h.5z" fill="#333"/><path d="M718.38 580l-14.26 4.64v-9.28z" stroke="#333" fill="#333"/><path d="M880.5 580h63.12" stroke="#333" fill="none"/><path d="M880.5 580.5h-.5v-1h.5z" fill="#333"/><path d="M958.38 580l-14.26 4.64v-9.28z" stroke="#333" fill="#333"/><path d="M1896 900c-8.84 0-16 7.16-16 16v48c0 8.84 7.16 16 16 16h128c8.84 0 16-7.16 16-16v-48c0-8.84-7.16-16-16-16z" stroke="#000" stroke-opacity="0" fill="#4397ff"/><use xlink:href="#f" transform="matrix(1,0,0,1,1888,908) translate(22.172839506172835 24.888888888888886)"/><use xlink:href="#g" transform="matrix(1,0,0,1,1888,908) translate(48.839506172839506 24.888888888888886)"/><use xlink:href="#h" transform="matrix(1,0,0,1,1888,908) translate(102.07407407407408 24.888888888888886)"/><use xlink:href="#i" transform="matrix(1,0,0,1,1888,908) translate(38.46913580246913 46.22222222222222)"/><path d="M100 148c0-4.42 3.58-8 8-8h416c4.42 0 8 3.58 8 8v201.27c0 4.42-3.58 8-8 8H108c-4.42 0-8-3.58-8-8z" stroke="#333" fill="#fff"/><use xlink:href="#j" transform="matrix(1,0,0,1,105,145) translate(170.52777777777777 16)"/><path d="M166.38 193.02H310.2v20H166.38z" fill="none"/><use xlink:href="#k" transform="matrix(1,0,0,1,166.38087991429646,193.01984823845072) translate(0 14.222222222222223)"/><path d="M145.5 203.02c0 7.04-5.7 12.75-12.75 12.75-7.04 0-12.75-5.7-12.75-12.75 0-7.04 5.7-12.75 12.75-12.75 7.04 0 12.75 5.7 12.75 12.75z" stroke="#666" stroke-width="2"/><path d="M166.38 233H310.2v20H166.38z" fill="none"/><use xlink:href="#l" transform="matrix(1,0,0,1,166.38087991429646,233.01323215896713) translate(0 14.222222222222223)"/><path d="M145.5 243c0 7.05-5.7 12.76-12.75 12.76-7.04 0-12.75-5.7-12.75-12.75 0-7.03 5.7-12.74 12.75-12.74 7.04 0 12.75 5.7 12.75 12.75z" stroke="#666" stroke-width="2" fill="#fff"/><path d="M140.4 243c0 4.24-3.43 7.66-7.65 7.66-4.22 0-7.65-3.42-7.65-7.65 0-4.2 3.43-7.64 7.65-7.64 4.22 0 7.65 3.43 7.65 7.65z" stroke="#666" stroke-width="2"/><path d="M166.38 273H310.2v20H166.38z" fill="none"/><use xlink:href="#m" transform="matrix(1,0,0,1,166.38087991429646,273.00661607948354) translate(0 14.222222222222223)"/><use xlink:href="#n" transform="matrix(1,0,0,1,166.38087991429646,273.00661607948354) translate(0 35.55555555555556)"/><path d="M132.75 270.26L145.5 283l-12.75 12.76L120 283z" stroke="#666" stroke-width="2" fill="#fff"/><path d="M366 193.02h160v20H366z" fill="none"/><use xlink:href="#o" transform="matrix(1,0,0,1,366.00000000000045,193.01984823845072) translate(0 14.222222222222223)"/><use xlink:href="#p" transform="matrix(1,0,0,1,366.00000000000045,193.01984823845072) translate(0 35.55555555555556)"/><path d="M306 201.02c0-4.42 3.58-8 8-8h24c4.42 0 8 3.58 8 8v4c0 4.42-3.58 8-8 8h-24c-4.42 0-8-3.58-8-8z" stroke="#000" stroke-opacity="0" stroke-width="3"/><path d="M306 233h40l-40 18h40" stroke="#666" fill="none"/><path d="M342 249l4 2-4 2" stroke="#666" fill="none"/><path d="M306 233h40v20h-40zM366 233h143.82v20H366z" fill="none"/><use xlink:href="#q" transform="matrix(1,0,0,1,366.0000000000002,233.01323215896713) translate(0 14.222222222222223)"/><use xlink:href="#r" transform="matrix(1,0,0,1,366.0000000000002,233.01323215896713) translate(98.61728395061729 14.222222222222223)"/><use xlink:href="#s" transform="matrix(1,0,0,1,366.0000000000002,233.01323215896713) translate(0 35.55555555555556)"/><path d="M316.25 265.76h20l-9.6 17.25 9.6 17.26h-20l9.6-17.25z" stroke="#666" fill="#fff"/><path d="M366 273h143.82v20H366z" fill="none"/><use xlink:href="#t" transform="matrix(1,0,0,1,366.0000000000002,273.00661607948354) translate(0 14.222222222222223)"/><use xlink:href="#u" transform="matrix(1,0,0,1,366.0000000000002,273.00661607948354) translate(60.24691358024692 14.222222222222223)"/><path d="M145.5 323c0 7.04-5.7 12.75-12.75 12.75-7.04 0-12.75-5.7-12.75-12.75 0-7.04 5.7-12.75 12.75-12.75 7.04 0 12.75 5.7 12.75 12.75z" stroke="#666" stroke-width="2" fill="#fff"/><path d="M123.73 313.98l18.04 18.04m0-18.04l-18.04 18.04" stroke="#666" stroke-width="2" fill="none"/><path d="M166.38 313H310.2v20H166.38z" fill="none"/><use xlink:href="#v" transform="matrix(1,0,0,1,166.38087991429646,312.99999999999994) translate(0 14.222222222222223)"/><use xlink:href="#w" transform="matrix(1,0,0,1,166.38087991429646,312.99999999999994) translate(43.308641975308646 14.222222222222223)"/><path d="M1841.2 771.5V928c0 6.63 5.36 12 12 12h10.42" stroke="#333" fill="none"/><path d="M1841.7 771.5h-1v-.5h1z" fill="#333"/><path d="M1878.38 940l-14.26 4.64v-9.28z" stroke="#333" fill="#333"/><path d="M1700.5 630.5h128.7c6.62 0 12 5.37 12 12v67" stroke="#333" fill="none"/><path d="M1700.5 631h-.5v-1h.5zM1841.7 710h-1v-.5h1z" fill="#333"/><path d="M2040.5 940h63.12" stroke="#333" fill="none"/><path d="M2040.5 940.5h-.5v-1h.5z" fill="#333"/><path d="M2118.38 940l-14.26 4.64v-9.28z" stroke="#333" fill="#333"/><path d="M1820 710.5h40l-19.2 30 19.2 30h-40l19.2-30z" stroke="#666" fill="#f6f6f7"/><use xlink:href="#x" transform="matrix(1,0,0,1,1780,775.5) translate(20.987654320987644 18.555555555555557)"/><use xlink:href="#y" transform="matrix(1,0,0,1,1780,775.5) translate(35.80246913580246 18.555555555555557)"/><use xlink:href="#z" transform="matrix(1,0,0,1,1780,775.5) translate(50.61728395061728 18.555555555555557)"/><use xlink:href="#A" transform="matrix(1,0,0,1,1780,775.5) translate(65.4320987654321 18.555555555555557)"/><path d="M2420 880l20 20-20 20-20-20z" stroke="#113667" stroke-width="4" fill="#fff"/><path d="M2136 900c-8.84 0-16 7.16-16 16v48c0 8.84 7.16 16 16 16h128c8.84 0 16-7.16 16-16v-48c0-8.84-7.16-16-16-16z" stroke="#000" stroke-opacity="0" fill="#4397ff"/><use xlink:href="#B" transform="matrix(1,0,0,1,2128,908) translate(16.24691358024691 14.222222222222223)"/><use xlink:href="#C" transform="matrix(1,0,0,1,2128,908) translate(108 14.222222222222223)"/><use xlink:href="#D" transform="matrix(1,0,0,1,2128,908) translate(31.08641975308641 35.55555555555556)"/><use xlink:href="#E" transform="matrix(1,0,0,1,2128,908) translate(38.44444444444444 56.88888888888889)"/><path d="M2956 960c-8.84 0-16 7.16-16 16v48c0 8.84 7.16 16 16 16h128c8.84 0 16-7.16 16-16v-48c0-8.84-7.16-16-16-16z" stroke="#000" stroke-opacity="0" fill="#4397ff"/><use xlink:href="#F" transform="matrix(1,0,0,1,2948,968) translate(14.790123456790113 14.222222222222223)"/><use xlink:href="#C" transform="matrix(1,0,0,1,2948,968) translate(109.4567901234568 14.222222222222223)"/><use xlink:href="#G" transform="matrix(1,0,0,1,2948,968) translate(27.580246913580247 35.55555555555556)"/><use xlink:href="#H" transform="matrix(1,0,0,1,2948,968) translate(106.54320987654322 35.55555555555556)"/><use xlink:href="#I" transform="matrix(1,0,0,1,2948,968) translate(46.37037037037037 56.88888888888889)"/><path d="M580 110.03c0-4.4 3.58-8 8-8h2484c4.42 0 8 3.6 8 8v277.2c0 4.42-3.58 8-8 8H588c-4.42 0-8-3.58-8-8z" stroke="#000" stroke-opacity="0" fill="#fff" fill-opacity="0"/><use xlink:href="#J" transform="matrix(1,0,0,1,585,107.03492411922574) translate(0 163.62222222222198)"/><use xlink:href="#K" transform="matrix(1,0,0,1,585,107.03492411922574) translate(532.5777777777763 163.62222222222198)"/><use xlink:href="#L" transform="matrix(1,0,0,1,585,107.03492411922574) translate(693.3802469135783 163.62222222222198)"/><use xlink:href="#M" transform="matrix(1,0,0,1,585,107.03492411922574) translate(1136.8734567901204 163.62222222222198)"/><path d="M116.6 1060H88c-4.42 0-8-3.58-8-8V428c0-4.42 3.58-8 8-8h28.6zM117.1 420h55.88v320H117.1M117.1 740h55.88v320H117.1" stroke="#333" fill="#fff"/><path d="M172.98 420H3672c4.42 0 8 3.58 8 8v312H172.98zM3680 740v312c0 4.42-3.58 8-8 8H172.98V740z" stroke="#333" fill="none"/><use xlink:href="#N" transform="matrix(-1.8369701987210297e-16,-1,1,-1.8369701987210297e-16,80,1060) translate(232.05 22.1)"/><use xlink:href="#O" transform="matrix(-1.8369701987210297e-16,-1,1,-1.8369701987210297e-16,80,1060) translate(304 22.1)"/><use xlink:href="#P" transform="matrix(-1.8369701987210297e-16,-1,1,-1.8369701987210297e-16,80,1060) translate(329 22.1)"/><use xlink:href="#Q" transform="matrix(-1.8369701987210297e-16,-1,1,-1.8369701987210297e-16,116.60000000000002,740) translate(80.64999999999999 32.1)"/><use xlink:href="#R" transform="matrix(-1.8369701987210297e-16,-1,1,-1.8369701987210297e-16,116.60000000000002,740) translate(141.5 32.1)"/><use xlink:href="#S" transform="matrix(-1.8369701987210297e-16,-1,1,-1.8369701987210297e-16,116.60000000000002,1060) translate(122.55 32.1)"/><path d="M2280.5 940h43.12" stroke="#333" fill="none"/><path d="M2280.5 940.5h-.5v-1h.5z" fill="#333"/><path d="M2338.38 940l-14.26 4.64v-9.28z" stroke="#333" fill="#333"/><path d="M3236 520c-8.84 0-16 7.16-16 16v48c0 8.84 7.16 16 16 16h128c8.84 0 16-7.16 16-16v-48c0-8.84-7.16-16-16-16z" stroke="#000" stroke-opacity="0" fill="#4397ff"/><use xlink:href="#a" transform="matrix(1,0,0,1,3228,528) translate(17.80246913580246 24.888888888888886)"/><use xlink:href="#b" transform="matrix(1,0,0,1,3228,528) translate(77.90123456790124 24.888888888888886)"/><use xlink:href="#c" transform="matrix(1,0,0,1,3228,528) translate(37.456790123456784 46.22222222222222)"/><path d="M2900.5 1000h23.12" stroke="#333" fill="none"/><path d="M2900.5 1000.5h-.5v-1h.5z" fill="#333"/><path d="M2938.38 1000l-14.26 4.64v-9.28z" stroke="#333" fill="#333"/><path d="M2420.5 987.97l.4 3 1.14 2.77 1.83 2.4 2.4 1.82 2.75 1.14 3 .4h10.74v1h-10.8l-3.2-.42-3-1.24-2.6-2-2-2.6-1.24-3-.42-3.2v-64.7h1zm303.12 11.53v1h-140.06v-1z" fill="#333"/><path d="M2420.5 923.34h-1v-1l.5.5.5-.5zM2738.38 1000l-14.26 4.64v-9.28z" fill="#333"/><path d="M2740 1000l-16.38 5.32v-10.64zm-15.38 3.95l12.14-3.95-12.14-3.95z" fill="#333"/><use xlink:href="#T" transform="matrix(1,0,0,1,2442.758476248407,989.2) translate(0.0049999999999954525 14.4)"/><use xlink:href="#U" transform="matrix(1,0,0,1,2442.758476248407,989.2) translate(51.955 14.4)"/><path d="M2680.5 810.5h43.12" stroke="#333" fill="none"/><path d="M2680.5 811h-.5v-1h.5z" fill="#333"/><path d="M2738.38 810.5l-14.26 4.64v-9.28z" stroke="#333" fill="#333"/><path d="M2459 781h-26.97l-3 .4-2.77 1.14-2.4 1.83-1.82 2.4-1.14 2.75-.4 3v84.15h-1v-84.2l.42-3.2 1.24-3 2-2.6 2.6-2 3-1.25 3.2-.42H2459zm184.62 0h-43.82v-1h43.82zM2420.5 877.67l-.5-.5-.5.5v-1h1zM2658.38 780.5l-14.26 4.64v-9.28z" fill="#333"/><path d="M2660 780.5l-16.38 5.32v-10.64zm-15.38 3.95l12.14-3.95-12.14-3.95z" fill="#333"/><use xlink:href="#T" transform="matrix(1,0,0,1,2459.002954615682,769.7) translate(0.0049999999999954525 14.4)"/><use xlink:href="#V" transform="matrix(1,0,0,1,2459.002954615682,769.7) translate(51.955 14.4)"/><path d="M2756 770.5c-8.84 0-16 7.16-16 16v48c0 8.84 7.16 16 16 16h128c8.84 0 16-7.16 16-16v-48c0-8.84-7.16-16-16-16z" stroke="#000" stroke-opacity="0" fill="#4397ff"/><use xlink:href="#W" transform="matrix(1,0,0,1,2748,778.5) translate(19.654320987654316 14.222222222222223)"/><use xlink:href="#h" transform="matrix(1,0,0,1,2748,778.5) translate(104.5925925925926 14.222222222222223)"/><use xlink:href="#X" transform="matrix(1,0,0,1,2748,778.5) translate(26.123456790123456 35.55555555555556)"/><use xlink:href="#C" transform="matrix(1,0,0,1,2748,778.5) translate(98.12345679012346 35.55555555555556)"/><use xlink:href="#c" transform="matrix(1,0,0,1,2748,778.5) translate(37.456790123456784 56.88888888888889)"/><path d="M2956 770.5c-8.84 0-16 7.16-16 16v48c0 8.84 7.16 16 16 16h128c8.84 0 16-7.16 16-16v-48c0-8.84-7.16-16-16-16z" stroke="#000" stroke-opacity="0" fill="#4397ff"/><use xlink:href="#Y" transform="matrix(1,0,0,1,2948,778.5) translate(36.938271604938265 24.888888888888886)"/><use xlink:href="#C" transform="matrix(1,0,0,1,2948,778.5) translate(87.30864197530863 24.888888888888886)"/><use xlink:href="#c" transform="matrix(1,0,0,1,2948,778.5) translate(37.456790123456784 46.22222222222222)"/><path d="M2900.5 810.5h23.12" stroke="#333" fill="none"/><path d="M2900.5 811h-.5v-1h.5z" fill="#333"/><path d="M2938.38 810.5l-14.26 4.64v-9.28z" stroke="#333" fill="#333"/><path d="M3120 649v-77c0-6.63 5.37-12 12-12h71.62" stroke="#333" fill="none"/><path d="M3120.5 649.5h-1v-.5h1z" fill="#333"/><path d="M3218.38 560l-14.26 4.64v-9.28z" stroke="#333" fill="#333"/><path d="M3100 650h40l-19.2 30 19.2 30h-40l19.2-30z" stroke="#666" fill="#f6f6f7"/><use xlink:href="#Z" transform="matrix(1,0,0,1,3060,715) translate(20.987654320987644 18.555555555555557)"/><use xlink:href="#y" transform="matrix(1,0,0,1,3060,715) translate(35.80246913580246 18.555555555555557)"/><use xlink:href="#z" transform="matrix(1,0,0,1,3060,715) translate(50.61728395061728 18.555555555555557)"/><use xlink:href="#A" transform="matrix(1,0,0,1,3060,715) translate(65.4320987654321 18.555555555555557)"/><path d="M3100.5 810.5h9.04c6.62 0 12-5.37 12-12V711" stroke="#333" fill="none"/><path d="M3100.5 811h-.5v-1h.5zM3122.04 711h-1v-.5h1z" fill="#333"/><path d="M3623.75 610c0 11.05-8.95 20-20 20s-20-8.95-20-20 8.95-20 20-20 20 8.95 20 20z" stroke="#666" stroke-width="4" fill="#fff"/><path d="M3615.75 610c0 6.63-5.37 12-12 12s-12-5.37-12-12 5.37-12 12-12 12 5.37 12 12z" stroke="#666" stroke-width="4"/><path d="M3480.5 610h84.86" stroke="#333" fill="none"/><path d="M3480.5 610.5h-.5v-1h.5z" fill="#333"/><path d="M3580.13 610l-14.27 4.64v-9.28z" stroke="#333" fill="#333"/><path d="M3100.5 1000H3268c6.63 0 12-5.37 12-12V657c0-6.63 5.37-12 12-12h151.62" stroke="#333" fill="none"/><path d="M3100.5 1000.5h-.5v-1h.5z" fill="#333"/><path d="M3458.38 645l-14.26 4.64v-9.28z" stroke="#333" fill="#333"/><path d="M3468 680c-4.42 0-8-3.58-8-8V548c0-4.42 3.58-8 8-8h4c4.42 0 8 3.58 8 8v124c0 4.42-3.58 8-8 8z" stroke="#000" stroke-opacity="0"/><path d="M3380.5 560h32c4.14 0 7.5 3.36 7.5 7.5 0 4.14 3.36 7.5 7.5 7.5h16.12" stroke="#333" fill="none"/><path d="M3380.5 560.5h-.5v-1h.5z" fill="#333"/><path d="M3458.38 575l-14.26 4.64v-9.28z" stroke="#333" fill="#333"/><path d="M386 580c0 11.05-8.95 20-20 20s-20-8.95-20-20 8.95-20 20-20 20 8.95 20 20z" stroke="#333"/><path d="M968 660c-4.42 0-8-3.58-8-8V508c0-4.42 3.58-8 8-8h4c4.42 0 8 3.58 8 8v144c0 4.42-3.58 8-8 8z" stroke="#000" stroke-opacity="0"/><path d="M1056 540c-8.84 0-16 7.16-16 16v48c0 8.84 7.16 16 16 16h128c8.84 0 16-7.16 16-16v-48c0-8.84-7.16-16-16-16z" stroke="#000" stroke-opacity="0" fill="#225798"/><use xlink:href="#aa" transform="matrix(1,0,0,1,1048,548) translate(29.061728395061714 24.888888888888886)"/><use xlink:href="#H" transform="matrix(1,0,0,1,1048,548) translate(105.06172839506175 24.888888888888886)"/><use xlink:href="#ab" transform="matrix(1,0,0,1,1048,548) translate(34.98765432098765 46.22222222222222)"/><path d="M1056 640c-8.84 0-16 7.16-16 16v48c0 8.84 7.16 16 16 16h128c8.84 0 16-7.16 16-16v-48c0-8.84-7.16-16-16-16z" stroke="#000" stroke-opacity="0" fill="#225798"/><use xlink:href="#ac" transform="matrix(1,0,0,1,1048,648) translate(6.395061728395049 14.222222222222223)"/><use xlink:href="#ad" transform="matrix(1,0,0,1,1048,648) translate(78.34567901234568 14.222222222222223)"/><use xlink:href="#ae" transform="matrix(1,0,0,1,1048,648) translate(103.03703703703705 14.222222222222223)"/><use xlink:href="#ad" transform="matrix(1,0,0,1,1048,648) translate(9.827160493827144 35.55555555555556)"/><use xlink:href="#af" transform="matrix(1,0,0,1,1048,648) translate(34.518518518518505 35.55555555555556)"/><use xlink:href="#H" transform="matrix(1,0,0,1,1048,648) translate(124.2962962962963 35.55555555555556)"/><use xlink:href="#ag" transform="matrix(1,0,0,1,1048,648) translate(26.148148148148145 56.88888888888889)"/><path d="M980.5 580h43.12" stroke="#333" fill="none"/><path d="M980.5 580.5h-.5v-1h.5z" fill="#333"/><path d="M1038.38 580l-14.26 4.64v-9.28z" stroke="#333" fill="#333"/><path d="M1256 640c-8.84 0-16 7.16-16 16v48c0 8.84 7.16 16 16 16h128c8.84 0 16-7.16 16-16v-48c0-8.84-7.16-16-16-16z" stroke="#000" stroke-opacity="0" fill="#225798"/><g><use xlink:href="#ah" transform="matrix(1,0,0,1,1248,648) translate(8.320987654320987 35.55555555555556)"/><use xlink:href="#ad" transform="matrix(1,0,0,1,1248,648) translate(76.41975308641976 35.55555555555556)"/><use xlink:href="#ai" transform="matrix(1,0,0,1,1248,648) translate(101.11111111111111 35.55555555555556)"/></g><path d="M980.5 620H998c6.63 0 12 5.37 12 12v36c0 6.63 5.37 12 12 12h1.62" stroke="#333" fill="none"/><path d="M980.5 620.5h-.5v-1h.5z" fill="#333"/><path d="M1038.38 680l-14.26 4.64v-9.28z" stroke="#333" fill="#333"/><path d="M1200.5 680h23.12" stroke="#333" fill="none"/><path d="M1200.5 680.5h-.5v-1h.5z" fill="#333"/><path d="M1238.38 680l-14.26 4.64v-9.28z" stroke="#333" fill="#333"/><g><path d="M1468 710.5c-4.42 0-8-3.58-8-8v-144c0-4.42 3.58-8 8-8h4c4.42 0 8 3.58 8 8v144c0 4.42-3.58 8-8 8z" stroke="#000" stroke-opacity="0"/></g><path d="M1200.5 580h23.12" stroke="#333" fill="none"/><path d="M1200.5 580.5h-.5v-1h.5z" fill="#333"/><path d="M1238.38 580l-14.26 4.64v-9.28z" stroke="#333" fill="#333"/><path d="M1400.5 680h24.75c2.62 0 4.75-2.13 4.75-4.75s2.13-4.75 4.75-4.75h8.87" stroke="#333" fill="none"/><path d="M1400.5 680.5h-.5v-1h.5z" fill="#333"/><path d="M1458.38 670.5l-14.26 4.64v-9.28z" stroke="#333" fill="#333"/><path d="M1256 540c-8.84 0-16 7.16-16 16v48c0 8.84 7.16 16 16 16h128c8.84 0 16-7.16 16-16v-48c0-8.84-7.16-16-16-16z" stroke="#000" stroke-opacity="0" fill="#225798"/><g><use xlink:href="#aj" transform="matrix(1,0,0,1,1248,548) translate(44.913580246913575 14.222222222222223)"/><use xlink:href="#ak" transform="matrix(1,0,0,1,1248,548) translate(21.703703703703702 35.55555555555556)"/><use xlink:href="#H" transform="matrix(1,0,0,1,1248,548) translate(112.41975308641975 35.55555555555556)"/><use xlink:href="#ab" transform="matrix(1,0,0,1,1248,548) translate(34.98765432098765 56.88888888888889)"/></g><path d="M1400.5 580h24.25c2.9 0 5.25 2.35 5.25 5.25s2.35 5.25 5.25 5.25h8.37" stroke="#333" fill="none"/><path d="M1400.5 580.5h-.5v-1h.5z" fill="#333"/><path d="M1458.38 590.5l-14.26 4.64v-9.28z" stroke="#333" fill="#333"/><path d="M1556 590.5c-8.84 0-16 7.16-16 16v48c0 8.84 7.16 16 16 16h128c8.84 0 16-7.16 16-16v-48c0-8.84-7.16-16-16-16z" stroke="#000" stroke-opacity="0" fill="#225798"/><g><use xlink:href="#Y" transform="matrix(1,0,0,1,1548,598.5) translate(36.938271604938265 24.888888888888886)"/><use xlink:href="#C" transform="matrix(1,0,0,1,1548,598.5) translate(87.30864197530863 24.888888888888886)"/><use xlink:href="#al" transform="matrix(1,0,0,1,1548,598.5) translate(1.4320987654320874 46.22222222222222)"/><use xlink:href="#am" transform="matrix(1,0,0,1,1548,598.5) translate(75.4567901234568 46.22222222222222)"/></g><path d="M1480.5 630.5h43.12" stroke="#333" fill="none"/><path d="M1480.5 631h-.5v-1h.5z" fill="#333"/><path d="M1538.38 630.5l-14.26 4.64v-9.28z" stroke="#333" fill="#333"/><path d="M2463.88 900.5h-20.55v-1h20.55zm179.74-59.5h-80.17l-3.02.4-2.75 1.14-2.4 1.83-1.83 2.4-1.14 2.75-.4 3v35.5l-.14 1.18h-1l.15-1.23v-35.5l.44-3.2 1.24-3 2-2.6 2.6-2 3-1.25 3.2-.42h80.24z" fill="#333"/><path d="M2443.34 900.5h-1l.5-.5-.5-.5h1zM2658.38 840.5l-14.26 4.64v-9.28z" fill="#333"/><path d="M2660 840.5l-16.38 5.32v-10.64zm-15.38 3.95l12.14-3.95-12.14-3.95z" fill="#333"/><g><use xlink:href="#an" transform="matrix(1,0,0,1,2463.8794999768857,889.2) translate(0.0049999999999954525 14.4)"/><use xlink:href="#O" transform="matrix(1,0,0,1,2463.8794999768857,889.2) translate(71.855 14.4)"/><use xlink:href="#ao" transform="matrix(1,0,0,1,2463.8794999768857,889.2) translate(96.855 14.4)"/></g><path d="M1048 440c-4.42 0-8 3.58-8 8v24c0 4.42 3.58 8 8 8h1164c4.42 0 8-3.58 8-8v-24c0-4.42-3.58-8-8-8z" stroke="#000" stroke-opacity="0" fill="#225798"/><g><use xlink:href="#ap" transform="matrix(1,0,0,1,1048,448) translate(475.9506172839506 15.555555555555555)"/><use xlink:href="#ad" transform="matrix(1,0,0,1,1048,448) translate(578.5185185185185 15.555555555555555)"/><use xlink:href="#aq" transform="matrix(1,0,0,1,1048,448) translate(603.2098765432099 15.555555555555555)"/></g><path d="M980.5 540h8.5c6.63 0 12-5.37 12-12v-56c0-6.63 5.37-12 12-12h10.62" stroke="#333" fill="none"/><path d="M980.5 540.5h-.5v-1h.5z" fill="#333"/><path d="M1038.38 460l-14.26 4.64v-9.28z" stroke="#333" fill="#333"/><g><path d="M2348 980c-4.42 0-8-3.58-8-8V828c0-4.42 3.58-8 8-8h4c4.42 0 8 3.58 8 8v144c0 4.42-3.58 8-8 8z" stroke="#000" stroke-opacity="0"/></g><path d="M2220.5 460h47.5c6.63 0 12 5.37 12 12v376c0 6.63 5.37 12 12 12h31.62" stroke="#333" fill="none"/><path d="M2220.5 460.5h-.5v-1h.5z" fill="#333"/><path d="M2338.38 860l-14.26 4.64v-9.28z" stroke="#333" fill="#333"/><path d="M2360.5 900h20.3" stroke="#333" fill="none"/><path d="M2360.5 900.5h-.5v-1h.5z" fill="#333"/><path d="M2395.55 900l-14.26 4.64v-9.28z" stroke="#333" fill="#333"/><path d="M2756 960c-8.84 0-16 7.16-16 16v48c0 8.84 7.16 16 16 16h128c8.84 0 16-7.16 16-16v-48c0-8.84-7.16-16-16-16z" stroke="#000" stroke-opacity="0" fill="#4397ff"/><g><use xlink:href="#ar" transform="matrix(1,0,0,1,2748,968) translate(17.259259259259252 14.222222222222223)"/><use xlink:href="#C" transform="matrix(1,0,0,1,2748,968) translate(106.98765432098766 14.222222222222223)"/><use xlink:href="#as" transform="matrix(1,0,0,1,2748,968) translate(10.790123456790113 35.55555555555556)"/><use xlink:href="#ad" transform="matrix(1,0,0,1,2748,968) translate(73.01234567901236 35.55555555555556)"/><use xlink:href="#at" transform="matrix(1,0,0,1,2748,968) translate(97.70370370370371 35.55555555555556)"/><use xlink:href="#au" transform="matrix(1,0,0,1,2748,968) translate(30.592592592592588 56.88888888888889)"/></g><g><path d="M2668 870.5c-4.42 0-8-3.58-8-8v-104c0-4.42 3.58-8 8-8h4c4.42 0 8 3.58 8 8v104c0 4.42-3.58 8-8 8z" stroke="#000" stroke-opacity="0"/></g><defs><path fill="#fff" d="M212-179c-10-28-35-45-73-45-59 0-87 40-87 99 0 60 29 101 89 101 43 0 62-24 78-52l27 14C228-24 195 4 139 4 59 4 22-46 18-125c-6-104 99-153 187-111 19 9 31 26 39 46" id="av"/><path fill="#fff" d="M24 0v-261h32V0H24" id="aw"/><path fill="#fff" d="M24-231v-30h32v30H24zM24 0v-190h32V0H24" id="ax"/><path fill="#fff" d="M100-194c63 0 86 42 84 106H49c0 40 14 67 53 68 26 1 43-12 49-29l28 8c-11 28-37 45-77 45C44 4 14-33 15-96c1-61 26-98 85-98zm52 81c6-60-76-77-97-28-3 7-6 17-6 28h103" id="ay"/><path fill="#fff" d="M117-194c89-4 53 116 60 194h-32v-121c0-31-8-49-39-48C34-167 62-67 57 0H25l-1-190h30c1 10-1 24 2 32 11-22 29-35 61-36" id="az"/><path fill="#fff" d="M59-47c-2 24 18 29 38 22v24C64 9 27 4 27-40v-127H5v-23h24l9-43h21v43h35v23H59v120" id="aA"/><g id="a"><use transform="matrix(0.04938271604938272,0,0,0.04938271604938272,0,0)" xlink:href="#av"/><use transform="matrix(0.04938271604938272,0,0,0.04938271604938272,12.790123456790125,0)" xlink:href="#aw"/><use transform="matrix(0.04938271604938272,0,0,0.04938271604938272,16.69135802469136,0)" xlink:href="#ax"/><use transform="matrix(0.04938271604938272,0,0,0.04938271604938272,20.592592592592595,0)" xlink:href="#ay"/><use transform="matrix(0.04938271604938272,0,0,0.04938271604938272,30.46913580246914,0)" xlink:href="#az"/><use transform="matrix(0.04938271604938272,0,0,0.04938271604938272,40.345679012345684,0)" xlink:href="#aA"/><use transform="matrix(0.04938271604938272,0,0,0.04938271604938272,45.283950617283956,0)" xlink:href="#ay"/></g><path fill="#fff" d="M114-163C36-179 61-72 57 0H25l-1-190h30c1 12-1 29 2 39 6-27 23-49 58-41v29" id="aB"/><path fill="#fff" d="M96-169c-40 0-48 33-48 73s9 75 48 75c24 0 41-14 43-38l32 2c-6 37-31 61-74 61-59 0-76-41-82-99-10-93 101-131 147-64 4 7 5 14 7 22l-32 3c-4-21-16-35-41-35" id="aC"/><path fill="#fff" d="M115-194c53 0 69 39 70 98 0 66-23 100-70 100C84 3 66-7 56-30L54 0H23l1-261h32v101c10-23 28-34 59-34zm-8 174c40 0 45-34 45-75 0-40-5-75-45-74-42 0-51 32-51 76 0 43 10 73 51 73" id="aD"/><g id="b"><use transform="matrix(0.04938271604938272,0,0,0.04938271604938272,0,0)" xlink:href="#aB"/><use transform="matrix(0.04938271604938272,0,0,0.04938271604938272,5.8765432098765435,0)" xlink:href="#ay"/><use transform="matrix(0.04938271604938272,0,0,0.04938271604938272,15.753086419753087,0)" xlink:href="#aC"/><use transform="matrix(0.04938271604938272,0,0,0.04938271604938272,24.641975308641978,0)" xlink:href="#ax"/><use transform="matrix(0.04938271604938272,0,0,0.04938271604938272,28.543209876543212,0)" xlink:href="#aD"/><use transform="matrix(0.04938271604938272,0,0,0.04938271604938272,38.41975308641976,0)" xlink:href="#ay"/></g><path fill="#fff" d="M115-194c55 1 70 41 70 98S169 2 115 4C84 4 66-9 55-30l1 105H24l-1-265h31l2 30c10-21 28-34 59-34zm-8 174c40 0 45-34 45-75s-6-73-45-74c-42 0-51 32-51 76 0 43 10 73 51 73" id="aE"/><path fill="#fff" d="M100-194c62-1 85 37 85 99 1 63-27 99-86 99S16-35 15-95c0-66 28-99 85-99zM99-20c44 1 53-31 53-75 0-43-8-75-51-75s-53 32-53 75 10 74 51 75" id="aF"/><path fill="#fff" d="M85-194c31 0 48 13 60 33l-1-100h32l1 261h-30c-2-10 0-23-3-31C134-8 116 4 85 4 32 4 16-35 15-94c0-66 23-100 70-100zm9 24c-40 0-46 34-46 75 0 40 6 74 45 74 42 0 51-32 51-76 0-42-9-74-50-73" id="aG"/><path fill="#fff" d="M84 4C-5 8 30-112 23-190h32v120c0 31 7 50 39 49 72-2 45-101 50-169h31l1 190h-30c-1-10 1-25-2-33-11 22-28 36-60 37" id="aH"/><g id="c"><use transform="matrix(0.04938271604938272,0,0,0.04938271604938272,0,0)" xlink:href="#aE"/><use transform="matrix(0.04938271604938272,0,0,0.04938271604938272,9.876543209876544,0)" xlink:href="#aB"/><use transform="matrix(0.04938271604938272,0,0,0.04938271604938272,15.753086419753087,0)" xlink:href="#aF"/><use transform="matrix(0.04938271604938272,0,0,0.04938271604938272,25.629629629629633,0)" xlink:href="#aG"/><use transform="matrix(0.04938271604938272,0,0,0.04938271604938272,35.50617283950618,0)" xlink:href="#aH"/><use transform="matrix(0.04938271604938272,0,0,0.04938271604938272,45.38271604938272,0)" xlink:href="#aC"/><use transform="matrix(0.04938271604938272,0,0,0.04938271604938272,54.27160493827161,0)" xlink:href="#aA"/><use transform="matrix(0.04938271604938272,0,0,0.04938271604938272,59.20987654320988,0)" xlink:href="#aF"/></g><path fill="#fff" d="M140-251c81 0 123 46 123 126C263-46 219 4 140 4 59 4 17-45 17-125s42-126 123-126zm0 227c63 0 89-41 89-101s-29-99-89-99c-61 0-89 39-89 99S79-25 140-24" id="aI"/><path fill="#fff" d="M135-143c-3-34-86-38-87 0 15 53 115 12 119 90S17 21 10-45l28-5c4 36 97 45 98 0-10-56-113-15-118-90-4-57 82-63 122-42 12 7 21 19 24 35" id="aJ"/><path fill="#fff" d="M108 0H70L1-190h34L89-25l56-165h34" id="aK"/><path fill="#fff" d="M141-36C126-15 110 5 73 4 37 3 15-17 15-53c-1-64 63-63 125-63 3-35-9-54-41-54-24 1-41 7-42 31l-33-3c5-37 33-52 76-52 45 0 72 20 72 64v82c-1 20 7 32 28 27v20c-31 9-61-2-59-35zM48-53c0 20 12 33 32 33 41-3 63-29 60-74-43 2-92-5-92 41" id="aL"/><path fill="#fff" d="M100-194c62-1 85 37 85 99 1 63-27 99-86 99S16-35 15-95c0-66 28-99 85-99zM99-20c44 1 53-31 53-75 0-43-8-75-51-75s-53 32-53 75 10 74 51 75zM76-211c8-23 27-35 38-54h36v5l-58 49H76" id="aM"/><g id="d"><use transform="matrix(0.04938271604938272,0,0,0.04938271604938272,0,0)" xlink:href="#aI"/><use transform="matrix(0.04938271604938272,0,0,0.04938271604938272,13.827160493827162,0)" xlink:href="#aD"/><use transform="matrix(0.04938271604938272,0,0,0.04938271604938272,23.703703703703706,0)" xlink:href="#aJ"/><use transform="matrix(0.04938271604938272,0,0,0.04938271604938272,32.592592592592595,0)" xlink:href="#ay"/><use transform="matrix(0.04938271604938272,0,0,0.04938271604938272,42.46913580246914,0)" xlink:href="#aB"/><use transform="matrix(0.04938271604938272,0,0,0.04938271604938272,48.345679012345684,0)" xlink:href="#aK"/><use transform="matrix(0.04938271604938272,0,0,0.04938271604938272,57.23456790123457,0)" xlink:href="#aL"/><use transform="matrix(0.04938271604938272,0,0,0.04938271604938272,67.11111111111111,0)" xlink:href="#aC"/><use transform="matrix(0.04938271604938272,0,0,0.04938271604938272,76,0)" xlink:href="#ax"/><use transform="matrix(0.04938271604938272,0,0,0.04938271604938272,79.90123456790124,0)" xlink:href="#aM"/><use transform="matrix(0.04938271604938272,0,0,0.04938271604938272,89.77777777777779,0)" xlink:href="#az"/></g><g id="e"><use transform="matrix(0.04938271604938272,0,0,0.04938271604938272,0,0)" xlink:href="#aG"/><use transform="matrix(0.04938271604938272,0,0,0.04938271604938272,9.876543209876544,0)" xlink:href="#ay"/><use transform="matrix(0.04938271604938272,0,0,0.04938271604938272,19.75308641975309,0)" xlink:href="#aw"/></g><path fill="#fff" d="M185-189c-5-48-123-54-124 2 14 75 158 14 163 119 3 78-121 87-175 55-17-10-28-26-33-46l33-7c5 56 141 63 141-1 0-78-155-14-162-118-5-82 145-84 179-34 5 7 8 16 11 25" id="aN"/><g id="f"><use transform="matrix(0.04938271604938272,0,0,0.04938271604938272,0,0)" xlink:href="#aN"/><use transform="matrix(0.04938271604938272,0,0,0.04938271604938272,11.851851851851853,0)" xlink:href="#ay"/></g><g id="g"><use transform="matrix(0.04938271604938272,0,0,0.04938271604938272,0,0)" xlink:href="#aB"/><use transform="matrix(0.04938271604938272,0,0,0.04938271604938272,5.8765432098765435,0)" xlink:href="#ay"/><use transform="matrix(0.04938271604938272,0,0,0.04938271604938272,15.753086419753087,0)" xlink:href="#aC"/><use transform="matrix(0.04938271604938272,0,0,0.04938271604938272,24.641975308641978,0)" xlink:href="#ax"/><use transform="matrix(0.04938271604938272,0,0,0.04938271604938272,28.543209876543212,0)" xlink:href="#aD"/><use transform="matrix(0.04938271604938272,0,0,0.04938271604938272,38.41975308641976,0)" xlink:href="#ay"/></g><g id="h"><use transform="matrix(0.04938271604938272,0,0,0.04938271604938272,0,0)" xlink:href="#ay"/><use transform="matrix(0.04938271604938272,0,0,0.04938271604938272,9.876543209876544,0)" xlink:href="#az"/></g><path fill="#fff" d="M210-169c-67 3-38 105-44 169h-31v-121c0-29-5-50-35-48C34-165 62-65 56 0H25l-1-190h30c1 10-1 24 2 32 10-44 99-50 107 0 11-21 27-35 58-36 85-2 47 119 55 194h-31v-121c0-29-5-49-35-48" id="aO"/><g id="i"><use transform="matrix(0.04938271604938272,0,0,0.04938271604938272,0,0)" xlink:href="#aL"/><use transform="matrix(0.04938271604938272,0,0,0.04938271604938272,9.876543209876544,0)" xlink:href="#aw"/><use transform="matrix(0.04938271604938272,0,0,0.04938271604938272,13.777777777777779,0)" xlink:href="#aO"/><use transform="matrix(0.04938271604938272,0,0,0.04938271604938272,28.543209876543212,0)" xlink:href="#aL"/><use transform="matrix(0.04938271604938272,0,0,0.04938271604938272,38.41975308641976,0)" xlink:href="#aC"/><use transform="matrix(0.04938271604938272,0,0,0.04938271604938272,47.308641975308646,0)" xlink:href="#ay"/><use transform="matrix(0.04938271604938272,0,0,0.04938271604938272,57.18518518518519,0)" xlink:href="#az"/></g><path fill="#333" d="M24 0v-248h52v208h133V0H24" id="aP"/><path fill="#333" d="M185-48c-13 30-37 53-82 52C43 2 14-33 14-96s30-98 90-98c62 0 83 45 84 108H66c0 31 8 55 39 56 18 0 30-7 34-22zm-45-69c5-46-57-63-70-21-2 6-4 13-4 21h74" id="aQ"/><path fill="#333" d="M123 10C108 53 80 86 19 72V37c35 8 53-11 59-39L3-190h52l48 148c12-52 28-100 44-148h51" id="aR"/><path fill="#333" d="M135-194c87-1 58 113 63 194h-50c-7-57 23-157-34-157-59 0-34 97-39 157H25l-1-190h47c2 12-1 28 3 38 12-26 28-41 61-42" id="aS"/><path fill="#333" d="M88-194c31-1 46 15 58 34l-1-101h50l1 261h-48c-2-10 0-23-3-31C134-8 116 4 84 4 32 4 16-41 15-95c0-56 19-97 73-99zm17 164c33 0 40-30 41-66 1-37-9-64-41-64s-38 30-39 65c0 43 13 65 39 65" id="aT"/><path fill="#333" d="M133-34C117-15 103 5 69 4 32 3 11-16 11-54c-1-60 55-63 116-61 1-26-3-47-28-47-18 1-26 9-28 27l-52-2c7-38 36-58 82-57s74 22 75 68l1 82c-1 14 12 18 25 15v27c-30 8-71 5-69-32zm-48 3c29 0 43-24 42-57-32 0-66-3-65 30 0 17 8 27 23 27" id="aU"/><g id="j"><use transform="matrix(0.05555555555555555,0,0,0.05555555555555555,0,0)" xlink:href="#aP"/><use transform="matrix(0.05555555555555555,0,0,0.05555555555555555,12.166666666666666,0)" xlink:href="#aQ"/><use transform="matrix(0.05555555555555555,0,0,0.05555555555555555,23.27777777777778,0)" xlink:href="#aR"/><use transform="matrix(0.05555555555555555,0,0,0.05555555555555555,34.388888888888886,0)" xlink:href="#aQ"/><use transform="matrix(0.05555555555555555,0,0,0.05555555555555555,45.5,0)" xlink:href="#aS"/><use transform="matrix(0.05555555555555555,0,0,0.05555555555555555,57.666666666666664,0)" xlink:href="#aT"/><use transform="matrix(0.05555555555555555,0,0,0.05555555555555555,69.83333333333333,0)" xlink:href="#aU"/></g><path fill="#666" d="M33 0v-248h34V0H33" id="aV"/><path fill="#666" d="M117-194c89-4 53 116 60 194h-32v-121c0-31-8-49-39-48C34-167 62-67 57 0H25l-1-190h30c1 10-1 24 2 32 11-22 29-35 61-36" id="aW"/><path fill="#666" d="M24-231v-30h32v30H24zM24 0v-190h32V0H24" id="aX"/><path fill="#666" d="M96-169c-40 0-48 33-48 73s9 75 48 75c24 0 41-14 43-38l32 2c-6 37-31 61-74 61-59 0-76-41-82-99-10-93 101-131 147-64 4 7 5 14 7 22l-32 3c-4-21-16-35-41-35" id="aY"/><path fill="#666" d="M100-194c62-1 85 37 85 99 1 63-27 99-86 99S16-35 15-95c0-66 28-99 85-99zM99-20c44 1 53-31 53-75 0-43-8-75-51-75s-53 32-53 75 10 74 51 75" id="aZ"/><g id="k"><use transform="matrix(0.04938271604938272,0,0,0.04938271604938272,0,0)" xlink:href="#aV"/><use transform="matrix(0.04938271604938272,0,0,0.04938271604938272,4.938271604938272,0)" xlink:href="#aW"/><use transform="matrix(0.04938271604938272,0,0,0.04938271604938272,14.814814814814817,0)" xlink:href="#aX"/><use transform="matrix(0.04938271604938272,0,0,0.04938271604938272,18.71604938271605,0)" xlink:href="#aY"/><use transform="matrix(0.04938271604938272,0,0,0.04938271604938272,27.60493827160494,0)" xlink:href="#aX"/><use transform="matrix(0.04938271604938272,0,0,0.04938271604938272,31.506172839506174,0)" xlink:href="#aZ"/></g><path fill="#666" d="M63-220v92h138v28H63V0H30v-248h175v28H63" id="ba"/><g id="l"><use transform="matrix(0.04938271604938272,0,0,0.04938271604938272,0,0)" xlink:href="#ba"/><use transform="matrix(0.04938271604938272,0,0,0.04938271604938272,10.814814814814815,0)" xlink:href="#aX"/><use transform="matrix(0.04938271604938272,0,0,0.04938271604938272,14.71604938271605,0)" xlink:href="#aW"/></g><path fill="#666" d="M212-179c-10-28-35-45-73-45-59 0-87 40-87 99 0 60 29 101 89 101 43 0 62-24 78-52l27 14C228-24 195 4 139 4 59 4 22-46 18-125c-6-104 99-153 187-111 19 9 31 26 39 46" id="bb"/><path fill="#666" d="M114-163C36-179 61-72 57 0H25l-1-190h30c1 12-1 29 2 39 6-27 23-49 58-41v29" id="bc"/><path fill="#666" d="M100-194c63 0 86 42 84 106H49c0 40 14 67 53 68 26 1 43-12 49-29l28 8c-11 28-37 45-77 45C44 4 14-33 15-96c1-61 26-98 85-98zm52 81c6-60-76-77-97-28-3 7-6 17-6 28h103" id="bd"/><path fill="#666" d="M141-36C126-15 110 5 73 4 37 3 15-17 15-53c-1-64 63-63 125-63 3-35-9-54-41-54-24 1-41 7-42 31l-33-3c5-37 33-52 76-52 45 0 72 20 72 64v82c-1 20 7 32 28 27v20c-31 9-61-2-59-35zM48-53c0 20 12 33 32 33 41-3 63-29 60-74-43 2-92-5-92 41" id="be"/><g id="m"><use transform="matrix(0.04938271604938272,0,0,0.04938271604938272,0,0)" xlink:href="#bb"/><use transform="matrix(0.04938271604938272,0,0,0.04938271604938272,12.790123456790125,0)" xlink:href="#bc"/><use transform="matrix(0.04938271604938272,0,0,0.04938271604938272,18.666666666666668,0)" xlink:href="#bd"/><use transform="matrix(0.04938271604938272,0,0,0.04938271604938272,28.543209876543212,0)" xlink:href="#be"/><use transform="matrix(0.04938271604938272,0,0,0.04938271604938272,38.41975308641976,0)" xlink:href="#bc"/></g><path fill="#666" d="M210-169c-67 3-38 105-44 169h-31v-121c0-29-5-50-35-48C34-165 62-65 56 0H25l-1-190h30c1 10-1 24 2 32 10-44 99-50 107 0 11-21 27-35 58-36 85-2 47 119 55 194h-31v-121c0-29-5-49-35-48" id="bf"/><path fill="#666" d="M0 4l72-265h28L28 4H0" id="bg"/><path fill="#666" d="M101-234c-31-9-42 10-38 44h38v23H63V0H32v-167H5v-23h27c-7-52 17-82 69-68v24" id="bh"/><path fill="#666" d="M84 4C-5 8 30-112 23-190h32v120c0 31 7 50 39 49 72-2 45-101 50-169h31l1 190h-30c-1-10 1-25-2-33-11 22-28 36-60 37" id="bi"/><path fill="#666" d="M135-143c-3-34-86-38-87 0 15 53 115 12 119 90S17 21 10-45l28-5c4 36 97 45 98 0-10-56-113-15-118-90-4-57 82-63 122-42 12 7 21 19 24 35" id="bj"/><g id="n"><use transform="matrix(0.04938271604938272,0,0,0.04938271604938272,0,0)" xlink:href="#bc"/><use transform="matrix(0.04938271604938272,0,0,0.04938271604938272,5.8765432098765435,0)" xlink:href="#be"/><use transform="matrix(0.04938271604938272,0,0,0.04938271604938272,15.753086419753087,0)" xlink:href="#bf"/><use transform="matrix(0.04938271604938272,0,0,0.04938271604938272,30.518518518518523,0)" xlink:href="#be"/><use transform="matrix(0.04938271604938272,0,0,0.04938271604938272,40.39506172839506,0)" xlink:href="#bg"/><use transform="matrix(0.04938271604938272,0,0,0.04938271604938272,45.333333333333336,0)" xlink:href="#bh"/><use transform="matrix(0.04938271604938272,0,0,0.04938271604938272,50.27160493827161,0)" xlink:href="#bi"/><use transform="matrix(0.04938271604938272,0,0,0.04938271604938272,60.14814814814815,0)" xlink:href="#bj"/><use transform="matrix(0.04938271604938272,0,0,0.04938271604938272,69.03703703703704,0)" xlink:href="#aX"/><use transform="matrix(0.04938271604938272,0,0,0.04938271604938272,72.93827160493828,0)" xlink:href="#aZ"/><use transform="matrix(0.04938271604938272,0,0,0.04938271604938272,82.81481481481482,0)" xlink:href="#aW"/><use transform="matrix(0.04938271604938272,0,0,0.04938271604938272,92.69135802469137,0)" xlink:href="#be"/><use transform="matrix(0.04938271604938272,0,0,0.04938271604938272,102.56790123456791,0)" xlink:href="#bc"/></g><path fill="#666" d="M160-131c35 5 61 23 61 61C221 17 115-2 30 0v-248c76 3 177-17 177 60 0 33-19 50-47 57zm-97-11c50-1 110 9 110-42 0-47-63-36-110-37v79zm0 115c55-2 124 14 124-45 0-56-70-42-124-44v89" id="bk"/><path fill="#666" d="M100-194c62-1 85 37 85 99 1 63-27 99-86 99S16-35 15-95c0-66 28-99 85-99zM99-20c44 1 53-31 53-75 0-43-8-75-51-75s-53 32-53 75 10 74 51 75zM76-211c8-23 27-35 38-54h36v5l-58 49H76" id="bl"/><g id="o"><use transform="matrix(0.04938271604938272,0,0,0.04938271604938272,0,0)" xlink:href="#bk"/><use transform="matrix(0.04938271604938272,0,0,0.04938271604938272,11.851851851851853,0)" xlink:href="#aX"/><use transform="matrix(0.04938271604938272,0,0,0.04938271604938272,15.753086419753087,0)" xlink:href="#bh"/><use transform="matrix(0.04938271604938272,0,0,0.04938271604938272,20.69135802469136,0)" xlink:href="#bi"/><use transform="matrix(0.04938271604938272,0,0,0.04938271604938272,30.567901234567906,0)" xlink:href="#bc"/><use transform="matrix(0.04938271604938272,0,0,0.04938271604938272,36.44444444444445,0)" xlink:href="#aY"/><use transform="matrix(0.04938271604938272,0,0,0.04938271604938272,45.33333333333334,0)" xlink:href="#be"/><use transform="matrix(0.04938271604938272,0,0,0.04938271604938272,55.209876543209894,0)" xlink:href="#aY"/><use transform="matrix(0.04938271604938272,0,0,0.04938271604938272,64.09876543209877,0)" xlink:href="#aX"/><use transform="matrix(0.04938271604938272,0,0,0.04938271604938272,68.00000000000001,0)" xlink:href="#bl"/><use transform="matrix(0.04938271604938272,0,0,0.04938271604938272,77.87654320987656,0)" xlink:href="#aW"/><use transform="matrix(0.04938271604938272,0,0,0.04938271604938272,87.7530864197531,0)" xlink:href="#bg"/><use transform="matrix(0.04938271604938272,0,0,0.04938271604938272,92.69135802469137,0)" xlink:href="#bi"/><use transform="matrix(0.04938271604938272,0,0,0.04938271604938272,102.56790123456791,0)" xlink:href="#aW"/><use transform="matrix(0.04938271604938272,0,0,0.04938271604938272,112.44444444444446,0)" xlink:href="#aX"/><use transform="matrix(0.04938271604938272,0,0,0.04938271604938272,116.34567901234568,0)" xlink:href="#bl"/><use transform="matrix(0.04938271604938272,0,0,0.04938271604938272,126.22222222222223,0)" xlink:href="#aW"/></g><path fill="#666" d="M106-169C34-169 62-67 57 0H25v-261h32l-1 103c12-21 28-36 61-36 89 0 53 116 60 194h-32v-121c2-32-8-49-39-48" id="bm"/><path fill="#666" d="M9 0v-24l116-142H16v-24h144v24L44-24h123V0H9" id="bn"/><path fill="#666" d="M59-47c-2 24 18 29 38 22v24C64 9 27 4 27-40v-127H5v-23h24l9-43h21v43h35v23H59v120" id="bo"/><path fill="#666" d="M24 0v-261h32V0H24" id="bp"/><g id="p"><use transform="matrix(0.04938271604938272,0,0,0.04938271604938272,0,0)" xlink:href="#bm"/><use transform="matrix(0.04938271604938272,0,0,0.04938271604938272,9.876543209876544,0)" xlink:href="#aZ"/><use transform="matrix(0.04938271604938272,0,0,0.04938271604938272,19.75308641975309,0)" xlink:href="#bc"/><use transform="matrix(0.04938271604938272,0,0,0.04938271604938272,25.629629629629633,0)" xlink:href="#aX"/><use transform="matrix(0.04938271604938272,0,0,0.04938271604938272,29.530864197530867,0)" xlink:href="#bn"/><use transform="matrix(0.04938271604938272,0,0,0.04938271604938272,38.41975308641976,0)" xlink:href="#aZ"/><use transform="matrix(0.04938271604938272,0,0,0.04938271604938272,48.296296296296305,0)" xlink:href="#aW"/><use transform="matrix(0.04938271604938272,0,0,0.04938271604938272,58.17283950617284,0)" xlink:href="#bo"/><use transform="matrix(0.04938271604938272,0,0,0.04938271604938272,63.111111111111114,0)" xlink:href="#be"/><use transform="matrix(0.04938271604938272,0,0,0.04938271604938272,72.98765432098767,0)" xlink:href="#bp"/></g><path fill="#666" d="M115-194c55 1 70 41 70 98S169 2 115 4C84 4 66-9 55-30l1 105H24l-1-265h31l2 30c10-21 28-34 59-34zm-8 174c40 0 45-34 45-75s-6-73-45-74c-42 0-51 32-51 76 0 43 10 73 51 73" id="bq"/><g id="q"><use transform="matrix(0.04938271604938272,0,0,0.04938271604938272,0,0)" xlink:href="#aV"/><use transform="matrix(0.04938271604938272,0,0,0.04938271604938272,4.938271604938272,0)" xlink:href="#aW"/><use transform="matrix(0.04938271604938272,0,0,0.04938271604938272,14.814814814814817,0)" xlink:href="#bo"/><use transform="matrix(0.04938271604938272,0,0,0.04938271604938272,19.75308641975309,0)" xlink:href="#bd"/><use transform="matrix(0.04938271604938272,0,0,0.04938271604938272,29.629629629629633,0)" xlink:href="#bc"/><use transform="matrix(0.04938271604938272,0,0,0.04938271604938272,35.50617283950618,0)" xlink:href="#bc"/><use transform="matrix(0.04938271604938272,0,0,0.04938271604938272,41.38271604938272,0)" xlink:href="#bi"/><use transform="matrix(0.04938271604938272,0,0,0.04938271604938272,51.25925925925927,0)" xlink:href="#bq"/><use transform="matrix(0.04938271604938272,0,0,0.04938271604938272,61.13580246913581,0)" xlink:href="#aY"/><use transform="matrix(0.04938271604938272,0,0,0.04938271604938272,70.0246913580247,0)" xlink:href="#aX"/><use transform="matrix(0.04938271604938272,0,0,0.04938271604938272,73.92592592592594,0)" xlink:href="#bl"/><use transform="matrix(0.04938271604938272,0,0,0.04938271604938272,83.80246913580248,0)" xlink:href="#aW"/></g><path fill="#666" d="M85-194c31 0 48 13 60 33l-1-100h32l1 261h-30c-2-10 0-23-3-31C134-8 116 4 85 4 32 4 16-35 15-94c0-66 23-100 70-100zm9 24c-40 0-46 34-46 75 0 40 6 74 45 74 42 0 51-32 51-76 0-42-9-74-50-73" id="br"/><g id="r"><use transform="matrix(0.04938271604938272,0,0,0.04938271604938272,0,0)" xlink:href="#br"/><use transform="matrix(0.04938271604938272,0,0,0.04938271604938272,9.876543209876544,0)" xlink:href="#bd"/></g><path fill="#666" d="M206 0h-36l-40-164L89 0H53L-1-190h32L70-26l43-164h34l41 164 42-164h31" id="bs"/><g id="s"><use transform="matrix(0.04938271604938272,0,0,0.04938271604938272,0,0)" xlink:href="#bm"/><use transform="matrix(0.04938271604938272,0,0,0.04938271604938272,9.876543209876544,0)" xlink:href="#be"/><use transform="matrix(0.04938271604938272,0,0,0.04938271604938272,19.75308641975309,0)" xlink:href="#bc"/><use transform="matrix(0.04938271604938272,0,0,0.04938271604938272,25.629629629629633,0)" xlink:href="#br"/><use transform="matrix(0.04938271604938272,0,0,0.04938271604938272,35.50617283950618,0)" xlink:href="#bs"/><use transform="matrix(0.04938271604938272,0,0,0.04938271604938272,48.296296296296305,0)" xlink:href="#be"/><use transform="matrix(0.04938271604938272,0,0,0.04938271604938272,58.17283950617284,0)" xlink:href="#bc"/><use transform="matrix(0.04938271604938272,0,0,0.04938271604938272,64.0493827160494,0)" xlink:href="#bd"/></g><path fill="#666" d="M30 0v-248h187v28H63v79h144v27H63v87h162V0H30" id="bt"/><path fill="#666" d="M108 0H70L1-190h34L89-25l56-165h34" id="bu"/><g id="t"><use transform="matrix(0.04938271604938272,0,0,0.04938271604938272,0,0)" xlink:href="#bt"/><use transform="matrix(0.04938271604938272,0,0,0.04938271604938272,11.851851851851853,0)" xlink:href="#bu"/><use transform="matrix(0.04938271604938272,0,0,0.04938271604938272,20.74074074074074,0)" xlink:href="#bd"/><use transform="matrix(0.04938271604938272,0,0,0.04938271604938272,30.617283950617285,0)" xlink:href="#aW"/><use transform="matrix(0.04938271604938272,0,0,0.04938271604938272,40.49382716049383,0)" xlink:href="#bo"/><use transform="matrix(0.04938271604938272,0,0,0.04938271604938272,45.4320987654321,0)" xlink:href="#aZ"/></g><g id="u"><use transform="matrix(0.04938271604938272,0,0,0.04938271604938272,0,0)" xlink:href="#bo"/><use transform="matrix(0.04938271604938272,0,0,0.04938271604938272,4.938271604938272,0)" xlink:href="#bd"/><use transform="matrix(0.04938271604938272,0,0,0.04938271604938272,14.814814814814817,0)" xlink:href="#bf"/><use transform="matrix(0.04938271604938272,0,0,0.04938271604938272,29.58024691358025,0)" xlink:href="#bq"/><use transform="matrix(0.04938271604938272,0,0,0.04938271604938272,39.4567901234568,0)" xlink:href="#aZ"/><use transform="matrix(0.04938271604938272,0,0,0.04938271604938272,49.33333333333334,0)" xlink:href="#bc"/><use transform="matrix(0.04938271604938272,0,0,0.04938271604938272,55.209876543209894,0)" xlink:href="#be"/><use transform="matrix(0.04938271604938272,0,0,0.04938271604938272,65.08641975308643,0)" xlink:href="#bp"/></g><path fill="#666" d="M24-231v-30h32v30H24zM-9 49c24 4 33-6 33-30v-209h32V24c2 40-23 58-65 49V49" id="bv"/><g id="v"><use transform="matrix(0.04938271604938272,0,0,0.04938271604938272,0,0)" xlink:href="#ba"/><use transform="matrix(0.04938271604938272,0,0,0.04938271604938272,10.814814814814815,0)" xlink:href="#bp"/><use transform="matrix(0.04938271604938272,0,0,0.04938271604938272,14.71604938271605,0)" xlink:href="#bi"/><use transform="matrix(0.04938271604938272,0,0,0.04938271604938272,24.592592592592595,0)" xlink:href="#bv"/><use transform="matrix(0.04938271604938272,0,0,0.04938271604938272,28.49382716049383,0)" xlink:href="#aZ"/></g><g id="w"><use transform="matrix(0.04938271604938272,0,0,0.04938271604938272,0,0)" xlink:href="#bh"/><use transform="matrix(0.04938271604938272,0,0,0.04938271604938272,4.938271604938272,0)" xlink:href="#aX"/><use transform="matrix(0.04938271604938272,0,0,0.04938271604938272,8.839506172839506,0)" xlink:href="#aW"/><use transform="matrix(0.04938271604938272,0,0,0.04938271604938272,18.71604938271605,0)" xlink:href="#be"/><use transform="matrix(0.04938271604938272,0,0,0.04938271604938272,28.592592592592595,0)" xlink:href="#bp"/></g><path fill="#666" d="M126-127c33 6 58 20 58 59 0 88-139 92-164 29-3-8-5-16-6-25l32-3c6 27 21 44 54 44 32 0 52-15 52-46 0-38-36-46-79-43v-28c39 1 72-4 72-42 0-27-17-43-46-43-28 0-47 15-49 41l-32-3c6-42 35-63 81-64 48-1 79 21 79 65 0 36-21 52-52 59" id="bw"/><use transform="matrix(0.04938271604938272,0,0,0.04938271604938272,0,0)" xlink:href="#bw" id="x"/><use transform="matrix(0.04938271604938272,0,0,0.04938271604938272,0,0)" xlink:href="#be" id="y"/><path fill="#666" d="M110-160c48 1 74 30 74 79 0 53-28 85-80 85-65 0-83-55-86-122-5-90 50-162 133-122 14 7 22 21 27 39l-31 6c-5-40-67-38-82-6-9 19-15 44-15 74 11-20 30-34 60-33zm-7 138c34 0 49-23 49-58s-16-56-50-56c-29 0-50 16-49 49 1 36 15 65 50 65" id="bx"/><use transform="matrix(0.04938271604938272,0,0,0.04938271604938272,0,0)" xlink:href="#bx" id="z"/><path fill="#666" d="M34 0v-190h32V0H34zM24-211c8-23 27-35 38-54h36v5l-58 49H24" id="by"/><g id="A"><use transform="matrix(0.04938271604938272,0,0,0.04938271604938272,0,0)" xlink:href="#br"/><use transform="matrix(0.04938271604938272,0,0,0.04938271604938272,9.876543209876544,0)" xlink:href="#by"/><use transform="matrix(0.04938271604938272,0,0,0.04938271604938272,14.814814814814817,0)" xlink:href="#be"/><use transform="matrix(0.04938271604938272,0,0,0.04938271604938272,24.69135802469136,0)" xlink:href="#bj"/></g><path fill="#fff" d="M30 0v-248h187v28H63v79h144v27H63v87h162V0H30" id="bz"/><g id="B"><use transform="matrix(0.04938271604938272,0,0,0.04938271604938272,0,0)" xlink:href="#bz"/><use transform="matrix(0.04938271604938272,0,0,0.04938271604938272,11.851851851851853,0)" xlink:href="#aK"/><use transform="matrix(0.04938271604938272,0,0,0.04938271604938272,20.74074074074074,0)" xlink:href="#aL"/><use transform="matrix(0.04938271604938272,0,0,0.04938271604938272,30.617283950617285,0)" xlink:href="#aw"/><use transform="matrix(0.04938271604938272,0,0,0.04938271604938272,34.51851851851852,0)" xlink:href="#aH"/><use transform="matrix(0.04938271604938272,0,0,0.04938271604938272,44.39506172839506,0)" xlink:href="#aL"/><use transform="matrix(0.04938271604938272,0,0,0.04938271604938272,54.27160493827161,0)" xlink:href="#aC"/><use transform="matrix(0.04938271604938272,0,0,0.04938271604938272,63.1604938271605,0)" xlink:href="#ax"/><use transform="matrix(0.04938271604938272,0,0,0.04938271604938272,67.06172839506173,0)" xlink:href="#aM"/><use transform="matrix(0.04938271604938272,0,0,0.04938271604938272,76.93827160493828,0)" xlink:href="#az"/></g><g id="C"><use transform="matrix(0.04938271604938272,0,0,0.04938271604938272,0,0)" xlink:href="#aG"/><use transform="matrix(0.04938271604938272,0,0,0.04938271604938272,9.876543209876544,0)" xlink:href="#ay"/></g><g id="D"><use transform="matrix(0.04938271604938272,0,0,0.04938271604938272,0,0)" xlink:href="#aO"/><use transform="matrix(0.04938271604938272,0,0,0.04938271604938272,14.765432098765434,0)" xlink:href="#ay"/><use transform="matrix(0.04938271604938272,0,0,0.04938271604938272,24.641975308641978,0)" xlink:href="#aB"/><use transform="matrix(0.04938271604938272,0,0,0.04938271604938272,30.518518518518523,0)" xlink:href="#aC"/><use transform="matrix(0.04938271604938272,0,0,0.04938271604938272,39.40740740740741,0)" xlink:href="#aL"/><use transform="matrix(0.04938271604938272,0,0,0.04938271604938272,49.283950617283956,0)" xlink:href="#az"/><use transform="matrix(0.04938271604938272,0,0,0.04938271604938272,59.1604938271605,0)" xlink:href="#aC"/><use transform="matrix(0.04938271604938272,0,0,0.04938271604938272,68.0493827160494,0)" xlink:href="#ax"/><use transform="matrix(0.04938271604938272,0,0,0.04938271604938272,71.95061728395063,0)" xlink:href="#aL"/></g><g id="E"><use transform="matrix(0.04938271604938272,0,0,0.04938271604938272,0,0)" xlink:href="#aG"/><use transform="matrix(0.04938271604938272,0,0,0.04938271604938272,9.876543209876544,0)" xlink:href="#ay"/><use transform="matrix(0.04938271604938272,0,0,0.04938271604938272,19.75308641975309,0)" xlink:href="#aK"/><use transform="matrix(0.04938271604938272,0,0,0.04938271604938272,28.641975308641978,0)" xlink:href="#aH"/><use transform="matrix(0.04938271604938272,0,0,0.04938271604938272,38.51851851851852,0)" xlink:href="#ay"/><use transform="matrix(0.04938271604938272,0,0,0.04938271604938272,48.39506172839506,0)" xlink:href="#aw"/><use transform="matrix(0.04938271604938272,0,0,0.04938271604938272,52.2962962962963,0)" xlink:href="#aA"/><use transform="matrix(0.04938271604938272,0,0,0.04938271604938272,57.23456790123457,0)" xlink:href="#aL"/></g><path fill="#fff" d="M233-177c-1 41-23 64-60 70L243 0h-38l-65-103H63V0H30v-248c88 3 205-21 203 71zM63-129c60-2 137 13 137-47 0-61-80-42-137-45v92" id="bA"/><g id="F"><use transform="matrix(0.04938271604938272,0,0,0.04938271604938272,0,0)" xlink:href="#bA"/><use transform="matrix(0.04938271604938272,0,0,0.04938271604938272,12.790123456790125,0)" xlink:href="#ay"/><use transform="matrix(0.04938271604938272,0,0,0.04938271604938272,22.66666666666667,0)" xlink:href="#ay"/><use transform="matrix(0.04938271604938272,0,0,0.04938271604938272,32.543209876543216,0)" xlink:href="#aO"/><use transform="matrix(0.04938271604938272,0,0,0.04938271604938272,47.308641975308646,0)" xlink:href="#aD"/><use transform="matrix(0.04938271604938272,0,0,0.04938271604938272,57.18518518518519,0)" xlink:href="#aF"/><use transform="matrix(0.04938271604938272,0,0,0.04938271604938272,67.06172839506173,0)" xlink:href="#aw"/><use transform="matrix(0.04938271604938272,0,0,0.04938271604938272,70.96296296296298,0)" xlink:href="#aJ"/><use transform="matrix(0.04938271604938272,0,0,0.04938271604938272,79.85185185185186,0)" xlink:href="#aF"/></g><g id="G"><use transform="matrix(0.04938271604938272,0,0,0.04938271604938272,0,0)" xlink:href="#aK"/><use transform="matrix(0.04938271604938272,0,0,0.04938271604938272,8.88888888888889,0)" xlink:href="#ay"/><use transform="matrix(0.04938271604938272,0,0,0.04938271604938272,18.765432098765434,0)" xlink:href="#az"/><use transform="matrix(0.04938271604938272,0,0,0.04938271604938272,28.641975308641978,0)" xlink:href="#aG"/><use transform="matrix(0.04938271604938272,0,0,0.04938271604938272,38.51851851851852,0)" xlink:href="#ay"/><use transform="matrix(0.04938271604938272,0,0,0.04938271604938272,48.39506172839506,0)" xlink:href="#aG"/><use transform="matrix(0.04938271604938272,0,0,0.04938271604938272,58.27160493827161,0)" xlink:href="#aF"/><use transform="matrix(0.04938271604938272,0,0,0.04938271604938272,68.14814814814815,0)" xlink:href="#aB"/></g><use transform="matrix(0.04938271604938272,0,0,0.04938271604938272,0,0)" xlink:href="#aL" id="H"/><g id="I"><use transform="matrix(0.04938271604938272,0,0,0.04938271604938272,0,0)" xlink:href="#aC"/><use transform="matrix(0.04938271604938272,0,0,0.04938271604938272,8.88888888888889,0)" xlink:href="#aw"/><use transform="matrix(0.04938271604938272,0,0,0.04938271604938272,12.790123456790125,0)" xlink:href="#ax"/><use transform="matrix(0.04938271604938272,0,0,0.04938271604938272,16.691358024691358,0)" xlink:href="#ay"/><use transform="matrix(0.04938271604938272,0,0,0.04938271604938272,26.567901234567902,0)" xlink:href="#az"/><use transform="matrix(0.04938271604938272,0,0,0.04938271604938272,36.44444444444444,0)" xlink:href="#aA"/><use transform="matrix(0.04938271604938272,0,0,0.04938271604938272,41.382716049382715,0)" xlink:href="#ay"/></g><path fill="#333" d="M30-248c118-7 216 8 213 122C240-48 200 0 122 0H30v-248zM63-27c89 8 146-16 146-99s-60-101-146-95v194" id="bB"/><path fill="#333" d="M24-231v-30h32v30H24zM24 0v-190h32V0H24" id="bC"/><path fill="#333" d="M141-36C126-15 110 5 73 4 37 3 15-17 15-53c-1-64 63-63 125-63 3-35-9-54-41-54-24 1-41 7-42 31l-33-3c5-37 33-52 76-52 45 0 72 20 72 64v82c-1 20 7 32 28 27v20c-31 9-61-2-59-35zM48-53c0 20 12 33 32 33 41-3 63-29 60-74-43 2-92-5-92 41" id="bD"/><path fill="#333" d="M177-190C167-65 218 103 67 71c-23-6-38-20-44-43l32-5c15 47 100 32 89-28v-30C133-14 115 1 83 1 29 1 15-40 15-95c0-56 16-97 71-98 29-1 48 16 59 35 1-10 0-23 2-32h30zM94-22c36 0 50-32 50-73 0-42-14-75-50-75-39 0-46 34-46 75s6 73 46 73" id="bE"/><path fill="#333" d="M114-163C36-179 61-72 57 0H25l-1-190h30c1 12-1 29 2 39 6-27 23-49 58-41v29" id="bF"/><path fill="#333" d="M210-169c-67 3-38 105-44 169h-31v-121c0-29-5-50-35-48C34-165 62-65 56 0H25l-1-190h30c1 10-1 24 2 32 10-44 99-50 107 0 11-21 27-35 58-36 85-2 47 119 55 194h-31v-121c0-29-5-49-35-48" id="bG"/><g id="J"><use transform="matrix(0.3216049382716041,0,0,0.3216049382716041,0,0)" xlink:href="#bB"/><use transform="matrix(0.3216049382716041,0,0,0.3216049382716041,83.29567901234546,0)" xlink:href="#bC"/><use transform="matrix(0.3216049382716041,0,0,0.3216049382716041,108.70246913580218,0)" xlink:href="#bD"/><use transform="matrix(0.3216049382716041,0,0,0.3216049382716041,173.023456790123,0)" xlink:href="#bE"/><use transform="matrix(0.3216049382716041,0,0,0.3216049382716041,237.3444444444438,0)" xlink:href="#bF"/><use transform="matrix(0.3216049382716041,0,0,0.3216049382716041,275.6154320987647,0)" xlink:href="#bD"/><use transform="matrix(0.3216049382716041,0,0,0.3216049382716041,339.9364197530855,0)" xlink:href="#bG"/><use transform="matrix(0.3216049382716041,0,0,0.3216049382716041,436.0962962962951,0)" xlink:href="#bD"/></g><path fill="#333" d="M85-194c31 0 48 13 60 33l-1-100h32l1 261h-30c-2-10 0-23-3-31C134-8 116 4 85 4 32 4 16-35 15-94c0-66 23-100 70-100zm9 24c-40 0-46 34-46 75 0 40 6 74 45 74 42 0 51-32 51-76 0-42-9-74-50-73" id="bH"/><path fill="#333" d="M100-194c63 0 86 42 84 106H49c0 40 14 67 53 68 26 1 43-12 49-29l28 8c-11 28-37 45-77 45C44 4 14-33 15-96c1-61 26-98 85-98zm52 81c6-60-76-77-97-28-3 7-6 17-6 28h103" id="bI"/><g id="K"><use transform="matrix(0.3216049382716041,0,0,0.3216049382716041,0,0)" xlink:href="#bH"/><use transform="matrix(0.3216049382716041,0,0,0.3216049382716041,64.32098765432082,0)" xlink:href="#bI"/></g><path fill="#333" d="M115-194c55 1 70 41 70 98S169 2 115 4C84 4 66-9 55-30l1 105H24l-1-265h31l2 30c10-21 28-34 59-34zm-8 174c40 0 45-34 45-75s-6-73-45-74c-42 0-51 32-51 76 0 43 10 73 51 73" id="bJ"/><path fill="#333" d="M100-194c62-1 85 37 85 99 1 63-27 99-86 99S16-35 15-95c0-66 28-99 85-99zM99-20c44 1 53-31 53-75 0-43-8-75-51-75s-53 32-53 75 10 74 51 75" id="bK"/><path fill="#333" d="M96-169c-40 0-48 33-48 73s9 75 48 75c24 0 41-14 43-38l32 2c-6 37-31 61-74 61-59 0-76-41-82-99-10-93 101-131 147-64 4 7 5 14 7 22l-32 3c-4-21-16-35-41-35" id="bL"/><path fill="#333" d="M135-143c-3-34-86-38-87 0 15 53 115 12 119 90S17 21 10-45l28-5c4 36 97 45 98 0-10-56-113-15-118-90-4-57 82-63 122-42 12 7 21 19 24 35" id="bM"/><g id="L"><use transform="matrix(0.3216049382716041,0,0,0.3216049382716041,0,0)" xlink:href="#bJ"/><use transform="matrix(0.3216049382716041,0,0,0.3216049382716041,64.32098765432082,0)" xlink:href="#bF"/><use transform="matrix(0.3216049382716041,0,0,0.3216049382716041,102.59197530864171,0)" xlink:href="#bK"/><use transform="matrix(0.3216049382716041,0,0,0.3216049382716041,166.91296296296252,0)" xlink:href="#bL"/><use transform="matrix(0.3216049382716041,0,0,0.3216049382716041,224.80185185185124,0)" xlink:href="#bI"/><use transform="matrix(0.3216049382716041,0,0,0.3216049382716041,289.1228395061721,0)" xlink:href="#bM"/><use transform="matrix(0.3216049382716041,0,0,0.3216049382716041,347.01172839506086,0)" xlink:href="#bK"/></g><path fill="#333" d="M108 0H70L1-190h34L89-25l56-165h34" id="bN"/><path fill="#333" d="M24 0v-261h32V0H24" id="bO"/><path fill="#333" d="M84 4C-5 8 30-112 23-190h32v120c0 31 7 50 39 49 72-2 45-101 50-169h31l1 190h-30c-1-10 1-25-2-33-11 22-28 36-60 37" id="bP"/><path fill="#333" d="M100-194c62-1 85 37 85 99 1 63-27 99-86 99S16-35 15-95c0-66 28-99 85-99zM99-20c44 1 53-31 53-75 0-43-8-75-51-75s-53 32-53 75 10 74 51 75zM76-211c8-23 27-35 38-54h36v5l-58 49H76" id="bQ"/><path fill="#333" d="M117-194c89-4 53 116 60 194h-32v-121c0-31-8-49-39-48C34-167 62-67 57 0H25l-1-190h30c1 10-1 24 2 32 11-22 29-35 61-36" id="bR"/><g id="M"><use transform="matrix(0.3216049382716041,0,0,0.3216049382716041,0,0)" xlink:href="#bH"/><use transform="matrix(0.3216049382716041,0,0,0.3216049382716041,64.32098765432082,0)" xlink:href="#bI"/><use transform="matrix(0.3216049382716041,0,0,0.3216049382716041,128.64197530864163,0)" xlink:href="#bN"/><use transform="matrix(0.3216049382716041,0,0,0.3216049382716041,186.53086419753038,0)" xlink:href="#bK"/><use transform="matrix(0.3216049382716041,0,0,0.3216049382716041,250.8518518518512,0)" xlink:href="#bO"/><use transform="matrix(0.3216049382716041,0,0,0.3216049382716041,276.2586419753079,0)" xlink:href="#bP"/><use transform="matrix(0.3216049382716041,0,0,0.3216049382716041,340.5796296296287,0)" xlink:href="#bL"/><use transform="matrix(0.3216049382716041,0,0,0.3216049382716041,398.46851851851744,0)" xlink:href="#bC"/><use transform="matrix(0.3216049382716041,0,0,0.3216049382716041,423.8753086419742,0)" xlink:href="#bQ"/><use transform="matrix(0.3216049382716041,0,0,0.3216049382716041,488.1962962962951,0)" xlink:href="#bR"/></g><path fill="#333" d="M30-248c87 1 191-15 191 75 0 78-77 80-158 76V0H30v-248zm33 125c57 0 124 11 124-50 0-59-68-47-124-48v98" id="bS"/><g id="N"><use transform="matrix(0.05,0,0,0.05,0,0)" xlink:href="#bS"/><use transform="matrix(0.05,0,0,0.05,12,0)" xlink:href="#bF"/><use transform="matrix(0.05,0,0,0.05,17.95,0)" xlink:href="#bK"/><use transform="matrix(0.05,0,0,0.05,27.950000000000003,0)" xlink:href="#bL"/><use transform="matrix(0.05,0,0,0.05,36.95,0)" xlink:href="#bI"/><use transform="matrix(0.05,0,0,0.05,46.95,0)" xlink:href="#bH"/><use transform="matrix(0.05,0,0,0.05,56.95,0)" xlink:href="#bK"/></g><g id="O"><use transform="matrix(0.05,0,0,0.05,0,0)" xlink:href="#bH"/><use transform="matrix(0.05,0,0,0.05,10,0)" xlink:href="#bI"/></g><path fill="#333" d="M143 4C61 4 22-44 18-125c-5-107 100-154 193-111 17 8 29 25 37 43l-32 9c-13-25-37-40-76-40-61 0-88 39-88 99 0 61 29 100 91 101 35 0 62-11 79-27v-45h-74v-28h105v86C228-13 192 4 143 4" id="bT"/><path fill="#333" d="M59-47c-2 24 18 29 38 22v24C64 9 27 4 27-40v-127H5v-23h24l9-43h21v43h35v23H59v120" id="bU"/><path fill="#333" d="M34 0v-190h32V0H34zM24-211c8-23 27-35 38-54h36v5l-58 49H24" id="bV"/><g id="P"><use transform="matrix(0.05,0,0,0.05,0,0)" xlink:href="#bT"/><use transform="matrix(0.05,0,0,0.05,14,0)" xlink:href="#bD"/><use transform="matrix(0.05,0,0,0.05,24,0)" xlink:href="#bF"/><use transform="matrix(0.05,0,0,0.05,29.950000000000003,0)" xlink:href="#bD"/><use transform="matrix(0.05,0,0,0.05,39.95,0)" xlink:href="#bR"/><use transform="matrix(0.05,0,0,0.05,49.95,0)" xlink:href="#bU"/><use transform="matrix(0.05,0,0,0.05,54.95,0)" xlink:href="#bV"/><use transform="matrix(0.05,0,0,0.05,59.95,0)" xlink:href="#bD"/><use transform="matrix(0.05,0,0,0.05,69.95,0)" xlink:href="#bM"/></g><path fill="#333" d="M212-179c-10-28-35-45-73-45-59 0-87 40-87 99 0 60 29 101 89 101 43 0 62-24 78-52l27 14C228-24 195 4 139 4 59 4 22-46 18-125c-6-104 99-153 187-111 19 9 31 26 39 46" id="bW"/><g id="Q"><use transform="matrix(0.05,0,0,0.05,0,0)" xlink:href="#bW"/><use transform="matrix(0.05,0,0,0.05,12.950000000000001,0)" xlink:href="#bO"/><use transform="matrix(0.05,0,0,0.05,16.900000000000002,0)" xlink:href="#bC"/><use transform="matrix(0.05,0,0,0.05,20.85,0)" xlink:href="#bI"/><use transform="matrix(0.05,0,0,0.05,30.85,0)" xlink:href="#bR"/><use transform="matrix(0.05,0,0,0.05,40.85,0)" xlink:href="#bU"/><use transform="matrix(0.05,0,0,0.05,45.85,0)" xlink:href="#bI"/></g><path fill="#333" d="M240 0l2-218c-23 76-54 145-80 218h-23L58-218 59 0H30v-248h44l77 211c21-75 51-140 76-211h43V0h-30" id="bX"/><path fill="#333" d="M143 0L79-87 56-68V0H24v-261h32v163l83-92h37l-77 82L181 0h-38" id="bY"/><g id="R"><use transform="matrix(0.05,0,0,0.05,0,0)" xlink:href="#bX"/><use transform="matrix(0.05,0,0,0.05,14.950000000000001,0)" xlink:href="#bD"/><use transform="matrix(0.05,0,0,0.05,24.950000000000003,0)" xlink:href="#bF"/><use transform="matrix(0.05,0,0,0.05,30.900000000000002,0)" xlink:href="#bY"/><use transform="matrix(0.05,0,0,0.05,39.900000000000006,0)" xlink:href="#bI"/><use transform="matrix(0.05,0,0,0.05,49.900000000000006,0)" xlink:href="#bU"/><use transform="matrix(0.05,0,0,0.05,54.900000000000006,0)" xlink:href="#bJ"/><use transform="matrix(0.05,0,0,0.05,64.9,0)" xlink:href="#bO"/><use transform="matrix(0.05,0,0,0.05,68.85000000000001,0)" xlink:href="#bD"/><use transform="matrix(0.05,0,0,0.05,78.85000000000001,0)" xlink:href="#bL"/><use transform="matrix(0.05,0,0,0.05,87.85000000000001,0)" xlink:href="#bI"/></g><path fill="#333" d="M137 0h-34L2-248h35l83 218 83-218h36" id="bZ"/><g id="S"><use transform="matrix(0.05,0,0,0.05,0,0)" xlink:href="#bZ"/><use transform="matrix(0.05,0,0,0.05,11,0)" xlink:href="#bI"/><use transform="matrix(0.05,0,0,0.05,21,0)" xlink:href="#bR"/><use transform="matrix(0.05,0,0,0.05,31,0)" xlink:href="#bU"/><use transform="matrix(0.05,0,0,0.05,36,0)" xlink:href="#bF"/><use transform="matrix(0.05,0,0,0.05,41.95,0)" xlink:href="#bK"/><use transform="matrix(0.05,0,0,0.05,51.95,0)" xlink:href="#bR"/><use transform="matrix(0.05,0,0,0.05,61.95,0)" xlink:href="#bC"/><use transform="matrix(0.05,0,0,0.05,65.9,0)" xlink:href="#bL"/></g><path fill="#333" d="M26 75v-336h71v23H56V52h41v23H26" id="ca"/><g id="T"><use transform="matrix(0.05,0,0,0.05,0,0)" xlink:href="#ca"/><use transform="matrix(0.05,0,0,0.05,5,0)" xlink:href="#bW"/><use transform="matrix(0.05,0,0,0.05,17.950000000000003,0)" xlink:href="#bD"/><use transform="matrix(0.05,0,0,0.05,27.950000000000003,0)" xlink:href="#bM"/><use transform="matrix(0.05,0,0,0.05,36.95,0)" xlink:href="#bK"/></g><path fill="#333" d="M115-194c53 0 69 39 70 98 0 66-23 100-70 100C84 3 66-7 56-30L54 0H23l1-261h32v101c10-23 28-34 59-34zm-8 174c40 0 45-34 45-75 0-40-5-75-45-74-42 0-51 32-51 76 0 43 10 73 51 73" id="cb"/><path fill="#333" d="M3 75V52h41v-290H3v-23h71V75H3" id="cc"/><g id="U"><use transform="matrix(0.05,0,0,0.05,0,0)" xlink:href="#bF"/><use transform="matrix(0.05,0,0,0.05,5.95,0)" xlink:href="#bI"/><use transform="matrix(0.05,0,0,0.05,15.949999999999998,0)" xlink:href="#bI"/><use transform="matrix(0.05,0,0,0.05,25.950000000000003,0)" xlink:href="#bG"/><use transform="matrix(0.05,0,0,0.05,40.9,0)" xlink:href="#cb"/><use transform="matrix(0.05,0,0,0.05,50.9,0)" xlink:href="#bK"/><use transform="matrix(0.05,0,0,0.05,60.900000000000006,0)" xlink:href="#bO"/><use transform="matrix(0.05,0,0,0.05,64.85,0)" xlink:href="#bM"/><use transform="matrix(0.05,0,0,0.05,73.85,0)" xlink:href="#bK"/><use transform="matrix(0.05,0,0,0.05,83.85,0)" xlink:href="#cc"/></g><path fill="#333" d="M9 0v-24l116-142H16v-24h144v24L44-24h123V0H9" id="cd"/><g id="V"><use transform="matrix(0.05,0,0,0.05,0,0)" xlink:href="#bF"/><use transform="matrix(0.05,0,0,0.05,5.95,0)" xlink:href="#bI"/><use transform="matrix(0.05,0,0,0.05,15.949999999999998,0)" xlink:href="#bI"/><use transform="matrix(0.05,0,0,0.05,25.950000000000003,0)" xlink:href="#bG"/><use transform="matrix(0.05,0,0,0.05,40.9,0)" xlink:href="#bJ"/><use transform="matrix(0.05,0,0,0.05,50.9,0)" xlink:href="#bO"/><use transform="matrix(0.05,0,0,0.05,54.85,0)" xlink:href="#bD"/><use transform="matrix(0.05,0,0,0.05,64.85,0)" xlink:href="#cd"/><use transform="matrix(0.05,0,0,0.05,73.85,0)" xlink:href="#bK"/><use transform="matrix(0.05,0,0,0.05,83.85,0)" xlink:href="#cc"/></g><path fill="#fff" d="M160-131c35 5 61 23 61 61C221 17 115-2 30 0v-248c76 3 177-17 177 60 0 33-19 50-47 57zm-97-11c50-1 110 9 110-42 0-47-63-36-110-37v79zm0 115c55-2 124 14 124-45 0-56-70-42-124-44v89" id="ce"/><path fill="#fff" d="M145-31C134-9 116 4 85 4 32 4 16-35 15-94c0-59 17-99 70-100 32-1 48 14 60 33 0-11-1-24 2-32h30l-1 268h-32zM93-21c41 0 51-33 51-76s-8-73-50-73c-40 0-46 35-46 75s5 74 45 74" id="cf"/><g id="W"><use transform="matrix(0.04938271604938272,0,0,0.04938271604938272,0,0)" xlink:href="#ce"/><use transform="matrix(0.04938271604938272,0,0,0.04938271604938272,11.851851851851853,0)" xlink:href="#aH"/><use transform="matrix(0.04938271604938272,0,0,0.04938271604938272,21.7283950617284,0)" xlink:href="#aJ"/><use transform="matrix(0.04938271604938272,0,0,0.04938271604938272,30.617283950617285,0)" xlink:href="#cf"/><use transform="matrix(0.04938271604938272,0,0,0.04938271604938272,40.49382716049384,0)" xlink:href="#aH"/><use transform="matrix(0.04938271604938272,0,0,0.04938271604938272,50.37037037037038,0)" xlink:href="#ay"/><use transform="matrix(0.04938271604938272,0,0,0.04938271604938272,60.24691358024693,0)" xlink:href="#aG"/><use transform="matrix(0.04938271604938272,0,0,0.04938271604938272,70.12345679012347,0)" xlink:href="#aL"/></g><path fill="#fff" d="M100-194c63 0 86 42 84 106H49c0 40 14 67 53 68 26 1 43-12 49-29l28 8c-11 28-37 45-77 45C44 4 14-33 15-96c1-61 26-98 85-98zm52 81c6-60-76-77-97-28-3 7-6 17-6 28h103zm-74-98c8-23 27-35 38-54h36v5l-58 49H78" id="cg"/><g id="X"><use transform="matrix(0.04938271604938272,0,0,0.04938271604938272,0,0)" xlink:href="#aL"/><use transform="matrix(0.04938271604938272,0,0,0.04938271604938272,9.876543209876544,0)" xlink:href="#aw"/><use transform="matrix(0.04938271604938272,0,0,0.04938271604938272,13.777777777777779,0)" xlink:href="#aO"/><use transform="matrix(0.04938271604938272,0,0,0.04938271604938272,28.543209876543212,0)" xlink:href="#aL"/><use transform="matrix(0.04938271604938272,0,0,0.04938271604938272,38.41975308641976,0)" xlink:href="#aC"/><use transform="matrix(0.04938271604938272,0,0,0.04938271604938272,47.308641975308646,0)" xlink:href="#cg"/><use transform="matrix(0.04938271604938272,0,0,0.04938271604938272,57.18518518518519,0)" xlink:href="#az"/></g><path fill="#fff" d="M34 0v-190h32V0H34zM24-211c8-23 27-35 38-54h36v5l-58 49H24" id="ch"/><g id="Y"><use transform="matrix(0.04938271604938272,0,0,0.04938271604938272,0,0)" xlink:href="#bz"/><use transform="matrix(0.04938271604938272,0,0,0.04938271604938272,11.851851851851853,0)" xlink:href="#az"/><use transform="matrix(0.04938271604938272,0,0,0.04938271604938272,21.7283950617284,0)" xlink:href="#aK"/><use transform="matrix(0.04938271604938272,0,0,0.04938271604938272,30.617283950617285,0)" xlink:href="#ch"/><use transform="matrix(0.04938271604938272,0,0,0.04938271604938272,35.55555555555556,0)" xlink:href="#aF"/></g><path fill="#666" d="M101-251c82-7 93 87 43 132L82-64C71-53 59-42 53-27h129V0H18c2-99 128-94 128-182 0-28-16-43-45-43s-46 15-49 41l-32-3c6-41 34-60 81-64" id="ci"/><use transform="matrix(0.04938271604938272,0,0,0.04938271604938272,0,0)" xlink:href="#ci" id="Z"/><g id="aa"><use transform="matrix(0.04938271604938272,0,0,0.04938271604938272,0,0)" xlink:href="#av"/><use transform="matrix(0.04938271604938272,0,0,0.04938271604938272,12.790123456790125,0)" xlink:href="#aF"/><use transform="matrix(0.04938271604938272,0,0,0.04938271604938272,22.66666666666667,0)" xlink:href="#az"/><use transform="matrix(0.04938271604938272,0,0,0.04938271604938272,32.543209876543216,0)" xlink:href="#aA"/><use transform="matrix(0.04938271604938272,0,0,0.04938271604938272,37.48148148148149,0)" xlink:href="#aL"/><use transform="matrix(0.04938271604938272,0,0,0.04938271604938272,47.35802469135803,0)" xlink:href="#aC"/><use transform="matrix(0.04938271604938272,0,0,0.04938271604938272,56.24691358024693,0)" xlink:href="#aA"/><use transform="matrix(0.04938271604938272,0,0,0.04938271604938272,61.185185185185205,0)" xlink:href="#aF"/></g><path fill="#fff" d="M177-190C167-65 218 103 67 71c-23-6-38-20-44-43l32-5c15 47 100 32 89-28v-30C133-14 115 1 83 1 29 1 15-40 15-95c0-56 16-97 71-98 29-1 48 16 59 35 1-10 0-23 2-32h30zM94-22c36 0 50-32 50-73 0-42-14-75-50-75-39 0-46 34-46 75s6 73 46 73" id="cj"/><g id="ab"><use transform="matrix(0.04938271604938272,0,0,0.04938271604938272,0,0)" xlink:href="#cj"/><use transform="matrix(0.04938271604938272,0,0,0.04938271604938272,9.876543209876544,0)" xlink:href="#aL"/><use transform="matrix(0.04938271604938272,0,0,0.04938271604938272,19.75308641975309,0)" xlink:href="#aB"/><use transform="matrix(0.04938271604938272,0,0,0.04938271604938272,25.629629629629633,0)" xlink:href="#aL"/><use transform="matrix(0.04938271604938272,0,0,0.04938271604938272,35.50617283950618,0)" xlink:href="#az"/><use transform="matrix(0.04938271604938272,0,0,0.04938271604938272,45.38271604938272,0)" xlink:href="#aA"/><use transform="matrix(0.04938271604938272,0,0,0.04938271604938272,50.320987654320994,0)" xlink:href="#ch"/><use transform="matrix(0.04938271604938272,0,0,0.04938271604938272,55.25925925925927,0)" xlink:href="#aL"/><use transform="matrix(0.04938271604938272,0,0,0.04938271604938272,65.13580246913581,0)" xlink:href="#aJ"/></g><g id="ac"><use transform="matrix(0.04938271604938272,0,0,0.04938271604938272,0,0)" xlink:href="#aN"/><use transform="matrix(0.04938271604938272,0,0,0.04938271604938272,11.851851851851853,0)" xlink:href="#aF"/><use transform="matrix(0.04938271604938272,0,0,0.04938271604938272,21.7283950617284,0)" xlink:href="#aw"/><use transform="matrix(0.04938271604938272,0,0,0.04938271604938272,25.629629629629633,0)" xlink:href="#ax"/><use transform="matrix(0.04938271604938272,0,0,0.04938271604938272,29.530864197530867,0)" xlink:href="#aC"/><use transform="matrix(0.04938271604938272,0,0,0.04938271604938272,38.41975308641976,0)" xlink:href="#ax"/><use transform="matrix(0.04938271604938272,0,0,0.04938271604938272,42.320987654320994,0)" xlink:href="#aA"/><use transform="matrix(0.04938271604938272,0,0,0.04938271604938272,47.25925925925927,0)" xlink:href="#aH"/><use transform="matrix(0.04938271604938272,0,0,0.04938271604938272,57.135802469135804,0)" xlink:href="#aG"/></g><g id="ad"><use transform="matrix(0.04938271604938272,0,0,0.04938271604938272,0,0)" xlink:href="#aG"/><use transform="matrix(0.04938271604938272,0,0,0.04938271604938272,9.876543209876544,0)" xlink:href="#ay"/></g><g id="ae"><use transform="matrix(0.04938271604938272,0,0,0.04938271604938272,0,0)" xlink:href="#cj"/><use transform="matrix(0.04938271604938272,0,0,0.04938271604938272,9.876543209876544,0)" xlink:href="#aH"/><use transform="matrix(0.04938271604938272,0,0,0.04938271604938272,19.75308641975309,0)" xlink:href="#ch"/><use transform="matrix(0.04938271604938272,0,0,0.04938271604938272,24.69135802469136,0)" xlink:href="#aL"/></g><g id="af"><use transform="matrix(0.04938271604938272,0,0,0.04938271604938272,0,0)" xlink:href="#aG"/><use transform="matrix(0.04938271604938272,0,0,0.04938271604938272,9.876543209876544,0)" xlink:href="#ay"/><use transform="matrix(0.04938271604938272,0,0,0.04938271604938272,19.75308641975309,0)" xlink:href="#aK"/><use transform="matrix(0.04938271604938272,0,0,0.04938271604938272,28.641975308641978,0)" xlink:href="#aF"/><use transform="matrix(0.04938271604938272,0,0,0.04938271604938272,38.51851851851852,0)" xlink:href="#aw"/><use transform="matrix(0.04938271604938272,0,0,0.04938271604938272,42.41975308641975,0)" xlink:href="#aH"/><use transform="matrix(0.04938271604938272,0,0,0.04938271604938272,52.2962962962963,0)" xlink:href="#aC"/><use transform="matrix(0.04938271604938272,0,0,0.04938271604938272,61.18518518518519,0)" xlink:href="#ax"/><use transform="matrix(0.04938271604938272,0,0,0.04938271604938272,65.08641975308643,0)" xlink:href="#aM"/><use transform="matrix(0.04938271604938272,0,0,0.04938271604938272,74.96296296296298,0)" xlink:href="#az"/></g><path fill="#fff" d="M240 0l2-218c-23 76-54 145-80 218h-23L58-218 59 0H30v-248h44l77 211c21-75 51-140 76-211h43V0h-30" id="ck"/><path fill="#fff" d="M143 0L79-87 56-68V0H24v-261h32v163l83-92h37l-77 82L181 0h-38" id="cl"/><g id="ag"><use transform="matrix(0.04938271604938272,0,0,0.04938271604938272,0,0)" xlink:href="#ck"/><use transform="matrix(0.04938271604938272,0,0,0.04938271604938272,14.765432098765434,0)" xlink:href="#aL"/><use transform="matrix(0.04938271604938272,0,0,0.04938271604938272,24.641975308641978,0)" xlink:href="#aB"/><use transform="matrix(0.04938271604938272,0,0,0.04938271604938272,30.518518518518523,0)" xlink:href="#cl"/><use transform="matrix(0.04938271604938272,0,0,0.04938271604938272,39.40740740740741,0)" xlink:href="#ay"/><use transform="matrix(0.04938271604938272,0,0,0.04938271604938272,49.283950617283956,0)" xlink:href="#aE"/><use transform="matrix(0.04938271604938272,0,0,0.04938271604938272,59.1604938271605,0)" xlink:href="#aw"/><use transform="matrix(0.04938271604938272,0,0,0.04938271604938272,63.061728395061735,0)" xlink:href="#aL"/><use transform="matrix(0.04938271604938272,0,0,0.04938271604938272,72.93827160493828,0)" xlink:href="#aC"/><use transform="matrix(0.04938271604938272,0,0,0.04938271604938272,81.82716049382717,0)" xlink:href="#ay"/></g><path fill="#fff" d="M30 0v-248h33v221h125V0H30" id="cm"/><g id="ah"><use transform="matrix(0.04938271604938272,0,0,0.04938271604938272,0,0)" xlink:href="#cm"/><use transform="matrix(0.04938271604938272,0,0,0.04938271604938272,9.876543209876544,0)" xlink:href="#aw"/><use transform="matrix(0.04938271604938272,0,0,0.04938271604938272,13.777777777777779,0)" xlink:href="#ay"/><use transform="matrix(0.04938271604938272,0,0,0.04938271604938272,23.654320987654323,0)" xlink:href="#az"/><use transform="matrix(0.04938271604938272,0,0,0.04938271604938272,33.53086419753087,0)" xlink:href="#aL"/><use transform="matrix(0.04938271604938272,0,0,0.04938271604938272,43.40740740740741,0)" xlink:href="#aG"/><use transform="matrix(0.04938271604938272,0,0,0.04938271604938272,53.283950617283956,0)" xlink:href="#aF"/></g><g id="ai"><use transform="matrix(0.04938271604938272,0,0,0.04938271604938272,0,0)" xlink:href="#cj"/><use transform="matrix(0.04938271604938272,0,0,0.04938271604938272,9.876543209876544,0)" xlink:href="#aH"/><use transform="matrix(0.04938271604938272,0,0,0.04938271604938272,19.75308641975309,0)" xlink:href="#ch"/><use transform="matrix(0.04938271604938272,0,0,0.04938271604938272,24.69135802469136,0)" xlink:href="#aL"/></g><g id="aj"><use transform="matrix(0.04938271604938272,0,0,0.04938271604938272,0,0)" xlink:href="#av"/><use transform="matrix(0.04938271604938272,0,0,0.04938271604938272,12.790123456790125,0)" xlink:href="#aF"/><use transform="matrix(0.04938271604938272,0,0,0.04938271604938272,22.66666666666667,0)" xlink:href="#aB"/><use transform="matrix(0.04938271604938272,0,0,0.04938271604938272,28.54320987654322,0)" xlink:href="#aB"/><use transform="matrix(0.04938271604938272,0,0,0.04938271604938272,34.41975308641976,0)" xlink:href="#ay"/><use transform="matrix(0.04938271604938272,0,0,0.04938271604938272,44.296296296296305,0)" xlink:href="#aF"/></g><g id="ak"><use transform="matrix(0.04938271604938272,0,0,0.04938271604938272,0,0)" xlink:href="#ay"/><use transform="matrix(0.04938271604938272,0,0,0.04938271604938272,9.876543209876544,0)" xlink:href="#aw"/><use transform="matrix(0.04938271604938272,0,0,0.04938271604938272,13.777777777777779,0)" xlink:href="#ay"/><use transform="matrix(0.04938271604938272,0,0,0.04938271604938272,23.654320987654323,0)" xlink:href="#aC"/><use transform="matrix(0.04938271604938272,0,0,0.04938271604938272,32.543209876543216,0)" xlink:href="#aA"/><use transform="matrix(0.04938271604938272,0,0,0.04938271604938272,37.48148148148149,0)" xlink:href="#aB"/><use transform="matrix(0.04938271604938272,0,0,0.04938271604938272,43.35802469135803,0)" xlink:href="#aM"/><use transform="matrix(0.04938271604938272,0,0,0.04938271604938272,53.23456790123457,0)" xlink:href="#az"/><use transform="matrix(0.04938271604938272,0,0,0.04938271604938272,63.111111111111114,0)" xlink:href="#ax"/><use transform="matrix(0.04938271604938272,0,0,0.04938271604938272,67.01234567901236,0)" xlink:href="#aC"/><use transform="matrix(0.04938271604938272,0,0,0.04938271604938272,75.90123456790124,0)" xlink:href="#aF"/></g><g id="al"><use transform="matrix(0.04938271604938272,0,0,0.04938271604938272,0,0)" xlink:href="#aE"/><use transform="matrix(0.04938271604938272,0,0,0.04938271604938272,9.876543209876544,0)" xlink:href="#aB"/><use transform="matrix(0.04938271604938272,0,0,0.04938271604938272,15.753086419753087,0)" xlink:href="#aF"/><use transform="matrix(0.04938271604938272,0,0,0.04938271604938272,25.629629629629633,0)" xlink:href="#aG"/><use transform="matrix(0.04938271604938272,0,0,0.04938271604938272,35.50617283950618,0)" xlink:href="#aH"/><use transform="matrix(0.04938271604938272,0,0,0.04938271604938272,45.38271604938272,0)" xlink:href="#aC"/><use transform="matrix(0.04938271604938272,0,0,0.04938271604938272,54.27160493827161,0)" xlink:href="#aA"/><use transform="matrix(0.04938271604938272,0,0,0.04938271604938272,59.20987654320988,0)" xlink:href="#aF"/></g><g id="am"><use transform="matrix(0.04938271604938272,0,0,0.04938271604938272,0,0)" xlink:href="#aG"/><use transform="matrix(0.04938271604938272,0,0,0.04938271604938272,9.876543209876544,0)" xlink:href="#ay"/><use transform="matrix(0.04938271604938272,0,0,0.04938271604938272,19.75308641975309,0)" xlink:href="#aK"/><use transform="matrix(0.04938271604938272,0,0,0.04938271604938272,28.641975308641978,0)" xlink:href="#aH"/><use transform="matrix(0.04938271604938272,0,0,0.04938271604938272,38.51851851851852,0)" xlink:href="#ay"/><use transform="matrix(0.04938271604938272,0,0,0.04938271604938272,48.39506172839506,0)" xlink:href="#aw"/><use transform="matrix(0.04938271604938272,0,0,0.04938271604938272,52.2962962962963,0)" xlink:href="#aA"/><use transform="matrix(0.04938271604938272,0,0,0.04938271604938272,57.23456790123457,0)" xlink:href="#aF"/></g><g id="an"><use transform="matrix(0.05,0,0,0.05,0,0)" xlink:href="#ca"/><use transform="matrix(0.05,0,0,0.05,5,0)" xlink:href="#bW"/><use transform="matrix(0.05,0,0,0.05,17.950000000000003,0)" xlink:href="#bD"/><use transform="matrix(0.05,0,0,0.05,27.950000000000003,0)" xlink:href="#bG"/><use transform="matrix(0.05,0,0,0.05,42.900000000000006,0)" xlink:href="#cb"/><use transform="matrix(0.05,0,0,0.05,52.900000000000006,0)" xlink:href="#bC"/><use transform="matrix(0.05,0,0,0.05,56.85,0)" xlink:href="#bK"/></g><g id="ao"><use transform="matrix(0.05,0,0,0.05,0,0)" xlink:href="#bJ"/><use transform="matrix(0.05,0,0,0.05,10,0)" xlink:href="#bF"/><use transform="matrix(0.05,0,0,0.05,15.949999999999998,0)" xlink:href="#bK"/><use transform="matrix(0.05,0,0,0.05,25.950000000000003,0)" xlink:href="#bH"/><use transform="matrix(0.05,0,0,0.05,35.95,0)" xlink:href="#bP"/><use transform="matrix(0.05,0,0,0.05,45.95,0)" xlink:href="#bL"/><use transform="matrix(0.05,0,0,0.05,54.95,0)" xlink:href="#bU"/><use transform="matrix(0.05,0,0,0.05,59.95,0)" xlink:href="#bK"/><use transform="matrix(0.05,0,0,0.05,69.95,0)" xlink:href="#cc"/></g><path fill="#fff" d="M190 0L58-211 59 0H30v-248h39L202-35l-2-213h31V0h-41" id="cn"/><g id="ap"><use transform="matrix(0.04938271604938272,0,0,0.04938271604938272,0,0)" xlink:href="#cn"/><use transform="matrix(0.04938271604938272,0,0,0.04938271604938272,12.790123456790125,0)" xlink:href="#ay"/><use transform="matrix(0.04938271604938272,0,0,0.04938271604938272,22.66666666666667,0)" xlink:href="#cj"/><use transform="matrix(0.04938271604938272,0,0,0.04938271604938272,32.543209876543216,0)" xlink:href="#aF"/><use transform="matrix(0.04938271604938272,0,0,0.04938271604938272,42.41975308641976,0)" xlink:href="#aC"/><use transform="matrix(0.04938271604938272,0,0,0.04938271604938272,51.308641975308646,0)" xlink:href="#ax"/><use transform="matrix(0.04938271604938272,0,0,0.04938271604938272,55.20987654320988,0)" xlink:href="#aL"/><use transform="matrix(0.04938271604938272,0,0,0.04938271604938272,65.08641975308643,0)" xlink:href="#aC"/><use transform="matrix(0.04938271604938272,0,0,0.04938271604938272,73.97530864197532,0)" xlink:href="#ax"/><use transform="matrix(0.04938271604938272,0,0,0.04938271604938272,77.87654320987656,0)" xlink:href="#aM"/><use transform="matrix(0.04938271604938272,0,0,0.04938271604938272,87.7530864197531,0)" xlink:href="#az"/></g><g id="aq"><use transform="matrix(0.04938271604938272,0,0,0.04938271604938272,0,0)" xlink:href="#aG"/><use transform="matrix(0.04938271604938272,0,0,0.04938271604938272,9.876543209876544,0)" xlink:href="#ay"/><use transform="matrix(0.04938271604938272,0,0,0.04938271604938272,19.75308641975309,0)" xlink:href="#aK"/><use transform="matrix(0.04938271604938272,0,0,0.04938271604938272,28.641975308641978,0)" xlink:href="#aF"/><use transform="matrix(0.04938271604938272,0,0,0.04938271604938272,38.51851851851852,0)" xlink:href="#aw"/><use transform="matrix(0.04938271604938272,0,0,0.04938271604938272,42.41975308641975,0)" xlink:href="#aH"/><use transform="matrix(0.04938271604938272,0,0,0.04938271604938272,52.2962962962963,0)" xlink:href="#aC"/><use transform="matrix(0.04938271604938272,0,0,0.04938271604938272,61.18518518518519,0)" xlink:href="#ax"/><use transform="matrix(0.04938271604938272,0,0,0.04938271604938272,65.08641975308643,0)" xlink:href="#aM"/><use transform="matrix(0.04938271604938272,0,0,0.04938271604938272,74.96296296296298,0)" xlink:href="#az"/></g><path fill="#fff" d="M101-234c-31-9-42 10-38 44h38v23H63V0H32v-167H5v-23h27c-7-52 17-82 69-68v24" id="co"/><g id="ar"><use transform="matrix(0.04938271604938272,0,0,0.04938271604938272,0,0)" xlink:href="#ck"/><use transform="matrix(0.04938271604938272,0,0,0.04938271604938272,14.765432098765434,0)" xlink:href="#aF"/><use transform="matrix(0.04938271604938272,0,0,0.04938271604938272,24.641975308641978,0)" xlink:href="#co"/><use transform="matrix(0.04938271604938272,0,0,0.04938271604938272,29.58024691358025,0)" xlink:href="#ax"/><use transform="matrix(0.04938271604938272,0,0,0.04938271604938272,33.48148148148149,0)" xlink:href="#aC"/><use transform="matrix(0.04938271604938272,0,0,0.04938271604938272,42.37037037037038,0)" xlink:href="#aL"/><use transform="matrix(0.04938271604938272,0,0,0.04938271604938272,52.24691358024693,0)" xlink:href="#aC"/><use transform="matrix(0.04938271604938272,0,0,0.04938271604938272,61.13580246913581,0)" xlink:href="#ax"/><use transform="matrix(0.04938271604938272,0,0,0.04938271604938272,65.03703703703705,0)" xlink:href="#aM"/><use transform="matrix(0.04938271604938272,0,0,0.04938271604938272,74.9135802469136,0)" xlink:href="#az"/></g><g id="as"><use transform="matrix(0.04938271604938272,0,0,0.04938271604938272,0,0)" xlink:href="#ay"/><use transform="matrix(0.04938271604938272,0,0,0.04938271604938272,9.876543209876544,0)" xlink:href="#aJ"/><use transform="matrix(0.04938271604938272,0,0,0.04938271604938272,18.765432098765434,0)" xlink:href="#aA"/><use transform="matrix(0.04938271604938272,0,0,0.04938271604938272,23.703703703703706,0)" xlink:href="#aL"/><use transform="matrix(0.04938271604938272,0,0,0.04938271604938272,33.580246913580254,0)" xlink:href="#aA"/><use transform="matrix(0.04938271604938272,0,0,0.04938271604938272,38.518518518518526,0)" xlink:href="#aH"/><use transform="matrix(0.04938271604938272,0,0,0.04938271604938272,48.39506172839507,0)" xlink:href="#aJ"/></g><g id="at"><use transform="matrix(0.04938271604938272,0,0,0.04938271604938272,0,0)" xlink:href="#aE"/><use transform="matrix(0.04938271604938272,0,0,0.04938271604938272,9.876543209876544,0)" xlink:href="#aL"/><use transform="matrix(0.04938271604938272,0,0,0.04938271604938272,19.75308641975309,0)" xlink:href="#aB"/><use transform="matrix(0.04938271604938272,0,0,0.04938271604938272,25.629629629629633,0)" xlink:href="#aL"/></g><g id="au"><use transform="matrix(0.04938271604938272,0,0,0.04938271604938272,0,0)" xlink:href="#aB"/><use transform="matrix(0.04938271604938272,0,0,0.04938271604938272,5.8765432098765435,0)" xlink:href="#ay"/><use transform="matrix(0.04938271604938272,0,0,0.04938271604938272,15.753086419753087,0)" xlink:href="#ay"/><use transform="matrix(0.04938271604938272,0,0,0.04938271604938272,25.629629629629633,0)" xlink:href="#aO"/><use transform="matrix(0.04938271604938272,0,0,0.04938271604938272,40.39506172839506,0)" xlink:href="#aD"/><use transform="matrix(0.04938271604938272,0,0,0.04938271604938272,50.27160493827161,0)" xlink:href="#aF"/><use transform="matrix(0.04938271604938272,0,0,0.04938271604938272,60.14814814814815,0)" xlink:href="#aw"/><use transform="matrix(0.04938271604938272,0,0,0.04938271604938272,64.0493827160494,0)" xlink:href="#aJ"/><use transform="matrix(0.04938271604938272,0,0,0.04938271604938272,72.93827160493828,0)" xlink:href="#aF"/></g></defs></g></svg>