<svg xmlns="http://www.w3.org/2000/svg" xmlns:xlink="http://www.w3.org/1999/xlink" xmlns:lucid="lucid" width="2068.08" height="980"><g transform="translate(840 -140)" lucid:page-tab-id="0_0"><path d="M-820 166c0-3.3 2.7-6 6-6H827.26l308.3 465c1.85 2.76 1.85 7.24 0 10l-308.3 465H-814c-3.3 0-6-2.7-6-6z" stroke="#000" stroke-opacity="0" stroke-width="3" fill="#83bbe5"/><path d="M-801.92 666c0-3.3 2.7-6 6-6h308c3.3 0 6 2.7 6 6v408c0 3.3-2.7 6-6 6h-308c-3.3 0-6-2.7-6-6z" stroke="#000" stroke-opacity="0" stroke-width="3" fill="#5abaa7"/><use xlink:href="#a" transform="matrix(1,0,0,1,-796.9200000000001,665) translate(8.481481481481467 183.60416666666669)"/><use xlink:href="#b" transform="matrix(1,0,0,1,-796.9200000000001,665) translate(14.40740740740739 247.60416666666669)"/><use xlink:href="#c" transform="matrix(1,0,0,1,-796.9200000000001,665) translate(88.48148148148147 247.60416666666669)"/><path d="M-461.92 666c0-3.3 2.7-6 6-6h308c3.3 0 6 2.7 6 6v408c0 3.3-2.7 6-6 6h-308c-3.3 0-6-2.7-6-6z" stroke="#000" stroke-opacity="0" stroke-width="3" fill="#5abaa7"/><use xlink:href="#d" transform="matrix(1,0,0,1,-456.9200000000001,665) translate(30.703703703703695 151.57291666666669)"/><use xlink:href="#e" transform="matrix(1,0,0,1,-456.9200000000001,665) translate(220.03703703703704 151.57291666666669)"/><use xlink:href="#f" transform="matrix(1,0,0,1,-456.9200000000001,665) translate(54.40740740740739 215.57291666666669)"/><use xlink:href="#g" transform="matrix(1,0,0,1,-456.9200000000001,665) translate(84.1111111111111 279.5729166666667)"/><path d="M-121.92 666c0-3.3 2.7-6 6-6h308c3.3 0 6 2.7 6 6v408c0 3.3-2.7 6-6 6h-308c-3.3 0-6-2.7-6-6z" stroke="#000" stroke-opacity="0" stroke-width="3" fill="#5abaa7"/><use xlink:href="#h" transform="matrix(1,0,0,1,-116.92000000000007,665) translate(27.666666666666657 183.60416666666669)"/><use xlink:href="#i" transform="matrix(1,0,0,1,-116.92000000000007,665) translate(205.44444444444446 183.60416666666669)"/><use xlink:href="#j" transform="matrix(1,0,0,1,-116.92000000000007,665) translate(64.70370370370371 247.60416666666669)"/><path d="M218.08 666c0-3.3 2.7-6 6-6h308c3.3 0 6 2.7 6 6v408c0 3.3-2.7 6-6 6h-308c-3.3 0-6-2.7-6-6z" stroke="#000" stroke-opacity="0" stroke-width="3" fill="#5abaa7"/><use xlink:href="#k" transform="matrix(1,0,0,1,223.07999999999993,665) translate(48.40740740740742 215.63541666666669)"/><path d="M-801.92 527.47c0-3.3 2.7-6 6-6.02l498.53-1.43c3.32 0 8.7-.02 12 0l1227.48 1.44c3.3 0 7.38 2.3 9.1 5.15l53.8 89.72c1.72 2.85.4 5.15-2.9 5.15H-795.92c-3.3 0-6-2.7-6-6z" stroke="#000" stroke-opacity="0" stroke-width="3" fill="#a3d977"/><use xlink:href="#l" transform="matrix(1,0,0,1,-801.9200000000001,520) translate(492.0370370370373 61.66666666666666)"/><use xlink:href="#m" transform="matrix(1,0,0,1,-801.9200000000001,520) translate(749.5185185185186 61.66666666666666)"/><use xlink:href="#n" transform="matrix(1,0,0,1,-801.9200000000001,520) translate(823.5925925925926 61.66666666666666)"/><use xlink:href="#o" transform="matrix(1,0,0,1,-801.9200000000001,520) translate(1060.4814814814813 61.66666666666666)"/><path d="M1205.1 635.2c1.64-2.87 1.64-7.53 0-10.4L941.06 165.2c-1.65-2.87-5.68-5.2-9-5.2h-168c-3.3 0-4.62 2.3-2.92 5.15L1035 624.85c1.7 2.84 1.7 7.46 0 10.3l-273.85 459.7c-1.7 2.84-.38 5.15 2.93 5.15h168c3.3 0 7.34-2.33 9-5.2z" stroke="#000" stroke-opacity="0" stroke-width="3" fill="#ffdf71"/><path d="M558.08 666c0-3.3 2.7-6 6-6h428c3.3 0 4.6 2.3 2.9 5.14l-243.8 404.72c-1.7 2.84-5.8 5.2-9.1 5.3l-178 4.68c-3.3.1-6-2.53-6-5.84z" stroke="#000" stroke-opacity="0" stroke-width="3" fill="#5abaa7"/><use xlink:href="#p" transform="matrix(1,0,0,1,558.0799999999999,660) translate(0 188.66666666666669)"/><use xlink:href="#q" transform="matrix(1,0,0,1,558.0799999999999,660) translate(29.629629629629605 188.66666666666669)"/><use xlink:href="#r" transform="matrix(1,0,0,1,558.0799999999999,660) translate(233.62962962962945 188.66666666666669)"/><use xlink:href="#s" transform="matrix(1,0,0,1,558.0799999999999,660) translate(324.01 188.66666666666669)"/><use xlink:href="#s" transform="matrix(1,0,0,1,558.0799999999999,660) translate(360.01 188.66666666666669)"/><use xlink:href="#t" transform="matrix(1,0,0,1,558.0799999999999,660) translate(396.01 188.66666666666669)"/><use xlink:href="#u" transform="matrix(1,0,0,1,558.0799999999999,660) translate(36.01 252.66666666666663)"/><path d="M-801.92 411c0-3.3 2.7-6 6-6.02l481.57-1.43c3.32 0 8.7-.03 12-.04l626.45-1.87 12-.03 525.98-1.58c3.3 0 7.4 2.26 9.16 5.08l58.68 94.8c1.75 2.82.47 5.1-2.84 5.1h-1723c-3.3 0-6-2.7-6-6z" stroke="#000" stroke-opacity="0" stroke-width="3" fill="#a3d977"/><g><use xlink:href="#v" transform="matrix(1,0,0,1,-801.9200000000001,400) translate(561.5000000000002 63.16666666666666)"/><use xlink:href="#w" transform="matrix(1,0,0,1,-801.9200000000001,400) translate(925.2037037037037 63.16666666666666)"/></g><path d="M-801.92 296c0-3.3 2.7-6 6-6.02l459.04-1.43c3.3 0 8.68-.03 12-.04l664.8-2.07 12-.03 440.16-1.38c3.3 0 7.4 2.26 9.16 5.08l58.68 94.8c1.75 2.82.47 5.1-2.84 5.1h-1653c-3.3 0-6-2.7-6-6z" stroke="#000" stroke-opacity="0" stroke-width="3" fill="#a3d977"/><g><use xlink:href="#x" transform="matrix(1,0,0,1,-801.9200000000001,285.00000000000006) translate(467.0185185185188 63.16666666666666)"/><use xlink:href="#m" transform="matrix(1,0,0,1,-801.9200000000001,285.00000000000006) translate(656.351851851852 63.16666666666666)"/><use xlink:href="#y" transform="matrix(1,0,0,1,-801.9200000000001,285.00000000000006) translate(730.425925925926 63.16666666666666)"/><use xlink:href="#z" transform="matrix(1,0,0,1,-801.9200000000001,285.00000000000006) translate(970.1296296296296 63.16666666666666)"/></g><path d="M-801.92 181c0-3.3 2.7-6 6-6.02l433.67-1.43c3.3 0 8.7-.03 12-.04l1077.33-3.48c3.3 0 7.33 2.3 8.98 5.2l54.04 94.57c1.65 2.87.3 5.2-3.02 5.2H-795.9c-3.3 0-6-2.7-6-6z" stroke="#000" stroke-opacity="0" stroke-width="3" fill="#a3d977"/><g><use xlink:href="#A" transform="matrix(1,0,0,1,-801.9200000000001,170) translate(504.5370370370373 63.66666666666666)"/><use xlink:href="#m" transform="matrix(1,0,0,1,-801.9200000000001,170) translate(738.3148148148149 63.66666666666666)"/><use xlink:href="#B" transform="matrix(1,0,0,1,-801.9200000000001,170) translate(812.3888888888889 63.66666666666666)"/></g><g><path d="M947.4 263.1c2.84-1.7 6.53-.8 8.24 2.04L1073.2 460.5c1.7 2.83.8 6.52-2.05 8.23l-62.26 37.47c-2.85 1.7-6.53.8-8.24-2.05L883.1 308.8c-1.7-2.84-.8-6.53 2.04-8.24z" stroke="#000" stroke-opacity="0" stroke-width="3" fill="#fff" fill-opacity="0"/></g><g><use xlink:href="#C" transform="matrix(0.5156336887434267,0.8568091380423337,-0.8568091380423337,0.5156336887434267,950.8372964410896,266.8622141339288) translate(24.777777777777942 47.3541666666666)"/></g><g><path d="M885.18 970.38c-2.86-1.67-3.83-5.35-2.16-8.2l114.8-197c1.67-2.86 5.35-3.83 8.2-2.16l62.8 36.6c2.85 1.66 3.82 5.33 2.15 8.2l-114.8 196.98c-1.67 2.87-5.34 3.83-8.2 2.17z" stroke="#000" stroke-opacity="0" stroke-width="3" fill="#fff" fill-opacity="0"/></g><g><use xlink:href="#C" transform="matrix(0.503521813789191,-0.8639825131554708,0.8639825131554708,0.503521813789191,886.8375216347233,965.5534996604819) translate(24.777777777777942 47.3541666666666)"/></g><defs><path fill="#333" d="M30-248c87 1 191-15 191 75 0 78-77 80-158 76V0H30v-248zm33 125c57 0 124 11 124-50 0-59-68-47-124-48v98" id="D"/><path fill="#333" d="M114-163C36-179 61-72 57 0H25l-1-190h30c1 12-1 29 2 39 6-27 23-49 58-41v29" id="E"/><path fill="#333" d="M100-194c62-1 85 37 85 99 1 63-27 99-86 99S16-35 15-95c0-66 28-99 85-99zM99-20c44 1 53-31 53-75 0-43-8-75-51-75s-53 32-53 75 10 74 51 75" id="F"/><path fill="#333" d="M135-143c-3-34-86-38-87 0 15 53 115 12 119 90S17 21 10-45l28-5c4 36 97 45 98 0-10-56-113-15-118-90-4-57 82-63 122-42 12 7 21 19 24 35" id="G"/><path fill="#333" d="M115-194c55 1 70 41 70 98S169 2 115 4C84 4 66-9 55-30l1 105H24l-1-265h31l2 30c10-21 28-34 59-34zm-8 174c40 0 45-34 45-75s-6-73-45-74c-42 0-51 32-51 76 0 43 10 73 51 73" id="H"/><path fill="#333" d="M100-194c63 0 86 42 84 106H49c0 40 14 67 53 68 26 1 43-12 49-29l28 8c-11 28-37 45-77 45C44 4 14-33 15-96c1-61 26-98 85-98zm52 81c6-60-76-77-97-28-3 7-6 17-6 28h103" id="I"/><path fill="#333" d="M96-169c-40 0-48 33-48 73s9 75 48 75c24 0 41-14 43-38l32 2c-6 37-31 61-74 61-59 0-76-41-82-99-10-93 101-131 147-64 4 7 5 14 7 22l-32 3c-4-21-16-35-41-35" id="J"/><path fill="#333" d="M24-231v-30h32v30H24zM24 0v-190h32V0H24" id="K"/><path fill="#333" d="M100-194c62-1 85 37 85 99 1 63-27 99-86 99S16-35 15-95c0-66 28-99 85-99zM99-20c44 1 53-31 53-75 0-43-8-75-51-75s-53 32-53 75 10 74 51 75zM76-211c8-23 27-35 38-54h36v5l-58 49H76" id="L"/><path fill="#333" d="M117-194c89-4 53 116 60 194h-32v-121c0-31-8-49-39-48C34-167 62-67 57 0H25l-1-190h30c1 10-1 24 2 32 11-22 29-35 61-36" id="M"/><g id="a"><use transform="matrix(0.14814814814814817,0,0,0.14814814814814817,0,0)" xlink:href="#D"/><use transform="matrix(0.14814814814814817,0,0,0.14814814814814817,35.55555555555556,0)" xlink:href="#E"/><use transform="matrix(0.14814814814814817,0,0,0.14814814814814817,53.18518518518519,0)" xlink:href="#F"/><use transform="matrix(0.14814814814814817,0,0,0.14814814814814817,82.81481481481482,0)" xlink:href="#G"/><use transform="matrix(0.14814814814814817,0,0,0.14814814814814817,109.4814814814815,0)" xlink:href="#H"/><use transform="matrix(0.14814814814814817,0,0,0.14814814814814817,139.11111111111114,0)" xlink:href="#I"/><use transform="matrix(0.14814814814814817,0,0,0.14814814814814817,168.74074074074076,0)" xlink:href="#J"/><use transform="matrix(0.14814814814814817,0,0,0.14814814814814817,195.40740740740742,0)" xlink:href="#J"/><use transform="matrix(0.14814814814814817,0,0,0.14814814814814817,222.07407407407413,0)" xlink:href="#K"/><use transform="matrix(0.14814814814814817,0,0,0.14814814814814817,233.77777777777783,0)" xlink:href="#L"/><use transform="matrix(0.14814814814814817,0,0,0.14814814814814817,263.40740740740745,0)" xlink:href="#M"/></g><path fill="#333" d="M85-194c31 0 48 13 60 33l-1-100h32l1 261h-30c-2-10 0-23-3-31C134-8 116 4 85 4 32 4 16-35 15-94c0-66 23-100 70-100zm9 24c-40 0-46 34-46 75 0 40 6 74 45 74 42 0 51-32 51-76 0-42-9-74-50-73" id="N"/><g id="b"><use transform="matrix(0.14814814814814817,0,0,0.14814814814814817,0,0)" xlink:href="#N"/><use transform="matrix(0.14814814814814817,0,0,0.14814814814814817,29.629629629629633,0)" xlink:href="#I"/></g><path fill="#333" d="M210-169c-67 3-38 105-44 169h-31v-121c0-29-5-50-35-48C34-165 62-65 56 0H25l-1-190h30c1 10-1 24 2 32 10-44 99-50 107 0 11-21 27-35 58-36 85-2 47 119 55 194h-31v-121c0-29-5-49-35-48" id="O"/><path fill="#333" d="M141-36C126-15 110 5 73 4 37 3 15-17 15-53c-1-64 63-63 125-63 3-35-9-54-41-54-24 1-41 7-42 31l-33-3c5-37 33-52 76-52 45 0 72 20 72 64v82c-1 20 7 32 28 27v20c-31 9-61-2-59-35zM48-53c0 20 12 33 32 33 41-3 63-29 60-74-43 2-92-5-92 41" id="P"/><g id="c"><use transform="matrix(0.14814814814814817,0,0,0.14814814814814817,0,0)" xlink:href="#O"/><use transform="matrix(0.14814814814814817,0,0,0.14814814814814817,44.296296296296305,0)" xlink:href="#I"/><use transform="matrix(0.14814814814814817,0,0,0.14814814814814817,73.92592592592594,0)" xlink:href="#E"/><use transform="matrix(0.14814814814814817,0,0,0.14814814814814817,91.55555555555557,0)" xlink:href="#J"/><use transform="matrix(0.14814814814814817,0,0,0.14814814814814817,118.22222222222224,0)" xlink:href="#P"/><use transform="matrix(0.14814814814814817,0,0,0.14814814814814817,147.85185185185188,0)" xlink:href="#N"/><use transform="matrix(0.14814814814814817,0,0,0.14814814814814817,177.48148148148155,0)" xlink:href="#F"/></g><path fill="#333" d="M240 0l2-218c-23 76-54 145-80 218h-23L58-218 59 0H30v-248h44l77 211c21-75 51-140 76-211h43V0h-30" id="Q"/><path fill="#333" d="M24-231v-30h32v30H24zM-9 49c24 4 33-6 33-30v-209h32V24c2 40-23 58-65 49V49" id="R"/><g id="d"><use transform="matrix(0.14814814814814817,0,0,0.14814814814814817,0,0)" xlink:href="#Q"/><use transform="matrix(0.14814814814814817,0,0,0.14814814814814817,44.296296296296305,0)" xlink:href="#P"/><use transform="matrix(0.14814814814814817,0,0,0.14814814814814817,73.92592592592594,0)" xlink:href="#M"/><use transform="matrix(0.14814814814814817,0,0,0.14814814814814817,103.55555555555557,0)" xlink:href="#I"/><use transform="matrix(0.14814814814814817,0,0,0.14814814814814817,133.18518518518522,0)" xlink:href="#R"/><use transform="matrix(0.14814814814814817,0,0,0.14814814814814817,144.8888888888889,0)" xlink:href="#F"/></g><g id="e"><use transform="matrix(0.14814814814814817,0,0,0.14814814814814817,0,0)" xlink:href="#N"/><use transform="matrix(0.14814814814814817,0,0,0.14814814814814817,29.629629629629633,0)" xlink:href="#I"/></g><path fill="#333" d="M24 0v-261h32V0H24" id="S"/><path fill="#333" d="M100-194c63 0 86 42 84 106H49c0 40 14 67 53 68 26 1 43-12 49-29l28 8c-11 28-37 45-77 45C44 4 14-33 15-96c1-61 26-98 85-98zm52 81c6-60-76-77-97-28-3 7-6 17-6 28h103zm-74-98c8-23 27-35 38-54h36v5l-58 49H78" id="T"/><g id="f"><use transform="matrix(0.14814814814814817,0,0,0.14814814814814817,0,0)" xlink:href="#P"/><use transform="matrix(0.14814814814814817,0,0,0.14814814814814817,29.629629629629633,0)" xlink:href="#S"/><use transform="matrix(0.14814814814814817,0,0,0.14814814814814817,41.333333333333336,0)" xlink:href="#O"/><use transform="matrix(0.14814814814814817,0,0,0.14814814814814817,85.62962962962965,0)" xlink:href="#P"/><use transform="matrix(0.14814814814814817,0,0,0.14814814814814817,115.25925925925928,0)" xlink:href="#J"/><use transform="matrix(0.14814814814814817,0,0,0.14814814814814817,141.92592592592595,0)" xlink:href="#T"/><use transform="matrix(0.14814814814814817,0,0,0.14814814814814817,171.5555555555556,0)" xlink:href="#M"/></g><path fill="#333" d="M108 0H70L1-190h34L89-25l56-165h34" id="U"/><path fill="#333" d="M59-47c-2 24 18 29 38 22v24C64 9 27 4 27-40v-127H5v-23h24l9-43h21v43h35v23H59v120" id="V"/><path fill="#333" d="M84 4C-5 8 30-112 23-190h32v120c0 31 7 50 39 49 72-2 45-101 50-169h31l1 190h-30c-1-10 1-25-2-33-11 22-28 36-60 37" id="W"/><g id="g"><use transform="matrix(0.14814814814814817,0,0,0.14814814814814817,0,0)" xlink:href="#U"/><use transform="matrix(0.14814814814814817,0,0,0.14814814814814817,26.66666666666667,0)" xlink:href="#K"/><use transform="matrix(0.14814814814814817,0,0,0.14814814814814817,38.37037037037038,0)" xlink:href="#E"/><use transform="matrix(0.14814814814814817,0,0,0.14814814814814817,56.000000000000014,0)" xlink:href="#V"/><use transform="matrix(0.14814814814814817,0,0,0.14814814814814817,70.81481481481484,0)" xlink:href="#W"/><use transform="matrix(0.14814814814814817,0,0,0.14814814814814817,100.44444444444447,0)" xlink:href="#P"/><use transform="matrix(0.14814814814814817,0,0,0.14814814814814817,130.0740740740741,0)" xlink:href="#S"/></g><path fill="#333" d="M137 0h-34L2-248h35l83 218 83-218h36" id="X"/><g id="h"><use transform="matrix(0.14814814814814817,0,0,0.14814814814814817,0,0)" xlink:href="#X"/><use transform="matrix(0.14814814814814817,0,0,0.14814814814814817,32.592592592592595,0)" xlink:href="#I"/><use transform="matrix(0.14814814814814817,0,0,0.14814814814814817,62.22222222222223,0)" xlink:href="#M"/><use transform="matrix(0.14814814814814817,0,0,0.14814814814814817,91.85185185185186,0)" xlink:href="#V"/><use transform="matrix(0.14814814814814817,0,0,0.14814814814814817,106.66666666666669,0)" xlink:href="#P"/><use transform="matrix(0.14814814814814817,0,0,0.14814814814814817,136.2962962962963,0)" xlink:href="#G"/></g><g id="i"><use transform="matrix(0.14814814814814817,0,0,0.14814814814814817,0,0)" xlink:href="#H"/><use transform="matrix(0.14814814814814817,0,0,0.14814814814814817,29.629629629629633,0)" xlink:href="#F"/><use transform="matrix(0.14814814814814817,0,0,0.14814814814814817,59.25925925925927,0)" xlink:href="#E"/></g><path fill="#333" d="M33 0v-248h34V0H33" id="Y"/><g id="j"><use transform="matrix(0.14814814814814817,0,0,0.14814814814814817,0,0)" xlink:href="#Y"/><use transform="matrix(0.14814814814814817,0,0,0.14814814814814817,14.814814814814817,0)" xlink:href="#M"/><use transform="matrix(0.14814814814814817,0,0,0.14814814814814817,44.44444444444445,0)" xlink:href="#V"/><use transform="matrix(0.14814814814814817,0,0,0.14814814814814817,59.25925925925927,0)" xlink:href="#I"/><use transform="matrix(0.14814814814814817,0,0,0.14814814814814817,88.8888888888889,0)" xlink:href="#E"/><use transform="matrix(0.14814814814814817,0,0,0.14814814814814817,106.51851851851853,0)" xlink:href="#M"/><use transform="matrix(0.14814814814814817,0,0,0.14814814814814817,136.14814814814815,0)" xlink:href="#I"/><use transform="matrix(0.14814814814814817,0,0,0.14814814814814817,165.77777777777777,0)" xlink:href="#V"/></g><path fill="#333" d="M30 0v-248h33v221h125V0H30" id="Z"/><path fill="#333" d="M177-190C167-65 218 103 67 71c-23-6-38-20-44-43l32-5c15 47 100 32 89-28v-30C133-14 115 1 83 1 29 1 15-40 15-95c0-56 16-97 71-98 29-1 48 16 59 35 1-10 0-23 2-32h30zM94-22c36 0 50-32 50-73 0-42-14-75-50-75-39 0-46 34-46 75s6 73 46 73" id="aa"/><path fill="#333" d="M34 0v-190h32V0H34zM24-211c8-23 27-35 38-54h36v5l-58 49H24" id="ab"/><g id="k"><use transform="matrix(0.14814814814814817,0,0,0.14814814814814817,0,0)" xlink:href="#Z"/><use transform="matrix(0.14814814814814817,0,0,0.14814814814814817,29.629629629629633,0)" xlink:href="#F"/><use transform="matrix(0.14814814814814817,0,0,0.14814814814814817,59.25925925925927,0)" xlink:href="#aa"/><use transform="matrix(0.14814814814814817,0,0,0.14814814814814817,88.8888888888889,0)" xlink:href="#ab"/><use transform="matrix(0.14814814814814817,0,0,0.14814814814814817,103.70370370370372,0)" xlink:href="#G"/><use transform="matrix(0.14814814814814817,0,0,0.14814814814814817,130.37037037037038,0)" xlink:href="#V"/><use transform="matrix(0.14814814814814817,0,0,0.14814814814814817,145.1851851851852,0)" xlink:href="#K"/><use transform="matrix(0.14814814814814817,0,0,0.14814814814814817,156.88888888888889,0)" xlink:href="#J"/><use transform="matrix(0.14814814814814817,0,0,0.14814814814814817,183.55555555555554,0)" xlink:href="#P"/></g><path fill="#333" d="M30 0v-248h187v28H63v79h144v27H63v87h162V0H30" id="ac"/><g id="l"><use transform="matrix(0.14814814814814803,0,0,0.14814814814814803,0,0)" xlink:href="#ac"/><use transform="matrix(0.14814814814814803,0,0,0.14814814814814803,35.55555555555553,0)" xlink:href="#G"/><use transform="matrix(0.14814814814814803,0,0,0.14814814814814803,62.22222222222217,0)" xlink:href="#V"/><use transform="matrix(0.14814814814814803,0,0,0.14814814814814803,77.03703703703698,0)" xlink:href="#E"/><use transform="matrix(0.14814814814814803,0,0,0.14814814814814803,94.6666666666666,0)" xlink:href="#W"/><use transform="matrix(0.14814814814814803,0,0,0.14814814814814803,124.29629629629622,0)" xlink:href="#J"/><use transform="matrix(0.14814814814814803,0,0,0.14814814814814803,150.96296296296285,0)" xlink:href="#V"/><use transform="matrix(0.14814814814814803,0,0,0.14814814814814803,165.77777777777766,0)" xlink:href="#W"/><use transform="matrix(0.14814814814814803,0,0,0.14814814814814803,195.40740740740728,0)" xlink:href="#E"/><use transform="matrix(0.14814814814814803,0,0,0.14814814814814803,213.0370370370369,0)" xlink:href="#P"/></g><g id="m"><use transform="matrix(0.14814814814814803,0,0,0.14814814814814803,0,0)" xlink:href="#N"/><use transform="matrix(0.14814814814814803,0,0,0.14814814814814803,29.629629629629605,0)" xlink:href="#I"/></g><g id="n"><use transform="matrix(0.14814814814814803,0,0,0.14814814814814803,0,0)" xlink:href="#D"/><use transform="matrix(0.14814814814814803,0,0,0.14814814814814803,35.55555555555553,0)" xlink:href="#E"/><use transform="matrix(0.14814814814814803,0,0,0.14814814814814803,53.18518518518515,0)" xlink:href="#F"/><use transform="matrix(0.14814814814814803,0,0,0.14814814814814803,82.81481481481475,0)" xlink:href="#J"/><use transform="matrix(0.14814814814814803,0,0,0.14814814814814803,109.4814814814814,0)" xlink:href="#I"/><use transform="matrix(0.14814814814814803,0,0,0.14814814814814803,139.111111111111,0)" xlink:href="#G"/><use transform="matrix(0.14814814814814803,0,0,0.14814814814814803,165.77777777777766,0)" xlink:href="#F"/><use transform="matrix(0.14814814814814803,0,0,0.14814814814814803,195.40740740740728,0)" xlink:href="#G"/></g><path fill="#333" d="M140-251c81 0 123 46 123 126C263-46 219 4 140 4 59 4 17-45 17-125s42-126 123-126zm0 227c63 0 89-41 89-101s-29-99-89-99c-61 0-89 39-89 99S79-25 140-24" id="ad"/><g id="o"><use transform="matrix(0.14814814814814803,0,0,0.14814814814814803,0,0)" xlink:href="#ad"/><use transform="matrix(0.14814814814814803,0,0,0.14814814814814803,41.481481481481445,0)" xlink:href="#H"/><use transform="matrix(0.14814814814814803,0,0,0.14814814814814803,71.11111111111106,0)" xlink:href="#I"/><use transform="matrix(0.14814814814814803,0,0,0.14814814814814803,100.74074074074066,0)" xlink:href="#E"/><use transform="matrix(0.14814814814814803,0,0,0.14814814814814803,118.37037037037028,0)" xlink:href="#P"/><use transform="matrix(0.14814814814814803,0,0,0.14814814814814803,147.9999999999999,0)" xlink:href="#V"/><use transform="matrix(0.14814814814814803,0,0,0.14814814814814803,162.8148148148147,0)" xlink:href="#K"/><use transform="matrix(0.14814814814814803,0,0,0.14814814814814803,174.5185185185184,0)" xlink:href="#U"/><use transform="matrix(0.14814814814814803,0,0,0.14814814814814803,201.18518518518505,0)" xlink:href="#F"/><use transform="matrix(0.14814814814814803,0,0,0.14814814814814803,230.81481481481467,0)" xlink:href="#G"/></g><path fill="#333" d="M185-189c-5-48-123-54-124 2 14 75 158 14 163 119 3 78-121 87-175 55-17-10-28-26-33-46l33-7c5 56 141 63 141-1 0-78-155-14-162-118-5-82 145-84 179-34 5 7 8 16 11 25" id="ae"/><g id="q"><use transform="matrix(0.14814814814814803,0,0,0.14814814814814803,0,0)" xlink:href="#ae"/><use transform="matrix(0.14814814814814803,0,0,0.14814814814814803,35.55555555555553,0)" xlink:href="#I"/><use transform="matrix(0.14814814814814803,0,0,0.14814814814814803,65.18518518518513,0)" xlink:href="#E"/><use transform="matrix(0.14814814814814803,0,0,0.14814814814814803,82.81481481481475,0)" xlink:href="#U"/><use transform="matrix(0.14814814814814803,0,0,0.14814814814814803,109.4814814814814,0)" xlink:href="#K"/><use transform="matrix(0.14814814814814803,0,0,0.14814814814814803,121.18518518518509,0)" xlink:href="#J"/><use transform="matrix(0.14814814814814803,0,0,0.14814814814814803,147.85185185185173,0)" xlink:href="#K"/><use transform="matrix(0.14814814814814803,0,0,0.14814814814814803,159.55555555555543,0)" xlink:href="#F"/></g><g id="r"><use transform="matrix(0.14814814814814803,0,0,0.14814814814814803,0,0)" xlink:href="#P"/><use transform="matrix(0.14814814814814803,0,0,0.14814814814814803,29.629629629629605,0)" xlink:href="#S"/></g><path fill="#333" d="M212-179c-10-28-35-45-73-45-59 0-87 40-87 99 0 60 29 101 89 101 43 0 62-24 78-52l27 14C228-24 195 4 139 4 59 4 22-46 18-125c-6-104 99-153 187-111 19 9 31 26 39 46" id="af"/><g id="u"><use transform="matrix(0.14814814814814803,0,0,0.14814814814814803,0,0)" xlink:href="#af"/><use transform="matrix(0.14814814814814803,0,0,0.14814814814814803,38.37037037037034,0)" xlink:href="#S"/><use transform="matrix(0.14814814814814803,0,0,0.14814814814814803,50.07407407407403,0)" xlink:href="#K"/><use transform="matrix(0.14814814814814803,0,0,0.14814814814814803,61.77777777777773,0)" xlink:href="#I"/><use transform="matrix(0.14814814814814803,0,0,0.14814814814814803,91.40740740740733,0)" xlink:href="#M"/><use transform="matrix(0.14814814814814803,0,0,0.14814814814814803,121.03703703703694,0)" xlink:href="#V"/><use transform="matrix(0.14814814814814803,0,0,0.14814814814814803,135.85185185185173,0)" xlink:href="#I"/></g><path fill="#333" d="M205 0l-28-72H64L36 0H1l101-248h38L239 0h-34zm-38-99l-47-123c-12 45-31 82-46 123h93" id="ag"/><g id="v"><use transform="matrix(0.14814814814814803,0,0,0.14814814814814803,0,0)" xlink:href="#ag"/><use transform="matrix(0.14814814814814803,0,0,0.14814814814814803,35.55555555555553,0)" xlink:href="#N"/><use transform="matrix(0.14814814814814803,0,0,0.14814814814814803,65.18518518518513,0)" xlink:href="#O"/><use transform="matrix(0.14814814814814803,0,0,0.14814814814814803,109.4814814814814,0)" xlink:href="#K"/><use transform="matrix(0.14814814814814803,0,0,0.14814814814814803,121.18518518518509,0)" xlink:href="#M"/><use transform="matrix(0.14814814814814803,0,0,0.14814814814814803,150.8148148148147,0)" xlink:href="#K"/><use transform="matrix(0.14814814814814803,0,0,0.14814814814814803,162.5185185185184,0)" xlink:href="#G"/><use transform="matrix(0.14814814814814803,0,0,0.14814814814814803,189.18518518518502,0)" xlink:href="#V"/><use transform="matrix(0.14814814814814803,0,0,0.14814814814814803,203.99999999999986,0)" xlink:href="#E"/><use transform="matrix(0.14814814814814803,0,0,0.14814814814814803,221.62962962962948,0)" xlink:href="#P"/><use transform="matrix(0.14814814814814803,0,0,0.14814814814814803,251.25925925925907,0)" xlink:href="#J"/><use transform="matrix(0.14814814814814803,0,0,0.14814814814814803,277.9259259259257,0)" xlink:href="#K"/><use transform="matrix(0.14814814814814803,0,0,0.14814814814814803,289.6296296296294,0)" xlink:href="#L"/><use transform="matrix(0.14814814814814803,0,0,0.14814814814814803,319.259259259259,0)" xlink:href="#M"/></g><path fill="#333" d="M63-220v92h138v28H63V0H30v-248h175v28H63" id="ah"/><g id="w"><use transform="matrix(0.14814814814814803,0,0,0.14814814814814803,0,0)" xlink:href="#ah"/><use transform="matrix(0.14814814814814803,0,0,0.14814814814814803,32.44444444444442,0)" xlink:href="#K"/><use transform="matrix(0.14814814814814803,0,0,0.14814814814814803,44.148148148148124,0)" xlink:href="#M"/><use transform="matrix(0.14814814814814803,0,0,0.14814814814814803,73.77777777777771,0)" xlink:href="#P"/><use transform="matrix(0.14814814814814803,0,0,0.14814814814814803,103.40740740740732,0)" xlink:href="#M"/><use transform="matrix(0.14814814814814803,0,0,0.14814814814814803,133.03703703703692,0)" xlink:href="#J"/><use transform="matrix(0.14814814814814803,0,0,0.14814814814814803,159.70370370370358,0)" xlink:href="#K"/><use transform="matrix(0.14814814814814803,0,0,0.14814814814814803,171.40740740740728,0)" xlink:href="#I"/><use transform="matrix(0.14814814814814803,0,0,0.14814814814814803,201.0370370370369,0)" xlink:href="#E"/><use transform="matrix(0.14814814814814803,0,0,0.14814814814814803,218.66666666666652,0)" xlink:href="#P"/></g><g id="x"><use transform="matrix(0.14814814814814803,0,0,0.14814814814814803,0,0)" xlink:href="#Q"/><use transform="matrix(0.14814814814814803,0,0,0.14814814814814803,44.29629629629626,0)" xlink:href="#P"/><use transform="matrix(0.14814814814814803,0,0,0.14814814814814803,73.92592592592587,0)" xlink:href="#M"/><use transform="matrix(0.14814814814814803,0,0,0.14814814814814803,103.55555555555547,0)" xlink:href="#I"/><use transform="matrix(0.14814814814814803,0,0,0.14814814814814803,133.18518518518508,0)" xlink:href="#R"/><use transform="matrix(0.14814814814814803,0,0,0.14814814814814803,144.88888888888877,0)" xlink:href="#F"/></g><path fill="#333" d="M233-177c-1 41-23 64-60 70L243 0h-38l-65-103H63V0H30v-248c88 3 205-21 203 71zM63-129c60-2 137 13 137-47 0-61-80-42-137-45v92" id="ai"/><g id="y"><use transform="matrix(0.14814814814814803,0,0,0.14814814814814803,0,0)" xlink:href="#ai"/><use transform="matrix(0.14814814814814803,0,0,0.14814814814814803,38.37037037037034,0)" xlink:href="#I"/><use transform="matrix(0.14814814814814803,0,0,0.14814814814814803,67.99999999999994,0)" xlink:href="#J"/><use transform="matrix(0.14814814814814803,0,0,0.14814814814814803,94.66666666666659,0)" xlink:href="#W"/><use transform="matrix(0.14814814814814803,0,0,0.14814814814814803,124.29629629629619,0)" xlink:href="#E"/><use transform="matrix(0.14814814814814803,0,0,0.14814814814814803,141.9259259259258,0)" xlink:href="#G"/><use transform="matrix(0.14814814814814803,0,0,0.14814814814814803,168.59259259259247,0)" xlink:href="#F"/><use transform="matrix(0.14814814814814803,0,0,0.14814814814814803,198.22222222222206,0)" xlink:href="#G"/></g><path fill="#333" d="M197 0v-115H63V0H30v-248h33v105h134v-105h34V0h-34" id="aj"/><g id="z"><use transform="matrix(0.14814814814814803,0,0,0.14814814814814803,0,0)" xlink:href="#aj"/><use transform="matrix(0.14814814814814803,0,0,0.14814814814814803,38.37037037037034,0)" xlink:href="#W"/><use transform="matrix(0.14814814814814803,0,0,0.14814814814814803,67.99999999999994,0)" xlink:href="#O"/><use transform="matrix(0.14814814814814803,0,0,0.14814814814814803,112.2962962962962,0)" xlink:href="#P"/><use transform="matrix(0.14814814814814803,0,0,0.14814814814814803,141.9259259259258,0)" xlink:href="#M"/><use transform="matrix(0.14814814814814803,0,0,0.14814814814814803,171.55555555555543,0)" xlink:href="#F"/><use transform="matrix(0.14814814814814803,0,0,0.14814814814814803,201.18518518518505,0)" xlink:href="#G"/></g><g id="A"><use transform="matrix(0.14814814814814803,0,0,0.14814814814814803,0,0)" xlink:href="#ae"/><use transform="matrix(0.14814814814814803,0,0,0.14814814814814803,35.55555555555553,0)" xlink:href="#K"/><use transform="matrix(0.14814814814814803,0,0,0.14814814814814803,47.259259259259224,0)" xlink:href="#G"/><use transform="matrix(0.14814814814814803,0,0,0.14814814814814803,73.92592592592587,0)" xlink:href="#V"/><use transform="matrix(0.14814814814814803,0,0,0.14814814814814803,88.74074074074066,0)" xlink:href="#I"/><use transform="matrix(0.14814814814814803,0,0,0.14814814814814803,118.37037037037028,0)" xlink:href="#O"/><use transform="matrix(0.14814814814814803,0,0,0.14814814814814803,162.66666666666654,0)" xlink:href="#P"/><use transform="matrix(0.14814814814814803,0,0,0.14814814814814803,192.29629629629613,0)" xlink:href="#G"/></g><path fill="#333" d="M101-234c-31-9-42 10-38 44h38v23H63V0H32v-167H5v-23h27c-7-52 17-82 69-68v24" id="ak"/><g id="B"><use transform="matrix(0.14814814814814803,0,0,0.14814814814814803,0,0)" xlink:href="#Y"/><use transform="matrix(0.14814814814814803,0,0,0.14814814814814803,14.814814814814802,0)" xlink:href="#M"/><use transform="matrix(0.14814814814814803,0,0,0.14814814814814803,44.44444444444441,0)" xlink:href="#ak"/><use transform="matrix(0.14814814814814803,0,0,0.14814814814814803,59.25925925925921,0)" xlink:href="#F"/><use transform="matrix(0.14814814814814803,0,0,0.14814814814814803,88.88888888888881,0)" xlink:href="#E"/><use transform="matrix(0.14814814814814803,0,0,0.14814814814814803,106.51851851851843,0)" xlink:href="#O"/><use transform="matrix(0.14814814814814803,0,0,0.14814814814814803,150.8148148148147,0)" xlink:href="#P"/><use transform="matrix(0.14814814814814803,0,0,0.14814814814814803,180.4444444444443,0)" xlink:href="#J"/><use transform="matrix(0.14814814814814803,0,0,0.14814814814814803,207.11111111111094,0)" xlink:href="#K"/><use transform="matrix(0.14814814814814803,0,0,0.14814814814814803,218.81481481481464,0)" xlink:href="#L"/><use transform="matrix(0.14814814814814803,0,0,0.14814814814814803,248.44444444444426,0)" xlink:href="#M"/></g><g id="C"><use transform="matrix(0.1481481481481479,0,0,0.1481481481481479,0,0)" xlink:href="#Q"/><use transform="matrix(0.1481481481481479,0,0,0.1481481481481479,44.29629629629622,0)" xlink:href="#P"/><use transform="matrix(0.1481481481481479,0,0,0.1481481481481479,73.9259259259258,0)" xlink:href="#E"/><use transform="matrix(0.1481481481481479,0,0,0.1481481481481479,91.5555555555554,0)" xlink:href="#aa"/><use transform="matrix(0.1481481481481479,0,0,0.1481481481481479,121.18518518518498,0)" xlink:href="#I"/><use transform="matrix(0.1481481481481479,0,0,0.1481481481481479,150.81481481481455,0)" xlink:href="#M"/></g></defs></g></svg>