<?xml version="1.0" encoding="utf-8"?>
<!-- Generator: Adobe Illustrator 17.0.0, SVG Export Plug-In . SVG Version: 6.00 Build 0)  -->
<!DOCTYPE svg PUBLIC "-//W3C//DTD SVG 1.1//EN" "http://www.w3.org/Graphics/SVG/1.1/DTD/svg11.dtd">
<svg version="1.1" xmlns="http://www.w3.org/2000/svg" xmlns:xlink="http://www.w3.org/1999/xlink" x="0px" y="0px" width="160px"
	 height="160px" viewBox="0 0 160 160" enable-background="new 0 0 160 160" xml:space="preserve">

<g id="report_x5F_icon.svg">
	<g>
		<path fill="#333333" d="M76.724,75.012C64.95,76.41,55.616,85.745,54.218,97.518h22.506V75.012z M83.163,75.056v25.834
			c0,1.694-1.373,3.067-3.067,3.067H54.262c1.653,12.633,12.445,22.388,25.528,22.388c14.226,0,25.761-11.533,25.761-25.761
			C105.551,87.504,95.794,76.709,83.163,75.056z"/>
		<path fill="#333333" d="M127.537,47.625L101.535,21.6c-3.098-3.097-9.177-5.6-13.614-5.6H34.347C29.91,16,26,19.415,26,23.852
			v112.506c0,4.437,3.91,8.643,8.347,8.643h91.076c4.437,0,7.577-4.206,7.577-8.643V61.354
			C133,56.917,130.635,50.722,127.537,47.625z M90,27.2c2,0.502,3.146,1.256,3.731,1.842l26.351,26.364
			c0.586,0.586,1.49,2.595,1.992,3.595H90V27.2z M122,134H37V27h42v10H45v10h34v7H45v10h35.184c0.941,3,4.045,6,7.737,6H122V134z"/>
	</g>
</g>

</svg>
